<svg width="17" height="15" viewBox="0 0 17 15" fill="none" xmlns="http://www.w3.org/2000/svg">
<path d="M13.5723 7.7249C15.0784 7.53599 16.25 6.21555 16.25 4.61661C16.25 2.88848 14.8824 1.48277 13.2017 1.48277C11.675 1.48277 10.4109 2.64379 10.1911 4.15129L3.33501 3.30624L2.83435 0.30304H0.300003V1.43759H1.90381L2.19164 3.16532L2.16843 3.16249L3.4872 10.6508H3.51497L3.67552 11.3255C2.89419 11.4595 2.29613 12.1577 2.29613 12.9986C2.29613 13.9351 3.03713 14.697 3.94788 14.697C4.85862 14.697 5.59964 13.9351 5.59964 12.9986C5.59964 12.8007 5.56488 12.6116 5.50421 12.4351H10.5451C10.4844 12.6118 10.4494 12.801 10.4494 12.9986C10.4494 13.9351 11.1904 14.697 12.1014 14.697C13.012 14.697 13.753 13.9351 13.753 12.9986C13.753 12.0622 13.012 11.3005 12.1014 11.3005H4.80527L4.65078 10.6508H12.9188L13.5723 7.7249ZM12.1019 12.4351C12.4039 12.4351 12.65 12.6879 12.65 12.9986C12.65 13.3096 12.4039 13.5624 12.1019 13.5624C11.7993 13.5624 11.5534 13.3095 11.5534 12.9986C11.5534 12.6877 11.7995 12.4351 12.1019 12.4351ZM13.2018 2.61754C14.274 2.61754 15.1466 3.5144 15.1466 4.61679C15.1466 5.71925 14.274 6.61611 13.2018 6.61611C12.1295 6.61611 11.2573 5.71925 11.2573 4.61679C11.2573 3.5144 12.1295 2.61754 13.2018 2.61754ZM3.94826 13.5624C3.64593 13.5624 3.40002 13.3095 3.40002 12.9986C3.40002 12.6877 3.64593 12.4351 3.94826 12.4351C4.2506 12.4351 4.4965 12.6879 4.4965 12.9986C4.4965 13.3096 4.2506 13.5624 3.94826 13.5624ZM12.04 9.51602H4.40894V9.51625L3.6797 5.37454L3.52944 4.47291L10.2285 5.29872C10.4785 6.45127 11.3471 7.36361 12.4564 7.65178L12.04 9.51602Z" fill="#ffffff"/>
<path d="M13.5 3.18182H12.95V6.06061H13.5V3.18182Z" fill="#ffffff"/>
<path d="M14.6 4.9091V4.33334H11.85V4.9091H14.6Z" fill="#ffffff"/>
</svg>
