<svg width="16" height="16" viewBox="0 0 16 16" fill="none" xmlns="http://www.w3.org/2000/svg">
<path fill-rule="evenodd" clip-rule="evenodd" d="M9 13.917C11.5125 13.4955 13.4955 11.5125 13.917 9H11V7H13.917C13.4955 4.48749 11.5125 2.50447 9 2.08296V5H7V2.08296C4.4875 2.50447 2.50448 4.48749 2.08296 7H5V9H2.08296C2.50448 11.5125 4.4875 13.4955 7 13.917V11H9V13.917ZM8 16C3.58172 16 0 12.4183 0 8C0 3.58172 3.58172 0 8 0C12.4183 0 16 3.58172 16 8C16 12.4183 12.4183 16 8 16Z" fill="#00BDBD"/>
</svg>
