<svg width="27" height="35" viewBox="0 0 27 35" fill="none" xmlns="http://www.w3.org/2000/svg">
<path d="M14.8297 32.982L15.5597 33.6654L15.5628 33.662L14.8297 32.982ZM22.2655 5.07101L21.5584 5.77812L22.2655 5.07101ZM5.33788 5.07101L4.63077 4.3639V4.3639L5.33788 5.07101ZM1.83205 13.5348L2.83205 13.5368V13.5348H1.83205ZM12.7737 32.982L12.0422 33.6638L12.0437 33.6654L12.7737 32.982ZM13.2415 33.3115L12.8436 34.229L12.8436 34.229L13.2415 33.3115ZM14.3619 33.3115L14.7598 34.229L14.7598 34.229L14.3619 33.3115ZM24.7713 13.5348C24.7713 16.7391 22.9095 20.6087 20.5488 24.1803C18.2172 27.7079 15.523 30.7641 14.0965 32.3019L15.5628 33.662C17.0231 32.0877 19.7997 28.9408 22.2173 25.2831C24.6057 21.6695 26.7713 17.3715 26.7713 13.5348H24.7713ZM21.5584 5.77812C23.6156 7.83533 24.7713 10.6255 24.7713 13.5348H26.7713C26.7713 10.0951 25.4049 6.79618 22.9726 4.3639L21.5584 5.77812ZM13.8017 2.56519C16.711 2.56519 19.5012 3.72091 21.5584 5.77812L22.9726 4.3639C20.5403 1.93163 17.2415 0.565186 13.8017 0.565186V2.56519ZM6.04498 5.77812C8.10219 3.72091 10.8924 2.56519 13.8017 2.56519V0.565186C10.3619 0.565186 7.06305 1.93163 4.63077 4.3639L6.04498 5.77812ZM2.83205 13.5348C2.83205 10.6255 3.98778 7.83533 6.04498 5.77812L4.63077 4.3639C2.19849 6.79618 0.83205 10.0951 0.83205 13.5348H2.83205ZM13.5052 32.3001C12.0721 30.7627 9.37489 27.714 7.04377 24.1905C4.68383 20.6235 2.82564 16.7544 2.83205 13.5368L0.832052 13.5328C0.824379 17.3844 2.98657 21.6828 5.37577 25.2941C7.79378 28.9488 10.5744 32.0891 12.0422 33.6638L13.5052 32.3001ZM13.6393 32.394C13.588 32.3718 13.5419 32.3393 13.5037 32.2985L12.0437 33.6654C12.269 33.906 12.5412 34.0978 12.8436 34.229L13.6393 32.394ZM13.8017 32.4277C13.7458 32.4277 13.6905 32.4163 13.6393 32.394L12.8436 34.229C13.146 34.3601 13.4721 34.4277 13.8017 34.4277V32.4277ZM13.9641 32.394C13.9128 32.4163 13.8576 32.4277 13.8017 32.4277V34.4277C14.1313 34.4277 14.4574 34.3601 14.7598 34.229L13.9641 32.394ZM14.0997 32.2985C14.0615 32.3393 14.0153 32.3718 13.9641 32.394L14.7598 34.229C15.0622 34.0978 15.3344 33.906 15.5597 33.6654L14.0997 32.2985ZM13.8013 18.5475C16.3757 18.5475 18.4626 16.4606 18.4626 13.8862H16.4626C16.4626 15.356 15.2711 16.5475 13.8013 16.5475V18.5475ZM9.13999 13.8862C9.13999 16.4606 11.2269 18.5475 13.8013 18.5475V16.5475C12.3315 16.5475 11.14 15.356 11.14 13.8862H9.13999ZM13.8013 9.22494C11.2269 9.22494 9.13999 11.3119 9.13999 13.8862H11.14C11.14 12.4164 12.3315 11.2249 13.8013 11.2249V9.22494ZM18.4626 13.8862C18.4626 11.3119 16.3757 9.22494 13.8013 9.22494V11.2249C15.2711 11.2249 16.4626 12.4164 16.4626 13.8862H18.4626Z" fill="white"/>
</svg>
