<svg width="14" height="22" viewBox="0 0 14 22" fill="none" xmlns="http://www.w3.org/2000/svg">
<path d="M9 22C7.67392 22 6.40215 21.4732 5.46447 20.5355C4.52678 19.5979 4 18.3261 4 17V8C4 7.20435 4.31607 6.44129 4.87868 5.87868C5.44129 5.31607 6.20435 5 7 5C7.79565 5 8.55871 5.31607 9.12132 5.87868C9.68393 6.44129 10 7.20435 10 8V17H8V8C8 7.73478 7.89464 7.48043 7.70711 7.29289C7.51957 7.10536 7.26522 7 7 7C6.73478 7 6.48043 7.10536 6.29289 7.29289C6.10536 7.48043 6 7.73478 6 8V17C6 17.7956 6.31607 18.5587 6.87868 19.1213C7.44129 19.6839 8.20435 20 9 20C9.79565 20 10.5587 19.6839 11.1213 19.1213C11.6839 18.5587 12 17.7956 12 17V7C12 5.67392 11.4732 4.40215 10.5355 3.46447C9.59785 2.52678 8.32608 2 7 2C5.67392 2 4.40215 2.52678 3.46447 3.46447C2.52678 4.40215 2 5.67392 2 7V17H0V7C2.76642e-08 5.14348 0.737498 3.36301 2.05025 2.05025C3.36301 0.737498 5.14348 0 7 0C8.85652 0 10.637 0.737498 11.9497 2.05025C13.2625 3.36301 14 5.14348 14 7V17C14 17.6566 13.8707 18.3068 13.6194 18.9134C13.3681 19.52 12.9998 20.0712 12.5355 20.5355C12.0712 20.9998 11.52 21.3681 10.9134 21.6194C10.3068 21.8707 9.65661 22 9 22Z" fill="#2363D1"/>
</svg>
