<svg width="35" height="18" viewBox="0 0 35 18" fill="none" xmlns="http://www.w3.org/2000/svg">
<rect x="5" width="19" height="14" fill="#9D9D9D"/>
<circle cx="12.5" cy="15.5" r="2.5" fill="#9D9D9D"/>
<circle cx="29.5" cy="15.5" r="2.5" fill="#9D9D9D"/>
<path d="M25 4H29.5L35 9V14H25V4Z" fill="#9D9D9D"/>
<rect x="16" y="15" width="10" height="1" fill="#9D9D9D"/>
<path d="M16.4596 7.45962C16.7135 7.20578 16.7135 6.79422 16.4596 6.54038L12.323 2.40381C12.0692 2.14997 11.6576 2.14997 11.4038 2.40381C11.15 2.65765 11.15 3.0692 11.4038 3.32304L15.0808 7L11.4038 10.677C11.15 10.9308 11.15 11.3424 11.4038 11.5962C11.6576 11.85 12.0692 11.85 12.323 11.5962L16.4596 7.45962ZM0 7.65H16V6.35H0V7.65Z" fill="#DBDBDB"/>
</svg>
