<svg width="390" height="213" viewBox="0 0 390 213" fill="none" xmlns="http://www.w3.org/2000/svg"><link xmlns="" type="text/css" id="dark-mode" rel="stylesheet" href=""/><style xmlns="" type="text/css" id="dark-mode-custom-style"/>
<path d="M89.9295 75.0144L62.1367 59.6205L89.9295 44.2266L117.722 59.6205L89.9295 75.0144ZM64.6536 59.6205L89.9295 73.5777L115.205 59.6205L89.9295 45.6633L64.6536 59.6205Z" fill="#66D8D8"/>
<path d="M89.9303 89.6895L62.084 74.2956L69.6882 70.0879L70.3308 71.1655L64.6544 74.2956L89.9303 88.2527L115.153 74.2956L109.476 71.1655L110.119 70.0879L117.723 74.2956L89.9303 89.6895Z" fill="#66D8D8"/>
<path d="M89.9303 82.3516L62.084 66.9577L69.6882 62.75L70.3308 63.8276L64.6544 66.9577L89.9303 80.9148L115.153 66.9577L109.476 63.8276L110.119 62.75L117.723 66.9577L89.9303 82.3516Z" fill="#66D8D8"/>
<path d="M-9.56695 34.6303L-44 15.5932L-16.2072 0.199219L18.2258 19.2364L-9.56695 34.6303ZM-41.4831 15.5932L-9.62049 33.2449L15.6554 19.2877L-16.2072 1.63598L-41.4831 15.5932Z" fill="#99E5E5"/>
<path d="M36.8612 60.3386L9.06836 44.9447L36.8612 29.5508L64.6539 44.9447L36.8612 60.3386ZM11.5852 44.9447L36.8612 58.9019L62.1371 44.9447L36.8612 30.9876L11.5852 44.9447Z" fill="#33CBCB"/>
<path d="M-9.56695 93.3335L-44 74.2963L-16.2072 58.9023L18.2258 77.9395L-9.56695 93.3335ZM-41.4831 74.2963L-9.62049 91.948L15.6554 77.9908L-16.2072 60.3391L-41.4831 74.2963Z" fill="#00BEBE"/>
<path d="M196.015 89.6902L168.223 74.2963L196.015 58.9023L223.808 74.2963L196.015 89.6902ZM170.793 74.2963L196.069 88.2535L221.345 74.2963L196.069 60.3391L170.793 74.2963Z" fill="#99E5E5"/>
<path d="M315.378 97.0274L315.057 96.8735L274.305 74.3471L302.097 58.9531L302.419 59.1071L343.171 81.6335L315.378 97.0274ZM276.875 74.2957L315.378 95.5907L340.654 81.6335L302.151 60.3386L276.875 74.2957Z" fill="#00BEBE"/>
<path d="M89.9295 148.391L62.1367 132.997L89.9295 117.604L117.722 132.997L89.9295 148.391ZM64.6536 132.997L89.9295 146.955L115.205 132.997L89.9295 119.04L64.6536 132.997Z" fill="#00BEBE"/>
<path d="M156.226 126.379L155.904 126.225L115.152 103.699L142.945 88.3047L143.266 88.4586L184.018 110.985L156.226 126.379ZM117.723 103.647L156.226 124.942L181.502 110.985L142.999 89.6901L117.723 103.647Z" fill="#00BEBE"/>
<path d="M36.8612 119.04L9.06836 103.646L36.8612 88.252L64.6539 103.646L36.8612 119.04ZM11.5852 103.646L36.8612 117.603L62.1371 103.646L36.8612 89.6887L11.5852 103.646Z" fill="#99E5E5"/>
<path d="M-16.2072 148.391L-44 132.997L-16.2072 117.604L11.5855 132.997L-16.2072 148.391ZM-41.4831 132.997L-16.2072 146.955L9.06866 132.997L-16.2072 119.04L-41.4831 132.997Z" fill="#00BEBE"/>
<path d="M202.656 152.035L168.223 132.997L196.015 117.604L230.448 136.641L202.656 152.035ZM170.793 132.997L202.656 150.649L227.932 136.692L196.069 119.04L170.793 132.997Z" fill="#33CBCB"/>
<path d="M308.738 152.035L274.305 132.997L302.097 117.604L336.53 136.641L308.738 152.035ZM276.875 132.997L308.738 150.649L334.014 136.692L302.151 119.04L276.875 132.997Z" fill="#00BEBE"/>
<path d="M249.082 177.743L221.289 162.349L249.082 146.955L276.875 162.349L249.082 177.743ZM223.806 162.349L249.082 176.306L274.358 162.349L249.082 148.392L223.806 162.349Z" fill="#66D8D8"/>
<path d="M361.808 181.386L327.375 162.349L355.168 146.955L389.601 165.992L361.808 181.386ZM329.945 162.349L361.808 180.001L387.084 166.044L355.221 148.392L329.945 162.349Z" fill="#33CBCB"/>
<path d="M96.5171 210.736L62.084 191.699L89.8768 176.305L124.31 195.342L96.5171 210.736ZM64.6544 191.699L96.5171 209.35L121.793 195.393L89.9303 177.741L64.6544 191.699Z" fill="#00BEBE"/>
<path d="M-2.92666 214.43L-3.24798 214.276L-44 191.699L-16.2072 176.305L-15.8859 176.459L24.8661 198.985L-2.92666 214.43ZM-41.4831 191.699L-2.98023 212.994L22.2957 199.036L-16.2072 177.741L-41.4831 191.699Z" fill="#00BEBE"/>
<path d="M315.378 214.432L315.057 214.278L274.305 191.751L302.097 176.357L302.419 176.511L343.171 199.038L315.378 214.432ZM276.875 191.7L315.378 212.995L340.654 199.038L302.151 177.743L276.875 191.7Z" fill="#99E5E5"/>
<path d="M36.8612 170.405L9.06836 155.011L36.8612 139.617L64.6539 155.011L36.8612 170.405ZM11.5852 155.011L36.8612 168.968L62.1371 155.011L36.8612 141.054L11.5852 155.011Z" fill="#99E5E5"/>
<path d="M36.8612 177.742L9.06836 162.348L16.619 158.141L17.2616 159.218L11.5852 162.348L36.8612 176.305L62.0835 162.348L56.4071 159.218L57.0497 158.141L64.6539 162.348L36.8612 177.742Z" fill="#99E5E5"/>
<path d="M255.722 115.347L221.289 96.31L249.082 80.916L283.515 99.9532L255.722 115.347ZM223.806 96.31L255.669 113.962L280.944 100.005L249.082 82.3528L223.806 96.31Z" fill="#99E5E5"/>
<path d="M255.722 122.684L221.289 103.647L228.84 99.4395L229.482 100.517L223.806 103.647L255.722 121.299L280.944 107.29L275.268 104.16L275.911 103.134L283.515 107.29L255.722 122.684Z" fill="#99E5E5"/>
<path d="M209.296 199.756L208.975 199.602L168.223 177.076L196.015 161.682L196.337 161.836L237.089 184.362L209.296 199.756ZM170.793 177.024L209.296 198.319L234.572 184.362L196.069 163.067L170.793 177.024Z" fill="#66D8D8"/>
<path d="M209.296 214.432L208.975 214.226L168.223 191.7L175.827 187.492L176.469 188.57L170.793 191.7L209.296 212.995L234.518 199.038L228.842 195.908L229.485 194.83L237.089 199.038L209.296 214.432Z" fill="#66D8D8"/>
<path d="M209.296 207.094L208.975 206.888L168.223 184.362L175.827 180.154L176.469 181.232L170.793 184.362L209.296 205.657L234.518 191.7L228.842 188.57L229.485 187.492L237.089 191.7L209.296 207.094Z" fill="#66D8D8"/>
<path d="M149.585 159.372L115.152 140.335L142.945 124.941L177.378 143.979L149.585 159.372ZM117.723 140.335L149.585 157.987L174.861 144.03L142.945 126.378L117.723 140.335Z" fill="#33CBCB"/>
<path d="M149.585 166.71L115.152 147.673L122.757 143.465L123.399 144.542L117.723 147.673L149.585 165.324L174.861 151.316L169.185 148.186L169.828 147.159L177.378 151.316L149.585 166.71Z" fill="#33CBCB"/>
<path d="M149.585 174.048L115.152 155.01L122.757 150.803L123.399 151.88L117.723 155.01L149.585 172.662L174.861 158.654L169.185 155.524L169.828 154.497L177.378 158.654L149.585 174.048Z" fill="#33CBCB"/>
<path d="M149.585 181.385L115.152 162.348L122.757 158.141L123.399 159.218L117.723 162.348L149.585 180L174.861 165.992L169.185 162.861L169.828 161.835L177.378 165.992L149.585 181.385Z" fill="#33CBCB"/>
</svg>