<svg width="36" height="36" viewBox="0 0 36 36" fill="red" xmlns="http://www.w3.org/2000/svg">
  <path d="M36 18.8216C36 19.3719 35.5538 19.8181 35.0035 19.8181L0.996508 19.8181C0.446154 19.8181 -7.26836e-07 19.3719 -7.50893e-07 18.8216L-8.32377e-07 16.9574C-8.56433e-07 16.4071 0.44615 15.9609 0.996504 15.9609L35.0035 15.9609C35.5538 15.9609 36 16.4071 36 16.9574L36 18.8216Z"/>
  <path d="M17.178 36C16.6277 36 16.1815 35.5538 16.1815 35.0035L16.1815 0.996509C16.1815 0.446155 16.6277 -7.26819e-07 17.178 -7.50875e-07L19.0422 -8.32359e-07C19.5925 -8.56416e-07 20.0387 0.446151 20.0387 0.996505L20.0387 35.0035C20.0387 35.5538 19.5925 36 19.0422 36L17.178 36Z"/>
</svg>
