<svg width="225" height="49" viewBox="0 0 225 49" fill="none" xmlns="http://www.w3.org/2000/svg">
<path d="M41.7006 27.1684L37.0367 24.4757L47.9855 18.1543L35.4184 10.8989L30.7528 13.5927V0.949219L18.1862 8.20524V13.5925L7.23545 7.27067L7.23585 21.7813L11.9027 24.4757L0.953125 30.7976L13.5202 38.0528L18.1862 35.359V48.002L30.7528 40.7464V35.359L41.7012 41.6798L41.7006 27.1684ZM35.4184 12.7682L44.7477 18.1543L35.4181 23.541L30.7536 20.8485L30.7532 15.4614L35.4184 12.7682ZM19.8049 9.13959L29.1341 3.75268V19.9132L23.6587 16.7524V24.0085L19.8049 26.2338V9.13959ZM8.85414 10.0741L18.1844 15.461L18.1854 20.8463L13.5198 23.5402L8.85454 20.8471L8.85414 10.0741ZM4.19051 30.7976L18.1858 22.717L18.1862 29.0393L24.4697 25.4115L28.3235 27.6355L13.5202 36.1835L4.19051 30.7976ZM29.1341 39.8115L19.8049 45.1978V34.4246L24.4687 31.7317L29.1341 34.4246V39.8115ZM40.0825 38.8763L26.088 30.7968L31.5625 27.6361L31.5613 27.6353L31.5621 27.6347L25.2782 24.0071L25.2774 19.5559L40.0821 28.1035L40.0825 38.8763Z" fill="#00BDBD"/>
<path d="M71.1515 16.1797H61.6988L59.3507 30.3462H57.6055V32.728H73.0371V30.3462H71.1515V16.1797ZM68.6207 30.3462H62.0022L63.7041 18.5616H68.6207V30.3462Z" fill="black"/>
<path d="M80.9898 16.1806H78.459V33.0683L90.0283 21.7422V32.7289H92.5589V15.8906L80.9898 27.2167V16.1806Z" fill="black"/>
<path d="M174.035 16.1806H171.504V33.0683L183.073 21.7422V32.7289H185.604V15.8906L174.035 27.2167V16.1806Z" fill="black"/>
<path d="M216.899 24.6458L208.793 15.8906V32.7291H211.322V22.1545L216.895 28.1183L222.471 22.1545V32.7291H225V15.8906L216.899 24.6458Z" fill="black"/>
<path d="M116.402 18.5616H121.412V32.728H123.943V18.5616H128.953V16.1797H116.402V18.5616Z" fill="black"/>
<path d="M141.024 15.8828C136.283 15.8828 132.439 19.7263 132.439 24.4672C132.439 29.2081 136.283 33.0513 141.024 33.0513C145.765 33.0513 149.608 29.2081 149.608 24.4672C149.608 19.7263 145.765 15.8828 141.024 15.8828ZM141.024 30.7191C137.571 30.7191 134.772 27.92 134.772 24.4672C134.772 21.0141 137.571 18.2152 141.024 18.2152C144.477 18.2152 147.276 21.0141 147.276 24.4672C147.276 27.92 144.477 30.7191 141.024 30.7191Z" fill="black"/>
<path d="M106.998 30.7191C103.545 30.7191 100.746 27.92 100.746 24.4672C100.746 21.0141 103.545 18.2152 106.998 18.2152C108.602 18.2152 110.059 18.8239 111.166 19.8162L112.721 18.0812C111.201 16.7187 109.2 15.8828 106.998 15.8828C102.257 15.8828 98.4141 19.7263 98.4141 24.4672C98.4141 29.2081 102.257 33.0513 106.998 33.0513C109.2 33.0513 111.201 32.2157 112.721 30.853L111.166 29.1181C110.059 30.1102 108.602 30.7191 106.998 30.7191Z" fill="black"/>
<path d="M197.739 24.9237L193.547 16.1797H190.471L196.454 27.7224L194.217 32.7308H196.848L204.314 16.1797H201.684L197.739 24.9237Z" fill="black"/>
<path d="M161.133 16.1797H158.032H155.502V32.728H158.032V27.0063H161.133C164.122 27.0063 166.546 24.5827 166.546 21.593C166.546 18.6033 164.122 16.1797 161.133 16.1797ZM161.133 24.6743H158.032V18.5119H161.133C162.779 18.5119 164.114 19.8913 164.114 21.593C164.114 23.2947 162.779 24.6743 161.133 24.6743Z" fill="black"/>
</svg>
