<svg width="25" height="25" viewBox="0 0 25 25" fill="none" xmlns="http://www.w3.org/2000/svg">
<g clip-path="url(#clip0_1250_41161)">
<path d="M12.5 24.9653C19.4036 24.9653 25 19.3766 25 12.4827C25 5.58868 19.4036 0 12.5 0C5.59644 0 0 5.58868 0 12.4827C0 19.3766 5.59644 24.9653 12.5 24.9653Z" fill="white"/>
<path d="M12.4829 13.0838C14.6596 13.0838 16.4237 11.3193 16.4237 9.14229C16.4237 6.96529 14.6595 5.20117 12.4829 5.20117C10.3055 5.20117 8.5407 6.96529 8.5407 9.14229C8.54067 11.3193 10.3055 13.0838 12.4829 13.0838ZM12.4829 7.20327C13.5536 7.20327 14.4215 8.07127 14.4215 9.14226C14.4215 10.2133 13.5536 11.0813 12.4829 11.0813C11.4112 11.0813 10.5436 10.2133 10.5436 9.14226C10.5436 8.07127 11.4112 7.20327 12.4829 7.20327ZM17.0255 13.5647C16.8035 13.1176 16.1872 12.7458 15.3678 13.391C14.2603 14.2632 12.4829 14.2632 12.4829 14.2632C12.4829 14.2632 10.7043 14.2632 9.59685 13.391C8.77788 12.7458 8.16198 13.1176 7.93957 13.5647C7.55101 14.3438 7.98937 14.7205 8.97866 15.3555C9.82346 15.898 10.9846 16.1007 11.734 16.1763L11.1081 16.8022C10.2269 17.683 9.37636 18.5343 8.7859 19.1248C8.43269 19.4776 8.43269 20.0498 8.7859 20.4026L8.89195 20.5095C9.24516 20.8623 9.817 20.8623 10.1702 20.5095L12.4924 18.1868C13.3745 19.0681 14.225 19.919 14.8154 20.5095C15.1686 20.8623 15.7404 20.8623 16.0936 20.5095L16.1997 20.4026C16.5529 20.0494 16.5529 19.4776 16.1997 19.1244L13.8774 16.8022L13.2501 16.1745C14.0002 16.0969 15.1484 15.8935 15.9864 15.3555C16.9757 14.7205 17.4133 14.3437 17.0255 13.5647Z" fill="#414141"/>
</g>
<defs>
<clipPath id="clip0_1250_41161">
<rect width="25" height="25" fill="white"/>
</clipPath>
</defs>
</svg>
