<svg width="570" height="131" viewBox="0 0 570 131" fill="none" xmlns="http://www.w3.org/2000/svg">
<path d="M406.921 101.488L444.623 80.6054L406.921 59.7227L369.218 80.6054L406.921 101.488ZM441.209 80.6054L406.921 99.5392L372.632 80.6054L406.921 61.6717L441.209 80.6054Z" fill="#D3D7DB"/>
<path d="M406.92 121.399L444.695 100.517L434.38 94.8086L433.508 96.2704L441.208 100.517L406.92 119.45L372.704 100.517L380.405 96.2704L379.533 94.8086L369.218 100.517L406.92 121.399Z" fill="#D3D7DB"/>
<path d="M406.92 111.442L444.695 90.5595L434.38 84.8516L433.508 86.3134L441.208 90.5595L406.92 109.493L372.704 90.5595L380.405 86.3134L379.533 84.8516L369.218 90.5595L406.92 111.442Z" fill="#D3D7DB"/>
<path d="M541.895 46.7078L588.605 20.8828L550.903 0L504.192 25.825L541.895 46.7078ZM585.191 20.8828L541.968 44.8284L507.679 25.8947L550.903 1.94905L585.191 20.8828Z" fill="#D3D7DB"/>
<path d="M478.913 81.582L516.615 60.6992L478.913 39.8164L441.21 60.6992L478.913 81.582ZM513.201 60.6992L478.913 79.6329L444.624 60.6992L478.913 41.7655L513.201 60.6992Z" fill="#D3D7DB"/>
<path d="M541.895 126.341L588.605 100.516L550.903 79.6328L504.192 105.458L541.895 126.341ZM585.191 100.516L541.968 124.461L507.679 105.527L550.903 81.5819L585.191 100.516Z" fill="#D3D7DB"/>
<path d="M316.989 171.17L317.424 170.961L372.707 140.402L335.005 119.52L334.569 119.728L279.286 150.287L316.989 171.17ZM369.22 140.333L316.989 169.221L282.7 150.287L334.932 121.399L369.22 140.333Z" fill="#D3D7DB"/>
<path d="M478.913 161.215L516.615 140.332L478.913 119.449L441.21 140.332L478.913 161.215ZM513.201 140.332L478.913 159.266L444.624 140.332L478.913 121.398L513.201 140.332Z" fill="#D3D7DB"/>
<path d="M182.014 156.204L228.725 130.379L191.022 109.496L144.312 135.321L182.014 156.204ZM225.31 130.379L182.087 154.324L147.798 135.391L191.022 111.445L225.31 130.379Z" fill="#D3D7DB"/>
</svg>
