<svg width="24" height="25" viewBox="0 0 24 25" fill="none" xmlns="http://www.w3.org/2000/svg">
  <g clip-path="url(#clip0)">
    <path d="M12 24.1292L11.33 23.5292C11 23.1992 3 15.9592 3 9.19922C3 6.81227 3.94821 4.52309 5.63604 2.83526C7.32387 1.14743 9.61305 0.199219 12 0.199219C14.3869 0.199219 16.6761 1.14743 18.364 2.83526C20.0518 4.52309 21 6.81227 21 9.19922C21 15.9692 13 23.1992 12.68 23.5392L12 24.1292Z" fill="#D9D9DE" />
    <path d="M12 12.1992C13.6569 12.1992 15 10.8561 15 9.19922C15 7.54236 13.6569 6.19922 12 6.19922C10.3431 6.19922 9 7.54236 9 9.19922C9 10.8561 10.3431 12.1992 12 12.1992Z" fill="white" />
  </g>
  <defs>
    <clipPath id="clip0">
      <rect y="0.199219" width="24" height="24" fill="white" />
    </clipPath>
  </defs>
</svg>
