<svg width="24" height="25" viewBox="0 0 24 25" fill="none" xmlns="http://www.w3.org/2000/svg">
  <path d="M21.16 8.86719C20.1027 6.45 18.133 4.54858 15.68 3.57719C16.4988 5.23757 17.0233 7.02746 17.23 8.86719H21.16ZM21.8 10.8672H17.43C17.48 11.5272 17.5 12.1972 17.5 12.8672C17.5 13.5372 17.5 14.2072 17.43 14.8672H21.8C22.0667 13.5472 22.0667 12.1872 21.8 10.8672ZM12 22.8672C13.43 22.8672 14.67 20.3972 15.21 16.8672H8.79C9.33 20.3972 10.57 22.8672 12 22.8672ZM8.57 10.8672C8.52 11.5172 8.5 12.1872 8.5 12.8672C8.5 13.5472 8.5 14.2172 8.57 14.8672H15.43C15.48 14.2172 15.5 13.5472 15.5 12.8672C15.5 12.1872 15.5 11.5172 15.43 10.8672H8.57ZM2.84 16.8672C3.89731 19.2844 5.86702 21.1858 8.32 22.1572C7.50118 20.4968 6.97673 18.7069 6.77 16.8672H2.84ZM15.68 22.1572C18.133 21.1858 20.1027 19.2844 21.16 16.8672H17.23C17.0233 18.7069 16.4988 20.4968 15.68 22.1572ZM2.84 8.86719H6.77C6.97673 7.02746 7.50118 5.23757 8.32 3.57719C5.86702 4.54858 3.89731 6.45 2.84 8.86719ZM6.5 12.8672C6.5 12.1972 6.5 11.5272 6.57 10.8672H2.2C1.93333 12.1872 1.93333 13.5472 2.2 14.8672H6.57C6.52 14.2072 6.5 13.5372 6.5 12.8672ZM12 2.86719C10.57 2.86719 9.33 5.33719 8.79 8.86719H15.21C14.67 5.33719 13.43 2.86719 12 2.86719Z" fill="#D9D9DE" />
</svg>
