<svg width="29" height="27" viewBox="0 0 29 27" fill="none" xmlns="http://www.w3.org/2000/svg">
<path fill-rule="evenodd" clip-rule="evenodd" d="M7.0918 6L28.9085 8.24L24.8789 19.0667L8.08346 20L7.0918 6ZM14.0051 24.2287C14.0051 25.5542 12.9395 26.6287 11.6251 26.6287C10.3106 26.6287 9.24508 25.5542 9.24508 24.2287C9.24508 22.9032 10.3106 21.8287 11.6251 21.8287C12.9395 21.8287 14.0051 22.9032 14.0051 24.2287ZM19.785 26.6287C21.0995 26.6287 22.165 25.5542 22.165 24.2287C22.165 22.9032 21.0995 21.8287 19.785 21.8287C18.4706 21.8287 17.405 22.9032 17.405 24.2287C17.405 25.5542 18.4706 26.6287 19.785 26.6287Z" fill="white"/>
<path d="M9.61719 19.5L7.61719 2.5L0.117188 2" stroke="white" stroke-width="3"/>
</svg>
