<svg width="29" height="25" viewBox="0 0 29 25" fill="none" xmlns="http://www.w3.org/2000/svg">
<g clip-path="url(#clip0_762_45762)">
<path d="M16.4718 9.20229C15.7929 9.6559 14.9948 9.89802 14.1783 9.89802C13.0834 9.89802 12.0334 9.46308 11.2592 8.68889C10.485 7.9147 10.0501 6.86468 10.0501 5.76981C10.0501 4.95333 10.2922 4.15518 10.7458 3.4763C11.1994 2.79742 11.8442 2.2683 12.5985 1.95584C13.3528 1.64339 14.1829 1.56164 14.9837 1.72093C15.7844 1.88021 16.52 2.27339 17.0974 2.85073C17.6747 3.42807 18.0679 4.16364 18.2272 4.96444C18.3865 5.76523 18.3047 6.59527 17.9922 7.34961C17.6798 8.10394 17.1507 8.74867 16.4718 9.20229ZM14.1783 15.7611C17.6163 15.7611 20.9142 17.123 23.3505 19.5485L23.4347 19.6357V24.0006H4.92188V19.6357L5.00613 19.5485C7.44235 17.123 10.7403 15.7611 14.1783 15.7611Z" stroke="#CCCCCC" stroke-width="2"/>
</g>
<defs>
<clipPath id="clip0_762_45762">
<rect width="25" height="25" fill="white" transform="translate(2)"/>
</clipPath>
</defs>
</svg>
