<svg width="18" height="18" viewBox="0 0 18 18" fill="none" xmlns="http://www.w3.org/2000/svg">
<path fill-rule="evenodd" clip-rule="evenodd" d="M12.5334 2.19123L12.999 2.76039L5.60707 9.35089L12.9867 15.3582L12.5457 15.9485L4.47343 9.37725L12.5334 2.19123Z" fill="#2363D1"/>
<path d="M14 2.87126C14 3.90473 13.1974 4.74252 12.2074 4.74252C11.2173 4.74252 10.4147 3.90473 10.4147 2.87126C10.4147 1.83779 11.2173 1 12.2074 1C13.1974 1 14 1.83779 14 2.87126Z" fill="#2363D1"/>
<path d="M7.58526 9.13925C7.58526 10.1727 6.78267 11.0105 5.79263 11.0105C4.80259 11.0105 4 10.1727 4 9.13925C4 8.10578 4.80259 7.26799 5.79263 7.26799C6.78267 7.26799 7.58526 8.10578 7.58526 9.13925Z" fill="#2363D1"/>
<path d="M14 15.1287C14 16.1622 13.1974 17 12.2074 17C11.2173 17 10.4147 16.1622 10.4147 15.1287C10.4147 14.0953 11.2173 13.2575 12.2074 13.2575C13.1974 13.2575 14 14.0953 14 15.1287Z" fill="#2363D1"/>
</svg>
