<svg width="20" height="20" viewBox="0 0 20 20" fill="none" xmlns="http://www.w3.org/2000/svg">
<g clip-path="url(#clip0_3679_102574)">
<path d="M0 12.2903V14.9032C0 16 0.870968 16.871 1.93548 16.871H18.0645C19.129 16.871 20 16 20 14.9032V12.2903H0Z" fill="#D32030"/>
<path d="M18.0658 16.8712C19.1303 16.8712 20.0013 16.0002 20.0013 14.9034V12.2905H12.7109L18.0658 16.8712Z" fill="#C11025"/>
<path d="M18.0645 3.12903H1.93548C0.870968 3.12903 0 4 0 5.09677V7.70967H20V5.09677C20 4 19.129 3.12903 18.0645 3.12903Z" fill="#D32030"/>
<path d="M18.0665 3.12891H1.9375L7.29234 7.70955H20.002V5.09665C20.002 3.99987 19.131 3.12891 18.0665 3.12891Z" fill="#C11025"/>
<path d="M18.0665 3.12891H1.9375L16.873 7.70955H20.002V5.09665C20.002 3.99987 19.131 3.12891 18.0665 3.12891Z" fill="#A5001C"/>
<path d="M0 5.67743V7.64517V7.70969V12.2903V12.3548V14.3226H20V12.3548V12.2903V7.70969V7.64517V5.67743H0Z" fill="#FFD034"/>
<path d="M7.26008 7.64499L12.744 12.3547L15.0665 14.3224H20.002V12.3547V12.2901V7.7095V7.64499V5.67725H4.9375L7.26008 7.64499Z" fill="#FFBC00"/>
<path d="M10.2891 5.67725L16.7084 7.64499L19.9987 8.64499V7.7095V7.64499V5.67725H10.2891Z" fill="#FFAA00"/>
<path d="M20 14.9032C20 16 19.129 16.871 18.0645 16.871H1.93548C0.870968 16.871 0 16 0 14.9032" fill="#A5001C"/>
<path d="M2.80469 9.87097V11.2258C2.80469 11.9032 3.35307 12.4516 4.03049 12.4516C4.70791 12.4516 5.2563 11.9032 5.2563 11.2258V9.87097H2.80469Z" fill="#A5001C"/>
<path d="M5.93397 10.0643H5.54688V11.9353H5.93397V10.0643Z" fill="#A5001C"/>
<path d="M6.09854 12.161C6.06628 12.1288 6.03402 12.1288 5.96951 12.1288C5.93725 12.1288 5.87273 12.1288 5.84047 12.161C5.80822 12.1933 5.77596 12.1933 5.71144 12.1933C5.67918 12.1933 5.61467 12.1933 5.58241 12.161C5.55015 12.161 5.51789 12.1288 5.45338 12.1288C5.38886 12.1288 5.3566 12.1288 5.32434 12.161C5.29209 12.1933 5.25983 12.1933 5.19531 12.1933V12.2578C5.22757 12.2578 5.29209 12.2578 5.32434 12.2256C5.3566 12.2256 5.38886 12.1933 5.45338 12.1933C5.51789 12.1933 5.55015 12.1933 5.58241 12.2256C5.61467 12.2578 5.64693 12.2578 5.71144 12.2578C5.7437 12.2578 5.80822 12.2578 5.84047 12.2256C5.87273 12.2256 5.90499 12.1933 5.96951 12.1933C6.00176 12.1933 6.06628 12.1933 6.09854 12.2256C6.1308 12.2578 6.19531 12.2578 6.22757 12.2578V12.1933C6.19531 12.1933 6.1308 12.1933 6.09854 12.161Z" fill="#A5001C"/>
<path d="M6.00076 12.2904C5.9685 12.2904 5.90398 12.2904 5.87172 12.3227C5.83947 12.3549 5.80721 12.3549 5.74269 12.3549C5.71043 12.3549 5.64592 12.3549 5.61366 12.3227C5.5814 12.3227 5.54914 12.2904 5.48463 12.2904C5.42011 12.2904 5.38785 12.2904 5.35559 12.3227C5.32334 12.3549 5.29108 12.3549 5.22656 12.3549V12.4194C5.25882 12.4194 5.32334 12.4194 5.35559 12.3872C5.38785 12.3872 5.42011 12.3549 5.48463 12.3549C5.54914 12.3549 5.5814 12.3549 5.61366 12.3872C5.64592 12.4194 5.67817 12.4194 5.74269 12.4194C5.77495 12.4194 5.83947 12.4194 5.87172 12.3872C5.90398 12.3872 5.93624 12.3549 6.00076 12.3549C6.03301 12.3549 6.09753 12.3549 6.12979 12.3872C6.16205 12.4194 6.1943 12.4194 6.25882 12.4194V12.3549C6.22656 12.3549 6.16205 12.3549 6.12979 12.3227C6.06527 12.2904 6.03301 12.2904 6.00076 12.2904Z" fill="#A5001C"/>
<path d="M6.00076 12.4193C5.9685 12.4193 5.90398 12.4193 5.87172 12.4516C5.83947 12.4838 5.80721 12.4838 5.74269 12.4838C5.71043 12.4838 5.64592 12.4838 5.61366 12.4516C5.5814 12.4516 5.54914 12.4193 5.48463 12.4193C5.42011 12.4193 5.38785 12.4193 5.35559 12.4516C5.32334 12.4838 5.29108 12.4838 5.22656 12.4838V12.5483C5.25882 12.5483 5.32334 12.5483 5.35559 12.5161C5.38785 12.5161 5.42011 12.4838 5.48463 12.4838C5.54914 12.4838 5.5814 12.4838 5.61366 12.5161C5.64592 12.5483 5.67817 12.5483 5.74269 12.5483C5.77495 12.5483 5.83947 12.5483 5.87172 12.5161C5.90398 12.5161 5.93624 12.4838 6.00076 12.4838C6.03301 12.4838 6.09753 12.4838 6.12979 12.5161C6.16205 12.5483 6.1943 12.5483 6.25882 12.5483V12.4838C6.22656 12.4838 6.16205 12.4838 6.12979 12.4516C6.06527 12.4516 6.03301 12.4193 6.00076 12.4193Z" fill="#A5001C"/>
<path d="M6.00151 11.9677C6.00151 12 5.96925 12.0322 5.937 12.0322H5.51764C5.48538 12.0322 5.45312 12 5.45312 11.9677C5.45312 11.9355 5.48538 11.9032 5.51764 11.9032H5.937C5.96925 11.9032 6.00151 11.9355 6.00151 11.9677Z" fill="#A5001C"/>
<path d="M6.00151 10.0322C6.00151 10.0644 5.96925 10.0967 5.937 10.0967H5.51764C5.48538 10.0967 5.45312 10.0644 5.45312 10.0322C5.45312 9.99991 5.48538 9.96765 5.51764 9.96765H5.937C5.96925 9.99991 6.00151 9.99991 6.00151 10.0322Z" fill="#A5001C"/>
<path d="M2.54335 10.0645H2.15625V11.9354H2.54335V10.0645Z" fill="#D32030"/>
<path d="M2.70791 12.1613C2.67566 12.129 2.6434 12.129 2.57888 12.129C2.54662 12.129 2.48211 12.129 2.44985 12.1613C2.41759 12.1935 2.38533 12.1935 2.32082 12.1935C2.28856 12.1935 2.22404 12.1935 2.19178 12.1613C2.15953 12.1613 2.12727 12.129 2.06275 12.129C2.03049 12.129 1.96598 12.129 1.93372 12.1613C1.90146 12.1935 1.8692 12.1935 1.80469 12.1935V12.2581C1.83695 12.2581 1.90146 12.2581 1.93372 12.2258C1.96598 12.2258 1.99824 12.1935 2.06275 12.1935C2.09501 12.1935 2.15953 12.1935 2.19178 12.2258C2.2563 12.2581 2.28856 12.2581 2.35307 12.2581C2.38533 12.2581 2.44985 12.2581 2.48211 12.2258C2.51436 12.2258 2.54662 12.1935 2.61114 12.1935C2.6434 12.1935 2.70791 12.1935 2.74017 12.2258C2.74017 12.2581 2.77243 12.2581 2.83695 12.2581V12.1935C2.77243 12.1935 2.74017 12.1935 2.70791 12.1613Z" fill="#D32030"/>
<path d="M2.57888 12.2903C2.54662 12.2903 2.48211 12.2903 2.44985 12.3226C2.41759 12.3548 2.38533 12.3548 2.32082 12.3548C2.28856 12.3548 2.22404 12.3548 2.19178 12.3226C2.15953 12.3226 2.12727 12.2903 2.06275 12.2903C2.03049 12.2903 1.96598 12.2903 1.93372 12.3226C1.90146 12.3548 1.8692 12.3548 1.80469 12.3548V12.4193C1.83695 12.4193 1.90146 12.4193 1.93372 12.3871C1.96598 12.3871 1.99824 12.3548 2.06275 12.3548C2.09501 12.3548 2.15953 12.3548 2.19178 12.3871C2.22404 12.4193 2.2563 12.4193 2.32082 12.4193C2.35307 12.4193 2.41759 12.4193 2.44985 12.3871C2.48211 12.3871 2.51436 12.3548 2.57888 12.3548C2.61114 12.3548 2.67566 12.3548 2.70791 12.3871C2.74017 12.4193 2.77243 12.4193 2.83695 12.4193V12.3548C2.80469 12.3548 2.74017 12.3548 2.70791 12.3226C2.67566 12.2903 2.6434 12.2903 2.57888 12.2903Z" fill="#D32030"/>
<path d="M2.57888 12.4193C2.54662 12.4193 2.48211 12.4193 2.44985 12.4516C2.41759 12.4839 2.38533 12.4839 2.32082 12.4839C2.28856 12.4839 2.22404 12.4839 2.19178 12.4516C2.15953 12.4516 2.12727 12.4193 2.06275 12.4193C2.03049 12.4193 1.96598 12.4193 1.93372 12.4516C1.90146 12.4839 1.8692 12.4839 1.80469 12.4839V12.5484C1.83695 12.5484 1.90146 12.5484 1.93372 12.5161C1.96598 12.5161 1.99824 12.4839 2.06275 12.4839C2.09501 12.4839 2.15953 12.4839 2.19178 12.5161C2.22404 12.5484 2.2563 12.5484 2.32082 12.5484C2.35307 12.5484 2.41759 12.5484 2.44985 12.5161C2.48211 12.5161 2.51436 12.4839 2.57888 12.4839C2.61114 12.4839 2.67566 12.4839 2.70791 12.5161C2.74017 12.5484 2.77243 12.5484 2.83695 12.5484V12.4839C2.80469 12.4839 2.74017 12.4839 2.70791 12.4516C2.67566 12.4516 2.6434 12.4193 2.57888 12.4193Z" fill="#D32030"/>
<path d="M2.61089 11.9677C2.61089 12 2.57863 12.0323 2.54637 12.0323H2.12702C2.09476 12.0323 2.0625 12 2.0625 11.9677C2.0625 11.9355 2.09476 11.9032 2.12702 11.9032H2.54637C2.57863 11.9032 2.61089 11.9355 2.61089 11.9677Z" fill="#D32030"/>
<path d="M2.61089 10.0323C2.61089 10.0645 2.57863 10.0968 2.54637 10.0968H2.12702C2.09476 10.0968 2.0625 10.0645 2.0625 10.0323C2.09476 10 2.12702 10 2.12702 10H2.54637C2.57863 10 2.61089 10 2.61089 10.0323Z" fill="#D32030"/>
<path d="M5.00479 9.61298C5.00479 9.54847 4.97253 9.51621 4.90801 9.51621C4.90801 9.45169 4.52092 9.41943 4.03705 9.41943C3.55318 9.41943 3.16608 9.45169 3.16608 9.51621C3.13382 9.51621 3.10156 9.58072 3.10156 9.61298C3.10156 9.64524 3.13382 9.70976 3.19834 9.70976C3.19834 9.77427 3.58543 9.80653 4.0693 9.80653C4.55318 9.80653 4.94027 9.77427 4.94027 9.70976C4.97253 9.70976 5.00479 9.6775 5.00479 9.61298Z" fill="#A5001C"/>
<path d="M5.55192 8.77421L5.58417 8.74195C5.61643 8.67744 5.64869 8.61292 5.64869 8.5484C5.64869 8.41937 5.55192 8.29034 5.45514 8.22582L5.4874 8.25808C5.39063 8.19356 5.22933 8.12905 5.06804 8.12905C5.03579 8.12905 5.00353 8.12905 4.93901 8.12905C4.93901 8.12905 4.93901 8.12905 4.90675 8.12905C4.90675 8.12905 4.8745 8.12905 4.8745 8.16131C4.8745 8.16131 4.8745 8.16131 4.84224 8.16131C4.84224 8.16131 4.84224 8.16131 4.84224 8.19356C4.80998 8.16131 4.77772 8.12905 4.74546 8.09679C4.68095 8.03227 4.55192 7.96776 4.42288 7.96776C4.32611 7.96776 4.22933 8.00002 4.13256 8.03227C4.13256 8.06453 4.13256 8.06453 4.13256 8.09679C4.19708 8.06453 4.29385 8.03227 4.39063 8.03227C4.58417 8.03227 4.77772 8.12905 4.77772 8.29034V8.3226C4.77772 8.38711 4.74546 8.41937 4.71321 8.45163C4.61643 8.45163 4.55192 8.41937 4.4874 8.38711C4.39062 8.35485 4.26159 8.3226 4.13256 8.3226C4.13256 8.29034 4.13256 8.25808 4.13256 8.22582C4.13256 8.22582 4.13256 8.22582 4.13256 8.19356C4.13256 8.19356 4.13256 8.19356 4.13256 8.16131C4.13256 8.09679 4.13256 8.06453 4.13256 8.03227C4.13256 8.00002 4.06804 7.96776 4.03579 7.96776C4.1003 7.96776 4.13256 7.9355 4.16482 7.90324C4.16482 7.90324 4.16482 7.87098 4.16482 7.83872C4.16482 7.77421 4.13256 7.74195 4.06804 7.70969V7.61292H4.13256V7.5484H4.06804V7.48389H4.00353V7.5484H3.93901V7.61292H4.00353V7.70969C3.93901 7.70969 3.90675 7.77421 3.90675 7.83872C3.90675 7.87098 3.90675 7.87098 3.90675 7.90324C3.93901 7.9355 3.97127 7.96776 4.00353 7.96776C3.97127 7.96776 3.93901 8.00002 3.93901 8.00002C3.93901 8.00002 3.93901 8.00002 3.93901 7.96776C3.93901 7.9355 3.93901 7.9355 3.90675 7.9355C3.8745 7.9355 3.8745 7.9355 3.8745 7.96776C3.8745 8.00002 3.8745 8.00002 3.90675 8.00002H3.93901L3.90675 8.03227C3.84224 8.00002 3.74546 7.96776 3.61643 7.96776C3.4874 7.96776 3.35837 8.00002 3.29385 8.09679C3.26159 8.12905 3.19708 8.16131 3.19708 8.19356C3.19708 8.19356 3.19708 8.19356 3.19708 8.16131C3.19708 8.16131 3.19708 8.16131 3.16482 8.16131C3.16482 8.16131 3.16482 8.12905 3.13256 8.12905H3.1003C3.06804 8.12905 3.03579 8.12905 2.97127 8.12905C2.80998 8.12905 2.64869 8.19356 2.55192 8.25808L2.58417 8.22582C2.45514 8.29034 2.39062 8.41937 2.39062 8.5484C2.39062 8.61292 2.42288 8.70969 2.45514 8.74195L2.4874 8.77421C2.45514 8.77421 2.42288 8.80647 2.42288 8.87098C2.42288 8.87098 2.4874 8.87098 2.51966 8.90324C2.55192 8.9355 2.58417 9.00002 2.58417 9.00002C2.58417 9.03227 2.58417 9.03227 2.58417 9.06453C2.61643 9.09679 2.61643 9.09679 2.64869 9.06453C2.68095 9.09679 2.71321 9.16131 2.77772 9.19356C2.80998 9.22582 2.8745 9.22582 2.90675 9.22582C2.90675 9.22582 2.90675 9.22582 2.93901 9.22582H2.90675C2.8745 9.22582 2.8745 9.25808 2.8745 9.25808C2.8745 9.29034 2.90675 9.29034 2.90675 9.29034C2.90675 9.29034 2.93901 9.29034 2.97127 9.3226L3.00353 9.35485L3.06804 9.38711C3.06804 9.41937 3.06804 9.45163 3.06804 9.45163C3.32611 9.38711 3.64869 9.3226 4.03579 9.3226C4.42288 9.3226 4.77772 9.38711 5.00353 9.45163C4.97127 9.45163 4.97127 9.41937 5.00353 9.38711L5.06804 9.35485L5.03579 9.3226C5.06804 9.29034 5.1003 9.29034 5.1003 9.29034C5.13256 9.29034 5.13256 9.29034 5.13256 9.25808C5.13256 9.22582 5.13256 9.22582 5.1003 9.22582C5.06804 9.22582 5.06804 9.22582 5.03579 9.22582L5.06804 9.25808C5.1003 9.25808 5.16482 9.25808 5.19708 9.22582C5.26159 9.19356 5.29385 9.12905 5.32611 9.09679C5.35837 9.09679 5.35837 9.09679 5.39063 9.09679C5.42288 9.06453 5.42288 9.03227 5.39063 9.03227C5.39063 9.03227 5.42288 8.96776 5.45514 8.9355C5.4874 8.90324 5.55192 8.90324 5.55192 8.90324C5.64869 8.83873 5.58417 8.77421 5.55192 8.77421ZM3.16482 8.22582C3.13256 8.22582 3.13256 8.22582 3.13256 8.25808C3.13256 8.29034 3.13256 8.29034 3.16482 8.29034V8.3226C3.16482 8.3226 3.13256 8.3226 3.13256 8.35485C3.13256 8.38711 3.13256 8.38711 3.16482 8.38711V8.41937C3.16482 8.41937 3.16482 8.41937 3.16482 8.45163C3.13256 8.45163 3.1003 8.45163 3.06804 8.45163C2.97127 8.45163 2.8745 8.48389 2.74546 8.51614C2.68095 8.5484 2.64869 8.58066 2.58417 8.58066C2.55192 8.5484 2.55192 8.51614 2.55192 8.45163C2.55192 8.41937 2.55192 8.38711 2.58417 8.35485C2.64869 8.22582 2.84224 8.16131 3.06804 8.16131C3.13256 8.16131 3.16482 8.16131 3.19708 8.16131C3.19708 8.19356 3.19708 8.19356 3.16482 8.22582ZM3.93901 8.16131C3.93901 8.22582 3.93901 8.25808 3.93901 8.29034C3.77772 8.29034 3.64869 8.3226 3.55192 8.35485C3.4874 8.38711 3.42288 8.38711 3.32611 8.41937C3.29385 8.38711 3.26159 8.3226 3.26159 8.29034V8.25808C3.26159 8.12905 3.42288 8.00002 3.64869 8.00002C3.74546 8.00002 3.84224 8.03227 3.90675 8.06453V8.03227C3.93901 8.06453 3.93901 8.09679 3.93901 8.16131ZM5.58417 8.35485C5.58417 8.3226 5.55192 8.29034 5.51966 8.25808C5.55192 8.29034 5.55192 8.3226 5.58417 8.35485ZM5.4874 8.58066C5.45514 8.5484 5.39063 8.51614 5.32611 8.48389C5.19708 8.41937 5.06804 8.41937 5.00353 8.41937C4.97127 8.41937 4.93901 8.41937 4.93901 8.41937C4.93901 8.41937 4.93901 8.38711 4.90675 8.38711V8.35485C4.93901 8.35485 4.93901 8.35485 4.93901 8.3226C4.93901 8.3226 4.93901 8.29034 4.90675 8.29034V8.25808C4.93901 8.25808 4.93901 8.25808 4.93901 8.22582C4.93901 8.19356 4.93901 8.19356 4.90675 8.19356C4.90675 8.19356 4.90675 8.16131 4.8745 8.16131C4.90675 8.16131 4.97127 8.16131 5.00353 8.16131C5.22934 8.16131 5.42288 8.25808 5.4874 8.35485C5.4874 8.38711 5.51966 8.41937 5.51966 8.45163C5.55192 8.51614 5.51966 8.5484 5.4874 8.58066Z" fill="#A5001C"/>
<path d="M5.64945 8.80649C5.66726 8.80649 5.6817 8.79205 5.6817 8.77423C5.6817 8.75642 5.66726 8.74197 5.64945 8.74197C5.63163 8.74197 5.61719 8.75642 5.61719 8.77423C5.61719 8.79205 5.63163 8.80649 5.64945 8.80649Z" fill="#A5001C"/>
<path d="M5.6807 8.70954C5.69851 8.70954 5.71295 8.69509 5.71295 8.67728C5.71295 8.65946 5.69851 8.64502 5.6807 8.64502C5.66288 8.64502 5.64844 8.65946 5.64844 8.67728C5.64844 8.69509 5.66288 8.70954 5.6807 8.70954Z" fill="#A5001C"/>
<path d="M5.71195 8.64508C5.72976 8.64508 5.7442 8.63064 5.7442 8.61282C5.7442 8.59501 5.72976 8.58057 5.71195 8.58057C5.69413 8.58057 5.67969 8.59501 5.67969 8.61282C5.67969 8.63064 5.69413 8.64508 5.71195 8.64508Z" fill="#A5001C"/>
<path d="M5.71195 8.51618C5.72976 8.51618 5.7442 8.50173 5.7442 8.48392C5.7442 8.4661 5.72976 8.45166 5.71195 8.45166C5.69413 8.45166 5.67969 8.4661 5.67969 8.48392C5.67969 8.50173 5.69413 8.51618 5.71195 8.51618Z" fill="#A5001C"/>
<path d="M5.6807 8.4195C5.69851 8.4195 5.71295 8.40505 5.71295 8.38724C5.71295 8.36942 5.69851 8.35498 5.6807 8.35498C5.66288 8.35498 5.64844 8.36942 5.64844 8.38724C5.64844 8.40505 5.66288 8.4195 5.6807 8.4195Z" fill="#A5001C"/>
<path d="M5.64945 8.3226C5.6817 8.3226 5.6817 8.3226 5.6817 8.29035C5.6817 8.25809 5.6817 8.25809 5.64945 8.25809C5.61719 8.25809 5.61719 8.25809 5.61719 8.29035C5.61719 8.3226 5.61719 8.3226 5.64945 8.3226Z" fill="#A5001C"/>
<path d="M5.5557 8.25788C5.57351 8.25788 5.58795 8.24343 5.58795 8.22562C5.58795 8.2078 5.57351 8.19336 5.5557 8.19336C5.53788 8.19336 5.52344 8.2078 5.52344 8.22562C5.52344 8.24343 5.53788 8.25788 5.5557 8.25788Z" fill="#A5001C"/>
<path d="M5.48538 8.19342C5.5032 8.19342 5.51764 8.17898 5.51764 8.16116C5.51764 8.14335 5.5032 8.12891 5.48538 8.12891C5.46757 8.12891 5.45312 8.14335 5.45312 8.16116C5.45312 8.17898 5.46757 8.19342 5.48538 8.19342Z" fill="#A5001C"/>
<path d="M5.39163 8.16132C5.40945 8.16132 5.42389 8.14688 5.42389 8.12906C5.42389 8.11124 5.40945 8.0968 5.39163 8.0968C5.37382 8.0968 5.35938 8.11124 5.35938 8.12906C5.35938 8.14688 5.37382 8.16132 5.39163 8.16132Z" fill="#A5001C"/>
<path d="M5.29788 8.09674C5.3157 8.09674 5.33014 8.0823 5.33014 8.06448C5.33014 8.04667 5.3157 8.03223 5.29788 8.03223C5.28007 8.03223 5.26562 8.04667 5.26562 8.06448C5.26562 8.0823 5.28007 8.09674 5.29788 8.09674Z" fill="#A5001C"/>
<path d="M5.16507 8.09674C5.18289 8.09674 5.19733 8.0823 5.19733 8.06448C5.19733 8.04667 5.18289 8.03223 5.16507 8.03223C5.14726 8.03223 5.13281 8.04667 5.13281 8.06448C5.13281 8.0823 5.14726 8.09674 5.16507 8.09674Z" fill="#A5001C"/>
<path d="M5.07132 8.09674C5.10358 8.09674 5.10358 8.09674 5.10358 8.06448C5.10358 8.03223 5.07132 8.03223 5.07132 8.03223C5.03906 8.03223 5.03906 8.03223 5.03906 8.06448C5.03906 8.06448 5.03906 8.09674 5.07132 8.09674Z" fill="#A5001C"/>
<path d="M4.96976 8.09674C4.98757 8.09674 5.00202 8.0823 5.00202 8.06448C5.00202 8.04667 4.98757 8.03223 4.96976 8.03223C4.95194 8.03223 4.9375 8.04667 4.9375 8.06448C4.9375 8.0823 4.95194 8.09674 4.96976 8.09674Z" fill="#A5001C"/>
<path d="M4.87601 8.09674C4.89382 8.09674 4.90827 8.0823 4.90827 8.06448C4.90827 8.04667 4.89382 8.03223 4.87601 8.03223C4.85819 8.03223 4.84375 8.04667 4.84375 8.06448C4.84375 8.0823 4.85819 8.09674 4.87601 8.09674Z" fill="#A5001C"/>
<path d="M4.78226 8.03229C4.80007 8.03229 4.81452 8.01785 4.81452 8.00003C4.81452 7.98222 4.80007 7.96777 4.78226 7.96777C4.76444 7.96777 4.75 7.98222 4.75 8.00003C4.75 8.01785 4.76444 8.03229 4.78226 8.03229Z" fill="#A5001C"/>
<path d="M4.6807 7.96784C4.69851 7.96784 4.71295 7.95339 4.71295 7.93558C4.71295 7.91776 4.69851 7.90332 4.6807 7.90332C4.66288 7.90332 4.64844 7.91776 4.64844 7.93558C4.64844 7.95339 4.66288 7.96784 4.6807 7.96784Z" fill="#A5001C"/>
<path d="M4.58695 7.93561C4.60476 7.93561 4.6192 7.92117 4.6192 7.90335C4.6192 7.88554 4.60476 7.87109 4.58695 7.87109C4.56913 7.87109 4.55469 7.88554 4.55469 7.90335C4.55469 7.92117 4.56913 7.93561 4.58695 7.93561Z" fill="#A5001C"/>
<path d="M4.48538 7.93561C4.5032 7.93561 4.51764 7.92117 4.51764 7.90335C4.51764 7.88554 4.5032 7.87109 4.48538 7.87109C4.46757 7.87109 4.45312 7.88554 4.45312 7.90335C4.45312 7.92117 4.46757 7.93561 4.48538 7.93561Z" fill="#A5001C"/>
<path d="M4.39163 7.93552C4.40945 7.93552 4.42389 7.92108 4.42389 7.90326C4.42389 7.88544 4.40945 7.871 4.39163 7.871C4.37382 7.871 4.35938 7.88544 4.35938 7.90326C4.35938 7.92108 4.37382 7.93552 4.39163 7.93552Z" fill="#A5001C"/>
<path d="M4.25882 7.93561C4.27664 7.93561 4.29108 7.92117 4.29108 7.90335C4.29108 7.88554 4.27664 7.87109 4.25882 7.87109C4.241 7.87109 4.22656 7.88554 4.22656 7.90335C4.22656 7.92117 4.241 7.93561 4.25882 7.93561Z" fill="#A5001C"/>
<path d="M4.16507 7.96784C4.18289 7.96784 4.19733 7.95339 4.19733 7.93558C4.19733 7.91776 4.18289 7.90332 4.16507 7.90332C4.14725 7.90332 4.13281 7.91776 4.13281 7.93558C4.13281 7.95339 4.14725 7.96784 4.16507 7.96784Z" fill="#A5001C"/>
<path d="M2.45413 8.8067C2.47195 8.8067 2.48639 8.79226 2.48639 8.77445C2.48639 8.75663 2.47195 8.74219 2.45413 8.74219C2.43632 8.74219 2.42188 8.75663 2.42188 8.77445C2.42188 8.79226 2.43632 8.8067 2.45413 8.8067Z" fill="#A5001C"/>
<path d="M2.42288 8.70954C2.4407 8.70954 2.45514 8.69509 2.45514 8.67728C2.45514 8.65946 2.4407 8.64502 2.42288 8.64502C2.40507 8.64502 2.39062 8.65946 2.39062 8.67728C2.39062 8.69509 2.40507 8.70954 2.42288 8.70954Z" fill="#A5001C"/>
<path d="M2.39163 8.64517C2.40945 8.64517 2.42389 8.63073 2.42389 8.61292C2.42389 8.5951 2.40945 8.58066 2.39163 8.58066C2.37382 8.58066 2.35938 8.5951 2.35938 8.61292C2.35938 8.63073 2.37382 8.64517 2.39163 8.64517Z" fill="#A5001C"/>
<path d="M2.39163 8.51615C2.40945 8.51615 2.42389 8.5017 2.42389 8.48389C2.42389 8.46607 2.40945 8.45163 2.39163 8.45163C2.37382 8.45163 2.35938 8.46607 2.35938 8.48389C2.35938 8.5017 2.37382 8.51615 2.39163 8.51615Z" fill="#A5001C"/>
<path d="M2.42288 8.4195C2.4407 8.4195 2.45514 8.40505 2.45514 8.38724C2.45514 8.36942 2.4407 8.35498 2.42288 8.35498C2.40507 8.35498 2.39062 8.36942 2.39062 8.38724C2.39062 8.40505 2.40507 8.4195 2.42288 8.4195Z" fill="#A5001C"/>
<path d="M2.45413 8.32282C2.47195 8.32282 2.48639 8.30837 2.48639 8.29056C2.48639 8.27274 2.47195 8.2583 2.45413 8.2583C2.43632 8.2583 2.42188 8.27274 2.42188 8.29056C2.42188 8.30837 2.43632 8.32282 2.45413 8.32282Z" fill="#A5001C"/>
<path d="M2.52445 8.25788C2.54226 8.25788 2.5567 8.24343 2.5567 8.22562C2.5567 8.2078 2.54226 8.19336 2.52445 8.19336C2.50663 8.19336 2.49219 8.2078 2.49219 8.22562C2.49219 8.24343 2.50663 8.25788 2.52445 8.25788Z" fill="#A5001C"/>
<path d="M2.6182 8.19342C2.63601 8.19342 2.65045 8.17898 2.65045 8.16116C2.65045 8.14335 2.63601 8.12891 2.6182 8.12891C2.60038 8.12891 2.58594 8.14335 2.58594 8.16116C2.58594 8.17898 2.60038 8.19342 2.6182 8.19342Z" fill="#A5001C"/>
<path d="M2.71195 8.1612C2.72976 8.1612 2.7442 8.14675 2.7442 8.12894C2.7442 8.11112 2.72976 8.09668 2.71195 8.09668C2.69413 8.09668 2.67969 8.11112 2.67969 8.12894C2.67969 8.14675 2.69413 8.1612 2.71195 8.1612Z" fill="#A5001C"/>
<path d="M2.81351 8.09674C2.83132 8.09674 2.84577 8.0823 2.84577 8.06448C2.84577 8.04667 2.83132 8.03223 2.81351 8.03223C2.79569 8.03223 2.78125 8.04667 2.78125 8.06448C2.78125 8.0823 2.79569 8.09674 2.81351 8.09674Z" fill="#A5001C"/>
<path d="M2.93851 8.09674C2.95632 8.09674 2.97077 8.0823 2.97077 8.06448C2.97077 8.04667 2.95632 8.03223 2.93851 8.03223C2.92069 8.03223 2.90625 8.04667 2.90625 8.06448C2.90625 8.0823 2.92069 8.09674 2.93851 8.09674Z" fill="#A5001C"/>
<path d="M3.04007 8.09674C3.05789 8.09674 3.07233 8.0823 3.07233 8.06448C3.07233 8.04667 3.05789 8.03223 3.04007 8.03223C3.02225 8.03223 3.00781 8.04667 3.00781 8.06448C3.00781 8.0823 3.02225 8.09674 3.04007 8.09674Z" fill="#A5001C"/>
<path d="M3.13382 8.09674C3.15164 8.09674 3.16608 8.0823 3.16608 8.06448C3.16608 8.04667 3.15164 8.03223 3.13382 8.03223C3.116 8.03223 3.10156 8.04667 3.10156 8.06448C3.10156 8.0823 3.116 8.09674 3.13382 8.09674Z" fill="#A5001C"/>
<path d="M3.22757 8.09674C3.24539 8.09674 3.25983 8.0823 3.25983 8.06448C3.25983 8.04667 3.24539 8.03223 3.22757 8.03223C3.20976 8.03223 3.19531 8.04667 3.19531 8.06448C3.19531 8.0823 3.20976 8.09674 3.22757 8.09674Z" fill="#A5001C"/>
<path d="M3.32913 8.03229C3.34695 8.03229 3.36139 8.01785 3.36139 8.00003C3.36139 7.98222 3.34695 7.96777 3.32913 7.96777C3.31132 7.96777 3.29688 7.98222 3.29688 8.00003C3.29688 8.01785 3.31132 8.03229 3.32913 8.03229Z" fill="#A5001C"/>
<path d="M3.42288 7.96784C3.4407 7.96784 3.45514 7.95339 3.45514 7.93558C3.45514 7.91776 3.4407 7.90332 3.42288 7.90332C3.40507 7.90332 3.39062 7.91776 3.39062 7.93558C3.39062 7.95339 3.40507 7.96784 3.42288 7.96784Z" fill="#A5001C"/>
<path d="M3.52445 7.93561C3.54226 7.93561 3.5567 7.92117 3.5567 7.90335C3.5567 7.88554 3.54226 7.87109 3.52445 7.87109C3.50663 7.87109 3.49219 7.88554 3.49219 7.90335C3.49219 7.92117 3.50663 7.93561 3.52445 7.93561Z" fill="#A5001C"/>
<path d="M3.6182 7.93561C3.63601 7.93561 3.65045 7.92117 3.65045 7.90335C3.65045 7.88554 3.63601 7.87109 3.6182 7.87109C3.60038 7.87109 3.58594 7.88554 3.58594 7.90335C3.58594 7.92117 3.60038 7.93561 3.6182 7.93561Z" fill="#A5001C"/>
<path d="M3.71195 7.93561C3.72976 7.93561 3.7442 7.92117 3.7442 7.90335C3.7442 7.88554 3.72976 7.87109 3.71195 7.87109C3.69413 7.87109 3.67969 7.88554 3.67969 7.90335C3.67969 7.92117 3.69413 7.93561 3.71195 7.93561Z" fill="#A5001C"/>
<path d="M3.84476 7.93561C3.86257 7.93561 3.87702 7.92117 3.87702 7.90335C3.87702 7.88554 3.86257 7.87109 3.84476 7.87109C3.82694 7.87109 3.8125 7.88554 3.8125 7.90335C3.8125 7.92117 3.82694 7.93561 3.84476 7.93561Z" fill="#A5001C"/>
<path d="M2.57661 9.96732C2.57661 9.93506 2.57661 9.93506 2.57661 9.96732C2.54435 9.93506 2.44758 9.93506 2.35081 9.93506C2.22177 9.93506 2.125 9.93506 2.125 9.96732C2.125 9.96732 2.125 9.96732 2.125 9.99957C2.125 9.99957 2.125 10.0318 2.15726 10.0318C2.15726 10.0318 2.25403 10.0641 2.38306 10.0641C2.5121 10.0641 2.54435 9.99957 2.57661 9.96732Z" fill="#D32030"/>
<path d="M2.70388 9.74162C2.73614 9.70936 2.73614 9.70936 2.73614 9.6771C2.73614 9.64485 2.70388 9.61259 2.67162 9.61259C2.63936 9.58033 2.60711 9.58033 2.57485 9.58033H2.54259C2.54259 9.58033 2.54259 9.54807 2.51033 9.54807C2.47807 9.51581 2.47807 9.51581 2.41356 9.51581C2.3813 9.51581 2.34904 9.51581 2.34904 9.54807C2.3813 9.54807 2.3813 9.51581 2.41356 9.51581C2.47807 9.51581 2.51033 9.54807 2.51033 9.58033V9.61259C2.47807 9.61259 2.47807 9.61259 2.44582 9.61259C2.41356 9.61259 2.3813 9.61259 2.34904 9.58033C2.34904 9.58033 2.34904 9.58033 2.34904 9.54807V9.51581C2.34904 9.51581 2.34904 9.48356 2.31678 9.48356C2.31678 9.48356 2.34904 9.48356 2.34904 9.4513C2.34904 9.4513 2.34904 9.41904 2.31678 9.41904V9.38678H2.34904V9.35452H2.31678V9.38678H2.34904V9.41904C2.34904 9.41904 2.31678 9.41904 2.31678 9.4513C2.31678 9.4513 2.31678 9.48356 2.34904 9.48356C2.34904 9.48356 2.34904 9.48356 2.31678 9.48356C2.28453 9.48356 2.28453 9.4513 2.25227 9.4513C2.22001 9.4513 2.18775 9.4513 2.15549 9.48356C2.15549 9.48356 2.12324 9.48356 2.12324 9.51581H2.09098C2.05872 9.51581 2.02646 9.51581 1.9942 9.54807C1.96195 9.58033 1.92969 9.58033 1.92969 9.61259C1.92969 9.64485 1.92969 9.64485 1.96195 9.6771C1.96195 9.6771 1.92969 9.6771 1.92969 9.70936H1.96195L1.9942 9.74162C1.9942 9.74162 1.9942 9.74162 1.9942 9.77388C1.9942 9.77388 1.9942 9.80614 2.02646 9.80614H2.05872C2.05872 9.80614 2.05872 9.80614 2.05872 9.83839C2.12324 9.80614 2.18775 9.80614 2.28453 9.80614C2.3813 9.80614 2.47807 9.80614 2.51033 9.83839C2.51033 9.83839 2.51033 9.83839 2.51033 9.80614H2.54259L2.57485 9.77388C2.57485 9.77388 2.57485 9.77388 2.57485 9.74162C2.67162 9.80614 2.70388 9.77388 2.70388 9.74162C2.73614 9.77388 2.70388 9.77388 2.70388 9.74162ZM2.12324 9.61259C2.12324 9.64485 2.12324 9.64485 2.12324 9.64485C2.12324 9.64485 2.12324 9.64485 2.09098 9.64485C2.05872 9.64485 2.02646 9.64485 2.02646 9.6771C2.02646 9.6771 1.9942 9.6771 1.9942 9.70936V9.6771V9.64485C1.9942 9.61259 2.05872 9.58033 2.12324 9.58033C2.12324 9.61259 2.12324 9.61259 2.12324 9.61259ZM2.31678 9.61259C2.28453 9.64485 2.25227 9.64485 2.22001 9.64485C2.22001 9.64485 2.18775 9.64485 2.15549 9.64485V9.61259C2.15549 9.58033 2.18775 9.54807 2.25227 9.54807C2.28453 9.58033 2.28453 9.58033 2.31678 9.61259ZM2.70388 9.70936C2.70388 9.70936 2.67162 9.70936 2.67162 9.6771C2.63936 9.6771 2.60711 9.6771 2.57485 9.6771C2.57485 9.6771 2.57485 9.6771 2.54259 9.6771H2.57485C2.63936 9.6771 2.67162 9.70936 2.70388 9.74162C2.70388 9.64485 2.70388 9.6771 2.70388 9.70936Z" fill="#D32030"/>
<path d="M5.96724 9.96732C5.96724 9.93506 5.96724 9.93506 5.96724 9.96732C5.93498 9.93506 5.83821 9.93506 5.74143 9.93506C5.6124 9.93506 5.51562 9.93506 5.51562 9.96732C5.51562 9.96732 5.51562 9.96732 5.51562 9.99957C5.51562 9.99957 5.51563 10.0318 5.54788 10.0318C5.54788 10.0318 5.64466 10.0641 5.77369 10.0641C5.87046 9.99958 5.96724 9.99957 5.96724 9.96732Z" fill="#A5001C"/>
<path d="M6.09652 9.74162C6.12878 9.74162 6.12878 9.70936 6.12878 9.6771C6.12878 9.64485 6.09652 9.61259 6.06426 9.61259C6.03201 9.58033 5.99975 9.58033 5.96749 9.58033H5.93523C5.93523 9.58033 5.93523 9.54807 5.90297 9.54807C5.87072 9.51581 5.87072 9.51581 5.8062 9.51581C5.77394 9.51581 5.74168 9.51581 5.74168 9.54807C5.77394 9.54807 5.77394 9.51581 5.8062 9.51581C5.87072 9.51581 5.90297 9.54807 5.90297 9.58033V9.61259C5.87072 9.61259 5.87072 9.61259 5.83846 9.61259C5.8062 9.61259 5.77394 9.61259 5.74168 9.58033C5.74168 9.58033 5.74168 9.58033 5.74168 9.54807V9.51581C5.74168 9.51581 5.74168 9.48356 5.70943 9.48356C5.70943 9.48356 5.74168 9.48356 5.74168 9.4513C5.74168 9.4513 5.74168 9.41904 5.70943 9.41904V9.38678H5.74168V9.35452H5.70943V9.32227H5.67717V9.35452H5.64491V9.38678H5.67717V9.41904C5.67717 9.41904 5.64491 9.41904 5.64491 9.4513C5.64491 9.4513 5.64491 9.48356 5.67717 9.48356C5.67717 9.48356 5.67717 9.48356 5.64491 9.48356C5.61265 9.48356 5.61265 9.4513 5.58039 9.4513C5.54814 9.4513 5.51588 9.4513 5.48362 9.48356C5.48362 9.48356 5.45136 9.48356 5.45136 9.51581H5.4191C5.38684 9.51581 5.35459 9.51581 5.32233 9.54807C5.29007 9.58033 5.25781 9.58033 5.25781 9.61259C5.25781 9.64485 5.25781 9.64485 5.29007 9.6771C5.29007 9.6771 5.25781 9.6771 5.25781 9.70936C5.25781 9.70936 5.25781 9.70936 5.29007 9.70936L5.32233 9.74162C5.32233 9.74162 5.32233 9.74162 5.32233 9.77388C5.32233 9.77388 5.32233 9.80614 5.35459 9.80614H5.38685C5.38685 9.80614 5.38685 9.80614 5.38685 9.83839C5.45136 9.80614 5.51588 9.80614 5.61265 9.80614C5.70943 9.80614 5.8062 9.80614 5.83846 9.83839C5.83846 9.83839 5.83846 9.83839 5.83846 9.80614H5.87072L5.90297 9.77388C5.90297 9.77388 5.90297 9.77388 5.90297 9.74162C6.09652 9.80614 6.09652 9.77388 6.09652 9.74162C6.12878 9.77388 6.09652 9.77388 6.09652 9.74162C6.12878 9.77388 6.12878 9.74162 6.09652 9.74162ZM5.54814 9.61259C5.51588 9.61259 5.51588 9.61259 5.54814 9.61259C5.51588 9.61259 5.51588 9.64485 5.54814 9.61259C5.54814 9.64485 5.54814 9.64485 5.54814 9.64485C5.54814 9.64485 5.54814 9.64485 5.51588 9.64485C5.48362 9.64485 5.45136 9.64485 5.45136 9.6771C5.45136 9.6771 5.4191 9.6771 5.4191 9.70936V9.6771V9.64485C5.4191 9.61259 5.48362 9.58033 5.54814 9.58033C5.51588 9.61259 5.51588 9.61259 5.54814 9.61259ZM5.70943 9.61259C5.67717 9.64485 5.64491 9.64485 5.61265 9.64485C5.61265 9.64485 5.58039 9.64485 5.54814 9.64485V9.61259C5.54814 9.58033 5.58039 9.54807 5.64491 9.54807C5.67717 9.58033 5.70943 9.58033 5.70943 9.61259ZM6.09652 9.70936C6.09652 9.70936 6.06426 9.70936 6.06426 9.6771C6.03201 9.6771 5.99975 9.64485 5.99975 9.64485C5.99975 9.64485 5.99975 9.64485 5.96749 9.64485H5.99975C6.06426 9.64485 6.09652 9.6771 6.12878 9.70936C6.09652 9.64485 6.09652 9.6771 6.09652 9.70936Z" fill="#A5001C"/>
<path d="M4.02797 9.32263V7.45166H3.99572V7.51618H3.9312V7.58069H3.99572V7.67747C3.9312 7.67747 3.89894 7.74198 3.89894 7.8065C3.89894 7.83876 3.89894 7.83876 3.89894 7.87101C3.9312 7.90327 3.96346 7.93553 3.99572 7.93553C3.96346 7.93553 3.9312 7.96779 3.9312 7.96779C3.9312 7.96779 3.9312 7.96779 3.9312 7.93553C3.9312 7.90327 3.9312 7.90327 3.89894 7.90327C3.86668 7.90327 3.86668 7.90327 3.86668 7.93553C3.86668 7.96779 3.86668 7.96779 3.89894 7.96779H3.9312L3.89894 8.00005C3.83443 7.96779 3.73765 7.93553 3.60862 7.93553C3.47959 7.93553 3.35055 7.96779 3.28604 8.06456C3.25378 8.09682 3.18926 8.12908 3.18926 8.16134C3.18926 8.16134 3.18926 8.16134 3.18926 8.12908C3.18926 8.12908 3.18926 8.12908 3.15701 8.12908C3.15701 8.12908 3.15701 8.09682 3.12475 8.09682H3.09249C3.06023 8.09682 3.02797 8.09682 2.96346 8.09682C2.80217 8.09682 2.64088 8.16134 2.5441 8.22585L2.57636 8.1936C2.44733 8.25811 2.38281 8.38714 2.38281 8.51618C2.38281 8.58069 2.41507 8.67747 2.44733 8.70972L2.47959 8.74198C2.44733 8.74198 2.41507 8.77424 2.41507 8.83876C2.41507 8.83876 2.47959 8.83876 2.51184 8.87101C2.5441 8.90327 2.57636 8.96779 2.57636 8.96779C2.57636 9.00005 2.57636 9.00005 2.57636 9.03231C2.60862 9.06456 2.60862 9.06456 2.64088 9.03231C2.67313 9.06456 2.70539 9.12908 2.76991 9.16134C2.80217 9.1936 2.86668 9.1936 2.89894 9.1936C2.89894 9.1936 2.89894 9.1936 2.9312 9.1936H2.89894C2.86668 9.1936 2.86668 9.22585 2.86668 9.22585C2.86668 9.25811 2.89894 9.25811 2.89894 9.25811C2.89894 9.25811 2.9312 9.25811 2.96346 9.29037L2.99572 9.35489L3.06023 9.38714C3.06023 9.4194 3.06023 9.45166 3.06023 9.45166C3.3183 9.35489 3.67314 9.32263 4.02797 9.32263ZM3.25378 8.25811C3.25378 8.12908 3.41507 8.00005 3.64088 8.00005C3.73765 8.00005 3.83443 8.03231 3.89894 8.06456V8.03231C3.89894 8.06456 3.89894 8.09682 3.89894 8.12908C3.89894 8.12908 3.89894 8.12908 3.89894 8.16134C3.89894 8.16134 3.89894 8.16134 3.89894 8.1936C3.89894 8.22585 3.89894 8.25811 3.89894 8.29037C3.73765 8.29037 3.60862 8.32263 3.51184 8.35489C3.44733 8.38714 3.38281 8.38714 3.28604 8.4194C3.28604 8.38714 3.25378 8.32263 3.25378 8.25811ZM3.06023 8.4194C2.96346 8.4194 2.86668 8.45166 2.73765 8.48392C2.67314 8.51618 2.64088 8.54843 2.57636 8.54843C2.5441 8.51618 2.5441 8.48392 2.5441 8.4194C2.5441 8.38714 2.5441 8.35489 2.57636 8.32263C2.64088 8.1936 2.83443 8.12908 3.06023 8.12908C3.12475 8.12908 3.15701 8.12908 3.18926 8.12908C3.18926 8.12908 3.18926 8.16134 3.15701 8.16134C3.12475 8.16134 3.12475 8.16134 3.12475 8.1936C3.12475 8.22585 3.12475 8.22585 3.15701 8.22585V8.25811C3.15701 8.25811 3.12475 8.25811 3.12475 8.29037C3.12475 8.32263 3.12475 8.32263 3.15701 8.32263V8.35489C3.15701 8.35489 3.15701 8.35489 3.15701 8.38714C3.12475 8.4194 3.09249 8.4194 3.06023 8.4194Z" fill="#D32030"/>
<path d="M4.03024 9.41943C3.51411 9.41943 3.12702 9.45169 3.12702 9.51621C3.09476 9.51621 3.0625 9.58072 3.0625 9.61298C3.0625 9.64524 3.09476 9.70976 3.15927 9.70976C3.15927 9.77427 3.54637 9.80653 4.03024 9.80653V9.41943Z" fill="#D32030"/>
<path d="M4.03049 9.87109H2.80469V11.2259C2.80469 11.9034 3.35307 12.4517 4.03049 12.4517V9.87109Z" fill="#D32030"/>
</g>
<defs>
<clipPath id="clip0_3679_102574">
<rect width="20" height="20" fill="white"/>
</clipPath>
</defs>
</svg>
