<svg width="54" height="54" viewBox="0 0 54 54" fill="none" xmlns="http://www.w3.org/2000/svg">
<path d="M34.9987 18.0654C34.2867 18.0654 33.5907 18.2765 32.9987 18.6721C32.4066 19.0676 31.9452 19.6299 31.6727 20.2877C31.4003 20.9455 31.329 21.6694 31.4679 22.3677C31.6068 23.066 31.9497 23.7075 32.4531 24.211C32.9566 24.7144 33.5981 25.0573 34.2964 25.1962C34.9947 25.3351 35.7186 25.2638 36.3764 24.9913C37.0342 24.7189 37.5964 24.2574 37.992 23.6654C38.3876 23.0734 38.5987 22.3774 38.5987 21.6654C38.6023 21.1916 38.5116 20.7219 38.3319 20.2835C38.1522 19.8451 37.8872 19.4469 37.5522 19.1119C37.2172 18.7769 36.8189 18.5118 36.3806 18.3322C35.9422 18.1525 35.4725 18.0618 34.9987 18.0654ZM18.9987 25.2654C19.7107 25.2654 20.4067 25.0542 20.9988 24.6587C21.5908 24.2631 22.0522 23.7008 22.3247 23.043C22.5972 22.3852 22.6684 21.6614 22.5295 20.963C22.3906 20.2647 22.0478 19.6232 21.5443 19.1198C21.0408 18.6163 20.3994 18.2734 19.701 18.1345C19.0027 17.9956 18.2789 18.0669 17.621 18.3394C16.9632 18.6119 16.401 19.0733 16.0054 19.6653C15.6098 20.2573 15.3987 20.9534 15.3987 21.6654C15.3952 22.1391 15.4859 22.6088 15.6655 23.0472C15.8452 23.4856 16.1102 23.8839 16.4452 24.2189C16.7802 24.5539 17.1785 24.8189 17.6169 24.9986C18.0552 25.1782 18.525 25.2689 18.9987 25.2654ZM19.452 31.8787L15.692 35.6387C18.6921 38.635 22.7587 40.318 26.9987 40.318C31.2387 40.318 35.3054 38.635 38.3054 35.6387L34.5454 31.8787C32.5118 33.8186 29.8092 34.9009 26.9987 34.9009C24.1882 34.9009 21.4857 33.8186 19.452 31.8787ZM26.9987 0.332031C21.7245 0.332031 16.5688 1.896 12.1835 4.82618C7.79819 7.75635 4.38026 11.9211 2.36192 16.7938C0.343585 21.6665 -0.184503 27.0283 0.844436 32.2011C1.87338 37.3739 4.41313 42.1255 8.14253 45.8549C11.8719 49.5843 16.6235 52.124 21.7963 53.153C26.9691 54.1819 32.3309 53.6538 37.2036 51.6355C42.0763 49.6172 46.2411 46.1992 49.1712 41.8139C52.1014 37.4286 53.6654 32.2729 53.6654 26.9987C53.6654 23.4968 52.9756 20.0292 51.6355 16.7938C50.2954 13.5585 48.3311 10.6187 45.8549 8.14252C43.3787 5.66629 40.439 3.70204 37.2036 2.36191C33.9683 1.02179 30.5006 0.332031 26.9987 0.332031ZM26.9987 48.332C22.7794 48.332 18.6548 47.0809 15.1465 44.7367C11.6383 42.3926 8.90395 39.0608 7.28928 35.1626C5.67461 31.2645 5.25214 26.975 6.07529 22.8368C6.89844 18.6985 8.93025 14.8973 11.9138 11.9138C14.8973 8.93023 18.6985 6.89843 22.8368 6.07528C26.975 5.25213 31.2645 5.6746 35.1626 7.28927C39.0608 8.90394 42.3926 11.6383 44.7367 15.1465C47.0809 18.6548 48.332 22.7794 48.332 26.9987C48.332 32.6567 46.0844 38.0829 42.0837 42.0836C38.0829 46.0844 32.6567 48.332 26.9987 48.332Z" fill="#3EC28F"/>
</svg>
