<svg width="32" height="32" viewBox="0 0 32 32" fill="none" xmlns="http://www.w3.org/2000/svg">
<path fill-rule="evenodd" clip-rule="evenodd" d="M16 19C9.09644 19 3 25.0964 3 32H0C0 23.4396 7.43959 16 16 16C24.5604 16 32 23.4396 32 32H29C29 25.0964 22.9036 19 16 19Z" fill="white"/>
<path fill-rule="evenodd" clip-rule="evenodd" d="M16 10C17.933 10 19.5 8.433 19.5 6.5C19.5 4.567 17.933 3 16 3C14.067 3 12.5 4.567 12.5 6.5C12.5 8.433 14.067 10 16 10ZM16 13C19.5899 13 22.5 10.0899 22.5 6.5C22.5 2.91015 19.5899 0 16 0C12.4101 0 9.5 2.91015 9.5 6.5C9.5 10.0899 12.4101 13 16 13Z" fill="white"/>
</svg>
