<svg width="14" height="19" viewBox="0 0 14 19" fill="none" xmlns="http://www.w3.org/2000/svg">
<path d="M7.02369 0C3.44358 0 0.531006 2.913 0.531006 6.4932C0.531006 9.93945 6.42193 17.9911 6.67276 18.3321L6.90685 18.6507C6.93423 18.6881 6.97782 18.71 7.02369 18.71C7.07026 18.71 7.11357 18.6881 7.14123 18.6507L7.37518 18.3321C7.62616 17.9911 13.5169 9.93945 13.5169 6.4932C13.5169 2.913 10.6039 0 7.02369 0ZM7.02369 4.16735C8.30645 4.16735 9.34954 5.21049 9.34954 6.4932C9.34954 7.77525 8.3064 8.81905 7.02369 8.81905C5.74168 8.81905 4.69783 7.77525 4.69783 6.4932C4.69783 5.21049 5.74163 4.16735 7.02369 4.16735Z" fill="#000000"/>
</svg>
