<svg width="15" height="15" viewBox="0 0 15 15" fill="none" xmlns="http://www.w3.org/2000/svg">
<path d="M13.1263 10.9565C12.8979 10.6682 12.589 10.3778 12.2171 10.0837C11.9581 9.87889 11.683 9.68388 11.4082 9.50404C11.2428 9.39583 11.1127 9.3158 11.0349 9.27018C10.3589 8.88543 9.57296 8.93638 9.16521 9.59025C9.09133 9.67819 8.9898 9.79698 8.88571 9.91477C8.87063 9.93182 8.87063 9.93182 8.85557 9.94879C8.74419 10.0739 8.63888 10.1826 8.64925 10.1756C8.24719 10.4478 8.00369 10.4278 7.6495 10.0733L6.2874 8.71178L4.92648 7.35024C4.57158 6.99572 4.55163 6.7522 4.82389 6.35005C4.81671 6.36065 4.92534 6.25551 5.05028 6.14437C5.06727 6.12928 5.06727 6.12928 5.08438 6.11417C5.20229 6.01009 5.32122 5.90852 5.40919 5.83473C6.06292 5.4264 6.11404 4.64067 5.73319 3.97141C5.6835 3.88658 5.60344 3.75651 5.49517 3.59114C5.31524 3.31625 5.1202 3.04114 4.91541 2.78212C4.62214 2.41123 4.33257 2.10303 4.04516 1.87479C3.91674 1.77282 3.78878 1.68696 3.65977 1.61856C3.05481 1.29884 2.31285 1.41054 1.82961 1.89378L1.22799 2.49466C-0.0984487 3.82178 -0.325626 5.38243 0.427207 6.99516C0.689859 7.55773 1.06922 8.07759 1.54833 8.55816L6.41158 13.4377C6.80506 13.8319 7.21735 14.1533 7.66031 14.3971C9.39019 15.3488 11.0779 15.198 12.5044 13.7715L13.1058 13.1694C13.5888 12.6864 13.7006 11.9442 13.381 11.3404C13.313 11.212 13.2276 11.0845 13.1263 10.9565ZM12.2218 12.2859L11.6204 12.8879C10.6074 13.9009 9.52691 13.9974 8.26289 13.302C7.93072 13.1192 7.6108 12.8698 7.29674 12.5552L2.43354 7.67579C2.05151 7.29256 1.75711 6.88912 1.55975 6.46643C1.02326 5.31713 1.16803 4.32274 2.11168 3.37858L2.71315 2.77773C2.8088 2.68208 2.95551 2.66 3.075 2.72313C3.13083 2.75271 3.19613 2.79654 3.26784 2.85351C3.46798 3.01244 3.69621 3.25537 3.9349 3.55725C4.11433 3.78419 4.28845 4.02977 4.44931 4.27555C4.54554 4.42257 4.61505 4.53547 4.65085 4.59655C4.73534 4.74516 4.73232 4.78298 4.73991 4.7787L4.64625 4.84324C4.62132 4.86401 4.57873 4.89978 4.52424 4.94606C4.43343 5.02319 4.34253 5.10164 4.25708 5.17708C4.23827 5.19371 4.23827 5.19371 4.21943 5.21044C3.9929 5.41196 3.86694 5.53388 3.78884 5.64921C3.18444 6.54198 3.25894 7.45119 4.04273 8.23414L5.40351 9.59556L6.76546 10.9569C7.54805 11.7403 8.45726 11.8148 9.34994 11.2105C9.46527 11.1324 9.58728 11.0065 9.78894 10.78C9.80564 10.7612 9.80564 10.7612 9.82225 10.7424C9.89774 10.657 9.97625 10.5661 10.0535 10.4753C10.0998 10.4208 10.1356 10.3782 10.1564 10.3533L10.2215 10.2587C10.2169 10.267 10.2543 10.264 10.4097 10.3525C10.4638 10.3842 10.5767 10.4537 10.7237 10.5499C10.9694 10.7107 11.2149 10.8847 11.4418 11.0641C11.7444 11.3034 11.9877 11.5321 12.1465 11.7326C12.203 11.804 12.2465 11.8689 12.2762 11.9252C12.3392 12.044 12.3172 12.1905 12.2218 12.2859Z" fill="#ffffff"/>
<path d="M12.8014 4.56855H12.5646V2.90933C12.5646 2.80682 12.499 2.71683 12.4021 2.68435C12.3052 2.65247 12.199 2.68561 12.1377 2.76684L10.7153 4.66355C10.6616 4.73541 10.6529 4.83103 10.6928 4.91165C10.7328 4.99165 10.8153 5.04288 10.9047 5.04288H12.0902V5.75406C12.0902 5.88468 12.1965 5.9909 12.3271 5.9909C12.4583 5.9909 12.5645 5.88465 12.5645 5.75406V5.04288H12.8014C12.9326 5.04288 13.0382 4.93663 13.0382 4.80539C13.0383 4.6748 12.9327 4.56855 12.8014 4.56855ZM12.0902 4.56855H11.3791L12.0902 3.6205V4.56855Z" fill="#ffffff"/>
<path d="M10.4309 5.51654H8.93542L10.1847 4.43913C10.4809 4.14229 10.5696 3.6967 10.4109 3.30298C10.2559 2.92052 9.90784 2.67866 9.48287 2.67242C8.82917 2.67242 8.29736 3.20426 8.29736 3.85732C8.29736 3.98856 8.40361 4.09481 8.53485 4.09481C8.66547 4.09481 8.7717 3.98856 8.7717 3.85732C8.7717 3.46548 9.09042 3.14614 9.49412 3.14614H9.49474C9.70973 3.14989 9.88784 3.27489 9.97156 3.48112C10.0409 3.65299 10.0453 3.90732 9.8622 4.09232L8.43045 5.32657C8.3092 5.4303 8.26734 5.59467 8.32232 5.74404C8.37795 5.89403 8.5173 5.99091 8.67728 5.99091H10.4309C10.5615 5.99091 10.6677 5.88466 10.6677 5.75406C10.6678 5.62276 10.5615 5.51654 10.4309 5.51654Z" fill="#ffffff"/>
<path d="M10.5816 0C8.14775 0 6.25016 1.92838 6.25016 4.3746C6.25016 5.12175 6.34829 5.73233 6.59574 6.27588L6.26149 8.00571C6.17341 8.46155 6.59557 8.8509 7.0428 8.72629L8.56929 8.30099C9.17126 8.59953 9.88162 8.74919 10.6248 8.74919C13.0647 8.74919 14.9994 6.81454 14.9994 4.3746C14.9994 1.94063 13.0278 0 10.5816 0ZM10.6248 7.49933C9.99176 7.49933 9.40793 7.35833 8.9648 7.0943C8.818 7.00683 8.6418 6.98331 8.47719 7.02915L7.68027 7.25117L7.86301 6.3055C7.89055 6.16295 7.86761 6.01525 7.79809 5.88776C7.58905 5.50436 7.50003 5.02888 7.50003 4.3746C7.50003 2.61422 8.84258 1.24987 10.5816 1.24987C12.3418 1.24987 13.7495 2.63537 13.7495 4.3746C13.7495 6.12428 12.3744 7.49933 10.6248 7.49933Z" fill="#ffffff"/>
</svg>
