<svg width="29" height="25" viewBox="0 0 29 25" fill="none" xmlns="http://www.w3.org/2000/svg">
<g clip-path="url(#clip0_762_45674)">
<path d="M4.33776 1.7027H2V1H5.63575L6.15484 2.95886L6.35195 3.7027H7.12147H27.0264V11.8119L10.2018 14.8265L9.1523 15.0145L9.40713 16.0498L9.83956 17.8066L10.0269 18.5676H10.8106H24.3237V19.2703H9.48446L5.30825 2.46158L5.1197 1.7027H4.33776ZM8.72505 22.7378C8.83838 22.662 8.97162 22.6216 9.10791 22.6216C9.29068 22.6216 9.46596 22.6942 9.5952 22.8235C9.72444 22.9527 9.79706 23.128 9.79706 23.3108C9.79706 23.4471 9.75664 23.5804 9.68091 23.6937C9.60518 23.8071 9.49755 23.8954 9.37162 23.9475C9.24571 23.9997 9.10715 24.0133 8.97347 23.9868C8.83979 23.9602 8.717 23.8945 8.62062 23.7981C8.52424 23.7018 8.4586 23.579 8.432 23.4453C8.40541 23.3116 8.41906 23.173 8.47122 23.0471C8.52339 22.9211 8.61172 22.8135 8.72505 22.7378ZM23.5895 22.7378C23.7029 22.662 23.8361 22.6216 23.9724 22.6216C24.1552 22.6216 24.3305 22.6942 24.4597 22.8235C24.5889 22.9527 24.6616 23.128 24.6616 23.3108C24.6616 23.4471 24.6211 23.5804 24.5454 23.6937C24.4697 23.807 24.3621 23.8954 24.2361 23.9475C24.1102 23.9997 23.9717 24.0133 23.838 23.9868C23.7043 23.9602 23.5815 23.8945 23.4851 23.7982C23.3887 23.7018 23.3231 23.579 23.2965 23.4453C23.2699 23.3116 23.2836 23.173 23.3357 23.0471C23.3879 22.9211 23.4762 22.8135 23.5895 22.7378Z" stroke="#2363D1" stroke-width="2"/>
</g>
<defs>
<clipPath id="clip0_762_45674">
<rect width="27" height="25" fill="white" transform="translate(1)"/>
</clipPath>
</defs>
</svg>
