<svg width="23" height="19" viewBox="0 0 23 19" fill="none" xmlns="http://www.w3.org/2000/svg">
<path d="M18.5986 9.79588C20.6524 9.54732 22.25 7.80989 22.25 5.70603C22.25 3.43217 20.385 1.58255 18.0932 1.58255C16.0113 1.58255 14.2876 3.11021 13.9879 5.09376L4.63865 3.98185L3.95592 0.0302734H0.5V1.5231H2.68702L3.0795 3.79643L3.04785 3.79271L4.84618 13.6457H4.88405L5.10297 14.5335C4.03752 14.7098 3.222 15.6285 3.222 16.7349C3.222 17.9672 4.23245 18.9697 5.47437 18.9697C6.7163 18.9697 7.72678 17.9672 7.72678 16.7349C7.72678 16.4746 7.67938 16.2258 7.59665 15.9935H14.4705C14.3877 16.226 14.3401 16.4749 14.3401 16.7349C14.3401 17.9672 15.3505 18.9697 16.5928 18.9697C17.8345 18.9697 18.845 17.9672 18.845 16.7349C18.845 15.5028 17.8345 14.5006 16.5928 14.5006H6.64355L6.43287 13.6457H17.7074L18.5986 9.79588ZM16.5935 15.9935C17.0053 15.9935 17.3409 16.3261 17.3409 16.7349C17.3409 17.1441 17.0053 17.4769 16.5935 17.4769C16.1809 17.4769 15.8456 17.144 15.8456 16.7349C15.8456 16.3259 16.1812 15.9935 16.5935 15.9935ZM18.0933 3.07567C19.5555 3.07567 20.7453 4.25575 20.7453 5.70626C20.7453 7.15686 19.5555 8.33694 18.0933 8.33694C16.6311 8.33694 15.4418 7.15686 15.4418 5.70626C15.4418 4.25575 16.6311 3.07567 18.0933 3.07567ZM5.4749 17.4769C5.06262 17.4769 4.7273 17.144 4.7273 16.7349C4.7273 16.3259 5.06262 15.9935 5.4749 15.9935C5.88717 15.9935 6.2225 16.3261 6.2225 16.7349C6.2225 17.1441 5.88717 17.4769 5.4749 17.4769ZM16.5091 12.1526H6.1031V12.1529L5.10868 6.7033L4.90378 5.51694L14.0389 6.60353C14.3798 8.12005 15.5643 9.3205 17.0769 9.69967L16.5091 12.1526Z" fill="#000000"/>
<path d="M18.5 3.81818H17.75V7.60606H18.5V3.81818Z" fill="#000000"/>
<path d="M20 6.09089V5.33331H16.25V6.09089H20Z" fill="#000000"/>
</svg>
