<svg width="48" height="31" viewBox="0 0 48 31" fill="none" xmlns="http://www.w3.org/2000/svg">
<path d="M14.7692 26.5C14.7692 28.9853 12.9095 31 10.6154 31C8.32128 31 6.46154 28.9853 6.46154 26.5C6.46154 24.0147 8.32128 22 10.6154 22C12.9095 22 14.7692 24.0147 14.7692 26.5Z" fill="white"/>
<path d="M39.6163 26.5C39.6163 28.9853 37.7565 31 35.4624 31C33.1683 31 31.3086 28.9853 31.3086 26.5C31.3086 24.0147 33.1683 22 35.4624 22C37.7565 22 39.6163 24.0147 39.6163 26.5Z" fill="white"/>
<path d="M6.5 0H35L33.2308 7H40.6923L48 13.8478L45 26H0L6.5 0Z" fill="white"/>
</svg>
