<svg width="24" height="24" viewBox="0 0 24 24" fill="none" xmlns="http://www.w3.org/2000/svg">
<g clip-path="url(#clip0_339_16)">
<path d="M12 24C18.6274 24 24 18.6274 24 12C24 5.37258 18.6274 0 12 0C5.37258 0 0 5.37258 0 12C0 18.6274 5.37258 24 12 24Z" fill="white"/>
<path fill-rule="evenodd" clip-rule="evenodd" d="M12.4452 3.00682C12.9278 3.03709 13.3217 3.08559 13.7224 3.16409C14.728 3.36111 15.6917 3.7276 16.573 4.24814C17.7397 4.9373 18.745 5.88899 19.4939 7.01311C19.718 7.3495 19.8927 7.65212 20.0715 8.01371C20.4625 8.80474 20.7293 9.63344 20.8759 10.5129C20.9517 10.9675 20.9999 11.4364 21 11.7208L21 11.8305L20.9769 11.8275C20.9641 11.8259 20.869 11.823 20.7655 11.8211C20.5891 11.8179 20.4896 11.8152 19.9603 11.7993C17.8046 11.7346 16.52 11.5631 15.5487 11.2102C14.6656 10.8893 13.9643 10.3802 13.4448 9.68289C12.771 8.77855 12.4289 7.5945 12.279 5.64724C12.2535 5.31732 12.2416 5.09673 12.2202 4.56428C12.1932 3.88949 12.1831 3.52973 12.183 3.23912L12.183 3L12.274 3.00089C12.324 3.00139 12.4011 3.00405 12.4452 3.00682ZM11.6206 3.01077C11.6677 3.09871 11.6223 4.70761 11.5441 5.72129C11.4124 7.4299 11.1135 8.56233 10.5677 9.42064C10.389 9.70176 10.224 9.90295 9.95792 10.1644C9.58698 10.5289 9.26072 10.7623 8.81102 10.9849C7.82687 11.4722 6.57653 11.693 4.26985 11.787C4.02094 11.7971 3.78609 11.8049 3.42764 11.8148C3.24269 11.8199 3.07081 11.8251 3.04568 11.8263L3 11.8286L3.00391 11.6644C3.01523 11.1888 3.10829 10.5136 3.24341 9.92664C3.52985 8.68242 4.11745 7.46294 4.92334 6.44018C5.28116 5.98607 5.69758 5.5517 6.13967 5.17143C6.99857 4.43263 7.99778 3.86003 9.08559 3.48328C9.53659 3.32709 10.1087 3.18201 10.5268 3.11779C10.7571 3.08243 11.3517 3.01542 11.5484 3.00267C11.6101 2.99866 11.6144 2.99915 11.6206 3.01077ZM21 12.3749C20.9998 12.4568 20.966 12.8326 20.9379 13.0645C20.6819 15.1765 19.7275 17.0684 18.1741 18.543C17.578 19.1088 16.9895 19.5351 16.2792 19.9157C15.298 20.4414 14.212 20.7944 13.1825 20.9223C12.8017 20.9697 12.4476 20.9998 12.2716 20.9999L12.172 21L12.1744 20.9614C12.1757 20.9402 12.1796 20.816 12.1832 20.6853C12.2365 18.7191 12.3197 17.7067 12.5036 16.7854C12.6971 15.8158 12.9901 15.0984 13.4386 14.4961C13.649 14.2134 13.9274 13.9249 14.2095 13.6972C15.2876 12.8268 16.8328 12.4646 19.8308 12.3794C20.1552 12.3702 20.8367 12.3549 20.9244 12.3549L21 12.3548L21 12.3749ZM3.86263 12.371C4.19932 12.3819 4.35647 12.3876 4.52899 12.3952C6.92884 12.5016 8.31607 12.8118 9.30346 13.4631C9.87094 13.8375 10.3444 14.3456 10.6913 14.9527C11.2354 15.9047 11.5084 17.2645 11.6057 19.5067C11.6452 20.4166 11.6501 20.8917 11.621 20.9798C11.6153 20.9973 11.6116 21 11.5936 21C11.4982 21 10.8395 20.9266 10.5664 20.8855C10.2964 20.8449 9.9128 20.7603 9.58845 20.6699C8.2185 20.2879 7.03583 19.6367 5.97203 18.6786C5.84425 18.5635 5.54398 18.2668 5.42069 18.1337C4.6951 17.3506 4.12714 16.4771 3.7134 15.5081C3.50153 15.0118 3.33918 14.5068 3.21547 13.9592C3.16078 13.7171 3.10495 13.3739 3.05739 12.9873C3.02206 12.7001 2.99484 12.3845 3.00457 12.3748C3.00887 12.3705 3.74543 12.3672 3.86263 12.371Z" fill="#4F4F4F"/>
</g>
<defs>
<clipPath id="clip0_339_16">
<rect width="24" height="24" fill="white"/>
</clipPath>
</defs>
</svg>
