<svg width="480" height="480" viewBox="0 0 480 480" fill="none" xmlns="http://www.w3.org/2000/svg">
<rect width="480" height="480" fill="#CFCFCF"/>
<rect x="120" y="120" width="240" height="240" fill="#CFCFCF"/>
<path d="M208.966 247.227C207.943 247.227 207.063 246.986 206.324 246.503C205.585 246.02 205.017 245.355 204.619 244.507C204.222 243.66 204.023 242.691 204.023 241.602C204.023 240.494 204.226 239.517 204.634 238.669C205.045 237.817 205.618 237.152 206.352 236.673C207.091 236.19 207.953 235.949 208.938 235.949C209.705 235.949 210.396 236.091 211.011 236.375C211.627 236.659 212.131 237.057 212.524 237.568C212.917 238.08 213.161 238.676 213.256 239.358H211.58C211.452 238.861 211.168 238.42 210.727 238.037C210.292 237.649 209.705 237.455 208.966 237.455C208.313 237.455 207.74 237.625 207.247 237.966C206.759 238.302 206.378 238.778 206.104 239.393C205.834 240.004 205.699 240.722 205.699 241.545C205.699 242.388 205.831 243.122 206.097 243.747C206.366 244.372 206.745 244.857 207.233 245.203C207.725 245.549 208.303 245.722 208.966 245.722C209.402 245.722 209.797 245.646 210.152 245.494C210.507 245.343 210.808 245.125 211.054 244.841C211.3 244.557 211.475 244.216 211.58 243.818H213.256C213.161 244.462 212.927 245.042 212.553 245.558C212.183 246.07 211.693 246.477 211.082 246.78C210.476 247.078 209.771 247.227 208.966 247.227ZM220.138 247.227C219.153 247.227 218.289 246.993 217.545 246.524C216.807 246.055 216.229 245.4 215.812 244.557C215.401 243.714 215.195 242.729 215.195 241.602C215.195 240.466 215.401 239.474 215.812 238.626C216.229 237.779 216.807 237.121 217.545 236.652C218.289 236.183 219.153 235.949 220.138 235.949C221.123 235.949 221.984 236.183 222.723 236.652C223.466 237.121 224.044 237.779 224.456 238.626C224.873 239.474 225.081 240.466 225.081 241.602C225.081 242.729 224.873 243.714 224.456 244.557C224.044 245.4 223.466 246.055 222.723 246.524C221.984 246.993 221.123 247.227 220.138 247.227ZM220.138 245.722C220.886 245.722 221.501 245.53 221.984 245.146C222.467 244.763 222.825 244.259 223.057 243.634C223.289 243.009 223.405 242.331 223.405 241.602C223.405 240.873 223.289 240.194 223.057 239.564C222.825 238.934 222.467 238.425 221.984 238.037C221.501 237.649 220.886 237.455 220.138 237.455C219.39 237.455 218.774 237.649 218.291 238.037C217.808 238.425 217.451 238.934 217.219 239.564C216.987 240.194 216.871 240.873 216.871 241.602C216.871 242.331 216.987 243.009 217.219 243.634C217.451 244.259 217.808 244.763 218.291 245.146C218.774 245.53 219.39 245.722 220.138 245.722ZM229.316 240.438V247H227.64V236.091H229.259V237.795H229.401C229.657 237.241 230.045 236.796 230.566 236.46C231.087 236.119 231.759 235.949 232.583 235.949C233.321 235.949 233.968 236.1 234.522 236.403C235.076 236.702 235.507 237.156 235.814 237.767C236.122 238.373 236.276 239.14 236.276 240.068V247H234.6V240.182C234.6 239.325 234.377 238.657 233.932 238.179C233.487 237.696 232.876 237.455 232.1 237.455C231.565 237.455 231.087 237.571 230.665 237.803C230.248 238.035 229.919 238.373 229.678 238.818C229.436 239.263 229.316 239.803 229.316 240.438ZM244.083 236.091V237.511H238.43V236.091H244.083ZM240.077 233.477H241.754V243.875C241.754 244.348 241.822 244.704 241.96 244.94C242.102 245.172 242.281 245.329 242.499 245.409C242.722 245.485 242.956 245.523 243.202 245.523C243.387 245.523 243.539 245.513 243.657 245.494C243.775 245.471 243.87 245.452 243.941 245.438L244.282 246.943C244.168 246.986 244.01 247.028 243.806 247.071C243.603 247.118 243.344 247.142 243.032 247.142C242.558 247.142 242.094 247.04 241.64 246.837C241.19 246.633 240.816 246.323 240.518 245.906C240.224 245.49 240.077 244.964 240.077 244.33V233.477ZM251.061 247.227C250.01 247.227 249.103 246.995 248.341 246.531C247.583 246.062 246.999 245.409 246.587 244.571C246.179 243.728 245.976 242.748 245.976 241.631C245.976 240.513 246.179 239.528 246.587 238.676C246.999 237.819 247.571 237.152 248.305 236.673C249.044 236.19 249.906 235.949 250.891 235.949C251.459 235.949 252.02 236.044 252.574 236.233C253.128 236.422 253.632 236.73 254.087 237.156C254.541 237.578 254.903 238.136 255.173 238.832C255.443 239.528 255.578 240.385 255.578 241.403V242.114H247.169V240.665H253.874C253.874 240.049 253.75 239.5 253.504 239.017C253.263 238.534 252.917 238.153 252.467 237.874C252.022 237.594 251.497 237.455 250.891 237.455C250.223 237.455 249.645 237.62 249.158 237.952C248.675 238.278 248.303 238.705 248.043 239.23C247.782 239.756 247.652 240.319 247.652 240.92V241.886C247.652 242.71 247.794 243.409 248.078 243.982C248.367 244.55 248.767 244.983 249.278 245.281C249.79 245.575 250.384 245.722 251.061 245.722C251.501 245.722 251.899 245.66 252.254 245.537C252.614 245.409 252.924 245.22 253.185 244.969C253.445 244.713 253.646 244.396 253.788 244.017L255.408 244.472C255.237 245.021 254.951 245.504 254.548 245.92C254.146 246.332 253.649 246.654 253.057 246.886C252.465 247.114 251.8 247.227 251.061 247.227ZM259.804 240.438V247H258.128V236.091H259.747V237.795H259.889C260.145 237.241 260.533 236.796 261.054 236.46C261.575 236.119 262.247 235.949 263.071 235.949C263.81 235.949 264.456 236.1 265.01 236.403C265.564 236.702 265.995 237.156 266.303 237.767C266.61 238.373 266.764 239.14 266.764 240.068V247H265.088V240.182C265.088 239.325 264.866 238.657 264.42 238.179C263.975 237.696 263.365 237.455 262.588 237.455C262.053 237.455 261.575 237.571 261.153 237.803C260.737 238.035 260.408 238.373 260.166 238.818C259.925 239.263 259.804 239.803 259.804 240.438ZM274.571 236.091V237.511H268.918V236.091H274.571ZM270.566 233.477H272.242V243.875C272.242 244.348 272.31 244.704 272.448 244.94C272.59 245.172 272.77 245.329 272.988 245.409C273.21 245.485 273.444 245.523 273.691 245.523C273.875 245.523 274.027 245.513 274.145 245.494C274.264 245.471 274.358 245.452 274.429 245.438L274.77 246.943C274.657 246.986 274.498 247.028 274.294 247.071C274.091 247.118 273.833 247.142 273.52 247.142C273.047 247.142 272.583 247.04 272.128 246.837C271.678 246.633 271.304 246.323 271.006 245.906C270.712 245.49 270.566 244.964 270.566 244.33V233.477Z" fill="white"/>
</svg>
