<svg width="29" height="25" viewBox="0 0 29 25" fill="none" xmlns="http://www.w3.org/2000/svg">
<g clip-path="url(#clip0_762_45701)">
<path fill-rule="evenodd" clip-rule="evenodd" d="M14.3159 1.7246C11.0751 -0.787056 6.39524 -0.555285 3.41997 2.41991C0.193342 5.64647 0.193342 10.8778 3.41997 14.1043L14.3159 25L25.2118 14.1043C28.4385 10.8778 28.4385 5.64647 25.2118 2.41991C22.2366 -0.555285 17.5567 -0.787056 14.3159 1.7246ZM13.5272 3.99729C11.1718 1.64188 7.35279 1.64188 4.99732 3.99729C2.64187 6.35269 2.64187 10.1715 4.99732 12.5269L14.3159 21.8453L23.6345 12.5269C25.99 10.1715 25.99 6.35269 23.6345 3.99729C21.279 1.64188 17.46 1.64188 15.1046 3.99729L14.3159 4.78594L13.5272 3.99729Z" fill="#2363D1"/>
</g>
<defs>
<clipPath id="clip0_762_45701">
<rect width="27" height="25" fill="white" transform="translate(1)"/>
</clipPath>
</defs>
</svg>
