<svg xmlns="http://www.w3.org/2000/svg" width="16" viewBox="0 0 18 16" fill="none">
	<path d="M8.95081 1.91015C10.9027 0.157684 13.919 0.21585 15.7994 2.0996C17.6789 3.98418 17.7438 6.98556 15.9955 8.94326L8.94915 15.9996L1.90448 8.94326C0.156195 6.98556 0.221839 3.9792 2.10058 2.0996C3.98265 0.218343 6.99313 0.155191 8.95081 1.91015ZM14.6228 3.27373C13.3764 2.02565 11.3655 1.97496 10.0609 3.14659L8.95164 4.14206L7.84151 3.14742C6.53279 1.97413 4.52608 2.02565 3.27635 3.27539C2.03826 4.5135 1.97594 6.4953 3.11682 7.80487L8.94998 13.6472L14.7831 7.8057C15.9248 6.4953 15.8625 4.51599 14.6228 3.27373Z" fill="#fff"/>
</svg>