<svg class="gPlay-icon" width="134" height="48" viewBox="0 0 134 48" fill="none" xmlns="http://www.w3.org/2000/svg">
<path class="my_fill fill_0" d="M38.3741 22.464C39.2086 22.9309 39.2086 24.1318 38.3741 24.5986L14.7302 37.8265C13.5074 38.5106 12 37.6267 12 36.2255L12 10.8372C12 9.43596 13.5074 8.55205 14.7302 9.23617L38.3741 22.464Z" fill="#00D7FD"/>
<path class="my_fill fill_1" fill-rule="evenodd" clip-rule="evenodd" d="M31.4767 18.6051L14.7304 9.23624C14.0744 8.86925 13.3366 8.95348 12.7935 9.32674L26.6205 23.3855L31.4767 18.6051Z" fill="url(#paint0_linear_6_568)"/>
<path class="my_fill fill_2" fill-rule="evenodd" clip-rule="evenodd" d="M31.5597 28.4111L14.7302 37.8265C14.044 38.2104 13.2682 38.1006 12.7195 37.6827L26.6203 23.5489L31.5597 28.4111Z" fill="url(#paint1_linear_6_568)"/>
<path class="my_fill fill_3" fill-rule="evenodd" clip-rule="evenodd" d="M38.3742 24.5985C39.2087 24.1316 39.2087 22.9307 38.3742 22.4638L31.292 18.5016L26.5996 23.4547L31.4436 28.4758L38.3742 24.5985Z" fill="url(#paint2_linear_6_568)"/>
<path d="M47.9919 13.5576H51.9119V19.2397H52.4919V21.5029H51.7317V20H47.4734V21.5029H46.7131V19.2397H47.2141C47.7327 18.4575 47.9919 16.877 47.9919 14.498V13.5576ZM51.0593 14.3179H48.8137V14.6475C48.8137 15.1953 48.7639 15.9453 48.6643 16.8975C48.5676 17.8467 48.3757 18.6274 48.0886 19.2397H51.0593V14.3179ZM53.2478 16.8623C53.2478 15.793 53.5349 14.9565 54.1091 14.353C54.6833 13.7466 55.4246 13.4434 56.3328 13.4434C56.9275 13.4434 57.4636 13.5854 57.9412 13.8696C58.4187 14.1538 58.782 14.5508 59.031 15.0605C59.283 15.5674 59.4089 16.1431 59.4089 16.7876C59.4089 17.4409 59.2771 18.0254 59.0134 18.541C58.7498 19.0566 58.3762 19.4478 57.8928 19.7144C57.4094 19.978 56.8879 20.1099 56.3284 20.1099C55.7219 20.1099 55.1799 19.9634 54.7024 19.6704C54.2249 19.3774 53.863 18.9775 53.6169 18.4707C53.3708 17.9639 53.2478 17.4277 53.2478 16.8623ZM54.1267 16.8755C54.1267 17.6519 54.3347 18.2642 54.7507 18.7124C55.1697 19.1577 55.6941 19.3804 56.324 19.3804C56.9656 19.3804 57.4929 19.1548 57.906 18.7036C58.322 18.2524 58.53 17.6123 58.53 16.7832C58.53 16.2588 58.4407 15.8018 58.262 15.4121C58.0862 15.0195 57.8269 14.7163 57.4841 14.5024C57.1443 14.2856 56.762 14.1772 56.3372 14.1772C55.7336 14.1772 55.2136 14.3853 54.7771 14.8013C54.3435 15.2144 54.1267 15.9058 54.1267 16.8755ZM65.1086 17.7412L65.9612 17.9565C65.7825 18.6567 65.4602 19.1914 64.9944 19.5605C64.5315 19.9268 63.9646 20.1099 63.2937 20.1099C62.5994 20.1099 62.0339 19.9692 61.5974 19.688C61.1638 19.4038 60.8328 18.9937 60.6042 18.4575C60.3787 17.9214 60.2659 17.3457 60.2659 16.7305C60.2659 16.0596 60.3933 15.4751 60.6482 14.9771C60.906 14.4761 61.2708 14.0967 61.7424 13.8389C62.217 13.5781 62.7385 13.4478 63.3069 13.4478C63.9514 13.4478 64.4934 13.6118 64.9329 13.9399C65.3723 14.2681 65.6785 14.7295 65.8513 15.3242L65.012 15.522C64.8625 15.0532 64.6458 14.7119 64.3616 14.498C64.0774 14.2842 63.72 14.1772 63.2893 14.1772C62.7942 14.1772 62.3796 14.2959 62.0457 14.5332C61.7146 14.7705 61.4817 15.0898 61.3469 15.4912C61.2122 15.8896 61.1448 16.3013 61.1448 16.7261C61.1448 17.2739 61.2239 17.7529 61.3821 18.1631C61.5432 18.5703 61.7922 18.875 62.1292 19.0771C62.4661 19.2793 62.8308 19.3804 63.2234 19.3804C63.7009 19.3804 64.1052 19.2427 64.4363 18.9673C64.7673 18.6919 64.9915 18.2832 65.1086 17.7412ZM68.3562 20V14.3179H66.2336V13.5576H71.3401V14.3179H69.2087V20H68.3562ZM71.5686 13.5576H72.4299L74.5305 17.5039L76.3674 13.5576H77.2156L74.7986 18.5674C74.4968 19.1943 74.2493 19.6045 74.0559 19.7979C73.8625 19.9912 73.5857 20.0879 73.2253 20.0879C73.0056 20.0879 72.7361 20.0366 72.4167 19.9341V19.2046C72.6453 19.3364 72.887 19.4023 73.1418 19.4023C73.3499 19.4023 73.5286 19.3364 73.678 19.2046C73.8303 19.0698 73.9973 18.7651 74.179 18.2905L71.5686 13.5576ZM77.9495 13.5576H83.0164V20H82.1594V14.3179H78.802V20H77.9495V13.5576ZM84.4358 20V13.5576H85.2883V16.2031H88.637V13.5576H89.4895V20H88.637V16.9634H85.2883V20H84.4358ZM90.6541 16.8623C90.6541 15.793 90.9412 14.9565 91.5154 14.353C92.0896 13.7466 92.8308 13.4434 93.739 13.4434C94.3337 13.4434 94.8699 13.5854 95.3474 13.8696C95.825 14.1538 96.1882 14.5508 96.4373 15.0605C96.6892 15.5674 96.8152 16.1431 96.8152 16.7876C96.8152 17.4409 96.6833 18.0254 96.4197 18.541C96.156 19.0566 95.7825 19.4478 95.2991 19.7144C94.8157 19.978 94.2942 20.1099 93.7346 20.1099C93.1282 20.1099 92.5862 19.9634 92.1086 19.6704C91.6311 19.3774 91.2693 18.9775 91.0232 18.4707C90.7771 17.9639 90.6541 17.4277 90.6541 16.8623ZM91.533 16.8755C91.533 17.6519 91.741 18.2642 92.157 18.7124C92.5759 19.1577 93.1003 19.3804 93.7302 19.3804C94.3718 19.3804 94.8992 19.1548 95.3123 18.7036C95.7283 18.2524 95.9363 17.6123 95.9363 16.7832C95.9363 16.2588 95.8469 15.8018 95.6682 15.4121C95.4924 15.0195 95.2332 14.7163 94.8904 14.5024C94.5505 14.2856 94.1682 14.1772 93.7434 14.1772C93.1399 14.1772 92.6199 14.3853 92.1833 14.8013C91.7498 15.2144 91.533 15.9058 91.533 16.8755ZM100.388 20V13.5576H102.805C103.297 13.5576 103.691 13.6235 103.987 13.7554C104.286 13.8843 104.519 14.085 104.686 14.3574C104.856 14.627 104.941 14.9097 104.941 15.2056C104.941 15.481 104.866 15.7402 104.717 15.9834C104.567 16.2266 104.342 16.4229 104.04 16.5723C104.429 16.6865 104.728 16.8813 104.936 17.1567C105.147 17.4321 105.253 17.7573 105.253 18.1323C105.253 18.4341 105.188 18.7153 105.059 18.9761C104.933 19.2339 104.777 19.4331 104.589 19.5737C104.402 19.7144 104.166 19.8213 103.882 19.8945C103.6 19.9648 103.255 20 102.844 20H100.388ZM101.24 16.2646H102.634C103.011 16.2646 103.282 16.2397 103.447 16.1899C103.663 16.1255 103.826 16.0186 103.934 15.8691C104.046 15.7197 104.101 15.5322 104.101 15.3066C104.101 15.0928 104.05 14.9053 103.948 14.7441C103.845 14.5801 103.698 14.4688 103.508 14.4102C103.318 14.3486 102.991 14.3179 102.528 14.3179H101.24V16.2646ZM101.24 19.2397H102.844C103.12 19.2397 103.313 19.2295 103.425 19.209C103.621 19.1738 103.785 19.1152 103.917 19.0332C104.049 18.9512 104.157 18.8325 104.242 18.6772C104.327 18.519 104.369 18.3374 104.369 18.1323C104.369 17.8921 104.308 17.6841 104.185 17.5083C104.062 17.3296 103.89 17.2051 103.671 17.1348C103.454 17.0615 103.14 17.0249 102.73 17.0249H101.24V19.2397Z" fill="white" fill-opacity="0.9"/>
<path d="M47.9919 13.5576V13.4657H47.9001V13.5576H47.9919ZM51.9119 13.5576H52.0038V13.4657H51.9119V13.5576ZM51.9119 19.2397H51.82V19.3316H51.9119V19.2397ZM52.4919 19.2397H52.5838V19.1479H52.4919V19.2397ZM52.4919 21.5029V21.5948H52.5838V21.5029H52.4919ZM51.7317 21.5029H51.6398V21.5948H51.7317V21.5029ZM51.7317 20H51.8236V19.9081H51.7317V20ZM47.4734 20V19.9081H47.3815V20H47.4734ZM47.4734 21.5029V21.5948H47.5653V21.5029H47.4734ZM46.7131 21.5029H46.6212V21.5948H46.7131V21.5029ZM46.7131 19.2397V19.1479H46.6212V19.2397H46.7131ZM47.2141 19.2397V19.3316H47.2634L47.2907 19.2905L47.2141 19.2397ZM51.0593 14.3179H51.1512V14.226H51.0593V14.3179ZM48.8137 14.3179V14.226H48.7218V14.3179H48.8137ZM48.6643 16.8975L48.5729 16.8879L48.5729 16.8881L48.6643 16.8975ZM48.0886 19.2397L48.0054 19.2007L47.944 19.3316H48.0886V19.2397ZM51.0593 19.2397V19.3316H51.1512V19.2397H51.0593ZM47.9919 13.6495H51.9119V13.4657H47.9919V13.6495ZM51.82 13.5576V19.2397H52.0038V13.5576H51.82ZM51.9119 19.3316H52.4919V19.1479H51.9119V19.3316ZM52.4001 19.2397V21.5029H52.5838V19.2397H52.4001ZM52.4919 21.411H51.7317V21.5948H52.4919V21.411ZM51.8236 21.5029V20H51.6398V21.5029H51.8236ZM51.7317 19.9081H47.4734V20.0919H51.7317V19.9081ZM47.3815 20V21.5029H47.5653V20H47.3815ZM47.4734 21.411H46.7131V21.5948H47.4734V21.411ZM46.805 21.5029V19.2397H46.6212V21.5029H46.805ZM46.7131 19.3316H47.2141V19.1479H46.7131V19.3316ZM47.2907 19.2905C47.5605 18.8835 47.7577 18.2778 47.8882 17.4825C48.0189 16.6856 48.0838 15.6903 48.0838 14.498H47.9001C47.9001 15.6847 47.8354 16.6692 47.7068 17.4528C47.578 18.2381 47.3862 18.8138 47.1375 19.189L47.2907 19.2905ZM48.0838 14.498V13.5576H47.9001V14.498H48.0838ZM51.0593 14.226H48.8137V14.4098H51.0593V14.226ZM48.7218 14.3179V14.6475H48.9056V14.3179H48.7218ZM48.7218 14.6475C48.7218 15.1906 48.6724 15.937 48.5729 16.8879L48.7557 16.907C48.8554 15.9537 48.9056 15.2 48.9056 14.6475H48.7218ZM48.5729 16.8881C48.4769 17.831 48.2867 18.6008 48.0054 19.2007L48.1718 19.2788C48.4647 18.6541 48.6584 17.8624 48.7557 16.9068L48.5729 16.8881ZM48.0886 19.3316H51.0593V19.1479H48.0886V19.3316ZM51.1512 19.2397V14.3179H50.9674V19.2397H51.1512ZM54.1091 14.353L54.1757 14.4164L54.1759 14.4162L54.1091 14.353ZM59.031 15.0605L58.9484 15.1009L58.9487 15.1015L59.031 15.0605ZM57.8928 19.7144L57.9368 19.795L57.9372 19.7948L57.8928 19.7144ZM54.7507 18.7124L54.6834 18.7749L54.6838 18.7754L54.7507 18.7124ZM57.906 18.7036L57.8384 18.6413L57.8382 18.6416L57.906 18.7036ZM58.262 15.4121L58.1781 15.4497L58.1784 15.4504L58.262 15.4121ZM57.4841 14.5024L57.4347 14.5799L57.4355 14.5804L57.4841 14.5024ZM54.7771 14.8013L54.8405 14.8678L54.8405 14.8678L54.7771 14.8013ZM53.3397 16.8623C53.3397 15.8096 53.622 14.9984 54.1757 14.4164L54.0426 14.2897C53.4479 14.9147 53.1559 15.7763 53.1559 16.8623H53.3397ZM54.1759 14.4162C54.7311 13.8298 55.4473 13.5353 56.3328 13.5353V13.3515C55.4018 13.3515 54.6356 13.6634 54.0424 14.2898L54.1759 14.4162ZM56.3328 13.5353C56.9122 13.5353 57.4318 13.6735 57.8942 13.9486L57.9882 13.7907C57.4954 13.4974 56.9428 13.3515 56.3328 13.3515V13.5353ZM57.8942 13.9486C58.356 14.2234 58.7071 14.6068 58.9484 15.1009L59.1136 15.0202C58.8569 14.4947 58.4814 14.0842 57.9882 13.7907L57.8942 13.9486ZM58.9487 15.1015C59.1935 15.5939 59.317 16.1553 59.317 16.7876H59.5008C59.5008 16.1309 59.3724 15.5408 59.1133 15.0196L58.9487 15.1015ZM59.317 16.7876C59.317 17.4283 59.1879 17.9981 58.9316 18.4992L59.0952 18.5829C59.3663 18.0527 59.5008 17.4536 59.5008 16.7876H59.317ZM58.9316 18.4992C58.6759 18.9993 58.315 19.3766 57.8484 19.6339L57.9372 19.7948C58.4375 19.5189 58.8237 19.114 59.0952 18.5829L58.9316 18.4992ZM57.8488 19.6337C57.3791 19.8899 56.8728 20.018 56.3284 20.018V20.2018C56.9031 20.2018 57.4397 20.0662 57.9368 19.795L57.8488 19.6337ZM56.3284 20.018C55.7374 20.018 55.2123 19.8755 54.7504 19.5921L54.6543 19.7487C55.1475 20.0513 55.7064 20.2018 56.3284 20.2018V20.018ZM54.7504 19.5921C54.2879 19.3083 53.9381 18.9217 53.6996 18.4306L53.5343 18.5108C53.788 19.0334 54.1618 19.4465 54.6543 19.7487L54.7504 19.5921ZM53.6996 18.4306C53.4596 17.9363 53.3397 17.4139 53.3397 16.8623H53.1559C53.1559 17.4416 53.2821 17.9914 53.5343 18.5108L53.6996 18.4306ZM54.0348 16.8755C54.0348 17.6685 54.2477 18.3055 54.6834 18.7749L54.8181 18.6499C54.4218 18.2229 54.2186 17.6352 54.2186 16.8755H54.0348ZM54.6838 18.7754C55.1207 19.2398 55.6696 19.4723 56.324 19.4723V19.2885C55.7186 19.2885 55.2187 19.0757 54.8177 18.6494L54.6838 18.7754ZM56.324 19.4723C56.9899 19.4723 57.5424 19.2369 57.9738 18.7657L57.8382 18.6416C57.4435 19.0727 56.9412 19.2885 56.324 19.2885V19.4723ZM57.9736 18.7659C58.41 18.2926 58.6219 17.6272 58.6219 16.7832H58.4381C58.4381 17.5975 58.234 18.2123 57.8384 18.6413L57.9736 18.7659ZM58.6219 16.7832C58.6219 16.2485 58.5308 15.7778 58.3455 15.3738L58.1784 15.4504C58.3505 15.8257 58.4381 16.2691 58.4381 16.7832H58.6219ZM58.3458 15.3746C58.1631 14.9664 57.8921 14.6487 57.5328 14.4245L57.4355 14.5804C57.7617 14.784 58.0093 15.0726 58.1781 15.4497L58.3458 15.3746ZM57.5336 14.425C57.1781 14.1982 56.7785 14.0854 56.3372 14.0854V14.2691C56.7454 14.2691 57.1104 14.3731 57.4347 14.5799L57.5336 14.425ZM56.3372 14.0854C55.7101 14.0854 55.1673 14.3024 54.7137 14.7347L54.8405 14.8678C55.2599 14.4681 55.7572 14.2691 56.3372 14.2691V14.0854ZM54.7137 14.7347C54.2533 15.1733 54.0348 15.8956 54.0348 16.8755H54.2186C54.2186 15.9159 54.4337 15.2554 54.8405 14.8678L54.7137 14.7347ZM65.1086 17.7412L65.1311 17.6521L65.0389 17.6288L65.0188 17.7218L65.1086 17.7412ZM65.9612 17.9565L66.0502 17.9793L66.073 17.89L65.9837 17.8674L65.9612 17.9565ZM64.9944 19.5605L65.0514 19.6326L65.0515 19.6326L64.9944 19.5605ZM61.5974 19.688L61.547 19.7648L61.5476 19.7652L61.5974 19.688ZM60.6042 18.4575L60.5195 18.4932L60.5197 18.4936L60.6042 18.4575ZM60.6482 14.9771L60.5665 14.935L60.5664 14.9352L60.6482 14.9771ZM61.7424 13.8389L61.7865 13.9195L61.7867 13.9194L61.7424 13.8389ZM65.8513 15.3242L65.8724 15.4137L65.9666 15.3915L65.9396 15.2986L65.8513 15.3242ZM65.012 15.522L64.9244 15.5499L64.9502 15.6309L65.033 15.6114L65.012 15.522ZM62.0457 14.5332L61.9924 14.4583L61.9921 14.4585L62.0457 14.5332ZM61.3469 15.4912L61.434 15.5207L61.434 15.5205L61.3469 15.4912ZM61.3821 18.1631L61.2963 18.1962L61.2966 18.1969L61.3821 18.1631ZM65.0861 17.8303L65.9387 18.0456L65.9837 17.8674L65.1311 17.6521L65.0861 17.8303ZM65.8721 17.9338C65.6973 18.6188 65.3842 19.1344 64.9373 19.4885L65.0515 19.6326C65.5362 19.2484 65.8676 18.6946 66.0502 17.9793L65.8721 17.9338ZM64.9374 19.4885C64.4929 19.8401 63.9469 20.018 63.2937 20.018V20.2018C63.9823 20.2018 64.5701 20.0134 65.0514 19.6326L64.9374 19.4885ZM63.2937 20.018C62.6112 20.018 62.0646 19.8797 61.6472 19.6107L61.5476 19.7652C62.0032 20.0588 62.5875 20.2018 63.2937 20.2018V20.018ZM61.6478 19.6111C61.2312 19.3381 60.9111 18.9431 60.6888 18.4215L60.5197 18.4936C60.7544 19.0442 61.0964 19.4695 61.547 19.7648L61.6478 19.6111ZM60.6889 18.4219C60.4684 17.8977 60.3578 17.3342 60.3578 16.7305H60.174C60.174 17.3572 60.2889 17.9451 60.5195 18.4932L60.6889 18.4219ZM60.3578 16.7305C60.3578 16.0713 60.4829 15.5017 60.73 15.0189L60.5664 14.9352C60.3037 15.4485 60.174 16.0479 60.174 16.7305H60.3578ZM60.7299 15.0191C60.9797 14.5336 61.3317 14.1681 61.7865 13.9195L61.6984 13.7582C61.2098 14.0253 60.8323 14.4185 60.5665 14.935L60.7299 15.0191ZM61.7867 13.9194C62.2471 13.6665 62.7532 13.5396 63.3069 13.5396V13.3559C62.7239 13.3559 62.187 13.4898 61.6982 13.7583L61.7867 13.9194ZM63.3069 13.5396C63.9352 13.5396 64.457 13.6993 64.8779 14.0136L64.9878 13.8663C64.5299 13.5243 63.9676 13.3559 63.3069 13.3559V13.5396ZM64.8779 14.0136C65.2993 14.3282 65.595 14.7717 65.7631 15.3499L65.9396 15.2986C65.7619 14.6873 65.4453 14.2079 64.9878 13.8663L64.8779 14.0136ZM65.8302 15.2348L64.9909 15.4325L65.033 15.6114L65.8724 15.4137L65.8302 15.2348ZM65.0995 15.4941C64.9465 15.0139 64.7211 14.6536 64.4168 14.4246L64.3063 14.5715C64.5704 14.7702 64.7786 15.0925 64.9244 15.5499L65.0995 15.4941ZM64.4168 14.4246C64.1136 14.1964 63.7356 14.0854 63.2893 14.0854V14.2691C63.7043 14.2691 64.0412 14.3719 64.3063 14.5715L64.4168 14.4246ZM63.2893 14.0854C62.7792 14.0854 62.345 14.2078 61.9924 14.4583L62.0989 14.6081C62.4143 14.384 62.8092 14.2691 63.2893 14.2691V14.0854ZM61.9921 14.4585C61.6447 14.7075 61.4005 15.0431 61.2598 15.462L61.434 15.5205C61.5629 15.1366 61.7845 14.8335 62.0992 14.6079L61.9921 14.4585ZM61.2599 15.4618C61.1219 15.8698 61.0529 16.2914 61.0529 16.7261H61.2367C61.2367 16.3112 61.3024 15.9095 61.434 15.5207L61.2599 15.4618ZM61.0529 16.7261C61.0529 17.2826 61.1332 17.7732 61.2963 18.1962L61.4678 18.13C61.3145 17.7327 61.2367 17.2653 61.2367 16.7261H61.0529ZM61.2966 18.1969C61.4643 18.6206 61.7257 18.9422 62.0819 19.1559L62.1764 18.9984C61.8588 18.8078 61.6221 18.52 61.4675 18.1293L61.2966 18.1969ZM62.0819 19.1559C62.4331 19.3667 62.8141 19.4723 63.2234 19.4723V19.2885C62.8475 19.2885 62.4991 19.1919 62.1764 18.9984L62.0819 19.1559ZM63.2234 19.4723C63.7199 19.4723 64.1457 19.3286 64.495 19.0379L64.3775 18.8966C64.0648 19.1568 63.682 19.2885 63.2234 19.2885V19.4723ZM64.495 19.0379C64.8459 18.746 65.0782 18.3169 65.1985 17.7606L65.0188 17.7218C64.9047 18.2496 64.6887 18.6377 64.3775 18.8966L64.495 19.0379ZM68.3562 20H68.2643V20.0919H68.3562V20ZM68.3562 14.3179H68.4481V14.226H68.3562V14.3179ZM66.2336 14.3179H66.1417V14.4098H66.2336V14.3179ZM66.2336 13.5576V13.4657H66.1417V13.5576H66.2336ZM71.3401 13.5576H71.432V13.4657H71.3401V13.5576ZM71.3401 14.3179V14.4098H71.432V14.3179H71.3401ZM69.2087 14.3179V14.226H69.1168V14.3179H69.2087ZM69.2087 20V20.0919H69.3006V20H69.2087ZM68.4481 20V14.3179H68.2643V20H68.4481ZM68.3562 14.226H66.2336V14.4098H68.3562V14.226ZM66.3255 14.3179V13.5576H66.1417V14.3179H66.3255ZM66.2336 13.6495H71.3401V13.4657H66.2336V13.6495ZM71.2482 13.5576V14.3179H71.432V13.5576H71.2482ZM71.3401 14.226H69.2087V14.4098H71.3401V14.226ZM69.1168 14.3179V20H69.3006V14.3179H69.1168ZM69.2087 19.9081H68.3562V20.0919H69.2087V19.9081ZM71.5686 13.5576V13.4657H71.413L71.4881 13.602L71.5686 13.5576ZM72.4299 13.5576L72.511 13.5144L72.4851 13.4657H72.4299V13.5576ZM74.5305 17.5039L74.4494 17.5471L74.536 17.7098L74.6138 17.5427L74.5305 17.5039ZM76.3674 13.5576V13.4657H76.3088L76.2841 13.5188L76.3674 13.5576ZM77.2156 13.5576L77.2983 13.5975L77.3619 13.4657H77.2156V13.5576ZM74.7986 18.5674L74.7158 18.5275L74.7158 18.5275L74.7986 18.5674ZM72.4167 19.9341H72.3249V20.0011L72.3887 20.0216L72.4167 19.9341ZM72.4167 19.2046L72.4627 19.125L72.3249 19.0455V19.2046H72.4167ZM73.678 19.2046L73.7388 19.2735L73.7389 19.2734L73.678 19.2046ZM74.179 18.2905L74.2648 18.3234L74.28 18.2835L74.2594 18.2461L74.179 18.2905ZM71.5686 13.6495H72.4299V13.4657H71.5686V13.6495ZM72.3488 13.6008L74.4494 17.5471L74.6116 17.4607L72.511 13.5144L72.3488 13.6008ZM74.6138 17.5427L76.4507 13.5964L76.2841 13.5188L74.4472 17.4651L74.6138 17.5427ZM76.3674 13.6495H77.2156V13.4657H76.3674V13.6495ZM77.1328 13.5177L74.7158 18.5275L74.8813 18.6073L77.2983 13.5975L77.1328 13.5177ZM74.7158 18.5275C74.4137 19.1552 74.1719 19.5519 73.9909 19.7329L74.1209 19.8628C74.3266 19.6571 74.58 19.2334 74.8814 18.6072L74.7158 18.5275ZM73.9909 19.7329C73.8198 19.904 73.5694 19.996 73.2253 19.996V20.1798C73.602 20.1798 73.9053 20.0784 74.1209 19.8628L73.9909 19.7329ZM73.2253 19.996C73.0188 19.996 72.7594 19.9476 72.4448 19.8466L72.3887 20.0216C72.7128 20.1257 72.9925 20.1798 73.2253 20.1798V19.996ZM72.5086 19.9341V19.2046H72.3249V19.9341H72.5086ZM72.3708 19.2842C72.6128 19.4238 72.8703 19.4942 73.1418 19.4942V19.3105C72.9037 19.3105 72.6777 19.2491 72.4627 19.125L72.3708 19.2842ZM73.1418 19.4942C73.3712 19.4942 73.5718 19.4208 73.7388 19.2735L73.6172 19.1357C73.4853 19.252 73.3285 19.3105 73.1418 19.3105V19.4942ZM73.7389 19.2734C73.8267 19.1957 73.9126 19.0752 73.9981 18.9192C74.0842 18.7619 74.1731 18.563 74.2648 18.3234L74.0931 18.2577C74.0032 18.4927 73.9177 18.6834 73.8369 18.8308C73.7554 18.9795 73.6816 19.0787 73.6171 19.1358L73.7389 19.2734ZM74.2594 18.2461L71.6491 13.5132L71.4881 13.602L74.0985 18.3349L74.2594 18.2461ZM77.9495 13.5576V13.4657H77.8576V13.5576H77.9495ZM83.0164 13.5576H83.1082V13.4657H83.0164V13.5576ZM83.0164 20V20.0919H83.1082V20H83.0164ZM82.1594 20H82.0675V20.0919H82.1594V20ZM82.1594 14.3179H82.2513V14.226H82.1594V14.3179ZM78.802 14.3179V14.226H78.7101V14.3179H78.802ZM78.802 20V20.0919H78.8939V20H78.802ZM77.9495 20H77.8576V20.0919H77.9495V20ZM77.9495 13.6495H83.0164V13.4657H77.9495V13.6495ZM82.9245 13.5576V20H83.1082V13.5576H82.9245ZM83.0164 19.9081H82.1594V20.0919H83.0164V19.9081ZM82.2513 20V14.3179H82.0675V20H82.2513ZM82.1594 14.226H78.802V14.4098H82.1594V14.226ZM78.7101 14.3179V20H78.8939V14.3179H78.7101ZM78.802 19.9081H77.9495V20.0919H78.802V19.9081ZM78.0414 20V13.5576H77.8576V20H78.0414ZM84.4358 20H84.3439V20.0919H84.4358V20ZM84.4358 13.5576V13.4657H84.3439V13.5576H84.4358ZM85.2883 13.5576H85.3802V13.4657H85.2883V13.5576ZM85.2883 16.2031H85.1964V16.295H85.2883V16.2031ZM88.637 16.2031V16.295H88.7289V16.2031H88.637ZM88.637 13.5576V13.4657H88.5451V13.5576H88.637ZM89.4895 13.5576H89.5814V13.4657H89.4895V13.5576ZM89.4895 20V20.0919H89.5814V20H89.4895ZM88.637 20H88.5451V20.0919H88.637V20ZM88.637 16.9634H88.7289V16.8715H88.637V16.9634ZM85.2883 16.9634V16.8715H85.1964V16.9634H85.2883ZM85.2883 20V20.0919H85.3802V20H85.2883ZM84.5277 20V13.5576H84.3439V20H84.5277ZM84.4358 13.6495H85.2883V13.4657H84.4358V13.6495ZM85.1964 13.5576V16.2031H85.3802V13.5576H85.1964ZM85.2883 16.295H88.637V16.1112H85.2883V16.295ZM88.7289 16.2031V13.5576H88.5451V16.2031H88.7289ZM88.637 13.6495H89.4895V13.4657H88.637V13.6495ZM89.3976 13.5576V20H89.5814V13.5576H89.3976ZM89.4895 19.9081H88.637V20.0919H89.4895V19.9081ZM88.7289 20V16.9634H88.5451V20H88.7289ZM88.637 16.8715H85.2883V17.0553H88.637V16.8715ZM85.1964 16.9634V20H85.3802V16.9634H85.1964ZM85.2883 19.9081H84.4358V20.0919H85.2883V19.9081ZM91.5154 14.353L91.582 14.4164L91.5821 14.4162L91.5154 14.353ZM96.4373 15.0605L96.3547 15.1009L96.355 15.1015L96.4373 15.0605ZM95.2991 19.7144L95.3431 19.795L95.3435 19.7948L95.2991 19.7144ZM92.157 18.7124L92.0896 18.7749L92.0901 18.7754L92.157 18.7124ZM95.3123 18.7036L95.2447 18.6413L95.2445 18.6416L95.3123 18.7036ZM95.6682 15.4121L95.5843 15.4497L95.5847 15.4504L95.6682 15.4121ZM94.8904 14.5024L94.841 14.5799L94.8417 14.5804L94.8904 14.5024ZM92.1833 14.8013L92.2467 14.8678L92.2467 14.8678L92.1833 14.8013ZM90.7459 16.8623C90.7459 15.8096 91.0282 14.9984 91.582 14.4164L91.4488 14.2897C90.8541 14.9147 90.5622 15.7763 90.5622 16.8623H90.7459ZM91.5821 14.4162C92.1374 13.8298 92.8536 13.5353 93.739 13.5353V13.3515C92.808 13.3515 92.0418 13.6634 91.4487 14.2898L91.5821 14.4162ZM93.739 13.5353C94.3184 13.5353 94.8381 13.6735 95.3004 13.9486L95.3944 13.7907C94.9016 13.4974 94.3491 13.3515 93.739 13.3515V13.5353ZM95.3004 13.9486C95.7623 14.2234 96.1133 14.6068 96.3547 15.1009L96.5198 15.0202C96.2631 14.4947 95.8876 14.0842 95.3944 13.7907L95.3004 13.9486ZM96.355 15.1015C96.5998 15.5939 96.7233 16.1553 96.7233 16.7876H96.9071C96.9071 16.1309 96.7786 15.5408 96.5195 15.0196L96.355 15.1015ZM96.7233 16.7876C96.7233 17.4283 96.5941 17.9981 96.3379 18.4992L96.5015 18.5829C96.7726 18.0527 96.9071 17.4536 96.9071 16.7876H96.7233ZM96.3379 18.4992C96.0821 18.9993 95.7212 19.3766 95.2547 19.6339L95.3435 19.7948C95.8437 19.5189 96.2299 19.114 96.5015 18.5829L96.3379 18.4992ZM95.2551 19.6337C94.7854 19.8899 94.2791 20.018 93.7346 20.018V20.2018C94.3093 20.2018 94.846 20.0662 95.3431 19.795L95.2551 19.6337ZM93.7346 20.018C93.1437 20.018 92.6186 19.8755 92.1567 19.5921L92.0606 19.7487C92.5538 20.0513 93.1127 20.2018 93.7346 20.2018V20.018ZM92.1567 19.5921C91.6942 19.3083 91.3443 18.9217 91.1059 18.4306L90.9405 18.5108C91.1942 19.0334 91.568 19.4465 92.0606 19.7487L92.1567 19.5921ZM91.1059 18.4306C90.8659 17.9363 90.7459 17.4139 90.7459 16.8623H90.5622C90.5622 17.4416 90.6883 17.9914 90.9405 18.5108L91.1059 18.4306ZM91.4411 16.8755C91.4411 17.6685 91.6539 18.3055 92.0896 18.7749L92.2243 18.6499C91.828 18.2229 91.6249 17.6352 91.6249 16.8755H91.4411ZM92.0901 18.7754C92.5269 19.2398 93.0759 19.4723 93.7302 19.4723V19.2885C93.1248 19.2885 92.6249 19.0757 92.2239 18.6494L92.0901 18.7754ZM93.7302 19.4723C94.3962 19.4723 94.9486 19.2369 95.38 18.7657L95.2445 18.6416C94.8497 19.0727 94.3475 19.2885 93.7302 19.2885V19.4723ZM95.3798 18.7659C95.8163 18.2926 96.0282 17.6272 96.0282 16.7832H95.8444C95.8444 17.5975 95.6403 18.2123 95.2447 18.6413L95.3798 18.7659ZM96.0282 16.7832C96.0282 16.2485 95.9371 15.7778 95.7517 15.3738L95.5847 15.4504C95.7568 15.8257 95.8444 16.2691 95.8444 16.7832H96.0282ZM95.7521 15.3746C95.5693 14.9664 95.2983 14.6487 94.939 14.4245L94.8417 14.5804C95.168 14.784 95.4155 15.0726 95.5843 15.4497L95.7521 15.3746ZM94.9398 14.425C94.5844 14.1982 94.1847 14.0854 93.7434 14.0854V14.2691C94.1517 14.2691 94.5167 14.3731 94.841 14.5799L94.9398 14.425ZM93.7434 14.0854C93.1163 14.0854 92.5736 14.3024 92.12 14.7347L92.2467 14.8678C92.6662 14.4681 93.1635 14.2691 93.7434 14.2691V14.0854ZM92.12 14.7347C91.6596 15.1733 91.4411 15.8956 91.4411 16.8755H91.6249C91.6249 15.9159 91.8399 15.2554 92.2467 14.8678L92.12 14.7347ZM100.388 20H100.296V20.0919H100.388V20ZM100.388 13.5576V13.4657H100.296V13.5576H100.388ZM103.987 13.7554L103.95 13.8393L103.951 13.8397L103.987 13.7554ZM104.686 14.3574L104.607 14.4054L104.608 14.4064L104.686 14.3574ZM104.04 16.5723L103.999 16.4899L103.788 16.5943L104.014 16.6604L104.04 16.5723ZM104.936 17.1567L104.863 17.2121L104.863 17.2126L104.936 17.1567ZM105.059 18.9761L104.977 18.9353L104.977 18.9357L105.059 18.9761ZM103.882 19.8945L103.904 19.9837L103.905 19.9835L103.882 19.8945ZM101.24 16.2646H101.149V16.3565H101.24V16.2646ZM103.447 16.1899L103.42 16.1019L103.42 16.102L103.447 16.1899ZM103.934 15.8691L103.861 15.8142L103.86 15.8152L103.934 15.8691ZM103.948 14.7441L103.87 14.7928L103.87 14.7935L103.948 14.7441ZM103.508 14.4102L103.48 14.4976L103.481 14.498L103.508 14.4102ZM101.24 14.3179V14.226H101.149V14.3179H101.24ZM101.24 19.2397H101.149V19.3316H101.24V19.2397ZM103.425 19.209L103.408 19.1185L103.408 19.1186L103.425 19.209ZM104.242 18.6772L104.323 18.7214L104.323 18.7207L104.242 18.6772ZM104.185 17.5083L104.109 17.5604L104.11 17.561L104.185 17.5083ZM103.671 17.1348L103.641 17.2218L103.643 17.2223L103.671 17.1348ZM101.24 17.0249V16.933H101.149V17.0249H101.24ZM100.48 20V13.5576H100.296V20H100.48ZM100.388 13.6495H102.805V13.4657H100.388V13.6495ZM102.805 13.6495C103.29 13.6495 103.67 13.7147 103.95 13.8393L104.024 13.6714C103.712 13.5323 103.304 13.4657 102.805 13.4657V13.6495ZM103.951 13.8397C104.232 13.9613 104.451 14.1495 104.607 14.4054L104.764 14.3094C104.587 14.0205 104.339 13.8073 104.023 13.671L103.951 13.8397ZM104.608 14.4064C104.769 14.6625 104.849 14.9283 104.849 15.2056H105.033C105.033 14.891 104.942 14.5914 104.764 14.3084L104.608 14.4064ZM104.849 15.2056C104.849 15.4633 104.779 15.706 104.638 15.9353L104.795 16.0315C104.953 15.7744 105.033 15.4986 105.033 15.2056H104.849ZM104.638 15.9353C104.499 16.1613 104.288 16.3468 103.999 16.4899L104.081 16.6546C104.395 16.4989 104.635 16.2919 104.795 16.0315L104.638 15.9353ZM104.014 16.6604C104.388 16.7702 104.669 16.9551 104.863 17.2121L105.01 17.1014C104.788 16.8076 104.471 16.6029 104.066 16.4841L104.014 16.6604ZM104.863 17.2126C105.061 17.4706 105.161 17.7758 105.161 18.1323H105.345C105.345 17.7389 105.233 17.3936 105.009 17.1009L104.863 17.2126ZM105.161 18.1323C105.161 18.4205 105.099 18.6877 104.977 18.9353L105.142 19.0168C105.277 18.7429 105.345 18.4477 105.345 18.1323H105.161ZM104.977 18.9357C104.856 19.1834 104.708 19.3701 104.534 19.5002L104.644 19.6472C104.846 19.4961 105.011 19.2844 105.142 19.0164L104.977 18.9357ZM104.534 19.5002C104.358 19.6321 104.134 19.7346 103.859 19.8055L103.905 19.9835C104.198 19.908 104.445 19.7967 104.644 19.6472L104.534 19.5002ZM103.859 19.8054C103.588 19.8733 103.25 19.9081 102.844 19.9081V20.0919C103.259 20.0919 103.613 20.0564 103.904 19.9837L103.859 19.8054ZM102.844 19.9081H100.388V20.0919H102.844V19.9081ZM101.24 16.3565H102.634V16.1728H101.24V16.3565ZM102.634 16.3565C103.012 16.3565 103.295 16.3319 103.473 16.2779L103.42 16.102C103.27 16.1476 103.011 16.1728 102.634 16.1728V16.3565ZM103.473 16.278C103.704 16.2091 103.886 16.0923 104.009 15.9231L103.86 15.8152C103.766 15.9448 103.622 16.0418 103.42 16.1019L103.473 16.278ZM104.008 15.924C104.133 15.7557 104.193 15.5477 104.193 15.3066H104.009C104.009 15.5167 103.958 15.6838 103.861 15.8142L104.008 15.924ZM104.193 15.3066C104.193 15.0775 104.138 14.8724 104.025 14.6948L103.87 14.7935C103.962 14.9381 104.009 15.1081 104.009 15.3066H104.193ZM104.025 14.6954C103.911 14.512 103.746 14.3872 103.535 14.3223L103.481 14.498C103.651 14.5503 103.779 14.6481 103.87 14.7928L104.025 14.6954ZM103.536 14.3227C103.331 14.2563 102.991 14.226 102.528 14.226V14.4098C102.991 14.4098 103.304 14.4409 103.48 14.4976L103.536 14.3227ZM102.528 14.226H101.24V14.4098H102.528V14.226ZM101.149 14.3179V16.2646H101.332V14.3179H101.149ZM101.24 19.3316H102.844V19.1479H101.24V19.3316ZM102.844 19.3316C103.12 19.3316 103.321 19.3215 103.441 19.2994L103.408 19.1186C103.306 19.1374 103.12 19.1479 102.844 19.1479V19.3316ZM103.441 19.2994C103.645 19.2628 103.821 19.2009 103.965 19.1112L103.868 18.9552C103.749 19.0296 103.596 19.0849 103.408 19.1185L103.441 19.2994ZM103.965 19.1112C104.112 19.0197 104.231 18.8885 104.323 18.7214L104.161 18.6331C104.083 18.7765 103.985 18.8826 103.868 18.9552L103.965 19.1112ZM104.323 18.7207C104.416 18.5474 104.461 18.3504 104.461 18.1323H104.277C104.277 18.3244 104.238 18.4907 104.161 18.6338L104.323 18.7207ZM104.461 18.1323C104.461 17.8756 104.395 17.6486 104.26 17.4556L104.11 17.561C104.22 17.7195 104.277 17.9086 104.277 18.1323H104.461ZM104.261 17.4562C104.125 17.2596 103.936 17.1233 103.699 17.0472L103.643 17.2223C103.844 17.2868 103.998 17.3996 104.109 17.5604L104.261 17.4562ZM103.7 17.0477C103.469 16.9697 103.144 16.933 102.73 16.933V17.1168C103.137 17.1168 103.439 17.1534 103.641 17.2218L103.7 17.0477ZM102.73 16.933H101.24V17.1168H102.73V16.933ZM101.149 17.0249V19.2397H101.332V17.0249H101.149Z" fill="white" fill-opacity="0.9"/>
<path d="M51.1062 30.8717V29.1833H55.4675V33.1754C55.0437 33.5856 54.4285 33.9479 53.6218 34.2624C52.8197 34.5723 52.0063 34.7272 51.1814 34.7272C50.1332 34.7272 49.2195 34.5085 48.4402 34.071C47.6609 33.6289 47.0753 33 46.6833 32.1842C46.2914 31.3639 46.0955 30.473 46.0955 29.5114C46.0955 28.4678 46.3142 27.5404 46.7517 26.7292C47.1892 25.918 47.8295 25.2959 48.6726 24.8629C49.3152 24.5303 50.115 24.3639 51.072 24.3639C52.3162 24.3639 53.2869 24.626 53.9841 25.1501C54.686 25.6696 55.1371 26.3896 55.3376 27.3102L53.3279 27.6862C53.1866 27.194 52.92 26.8066 52.5281 26.5241C52.1407 26.237 51.6554 26.0934 51.072 26.0934C50.1879 26.0934 49.4838 26.3737 48.9597 26.9342C48.4402 27.4948 48.1804 28.3265 48.1804 29.4294C48.1804 30.6188 48.4447 31.512 48.9734 32.109C49.502 32.7015 50.1947 32.9977 51.0515 32.9977C51.4753 32.9977 51.8992 32.9157 52.323 32.7516C52.7514 32.583 53.1182 32.3802 53.4236 32.1432V30.8717H51.1062ZM56.6726 30.8239C56.6726 30.1859 56.8298 29.5683 57.1442 28.9713C57.4587 28.3743 57.903 27.9186 58.4773 27.6042C59.056 27.2897 59.7009 27.1325 60.4118 27.1325C61.5101 27.1325 62.4102 27.4902 63.112 28.2057C63.8138 28.9167 64.1648 29.8167 64.1648 30.9059C64.1648 32.0042 63.8093 32.9157 63.0983 33.6403C62.392 34.3603 61.501 34.7204 60.4255 34.7204C59.7601 34.7204 59.1244 34.57 58.5183 34.2692C57.9167 33.9684 57.4587 33.5286 57.1442 32.9499C56.8298 32.3665 56.6726 31.6579 56.6726 30.8239ZM58.6413 30.9264C58.6413 31.6465 58.8122 32.1979 59.154 32.5807C59.4958 32.9635 59.9174 33.1549 60.4187 33.1549C60.92 33.1549 61.3392 32.9635 61.6765 32.5807C62.0183 32.1979 62.1892 31.6419 62.1892 30.9128C62.1892 30.2018 62.0183 29.6549 61.6765 29.2721C61.3392 28.8893 60.92 28.6979 60.4187 28.6979C59.9174 28.6979 59.4958 28.8893 59.154 29.2721C58.8122 29.6549 58.6413 30.2064 58.6413 30.9264ZM65.0212 30.8239C65.0212 30.1859 65.1784 29.5683 65.4928 28.9713C65.8073 28.3743 66.2516 27.9186 66.8258 27.6042C67.4046 27.2897 68.0495 27.1325 68.7604 27.1325C69.8587 27.1325 70.7588 27.4902 71.4606 28.2057C72.1624 28.9167 72.5133 29.8167 72.5133 30.9059C72.5133 32.0042 72.1579 32.9157 71.4469 33.6403C70.7406 34.3603 69.8496 34.7204 68.7741 34.7204C68.1087 34.7204 67.473 34.57 66.8669 34.2692C66.2653 33.9684 65.8073 33.5286 65.4928 32.9499C65.1784 32.3665 65.0212 31.6579 65.0212 30.8239ZM66.9899 30.9264C66.9899 31.6465 67.1608 32.1979 67.5026 32.5807C67.8444 32.9635 68.266 33.1549 68.7673 33.1549C69.2686 33.1549 69.6878 32.9635 70.0251 32.5807C70.3669 32.1979 70.5378 31.6419 70.5378 30.9128C70.5378 30.2018 70.3669 29.6549 70.0251 29.2721C69.6878 28.8893 69.2686 28.6979 68.7673 28.6979C68.266 28.6979 67.8444 28.8893 67.5026 29.2721C67.1608 29.6549 66.9899 30.2064 66.9899 30.9264ZM73.6364 35.0348L75.8307 35.3014C75.8672 35.5566 75.9515 35.7321 76.0836 35.8278C76.2659 35.9645 76.553 36.0329 76.945 36.0329C77.4463 36.0329 77.8222 35.9577 78.0729 35.8073C78.2415 35.707 78.3691 35.5452 78.4557 35.3219C78.5149 35.1624 78.5446 34.8685 78.5446 34.4401V33.3805C77.9703 34.1644 77.2457 34.5563 76.3707 34.5563C75.3955 34.5563 74.623 34.1439 74.0534 33.319C73.6067 32.6673 73.3834 31.8561 73.3834 30.8854C73.3834 29.6686 73.6751 28.7389 74.2584 28.0963C74.8463 27.4538 75.5755 27.1325 76.4459 27.1325C77.3437 27.1325 78.0843 27.5267 78.6676 28.3151V27.2965H80.4655V33.8112C80.4655 34.668 80.3948 35.3083 80.2535 35.7321C80.1123 36.1559 79.914 36.4886 79.6588 36.7301C79.4036 36.9717 79.0618 37.1608 78.6334 37.2975C78.2096 37.4342 77.6718 37.5026 77.0201 37.5026C75.7897 37.5026 74.917 37.2907 74.402 36.8669C73.887 36.4476 73.6295 35.9144 73.6295 35.2672C73.6295 35.2034 73.6318 35.126 73.6364 35.0348ZM75.3522 30.776C75.3522 31.5462 75.5003 32.1113 75.7965 32.4713C76.0973 32.8268 76.4664 33.0045 76.9039 33.0045C77.3733 33.0045 77.7698 32.8223 78.0934 32.4577C78.417 32.0885 78.5787 31.5439 78.5787 30.8239C78.5787 30.0719 78.4238 29.5137 78.1139 29.1491C77.804 28.7845 77.4121 28.6022 76.9381 28.6022C76.4778 28.6022 76.0973 28.7822 75.7965 29.1422C75.5003 29.4977 75.3522 30.0423 75.3522 30.776ZM82.1627 34.5563V24.5348H84.0836V34.5563H82.1627ZM90.0533 32.2458L91.9673 32.567C91.7212 33.2689 91.3316 33.8044 90.7984 34.1735C90.2697 34.5381 89.6067 34.7204 88.8091 34.7204C87.5468 34.7204 86.6125 34.3079 86.0064 33.4831C85.5279 32.8223 85.2886 31.9883 85.2886 30.9811C85.2886 29.778 85.6031 28.8369 86.232 28.1579C86.8609 27.4743 87.6561 27.1325 88.6177 27.1325C89.6978 27.1325 90.55 27.4902 91.1744 28.2057C91.7987 28.9167 92.0972 30.0081 92.0699 31.4801H87.2574C87.271 32.0498 87.426 32.4941 87.7222 32.8131C88.0184 33.1276 88.3876 33.2848 88.8296 33.2848C89.1304 33.2848 89.3834 33.2028 89.5884 33.0387C89.7935 32.8747 89.9485 32.6103 90.0533 32.2458ZM90.1626 30.3044C90.149 29.7484 90.0054 29.3268 89.732 29.0397C89.4585 28.748 89.1259 28.6022 88.7339 28.6022C88.3147 28.6022 87.9683 28.7549 87.6949 29.0602C87.4214 29.3655 87.287 29.7803 87.2916 30.3044H90.1626ZM97.1323 34.5563V24.5348H100.379C101.61 24.5348 102.412 24.585 102.786 24.6852C103.36 24.8356 103.841 25.1637 104.228 25.6696C104.615 26.1709 104.809 26.8203 104.809 27.6178C104.809 28.2331 104.697 28.7503 104.474 29.1696C104.251 29.5889 103.966 29.9193 103.62 30.1608C103.278 30.3978 102.929 30.555 102.574 30.6325C102.091 30.7282 101.391 30.776 100.475 30.776H99.1557V34.5563H97.1323ZM99.1557 26.2301V29.0739H100.263C101.061 29.0739 101.594 29.0215 101.863 28.9167C102.132 28.8118 102.341 28.6478 102.492 28.4245C102.647 28.2012 102.724 27.9414 102.724 27.6452C102.724 27.2806 102.617 26.9798 102.403 26.7428C102.189 26.5058 101.917 26.3577 101.589 26.2985C101.348 26.2529 100.862 26.2301 100.133 26.2301H99.1557ZM106.247 34.5563V24.5348H108.167V34.5563H106.247ZM111.369 29.5114L109.625 29.1969C109.821 28.4951 110.159 27.9756 110.637 27.6383C111.116 27.3011 111.827 27.1325 112.77 27.1325C113.627 27.1325 114.265 27.235 114.684 27.4401C115.103 27.6406 115.397 27.8981 115.566 28.2126C115.739 28.5225 115.826 29.0944 115.826 29.9284L115.805 32.1706C115.805 32.8086 115.835 33.2803 115.894 33.5856C115.958 33.8864 116.074 34.21 116.243 34.5563H114.342C114.292 34.4287 114.231 34.2396 114.158 33.9889C114.126 33.875 114.103 33.7998 114.089 33.7633C113.761 34.0823 113.41 34.3216 113.037 34.4811C112.663 34.6406 112.264 34.7204 111.84 34.7204C111.093 34.7204 110.503 34.5176 110.07 34.112C109.641 33.7064 109.427 33.1937 109.427 32.5739C109.427 32.1637 109.525 31.7991 109.721 31.4801C109.917 31.1566 110.19 30.9105 110.541 30.7419C110.897 30.5687 111.407 30.4183 112.073 30.2907C112.97 30.1221 113.593 29.9648 113.939 29.819V29.6276C113.939 29.2585 113.848 28.9964 113.665 28.8415C113.483 28.682 113.139 28.6022 112.633 28.6022C112.291 28.6022 112.025 28.6706 111.833 28.8073C111.642 28.9394 111.487 29.1741 111.369 29.5114ZM113.939 31.07C113.693 31.152 113.303 31.25 112.77 31.3639C112.237 31.4779 111.888 31.5895 111.724 31.6989C111.473 31.8766 111.348 32.1022 111.348 32.3756C111.348 32.6445 111.448 32.8769 111.649 33.0729C111.849 33.2689 112.105 33.3669 112.414 33.3669C112.761 33.3669 113.091 33.2529 113.406 33.0251C113.638 32.8519 113.791 32.64 113.864 32.3893C113.914 32.2253 113.939 31.9131 113.939 31.4528V31.07ZM116.607 27.2965H118.651L120.387 32.4508L122.082 27.2965H124.072L121.508 34.2829L121.05 35.5475C120.882 35.9713 120.72 36.2949 120.565 36.5182C120.414 36.7415 120.239 36.9215 120.038 37.0583C119.842 37.1995 119.599 37.3089 119.307 37.3864C119.02 37.4639 118.694 37.5026 118.329 37.5026C117.96 37.5026 117.598 37.4639 117.243 37.3864L117.072 35.8825C117.372 35.9417 117.644 35.9713 117.885 35.9713C118.332 35.9713 118.662 35.8392 118.876 35.5749C119.091 35.3151 119.255 34.9824 119.369 34.5768L116.607 27.2965Z" fill="white" fill-opacity="0.9"/>
<defs>
<linearGradient id="paint0_linear_6_568" x1="25.3767" y1="11.1484" x2="22.0899" y2="19.9387" gradientUnits="userSpaceOnUse">
<stop stop-color="#00EF78"/>
<stop offset="1" stop-color="#11D360"/>
</linearGradient>
<linearGradient id="paint1_linear_6_568" x1="23.0069" y1="34.3854" x2="19.185" y2="29.417" gradientUnits="userSpaceOnUse">
<stop stop-color="#F73745"/>
<stop offset="1" stop-color="#DD2657"/>
</linearGradient>
<linearGradient id="paint2_linear_6_568" x1="38.2946" y1="23.4548" x2="26.676" y2="23.4548" gradientUnits="userSpaceOnUse">
<stop offset="0.252551" stop-color="#FFCC03"/>
<stop offset="1" stop-color="#DFC01B"/>
</linearGradient>
</defs>
</svg>
