<svg width="6" height="9" viewBox="0 0 6 9" fill="none" xmlns="http://www.w3.org/2000/svg">
  <path d="M2.08984 6.39844C2.09766 5.93359 2.15039 5.56641 2.24805 5.29688C2.3457 5.02734 2.54492 4.72852 2.8457 4.40039L3.61328 3.60938C3.94141 3.23828 4.10547 2.83984 4.10547 2.41406C4.10547 2.00391 3.99805 1.68359 3.7832 1.45312C3.56836 1.21875 3.25586 1.10156 2.8457 1.10156C2.44727 1.10156 2.12695 1.20703 1.88477 1.41797C1.64258 1.62891 1.52148 1.91211 1.52148 2.26758H0.4375C0.445312 1.63477 0.669922 1.125 1.11133 0.738281C1.55664 0.347656 2.13477 0.152344 2.8457 0.152344C3.58398 0.152344 4.1582 0.351562 4.56836 0.75C4.98242 1.14453 5.18945 1.6875 5.18945 2.37891C5.18945 3.0625 4.87305 3.73633 4.24023 4.40039L3.60156 5.0332C3.31641 5.34961 3.17383 5.80469 3.17383 6.39844H2.08984ZM2.04297 8.25586C2.04297 8.08008 2.0957 7.93359 2.20117 7.81641C2.31055 7.69531 2.4707 7.63477 2.68164 7.63477C2.89258 7.63477 3.05273 7.69531 3.16211 7.81641C3.27148 7.93359 3.32617 8.08008 3.32617 8.25586C3.32617 8.43164 3.27148 8.57812 3.16211 8.69531C3.05273 8.80859 2.89258 8.86523 2.68164 8.86523C2.4707 8.86523 2.31055 8.80859 2.20117 8.69531C2.0957 8.57812 2.04297 8.43164 2.04297 8.25586Z" fill="#1C52AC" />
</svg>
