<svg width="106" height="10" viewBox="0 0 106 10" fill="none" xmlns="http://www.w3.org/2000/svg">
<path d="M7.05959 10C12.1244 10 13.0311 8.34197 13.0311 6.7228V6.54145C13.0311 4.59845 11.6062 3.74352 7.94041 3.6399L6.20466 3.60104C4.39119 3.56218 4.10622 3.2513 4.10622 2.86269V2.84974C4.10622 2.47409 4.30052 2.13731 6.23057 2.13731H6.3601C8.4456 2.13731 8.65285 2.81088 8.69171 3.16062H12.6943V3.057C12.6943 1.5285 11.6062 0.0129529 6.83938 0.0129529H5.68653C1.19171 0.0129529 0.142487 1.38601 0.142487 2.95337V3.06995C0.142487 4.55959 1.1399 5.86788 4.87047 5.9715L6.65803 6.02332C8.67876 6.08808 8.92487 6.39896 8.92487 6.89119V6.90415C8.92487 7.37047 8.62694 7.81088 6.56736 7.81088H6.45078C4.35233 7.81088 4.08031 6.96891 4.04145 6.45078H0V6.58031C0 7.83679 0.556995 10 5.88083 10H7.05959Z" fill="black"/>
<path d="M17.4183 9.81865H21.0971V2.81088H25.2551V0.181347H13.2603V2.81088H17.4183V9.81865Z" fill="black"/>
<path d="M29.8868 2.52591H34.1096C34.9386 2.52591 35.2236 2.8886 35.2236 3.34197V3.35492C35.2236 3.82124 34.9256 4.18394 34.1096 4.18394H29.8868V2.52591ZM29.8868 6.51554H33.4101C34.8609 6.51554 35.366 7.08549 35.366 8.18653V9.31347C35.366 9.58549 35.3919 9.71503 35.4826 9.81865H39.2391V9.75389C39.1484 9.58549 39.0577 9.33938 39.0577 8.6658V7.24093C39.0577 5.99741 38.2676 5.22021 37.0759 4.94819C37.8013 4.77979 39.0189 4.19689 39.0189 2.79793V2.65544C39.0189 1.08808 37.7754 0.181347 34.9645 0.181347H26.208V9.81865H29.8868V6.51554Z" fill="black"/>
<path d="M46.7314 0C40.4879 0 39.6977 2.96632 39.6977 4.77979V5.16839C39.6977 6.96891 40.4879 10 46.7314 10H47.3143C53.5449 10 54.335 6.96891 54.335 5.16839V4.77979C54.335 2.96632 53.5319 0 47.3143 0H46.7314ZM50.5267 5.05181C50.5267 6.08808 49.8661 7.39637 47.0164 7.39637C44.1666 7.39637 43.506 6.03627 43.506 5.02591V4.87047C43.506 3.84715 44.1148 2.59067 47.0164 2.59067C49.8661 2.59067 50.5267 3.84715 50.5267 4.87047V5.05181Z" fill="black"/>
<path d="M58.3275 9.81865H62.0063V6.21762L67.1617 0.181347H63.1332L60.2705 3.51036L57.4596 0.181347H53.0555L58.3275 6.19171V9.81865Z" fill="black"/>
<path d="M71.2009 9.81865V5.50518L75.903 9.81865H80.6957L74.9056 4.55959L80.5144 0.181347H75.9419L71.2009 3.98964V0.181347H67.5222V9.81865H71.2009Z" fill="black"/>
<path d="M81.0701 0.181347V9.81865H91.8343V7.40933H84.697V6.08808H91.5882V3.74352H84.697V2.53886H91.7307V0.181347H81.0701Z" fill="black"/>
<path d="M96.5764 2.52591H100.799C101.628 2.52591 101.913 2.8886 101.913 3.34197V3.35492C101.913 3.82124 101.615 4.18394 100.799 4.18394H96.5764V2.52591ZM96.5764 6.51554H100.1C101.55 6.51554 102.056 7.08549 102.056 8.18653V9.31347C102.056 9.58549 102.082 9.71503 102.172 9.81865H105.929V9.75389C105.838 9.58549 105.747 9.33938 105.747 8.6658V7.24093C105.747 5.99741 104.957 5.22021 103.765 4.94819C104.491 4.77979 105.708 4.19689 105.708 2.79793V2.65544C105.708 1.08808 104.465 0.181347 101.654 0.181347H92.8976V9.81865H96.5764V6.51554Z" fill="black"/>
</svg>
