<svg width="20" height="20" viewBox="0 0 20 20" fill="none" xmlns="http://www.w3.org/2000/svg">
<path d="M20 15C20 15.5894 19.7659 16.1546 19.3491 16.5713C18.9324 16.9881 18.3671 17.2222 17.7778 17.2222H2.22222C1.63285 17.2222 1.06762 16.9881 0.650874 16.5713C0.234126 16.1546 0 15.5894 0 15V4.99999C0 4.41062 0.234126 3.84539 0.650874 3.42864C1.06762 3.0119 1.63285 2.77777 2.22222 2.77777H17.7778C18.3671 2.77777 18.9324 3.0119 19.3491 3.42864C19.7659 3.84539 20 4.41062 20 4.99999V15Z" fill="#00AFCA"/>
<path d="M10.576 10.7654C11.4551 10.7654 12.1677 10.0528 12.1677 9.1737C12.1677 8.29465 11.4551 7.58203 10.576 7.58203C9.69699 7.58203 8.98438 8.29465 8.98438 9.1737C8.98438 10.0528 9.69699 10.7654 10.576 10.7654Z" fill="#FFCC4D"/>
<path d="M10.5807 7.46222C10.6751 7.46111 10.7096 7.40167 10.7096 7.33111C10.7096 7.23667 10.5807 6.5 10.5807 6.5C10.5807 6.5 10.4496 7.23667 10.4496 7.33111C10.4496 7.40167 10.4851 7.46222 10.5807 7.46222ZM10.5807 10.8944C10.4851 10.895 10.4496 10.9544 10.4496 11.025C10.4496 11.12 10.5807 11.8467 10.5807 11.8467C10.5807 11.8467 10.7096 11.1194 10.7096 11.025C10.7101 10.955 10.6751 10.8944 10.5807 10.8944ZM10.1357 10.8272C10.044 10.8039 9.99569 10.8522 9.97736 10.9206C9.95292 11.0117 9.88681 11.7572 9.88681 11.7572C9.88681 11.7572 10.204 11.0789 10.2285 10.9878C10.2474 10.9194 10.2279 10.8517 10.1357 10.8272ZM11.0246 7.51167C11.1168 7.53611 11.1668 7.48722 11.1851 7.41944C11.2096 7.32778 11.2707 6.59167 11.2707 6.59167C11.2707 6.59167 10.9585 7.26 10.9335 7.35222C10.9151 7.42 10.9329 7.48722 11.0246 7.51167ZM9.72292 10.655C9.64014 10.6089 9.58069 10.6428 9.54569 10.7044C9.49847 10.7861 9.24181 11.4889 9.24181 11.4889C9.24181 11.4889 9.72347 10.9161 9.77069 10.8344C9.80625 10.7728 9.80569 10.7028 9.72292 10.655ZM11.439 7.68222C11.5218 7.73 11.5829 7.69556 11.6179 7.63444C11.6657 7.55222 11.9151 6.85778 11.9151 6.85778C11.9151 6.85778 11.4396 7.42278 11.3918 7.50444C11.3574 7.56556 11.3574 7.635 11.439 7.68222ZM9.36847 10.3833C9.30069 10.3172 9.23458 10.3344 9.18458 10.3844C9.11792 10.4517 8.68792 11.0639 8.68792 11.0639C8.68792 11.0639 9.30181 10.635 9.36847 10.5689C9.41847 10.5189 9.43625 10.45 9.36847 10.3833ZM11.7957 7.95556C11.8635 8.02278 11.9307 8.00556 11.9807 7.95556C12.0479 7.88889 12.469 7.28167 12.469 7.28167C12.469 7.28167 11.864 7.705 11.7974 7.77222C11.7474 7.82222 11.729 7.88889 11.7957 7.95556ZM9.09736 10.0283C9.04903 9.94722 8.98069 9.94722 8.91903 9.98222C8.83681 10.0294 8.26347 10.5094 8.26347 10.5094C8.26347 10.5094 8.96736 10.255 9.04903 10.2078C9.1107 10.1722 9.14514 10.1111 9.09736 10.0283ZM12.0696 8.31222C12.1179 8.395 12.1879 8.39556 12.2485 8.36056C12.3307 8.31278 12.8946 7.83611 12.8946 7.83611C12.8946 7.83611 12.2007 8.08778 12.1185 8.135C12.0574 8.17056 12.0229 8.23 12.0696 8.31222ZM8.92681 9.61556C8.90125 9.52444 8.83458 9.50667 8.76625 9.52444C8.67514 9.54889 7.99681 9.86444 7.99681 9.86444C7.99681 9.86444 8.74236 9.80056 8.83347 9.77611C8.90181 9.75722 8.95125 9.70778 8.92681 9.61556ZM12.2412 8.72667C12.2668 8.81889 12.3335 8.83778 12.4018 8.81944C12.4935 8.795 13.1618 8.48056 13.1618 8.48056C13.1618 8.48056 12.4263 8.54389 12.334 8.56833C12.2663 8.58611 12.2168 8.63556 12.2412 8.72667ZM8.86847 9.17278C8.86736 9.07833 8.80792 9.04389 8.73736 9.04389C8.64292 9.04389 7.90625 9.17278 7.90625 9.17278C7.90625 9.17278 8.64292 9.30389 8.73736 9.30389C8.80792 9.30389 8.86847 9.26833 8.86847 9.17278ZM12.3007 9.17278C12.3012 9.26833 12.3607 9.30389 12.4313 9.30389C12.5262 9.30389 13.2529 9.17278 13.2529 9.17278C13.2529 9.17278 12.5257 9.04389 12.4313 9.04389C12.3607 9.04333 12.3007 9.07833 12.3007 9.17278ZM8.92681 8.73C8.95014 8.63833 8.90181 8.59 8.83347 8.57167C8.74236 8.54722 7.99681 8.48111 7.99681 8.48111C7.99681 8.48111 8.67514 8.79833 8.76625 8.82278C8.83458 8.84111 8.90236 8.82222 8.92681 8.73ZM12.2418 9.61833C12.2174 9.71056 12.2663 9.76056 12.334 9.77889C12.4257 9.80333 13.1618 9.86444 13.1618 9.86444C13.1618 9.86444 12.4935 9.55167 12.4012 9.52722C12.3335 9.50944 12.2663 9.52667 12.2418 9.61833ZM9.09792 8.31722C9.14403 8.235 9.11014 8.175 9.04847 8.14C8.96681 8.09278 8.26403 7.83611 8.26403 7.83611C8.26403 7.83611 8.83681 8.31778 8.91847 8.365C8.98014 8.40056 9.05014 8.39944 9.09792 8.31722ZM12.0707 10.0333C12.0229 10.1161 12.0574 10.1772 12.1185 10.2122C12.2001 10.26 12.8951 10.5094 12.8951 10.5094C12.8951 10.5094 12.3301 10.0344 12.2485 9.98667C12.1874 9.95167 12.1179 9.95167 12.0707 10.0333ZM9.36958 7.96278C9.43569 7.895 9.41847 7.82889 9.36847 7.77889C9.30125 7.71222 8.68903 7.28222 8.68903 7.28222C8.68903 7.28222 9.11792 7.89611 9.18403 7.96278C9.23403 8.01278 9.30236 8.03056 9.36958 7.96278ZM11.7974 10.39C11.7301 10.4578 11.7474 10.5256 11.7974 10.575C11.864 10.6422 12.4713 11.0633 12.4713 11.0633C12.4713 11.0633 12.0479 10.4583 11.9807 10.3911C11.9307 10.3411 11.864 10.3228 11.7974 10.39ZM9.72514 7.69111C9.80569 7.64278 9.80625 7.57444 9.77125 7.51278C9.72403 7.43111 9.24403 6.85722 9.24403 6.85722C9.24403 6.85722 9.49847 7.56111 9.54569 7.64278C9.58069 7.70444 9.64236 7.73889 9.72514 7.69111ZM11.4413 10.6639C11.359 10.7117 11.3579 10.7811 11.3929 10.8422C11.4407 10.9244 11.9174 11.4883 11.9174 11.4883C11.9174 11.4883 11.6657 10.7939 11.6185 10.7117C11.5829 10.6511 11.5229 10.6161 11.4413 10.6639ZM10.1374 7.52056C10.2285 7.495 10.2462 7.42833 10.2285 7.36C10.204 7.26889 9.88847 6.59056 9.88847 6.59056C9.88847 6.59056 9.95236 7.33611 9.97681 7.42722C9.99514 7.49556 10.0451 7.545 10.1374 7.52056ZM11.0263 10.8356C10.934 10.8611 10.9151 10.9278 10.9335 10.9961C10.9579 11.0878 11.2724 11.7561 11.2724 11.7561C11.2724 11.7561 11.209 11.02 11.1846 10.9289C11.1668 10.8606 11.1174 10.8111 11.0263 10.8356Z" fill="#FFCC4D"/>
<path d="M12.1364 13.1364L12.1158 13.1453L12.093 13.1487L12.0758 13.152L12.0441 13.1453L12.0302 13.1398L12.0175 13.1337L12.0025 13.1242L11.9775 13.1064L11.9547 13.0881L11.9419 13.0792L11.9258 13.0726L11.9147 13.0698H11.8986L11.8358 13.2003L11.823 13.2187L11.8108 13.2337L11.798 13.2431L11.7869 13.2526L11.7708 13.2587H11.7558L11.7419 13.2526L11.7225 13.2431L11.7169 13.2337L11.7102 13.2242L11.7036 13.212L11.6969 13.1976L11.688 13.1514L11.6697 13.1664L11.6525 13.1881L11.618 13.2403L11.5975 13.2676L11.5758 13.2887L11.5641 13.3014L11.5491 13.3109L11.5341 13.3176L11.5158 13.3231H11.5069L11.4908 13.3264L11.4758 13.3231L11.4641 13.3176L11.4286 13.2748L11.3886 13.232L11.3614 13.2748L11.3297 13.3109L11.3147 13.3259L11.3008 13.3409L11.2858 13.3531L11.2575 13.3687L11.2425 13.372H11.2275L11.2147 13.3687L11.2025 13.362L11.1936 13.3526L11.1819 13.3381C11.1742 13.3155 11.1658 13.2931 11.1569 13.2709L11.1536 13.2553L11.148 13.2437L11.1414 13.2376H11.1347L11.0525 13.372L11.0408 13.3837L11.0191 13.3931L10.9714 13.4048H10.943L10.9214 13.3987L10.9147 13.3953L10.9058 13.3859L10.9036 13.3803V13.3681L10.9147 13.2337L10.9058 13.237L10.8819 13.2487C10.86 13.2715 10.8387 13.2948 10.818 13.3187L10.7908 13.3526L10.7569 13.3809L10.7252 13.4048L10.7075 13.4148L10.6708 13.4203L10.6558 13.417L10.6491 13.4148L10.643 13.4081L10.6397 13.3987V13.3892L10.643 13.3503L10.6525 13.2887L10.6464 13.2526L10.6336 13.2314L10.6152 13.2587L10.5852 13.2981C10.5603 13.3253 10.5347 13.352 10.5086 13.3781C10.494 13.3878 10.4797 13.398 10.4658 13.4087L10.4325 13.4203L10.4258 13.417H10.4164L10.4097 13.4114L10.4075 13.4081L10.4008 13.3987L10.3986 13.3892V13.3776L10.3952 13.362L10.3986 13.2464C10.343 13.2842 10.2869 13.3209 10.2302 13.3559L10.2091 13.3653L10.1852 13.3776C10.1625 13.3831 10.1402 13.3887 10.118 13.3953H10.0958L10.0752 13.3926L10.0564 13.3859L10.0658 13.3614L10.0841 13.3187L10.0958 13.3009L10.1091 13.2826L10.1208 13.2642L10.1519 13.2337L10.1858 13.2098L10.2247 13.1848L10.2647 13.1664L10.3108 13.1514L10.3564 13.1398L10.4602 13.1214L10.5119 13.1148C10.6652 13.1059 10.8191 13.1048 10.9725 13.1059L11.1408 13.0964L11.193 13.0903L11.2897 13.072L11.3364 13.0592L11.3797 13.0414L11.4197 13.0231C11.4408 13.0064 11.4625 12.9898 11.4847 12.9742L11.5141 12.9398L11.4825 12.8792L11.5075 12.8759L11.5314 12.8703L11.5564 12.8581L11.5769 12.8426L11.5858 12.837L11.5958 12.8276L11.6025 12.8153L11.6091 12.8064L11.6114 12.7942V12.7731L11.6047 12.7609L11.6569 12.7514L11.7125 12.7453L11.7708 12.742H11.8314C11.9164 12.7453 12.0008 12.7503 12.0852 12.757C12.213 12.7726 12.3414 12.7848 12.4697 12.797L12.5847 12.8031V12.8453L12.5825 12.8642L12.5758 12.882L12.5702 12.9003L12.5636 12.9153L12.5547 12.9276C12.5441 12.9398 12.5325 12.952 12.5208 12.9637L12.4936 12.9814L12.4641 12.9937L12.4347 13.0003L12.4008 13.0064L12.3358 13.0003L12.3019 12.9909L12.2725 12.9753L12.2408 12.9603L12.2169 12.9387L12.193 12.9148V12.967C12.1886 13.0009 12.183 13.0342 12.178 13.0681L12.1664 13.0998L12.1597 13.1126L12.1508 13.1214L12.1441 13.1309L12.1364 13.1364ZM9.68191 12.8492L9.75135 12.8798C9.76524 12.8682 9.7795 12.8571 9.79413 12.8464L9.82135 12.832L9.8458 12.8164L9.93747 12.7798L10.0164 12.7431L10.0564 12.7281L10.1241 12.692L10.1514 12.6731C10.2202 12.6281 10.2897 12.5837 10.3591 12.5398L10.4197 12.497L10.4658 12.4603C10.5114 12.4192 10.5558 12.3776 10.6002 12.3353L10.6186 12.3231L10.6397 12.3109C10.665 12.2981 10.6905 12.2859 10.7164 12.2742L10.768 12.2564C10.8714 12.2281 10.9764 12.2059 11.0819 12.1892C11.1897 12.1764 11.2975 12.162 11.4052 12.1498L11.5486 12.1253C11.5841 12.1153 11.6197 12.1064 11.6558 12.0981L11.6925 12.052L11.7514 11.9881L11.7914 11.9487L11.8358 11.9114L11.888 11.872L11.9486 11.832L12.0408 11.7776C12.1069 11.7442 12.1725 11.7109 12.238 11.6764C12.3547 11.622 12.4697 11.5642 12.5841 11.5053L12.6386 11.4687L12.6536 11.4226L12.6752 11.3776L12.7025 11.3314L12.773 11.237C12.8052 11.2026 12.8364 11.1681 12.8675 11.1326C12.9052 11.0959 12.9441 11.0603 12.9836 11.0259L13.0425 10.9776L13.0719 10.9559L13.1036 10.9348C13.1258 10.922 13.148 10.9098 13.1708 10.8981L13.2047 10.8826L13.2375 10.8709L13.3091 10.852L13.3447 10.8498L13.3786 10.8464L13.4141 10.8498L13.448 10.8553L13.4458 10.892L13.4369 10.9281L13.4097 11.0048L13.3869 11.0442L13.3597 11.0842L13.3264 11.1264L13.2864 11.1692L13.318 11.1659L13.3452 11.1598L13.3669 11.1531L13.3875 11.1442L13.4275 11.132L13.4847 11.1259L13.488 11.1476V11.1687L13.4847 11.1898L13.4791 11.2081L13.4702 11.2264L13.4575 11.2448L13.4458 11.2592L13.4308 11.2748C13.3888 11.3153 13.346 11.3549 13.3025 11.3937L13.3386 11.397C13.3652 11.4053 13.3919 11.4137 13.4191 11.4209L13.4486 11.4276L13.413 11.4553C13.3848 11.4742 13.3563 11.4925 13.3275 11.5103L13.2297 11.5653L13.1808 11.5959L13.1319 11.6298L13.0864 11.6664L13.1069 11.6692L13.1352 11.6814L13.1475 11.6848L13.1591 11.6909L13.1691 11.6937L13.178 11.6909L13.1175 11.7248C13.0796 11.7426 13.042 11.7609 13.0047 11.7798L12.958 11.8076L12.9491 11.817L12.9436 11.8264L12.9369 11.8353L12.9391 11.8476L12.9458 11.857L12.9575 11.8659L12.9686 11.8759L12.9641 11.8876L12.9575 11.8976L12.9458 11.9064L12.9347 11.9159L12.9052 11.9303L12.8697 11.9459L12.8002 11.9703L12.7569 11.992L12.8175 12.0526L12.7958 12.0737L12.7752 12.0892L12.7569 12.0987L12.7352 12.1076L12.693 12.1137H12.633L12.6397 12.1414L12.6486 12.1687L12.6614 12.2303C12.6235 12.2598 12.5848 12.2881 12.5452 12.3153L12.4747 12.3609L12.3964 12.4064L12.3497 12.4281L12.3041 12.4492C12.2527 12.4692 12.2006 12.4876 12.148 12.5042L12.0297 12.5292L11.9647 12.5387C12.0352 12.5409 12.1058 12.542 12.1764 12.5414L12.3497 12.5231L12.4258 12.5081L12.493 12.4898C12.5375 12.4748 12.5808 12.4581 12.6241 12.4409L12.7086 12.402L12.7919 12.3559L12.8702 12.3064L12.9536 12.2581L12.9036 12.2337L12.8558 12.2187L12.833 12.2081C12.8158 12.1998 12.7986 12.1914 12.7808 12.1842L12.7525 12.1687L12.7764 12.1509L12.8058 12.1387L12.8375 12.127C12.8741 12.1181 12.9114 12.1098 12.948 12.102C12.9958 12.097 13.0436 12.0909 13.0914 12.0842L13.1519 12.0781L13.1986 12.0664L13.2108 12.0598L13.2197 12.0503L13.2175 12.047L13.2108 12.0409L13.2019 12.0376L13.1902 12.032L13.1564 12.0253L13.113 12.0192L13.0708 12.0159L13.0286 12.0098L12.9908 12.0003L12.968 11.9909L13.2664 11.9242L13.3186 11.9087C13.3414 11.9003 13.3636 11.8909 13.3858 11.8814L13.4152 11.8626L13.428 11.8509L13.4247 11.8481L13.4191 11.8414L13.3908 11.8353L13.3519 11.832H13.3052C13.2736 11.8298 13.2425 11.8276 13.2108 11.8264L13.1719 11.8198L13.1469 11.8137L13.1902 11.7959C13.2547 11.7759 13.3202 11.7576 13.3858 11.7403C13.423 11.7276 13.4608 11.7148 13.4986 11.7037L13.5564 11.6792L13.5836 11.6642L13.6086 11.6492L13.6175 11.6398L13.6269 11.6276L13.6358 11.6187L13.6391 11.6092L13.6358 11.5998L13.6269 11.5931L13.6175 11.5909H13.533L13.493 11.5931H13.4386L13.4225 11.5909L13.4119 11.5842L13.3986 11.5781C13.5097 11.5048 13.6219 11.432 13.7347 11.3609L13.8225 11.2998C13.8461 11.2802 13.8693 11.26 13.8919 11.2392L13.9191 11.2087L13.9441 11.1781L13.9625 11.1448L13.9775 11.1114L13.9864 11.0742V11.0348H13.9658L13.9441 11.0381L13.8964 11.0559C13.854 11.0825 13.8111 11.1081 13.7675 11.1326L13.7436 11.1481L13.7152 11.1598L13.688 11.1692L13.663 11.1753L13.6391 11.1787H13.6108L13.5869 11.1692L13.6608 11.1142C13.7202 11.0637 13.7791 11.0126 13.8375 10.9614C13.9019 10.8998 13.9649 10.8367 14.0264 10.772L14.1141 10.6742C14.1402 10.6398 14.1669 10.6064 14.1941 10.5731C14.2158 10.542 14.2375 10.5103 14.258 10.4787L14.2647 10.467L14.2669 10.4576L14.2647 10.4448L14.2614 10.4359L14.258 10.4259L14.2491 10.4198L14.2397 10.4103L14.2308 10.407L14.2191 10.4014L14.2058 10.3981H14.1819L14.1702 10.4014L14.1541 10.4037L14.1452 10.4137L14.1325 10.4231C14.0702 10.4853 14.0086 10.5487 13.948 10.6126L13.8741 10.6826C13.8256 10.7248 13.7767 10.7667 13.7275 10.8081C13.7043 10.8238 13.6808 10.839 13.6569 10.8537L13.5897 10.8876L13.6102 10.8692C13.6325 10.8481 13.6541 10.827 13.6752 10.8053C13.7536 10.7153 13.8286 10.622 13.9008 10.5276L14.0419 10.3292L14.0797 10.2626L14.1175 10.2014L14.148 10.1459L14.1719 10.0937L14.1869 10.0514L14.1902 10.0364V10.012L14.1869 10.0026L14.1758 9.98423L14.1691 9.97812L14.1591 9.97534L14.1419 9.96534L14.1191 9.95923H14.0775L14.0658 9.96256L14.0569 9.96534L14.0441 9.972L14.0352 9.98089L14.0102 10.0026C13.9828 10.0355 13.9564 10.0693 13.9308 10.1037C13.8697 10.1992 13.8052 10.2926 13.7386 10.3842L13.6614 10.4759L13.6225 10.5159L13.5802 10.5526L13.6347 10.4509L13.7202 10.2714L13.7758 10.1403L13.7997 10.0731L13.8419 9.93534C13.8525 9.89089 13.8619 9.84645 13.8702 9.80145C13.8741 9.75978 13.8775 9.71812 13.8802 9.67589L13.8758 9.64534L13.8736 9.61812L13.8702 9.58978L13.8614 9.55423L13.8547 9.54423L13.8397 9.52923L13.8191 9.52034L13.7964 9.51367H13.7758L13.7564 9.517L13.7508 9.52034L13.7419 9.52256L13.7386 9.52923C13.6836 9.70256 13.6419 9.87923 13.5941 10.0542C13.5764 10.1031 13.5586 10.152 13.5397 10.2009L13.4941 10.2892L13.4658 10.3287L13.4841 10.2409C13.493 10.1898 13.5008 10.1392 13.508 10.0881L13.5208 9.96256L13.5241 9.91034C13.5225 9.88381 13.5202 9.85733 13.5175 9.83089L13.5119 9.80034L13.503 9.77589L13.4902 9.75756L13.4836 9.75145L13.4652 9.74534L13.4564 9.742H13.4464L13.4375 9.74534L13.4125 9.75145L13.3886 9.76367C13.3697 9.85812 13.3469 9.952 13.3214 10.0448C13.285 10.1618 13.2423 10.2768 13.1936 10.3892C13.1606 10.4583 13.1258 10.5265 13.0891 10.5937L13.0219 10.7098L12.9491 10.8192C12.9003 10.8876 12.8497 10.9546 12.7975 11.0203C12.7464 11.0781 12.6941 11.1348 12.6414 11.1914C12.5864 11.2453 12.5302 11.2987 12.473 11.3509C12.4141 11.3998 12.3547 11.447 12.2941 11.4937C12.2203 11.5471 12.1447 11.598 12.0675 11.6464L11.933 11.7253L11.7191 11.8237L11.4991 11.9026L11.3169 11.9581L11.128 12.0003L11.0336 12.0159L10.8402 12.0403L10.7425 12.0464L10.733 12.0498L10.7236 12.0526L10.7052 12.0626L10.6847 12.077C10.6608 12.0979 10.6372 12.1192 10.6141 12.1409L10.5652 12.1903L10.388 12.3881L10.3208 12.4553L10.2419 12.5159L10.2108 12.537L10.1802 12.5559L10.1136 12.5864C10.0102 12.6287 9.90524 12.667 9.80135 12.7087L9.77413 12.7237L9.74969 12.7364L9.73191 12.7481L9.69802 12.782L9.68858 12.797L9.68191 12.812L9.67969 12.8337V12.8492" fill="#FFCC4D"/>
<path d="M10.8011 12.9865L10.8523 12.9931L10.8773 13.0026L10.8828 13.0053V13.0087H10.8773L10.8706 13.0115L10.8217 13.0209H10.7828L10.655 13.0115L10.3311 13.0053C10.2456 13.0065 10.16 13.0087 10.0745 13.0115C9.99892 13.017 9.92392 13.0231 9.84837 13.0298L9.79004 13.0392L9.73837 13.0509C9.72615 13.0553 9.71448 13.0598 9.70226 13.0631L9.6867 13.0698L9.67448 13.0792L9.68004 13.0481L9.69337 13.017L9.65059 13.0292L9.61392 13.0476L9.59948 13.057L9.5867 13.0692L9.57726 13.0837L9.57503 13.0992L9.56615 13.0781L9.55948 13.0592C9.55784 13.046 9.55562 13.0328 9.55281 13.0198C9.55615 13.0037 9.55948 12.9876 9.5617 12.9715L9.5717 12.9559L9.57726 12.9437L9.59003 12.9292L9.61448 12.9048L9.64781 12.8831L9.68559 12.862C9.7055 12.8737 9.72677 12.8828 9.74892 12.8892C9.77078 12.8912 9.79281 12.8891 9.81392 12.8831C9.84781 12.9131 9.93559 12.907 9.94781 12.8526C9.95254 12.8325 9.95254 12.8116 9.94781 12.7915L9.98448 12.7887L10.0273 12.782L10.1217 12.7576L10.1711 12.7481L10.2167 12.7365L10.2595 12.7303L10.2956 12.727L10.2806 12.7398L10.2011 12.8003L10.1711 12.8215L10.21 12.8315L10.2439 12.8376L10.1717 12.9198L10.1528 12.9442L10.1767 12.9537L10.2011 12.9603L10.2289 12.9665H10.2839L10.3384 12.9542L10.36 12.9415L10.385 12.9542L10.4095 12.9637C10.425 12.9681 10.4411 12.9726 10.4573 12.9759C10.495 12.9798 10.5328 12.9842 10.5711 12.9876H10.8011M10.5228 12.0587L10.4956 12.1137L10.4645 12.1842C10.4485 12.213 10.4335 12.2423 10.4195 12.272L10.4039 12.2876L10.3678 12.257L10.3278 12.2292L10.285 12.2076L10.24 12.1898L10.1417 12.1648L10.0934 12.1559C10.0405 12.1498 9.98754 12.1448 9.93448 12.1409C9.86421 12.1398 9.79399 12.1365 9.72392 12.1309L9.62615 12.1192L9.57115 12.1098L9.51948 12.0981L9.46503 12.0792L9.41892 12.0553L9.38504 12.0331L9.31504 11.9815C9.21281 11.8853 9.1117 11.7881 9.0067 11.6942L8.94615 11.652L8.91837 11.6398L8.88948 11.6309L8.83781 11.6192C8.80764 11.6085 8.77726 11.5983 8.7467 11.5887C8.71826 11.575 8.68955 11.5618 8.66059 11.5492C8.61021 11.518 8.56144 11.4843 8.51448 11.4481L8.48392 11.4198L8.42337 11.3592L8.36503 11.2953C8.26892 11.1781 8.17837 11.057 8.08448 10.9381C8.03959 10.8905 7.99384 10.8436 7.94726 10.7976L7.90781 10.7615L7.86781 10.7281L7.78004 10.6642L7.77115 10.667L7.76115 10.6765L7.7517 10.6887C7.74615 10.7026 7.7417 10.717 7.73726 10.7315L7.73392 10.7437L7.7117 10.7337L7.69337 10.7242L7.67115 10.7148L7.65281 10.7087H7.61337L7.5917 10.7148L7.57059 10.7242C7.58726 10.7453 7.60337 10.7665 7.61892 10.7881L7.64615 10.8309L7.69559 10.9254L7.71337 10.9715L7.72004 10.9959L7.7267 11.0142L7.72948 11.0354V11.0531H7.56504L7.58892 11.0898C7.60726 11.1148 7.6267 11.1392 7.64615 11.1631L7.74726 11.2642L7.78115 11.2915L7.81226 11.3131C7.78582 11.3159 7.75934 11.3181 7.73281 11.3198L7.65281 11.3287L7.68003 11.3537C7.70392 11.3704 7.72726 11.3876 7.75059 11.4053L7.79003 11.4326L7.83004 11.457L7.86948 11.4787L7.90615 11.4909L7.94004 11.4998L7.96726 11.5059L7.97615 11.5092L7.98281 11.5159L7.98503 11.5187V11.5303L7.97615 11.5553L7.97392 11.5731L7.97004 11.5853V11.5942L7.97392 11.6098L7.97615 11.622L7.98281 11.6276L7.9917 11.6342L8.00337 11.6403L8.01892 11.6437L8.05004 11.6559L8.06503 11.6615L8.07726 11.6709L8.08004 11.6742V11.6803L8.07726 11.6837L8.05281 11.7015L8.04059 11.7137L8.02837 11.7287V11.7415L8.02559 11.7537L8.0317 11.7865L8.13837 11.8231L8.16281 11.8287L8.18726 11.8387L8.20559 11.8481L8.22115 11.8576L8.12003 11.937L8.14726 11.9615L8.18115 11.9798L8.22392 12.0009C8.25448 12.012 8.28504 12.022 8.31615 12.032L8.3617 12.0409L8.4017 12.0503H8.43781L8.40392 12.0748L8.36115 12.102L8.31559 12.127L8.2817 12.1515L8.31226 12.1726C8.40504 12.2203 8.50003 12.2648 8.5967 12.3042C8.76559 12.3731 8.93837 12.4331 9.11226 12.487C9.15115 12.4965 9.18948 12.5065 9.22781 12.5176L9.2767 12.527L9.17837 12.5176C9.11724 12.5097 9.0563 12.5004 8.99559 12.4898L8.91004 12.4715L8.7417 12.4231L8.66281 12.3953C8.4517 12.3131 8.24559 12.2187 8.03392 12.1387L8.04948 12.1298L8.09226 12.1142L8.11948 12.1081C8.1567 12.097 8.19281 12.0848 8.22948 12.0715C8.15674 12.0604 8.08431 12.0475 8.01226 12.0326C7.97492 12.0204 7.93732 12.0091 7.89948 11.9987L7.87781 11.9892L7.85948 11.9798L7.84448 11.9698L7.83448 11.9609V11.9581L7.83781 11.9548L7.84726 11.9515L7.85615 11.9453L7.88059 11.9359L7.98726 11.9048L8.04892 11.8837C7.96059 11.867 7.8717 11.852 7.78281 11.8381L7.74003 11.8281L7.70615 11.8165L7.69392 11.8098L7.68226 11.8003L7.67226 11.7948L7.66615 11.7848L7.67559 11.7787L7.70281 11.7726C7.73115 11.7681 7.76003 11.7631 7.78837 11.7576L7.83726 11.7515C7.86503 11.7437 7.89226 11.7353 7.91948 11.7265L7.93226 11.7176L7.94448 11.7076L7.89615 11.6892L7.86503 11.6837L7.83448 11.677L7.69448 11.6587L7.65781 11.6498L7.62392 11.6431L7.5567 11.6192L7.52559 11.6037L7.50059 11.5859L7.47615 11.5642L7.45781 11.537L7.46448 11.5337L7.47615 11.5303H7.4917L7.51615 11.5337L7.63226 11.5398L7.70004 11.5465H7.78503L7.80892 11.5431L7.82781 11.537L7.84003 11.5303C7.78256 11.5069 7.72551 11.4825 7.66892 11.457C7.63147 11.438 7.59369 11.4197 7.55559 11.402L7.44003 11.3415L7.38503 11.3076C7.35116 11.2836 7.31764 11.2592 7.28448 11.2342L7.2417 11.1976L7.22281 11.1765L7.20392 11.1581L7.19226 11.1398L7.17948 11.1181L7.16726 11.1003L7.16059 11.0792L7.15559 11.0398H7.17615L7.20059 11.0426L7.22503 11.0526L7.24948 11.0615L7.29781 11.092L7.35281 11.1226L7.37726 11.1381L7.40448 11.1526L7.4317 11.1648L7.45615 11.1742L7.48337 11.1809L7.50781 11.1837H7.53559L7.55948 11.1742L7.48726 11.1187C7.42742 11.069 7.36834 11.0185 7.31003 10.967C7.21334 10.875 7.12049 10.7789 7.0317 10.6792L6.99281 10.6276L6.95281 10.5787C6.93088 10.5473 6.9094 10.5157 6.88837 10.4837L6.88281 10.4715V10.4503L6.88559 10.4409L6.88837 10.432L6.89781 10.4259L6.9067 10.4165L6.9167 10.4098L6.92837 10.4065L6.94059 10.4042H6.96504L6.98003 10.4065L6.99337 10.4098L7.00503 10.4192C7.07115 10.4848 7.13615 10.5509 7.20003 10.6181C7.27059 10.6859 7.34392 10.7515 7.42003 10.8137L7.49003 10.8587L7.52615 10.8776L7.56004 10.8892L7.53615 10.8742L7.47226 10.8103C7.39392 10.7203 7.31948 10.627 7.24615 10.5326C7.21385 10.4882 7.18218 10.4434 7.15115 10.3981C7.12347 10.3539 7.09495 10.3102 7.06559 10.267C7.04232 10.2288 7.01991 10.1901 6.99837 10.1509C6.98598 10.1192 6.97301 10.0877 6.95948 10.0565L6.95559 10.0415V10.0165L6.95948 10.0076L6.97115 9.98924L6.97781 9.98257L6.98726 9.97702L7.0267 9.96424H7.06948L7.0817 9.96702L7.09059 9.97035L7.10281 9.97702L7.1367 10.0076L7.21615 10.1087C7.27837 10.2042 7.34392 10.2976 7.4117 10.3892L7.48392 10.4809L7.52392 10.5204L7.5667 10.557C7.51804 10.4647 7.47136 10.3713 7.4267 10.277C7.4078 10.2336 7.38946 10.1898 7.3717 10.1459L7.34726 10.0787C7.33435 10.0323 7.32008 9.9864 7.30448 9.94091L7.28948 9.87368L7.27837 9.80535L7.2717 9.74146L7.26892 9.6809L7.2717 9.65035L7.27559 9.62257L7.27837 9.59479L7.28448 9.56757L7.29059 9.55757L7.29392 9.54868L7.30281 9.53868L7.30892 9.53313L7.33003 9.52368L7.3517 9.51813H7.37281L7.39115 9.52146L7.40004 9.52368L7.4067 9.52702L7.41003 9.53368L7.41337 9.54257C7.46559 9.71313 7.50837 9.88646 7.55337 10.0592C7.57115 10.1076 7.58948 10.1553 7.60892 10.2026L7.63003 10.2481L7.65448 10.2909L7.6817 10.3337L7.66392 10.2448C7.65695 10.1941 7.6488 10.1435 7.63948 10.0931C7.63338 10.0342 7.62838 9.97507 7.62448 9.9159L7.63059 9.83646L7.6367 9.80535L7.64615 9.78146L7.65837 9.76313L7.66448 9.75646L7.67337 9.75035L7.68226 9.74757H7.71003L7.73503 9.75646L7.75892 9.76868L7.8017 9.96091C7.81726 10.0192 7.83448 10.0776 7.85337 10.1348C7.88448 10.222 7.91837 10.3087 7.95448 10.3942L7.99726 10.4826L8.05837 10.5992L8.12503 10.7148L8.19892 10.8248L8.27781 10.9342L8.3517 11.0259C8.40281 11.0837 8.45448 11.1409 8.50726 11.197C8.56226 11.2509 8.61837 11.3037 8.67559 11.3553L8.76392 11.4292C8.84503 11.4926 8.92837 11.5526 9.01448 11.6092C9.0817 11.6492 9.15004 11.6881 9.21892 11.7253L9.42892 11.8265C9.53559 11.8687 9.64337 11.9076 9.75226 11.942C9.85892 11.9704 9.96726 11.9948 10.0761 12.0153C10.2223 12.0387 10.3723 12.0526 10.5228 12.0587Z" fill="#FFCC4D"/>
<path d="M1.91684 15.8454C1.91684 15.8454 1.78517 15.9548 1.74073 15.8998C1.66906 15.8109 1.96128 15.367 1.96128 15.2104C1.96128 14.9542 1.78962 14.8831 1.57851 14.847C1.43628 14.8226 1.20573 14.8576 1.20573 14.8576C1.24906 14.9159 1.2774 14.9342 1.35073 14.9376C1.3002 14.9642 1.25806 15.0043 1.22902 15.0534C1.19998 15.1026 1.18518 15.1588 1.18628 15.2159C1.18628 15.4359 1.2774 15.527 1.2774 15.7765C1.2774 15.9148 1.16406 16.0904 1.16406 16.0904C1.36406 16.0704 1.46406 15.8854 1.4074 15.7365C1.42271 15.7336 1.43848 15.7345 1.45338 15.739C1.46827 15.7436 1.48185 15.7517 1.49295 15.7626C1.5074 15.722 1.48462 15.6737 1.45351 15.6331C1.47851 15.6204 1.49684 15.6281 1.53628 15.6359C1.5324 15.5937 1.50684 15.5492 1.44517 15.507C1.62517 15.5531 1.73573 15.4281 1.73573 15.297C1.73573 15.197 1.66628 15.1259 1.59795 15.1259C1.57207 15.1267 1.54691 15.1346 1.52517 15.1487C1.5124 15.122 1.51906 15.0854 1.53184 15.0581C1.4824 15.0709 1.45073 15.1004 1.47351 15.1626C1.45656 15.1629 1.43986 15.1667 1.42446 15.1737C1.40906 15.1808 1.39531 15.191 1.38406 15.2037C1.39469 15.217 1.40836 15.2276 1.42392 15.2346C1.43948 15.2415 1.45649 15.2447 1.47351 15.2437C1.44573 15.3015 1.47684 15.3342 1.52184 15.3598C1.52184 15.3598 1.49295 15.2437 1.56684 15.2437C1.60017 15.2437 1.63017 15.2554 1.63017 15.3037C1.63017 15.3454 1.59295 15.4042 1.5074 15.4009C1.42128 15.397 1.35184 15.3415 1.35184 15.2054C1.35184 15.0781 1.45351 15.0154 1.5874 15.0115C1.70851 15.0076 1.79962 15.0731 1.79962 15.1981C1.79962 15.3637 1.55962 15.7426 1.55962 15.8904C1.55962 16.0015 1.65906 16.0631 1.75684 16.0631C1.88351 16.0631 1.99017 15.9376 1.99017 15.9376L1.91684 15.8454ZM1.88906 12.8442C1.88906 12.5676 2.13795 12.4248 2.33351 12.4248C2.59684 12.4248 2.7374 12.5826 2.7374 12.7881C2.7374 12.9059 2.71573 12.9792 2.66184 13.0909L2.05795 14.3448C2.03585 14.3975 2.02615 14.4545 2.02962 14.5115C2.02962 14.6237 2.13906 14.7159 2.25351 14.7187C2.3574 14.7215 2.47128 14.6215 2.47128 14.5076C2.47128 14.3692 2.40017 14.3081 2.32628 14.3081C2.23573 14.3081 2.19962 14.3448 2.19962 14.4087C2.19962 14.4537 2.22128 14.4726 2.25184 14.4726C2.32962 14.4726 2.30795 14.3681 2.30795 14.3681C2.3183 14.3703 2.32805 14.3747 2.33651 14.381C2.34498 14.3874 2.35194 14.3955 2.35692 14.4048C2.3619 14.4141 2.36478 14.4244 2.36534 14.435C2.3659 14.4456 2.36414 14.4561 2.36017 14.4659C2.38927 14.472 2.41559 14.4874 2.43517 14.5098C2.41517 14.5311 2.3889 14.5455 2.36017 14.5509C2.37851 14.6109 2.35406 14.6404 2.30184 14.6531C2.31084 14.6329 2.31336 14.6104 2.30906 14.5887C2.22628 14.612 2.09962 14.5754 2.09962 14.432C2.09962 14.2898 2.19795 14.1704 2.38295 14.1998C2.33851 14.1798 2.31684 14.137 2.3124 14.0881C2.34573 14.102 2.38295 14.1037 2.38295 14.1037C2.36128 14.0659 2.33128 14.0331 2.3324 13.9576C2.36684 13.9737 2.39851 14.002 2.4424 13.9837C2.37351 13.8487 2.45795 13.6631 2.67351 13.6181C2.60033 13.6977 2.55866 13.8012 2.55628 13.9092C2.55628 14.2315 2.64628 14.2848 2.64628 14.5081C2.64479 14.5602 2.63104 14.6112 2.60613 14.657C2.58123 14.7027 2.54587 14.7419 2.50295 14.7715V14.7676C2.56517 14.7842 2.60573 14.8159 2.62906 14.8576C2.48517 14.8981 2.27573 14.8976 2.16406 14.8537C2.11345 14.8464 2.0651 14.8278 2.02253 14.7995C1.97996 14.7712 1.94423 14.7337 1.91795 14.6898C1.8908 14.6272 1.87678 14.5597 1.87678 14.4915C1.87678 14.4232 1.8908 14.3557 1.91795 14.2931C2.00351 14.1148 2.40684 13.2598 2.5324 12.9904C2.56009 12.9332 2.57471 12.8706 2.57517 12.807C2.57517 12.6431 2.42462 12.5854 2.33906 12.5854C2.23628 12.5854 2.13184 12.6642 2.13184 12.7609C2.13184 12.8231 2.16573 12.8598 2.21351 12.8598C2.32962 12.8598 2.3224 12.7615 2.29906 12.6992C2.37073 12.7326 2.41295 12.7892 2.40128 12.8504C2.4424 12.8559 2.48128 12.8754 2.51684 12.9154C2.48851 12.952 2.45406 12.9787 2.40128 12.9792C2.42462 13.0737 2.36128 13.1137 2.29906 13.1354C2.31851 13.0665 2.33128 12.9859 2.21351 12.9859C2.1274 12.9859 2.05962 12.9709 2.02017 12.9148C2.0174 12.9898 2.01017 13.2842 2.01017 13.2842C2.00573 13.3954 2.15851 13.392 2.25573 13.3592C2.21851 13.487 2.14351 13.5565 1.96851 13.5387C1.99531 13.549 2.0182 13.5675 2.03395 13.5915C2.04969 13.6155 2.05751 13.6439 2.05628 13.6726C2.05628 13.777 1.97184 13.892 1.91684 13.9265L1.88906 12.8442Z" fill="#FFCC4D"/>
<path d="M1.94208 12.8442C1.94208 12.5675 1.69319 12.4247 1.49764 12.4247C1.23431 12.4247 1.09375 12.5825 1.09375 12.7881C1.09375 12.9058 1.11542 12.9792 1.16931 13.0908L1.77319 14.3447C1.79511 14.3974 1.80461 14.4544 1.80097 14.5114C1.80097 14.6236 1.69153 14.7158 1.57764 14.7186C1.47319 14.7214 1.35986 14.6214 1.35986 14.5075C1.35986 14.3692 1.43097 14.3081 1.50486 14.3081C1.59542 14.3081 1.63153 14.3447 1.63153 14.4086C1.63153 14.4536 1.60986 14.4725 1.57931 14.4725C1.50153 14.4725 1.52319 14.3681 1.52319 14.3681C1.51284 14.3702 1.50309 14.3746 1.49463 14.381C1.48617 14.3873 1.4792 14.3954 1.47422 14.4047C1.46924 14.4141 1.46637 14.4244 1.46581 14.4349C1.46525 14.4455 1.46701 14.456 1.47097 14.4658C1.44188 14.472 1.41556 14.4874 1.39597 14.5097C1.41598 14.531 1.44224 14.5454 1.47097 14.5508C1.45319 14.6108 1.47764 14.6403 1.52986 14.6525C1.52086 14.6323 1.51834 14.6098 1.52264 14.5881C1.60542 14.6114 1.73208 14.5747 1.73208 14.4314C1.73208 14.2892 1.63375 14.1697 1.44931 14.1992C1.49319 14.1792 1.51542 14.1364 1.51931 14.0875C1.49691 14.0962 1.4733 14.1015 1.44931 14.1031C1.47042 14.0653 1.50042 14.0325 1.49931 13.957C1.46486 13.9731 1.43375 14.0014 1.38931 13.9831C1.45819 13.8481 1.37375 13.6625 1.15819 13.6175C1.23137 13.6971 1.27304 13.8006 1.27542 13.9086C1.27542 14.2308 1.18597 14.2842 1.18597 14.5075C1.18597 14.6008 1.23431 14.7025 1.32931 14.7708V14.767C1.30315 14.7723 1.27842 14.7831 1.25669 14.7986C1.23497 14.8141 1.21674 14.834 1.20319 14.857C1.34708 14.8975 1.55597 14.897 1.66819 14.8531C1.71881 14.8457 1.76716 14.8272 1.80973 14.7989C1.8523 14.7705 1.88802 14.7331 1.91431 14.6892C1.94146 14.6266 1.95547 14.5591 1.95547 14.4908C1.95547 14.4226 1.94146 14.3551 1.91431 14.2925C1.82875 14.1142 1.42542 13.2592 1.29986 12.9897C1.27216 12.9326 1.25755 12.8699 1.25708 12.8064C1.25708 12.6425 1.40764 12.5847 1.49319 12.5847C1.59597 12.5847 1.70042 12.6636 1.70042 12.7603C1.70042 12.8225 1.66653 12.8592 1.61875 12.8592C1.50264 12.8592 1.50986 12.7608 1.53264 12.6986C1.46097 12.732 1.41875 12.7886 1.43042 12.8497C1.38526 12.8566 1.34416 12.8797 1.31486 12.9147C1.34319 12.9514 1.37764 12.9781 1.43042 12.9786C1.40708 13.0731 1.47042 13.1131 1.53264 13.1347C1.51319 13.0658 1.50042 12.9853 1.61875 12.9853C1.70486 12.9853 1.77264 12.9703 1.81208 12.9142L1.82208 13.2836C1.82653 13.3947 1.67319 13.3914 1.57597 13.3586C1.61264 13.4858 1.68819 13.5553 1.86264 13.5375C1.83584 13.5478 1.81295 13.5663 1.7972 13.5903C1.78145 13.6143 1.77364 13.6427 1.77486 13.6714C1.77486 13.7758 1.85875 13.8908 1.91431 13.9253L1.94208 12.8442ZM1.91486 15.8453C1.91486 15.8453 2.04653 15.9547 2.09097 15.8997C2.16264 15.8108 1.87042 15.367 1.87042 15.2103C1.87042 14.9542 2.04208 14.8831 2.25319 14.847C2.39542 14.8225 2.62653 14.8575 2.62653 14.8575C2.58264 14.9158 2.55486 14.9342 2.48153 14.9375C2.53201 14.9641 2.57412 15.0043 2.60315 15.0534C2.63219 15.1025 2.64701 15.1588 2.64597 15.2158C2.64597 15.4358 2.55486 15.527 2.55486 15.7764C2.55486 15.9147 2.66819 16.0903 2.66819 16.0903C2.46819 16.0703 2.36819 15.8853 2.42486 15.7364C2.40955 15.7336 2.3938 15.7346 2.37892 15.7391C2.36404 15.7436 2.35046 15.7517 2.33931 15.7625C2.32486 15.722 2.34819 15.6736 2.37875 15.6331C2.35375 15.6203 2.33542 15.6281 2.29597 15.6358C2.29986 15.5936 2.32486 15.5492 2.38708 15.507C2.20708 15.5531 2.09653 15.4281 2.09653 15.297C2.09653 15.197 2.16597 15.1258 2.23431 15.1258C2.25653 15.1258 2.28875 15.1353 2.30708 15.1486C2.31986 15.122 2.31319 15.0853 2.29986 15.0581C2.34986 15.0708 2.38097 15.1003 2.35875 15.1625C2.37569 15.1628 2.39238 15.1666 2.40777 15.1737C2.42317 15.1808 2.43693 15.191 2.44819 15.2036C2.43757 15.217 2.4239 15.2275 2.40834 15.2345C2.39277 15.2415 2.37577 15.2446 2.35875 15.2436C2.38653 15.3014 2.35542 15.3342 2.31042 15.3597C2.31042 15.3597 2.33931 15.2436 2.26542 15.2436C2.23208 15.2436 2.20208 15.2553 2.20208 15.3036C2.20208 15.3453 2.23931 15.4042 2.32486 15.4008C2.41042 15.397 2.47986 15.3414 2.47986 15.2053C2.47986 15.0781 2.37819 15.0153 2.24431 15.0114C2.12319 15.0075 2.03208 15.0731 2.03208 15.1981C2.03208 15.3636 2.27208 15.7425 2.27208 15.8903C2.27208 16.0014 2.17264 16.0631 2.07486 16.0631C1.94819 16.0631 1.84153 15.9375 1.84153 15.9375L1.91486 15.8453ZM1.88708 7.98696C1.88708 7.70918 2.13597 7.56696 2.33153 7.56696C2.59486 7.56696 2.73542 7.72473 2.73542 7.93084C2.73542 8.04807 2.71375 8.1214 2.65986 8.23307L2.05597 9.48751C2.03384 9.53995 2.02414 9.59681 2.02764 9.65362C2.02764 9.7664 2.13708 9.85807 2.25153 9.8614C2.35542 9.86362 2.46931 9.76362 2.46931 9.65029C2.46931 9.51251 2.39819 9.45084 2.32431 9.45084C2.23375 9.45084 2.19764 9.48807 2.19764 9.55196C2.19764 9.59584 2.21931 9.61529 2.24986 9.61529C2.32764 9.61529 2.30597 9.51084 2.30597 9.51084C2.31623 9.51295 2.32591 9.51727 2.33432 9.52352C2.34273 9.52976 2.34967 9.53777 2.35464 9.54699C2.35962 9.5562 2.36252 9.5664 2.36313 9.57686C2.36375 9.58731 2.36206 9.59778 2.35819 9.60751C2.38732 9.61389 2.41361 9.62948 2.43319 9.65196C2.4131 9.67326 2.3869 9.68782 2.35819 9.69362C2.37653 9.75362 2.35208 9.78251 2.29986 9.79529C2.3089 9.77508 2.31142 9.75256 2.30708 9.73084C2.22431 9.75418 2.09764 9.71751 2.09764 9.57418C2.09764 9.43251 2.19597 9.31307 2.38097 9.34251C2.33653 9.3214 2.31486 9.27862 2.31042 9.23084C2.34375 9.24418 2.38097 9.24529 2.38097 9.24529C2.35931 9.20751 2.32931 9.17473 2.33042 9.09973C2.36486 9.11529 2.39653 9.14418 2.44042 9.12584C2.37153 8.99029 2.45597 8.80418 2.67153 8.76029C2.59853 8.83995 2.55688 8.94338 2.55431 9.0514C2.55431 9.37307 2.64431 9.42696 2.64431 9.65084C2.64431 9.74418 2.59597 9.84529 2.50097 9.91418V9.91029C2.56208 9.92696 2.60208 9.95751 2.62597 9.99973C2.48208 10.0408 2.27264 10.0397 2.16097 9.99584C2.11039 9.9884 2.06209 9.96984 2.01953 9.9415C1.97698 9.91317 1.94123 9.87575 1.91486 9.83196C1.8877 9.76956 1.87368 9.70223 1.87368 9.63418C1.87368 9.56612 1.8877 9.4988 1.91486 9.4364C2.00042 9.25751 2.40375 8.40251 2.52931 8.13307C2.55671 8.07579 2.57131 8.01323 2.57208 7.94973C2.57208 7.78529 2.42153 7.72751 2.33597 7.72751C2.23319 7.72751 2.12875 7.80584 2.12875 7.90251C2.12875 7.96473 2.16264 8.00196 2.21042 8.00196C2.32653 8.00196 2.31931 7.90307 2.29597 7.8414C2.36764 7.87362 2.40986 7.9314 2.39819 7.99251C2.43931 7.99807 2.47819 8.01696 2.51375 8.05807C2.48542 8.09362 2.45097 8.12029 2.39819 8.1214C2.42153 8.2164 2.35819 8.2564 2.29597 8.27807C2.31542 8.20918 2.32819 8.12918 2.21042 8.12918C2.12431 8.12918 2.05653 8.11418 2.01708 8.05862C2.01431 8.13307 2.00708 8.42807 2.00708 8.42807C2.00264 8.53862 2.15542 8.53584 2.25264 8.50251C2.21653 8.63029 2.14153 8.69918 1.96653 8.6814C1.99337 8.69182 2.01628 8.7104 2.03203 8.73451C2.04777 8.75863 2.05556 8.78707 2.05431 8.81584C2.05431 8.91973 1.96986 9.03529 1.91486 9.06918L1.88708 7.98696Z" fill="#FFCC4D"/>
<path d="M1.94208 7.98696C1.94208 7.70918 1.69319 7.56696 1.49764 7.56696C1.23431 7.56696 1.09375 7.72473 1.09375 7.93084C1.09375 8.04807 1.11542 8.1214 1.16931 8.23307L1.77319 9.48751C1.79431 9.5314 1.80097 9.58084 1.80097 9.65362C1.80097 9.7664 1.69153 9.85807 1.57764 9.8614C1.47319 9.86362 1.35986 9.76362 1.35986 9.65029C1.35986 9.51251 1.43097 9.45084 1.50486 9.45084C1.59542 9.45084 1.63153 9.48807 1.63153 9.55196C1.63153 9.59584 1.60986 9.61529 1.57931 9.61529C1.50153 9.61529 1.52319 9.51084 1.52319 9.51084C1.51288 9.51286 1.50315 9.51713 1.49468 9.52335C1.48622 9.52958 1.47924 9.5376 1.47425 9.54684C1.46925 9.55608 1.46637 9.56632 1.4658 9.57681C1.46524 9.5873 1.467 9.59778 1.47097 9.60751C1.44185 9.61389 1.41555 9.62948 1.39597 9.65196C1.41606 9.67326 1.44227 9.68782 1.47097 9.69362C1.45319 9.75362 1.47708 9.78251 1.52931 9.79529C1.52027 9.77508 1.51774 9.75256 1.52208 9.73084C1.60486 9.75418 1.73153 9.71751 1.73153 9.57418C1.73153 9.43251 1.63319 9.31307 1.44875 9.34251C1.49264 9.3214 1.51486 9.27862 1.51875 9.23084C1.48542 9.24418 1.44875 9.24529 1.44875 9.24529C1.46986 9.20751 1.49986 9.17473 1.49875 9.09973C1.46431 9.11529 1.43319 9.14418 1.38875 9.12584C1.45764 8.99029 1.37319 8.80418 1.15764 8.76029C1.23064 8.83995 1.27228 8.94338 1.27486 9.0514C1.27486 9.37307 1.18542 9.42696 1.18542 9.65084C1.18542 9.74418 1.23375 9.84529 1.32875 9.91418V9.91029C1.26708 9.92696 1.22653 9.95751 1.20375 9.99973C1.34764 10.0408 1.55653 10.0397 1.66875 9.99584C1.71933 9.9884 1.76763 9.96984 1.81019 9.9415C1.85274 9.91317 1.88849 9.87575 1.91486 9.83196C1.94202 9.76956 1.95604 9.70223 1.95604 9.63418C1.95604 9.56612 1.94202 9.4988 1.91486 9.4364C1.82931 9.25751 1.42597 8.40251 1.30042 8.13307C1.27277 8.07607 1.25815 8.01363 1.25764 7.95029C1.25764 7.78584 1.40819 7.72807 1.49375 7.72807C1.59653 7.72807 1.70097 7.8064 1.70097 7.90307C1.70097 7.96529 1.66708 8.00251 1.61931 8.00251C1.50319 8.00251 1.51042 7.90362 1.53319 7.84196C1.46153 7.87418 1.41931 7.93196 1.43097 7.99307C1.38561 7.9997 1.34438 8.02309 1.31542 8.05862C1.34375 8.09418 1.37819 8.12084 1.43097 8.12196C1.40764 8.21696 1.47097 8.25696 1.53319 8.27862C1.51375 8.20973 1.50097 8.12973 1.61931 8.12973C1.70542 8.12973 1.77319 8.11473 1.81264 8.05918L1.82208 8.42751C1.82653 8.53807 1.67319 8.53529 1.57597 8.50196C1.61264 8.62973 1.68819 8.69862 1.86264 8.6814C1.83579 8.69182 1.81289 8.7104 1.79714 8.73451C1.7814 8.75863 1.77361 8.78707 1.77486 8.81584C1.77486 8.91973 1.85875 9.03529 1.91431 9.06918L1.94208 7.98696Z" fill="#FFCC4D"/>
<path d="M1.94213 7.15473C1.94213 7.43195 1.69324 7.57473 1.49769 7.57473C1.23436 7.57473 1.0938 7.41695 1.0938 7.21029C1.0938 7.09362 1.11547 7.02029 1.16936 6.90807L1.77324 5.65362C1.79515 5.60112 1.80466 5.54428 1.80102 5.48751C1.80102 5.37529 1.69158 5.28307 1.57769 5.28029C1.47324 5.27807 1.35991 5.37751 1.35991 5.4914C1.35991 5.62973 1.43102 5.69084 1.50491 5.69084C1.59547 5.69084 1.63158 5.65362 1.63158 5.58973C1.63158 5.54529 1.60991 5.5264 1.57936 5.5264C1.50158 5.5264 1.52324 5.63084 1.52324 5.63084C1.51291 5.62876 1.50317 5.62442 1.49471 5.61814C1.48624 5.61186 1.47927 5.60379 1.47428 5.59451C1.4693 5.58522 1.46642 5.57495 1.46586 5.56443C1.46529 5.5539 1.46706 5.54339 1.47102 5.53362C1.44178 5.5279 1.41533 5.51243 1.39602 5.48973C1.4163 5.46877 1.44244 5.45444 1.47102 5.44862C1.45324 5.38862 1.47769 5.35973 1.52991 5.34695C1.52087 5.36717 1.51835 5.38969 1.52269 5.4114C1.60547 5.38807 1.73213 5.42584 1.73213 5.56807C1.73213 5.70973 1.6338 5.82918 1.44936 5.79973C1.49324 5.82084 1.51547 5.86362 1.51936 5.9114C1.49681 5.90333 1.47325 5.89847 1.44936 5.89695C1.47047 5.93473 1.50047 5.96751 1.49936 6.04251C1.46491 6.02695 1.4338 5.99807 1.38936 6.0164C1.45824 6.15195 1.3738 6.33807 1.15824 6.38251C1.23124 6.30262 1.27287 6.19903 1.27547 6.09084C1.27547 5.76973 1.18602 5.71529 1.18602 5.49195C1.18602 5.39862 1.23436 5.29751 1.32936 5.22862V5.23251C1.30327 5.22701 1.27862 5.21611 1.257 5.20051C1.23537 5.18492 1.21725 5.16497 1.2038 5.14195C1.34769 5.1014 1.55658 5.10195 1.6688 5.1464C1.71947 5.15379 1.76785 5.17239 1.81042 5.20084C1.85299 5.22928 1.88869 5.26686 1.91491 5.31084C1.9421 5.37323 1.95614 5.44056 1.95614 5.50862C1.95614 5.57668 1.9421 5.64401 1.91491 5.7064C1.82936 5.88529 1.42602 6.74029 1.30047 7.00918C1.27276 7.06615 1.25815 7.1286 1.25769 7.19195C1.25769 7.35695 1.40824 7.41418 1.4938 7.41418C1.59658 7.41418 1.70102 7.33584 1.70102 7.23862C1.70102 7.17695 1.66713 7.13918 1.61936 7.13918C1.50324 7.13918 1.51047 7.23751 1.53324 7.29973C1.46158 7.26751 1.41936 7.20973 1.43102 7.14862C1.38573 7.14178 1.34457 7.11843 1.31547 7.08307C1.3438 7.04751 1.37824 7.02029 1.43102 7.01973C1.40769 6.92529 1.47102 6.88473 1.53324 6.86251C1.5138 6.93195 1.50102 7.01251 1.61936 7.01251C1.70547 7.01251 1.77324 7.02695 1.81269 7.08307L1.82269 6.71307C1.82713 6.60251 1.6738 6.60584 1.57658 6.63862C1.61324 6.51084 1.6888 6.44195 1.86324 6.45918C1.8364 6.44875 1.81349 6.43018 1.79775 6.40606C1.782 6.38195 1.77421 6.3535 1.77547 6.32473C1.77547 6.22084 1.85936 6.10529 1.91491 6.0714L1.94213 7.15473ZM1.94213 12.0125C1.94213 12.2897 1.69324 12.432 1.49769 12.432C1.23436 12.432 1.0938 12.2747 1.0938 12.0686C1.09245 11.963 1.11848 11.8589 1.16936 11.7664L1.77324 10.512C1.79515 10.4595 1.80466 10.4026 1.80102 10.3458C1.80102 10.2331 1.69158 10.1414 1.57769 10.1386C1.47324 10.1358 1.35991 10.2358 1.35991 10.3492C1.35991 10.487 1.43102 10.5486 1.50491 10.5486C1.59547 10.5486 1.63158 10.5114 1.63158 10.4475C1.63158 10.4036 1.60991 10.3847 1.57936 10.3847C1.50158 10.3847 1.52324 10.4892 1.52324 10.4892C1.51296 10.487 1.50328 10.4826 1.49487 10.4763C1.48646 10.47 1.47953 10.4619 1.47456 10.4527C1.46959 10.4434 1.46669 10.4332 1.46608 10.4227C1.46547 10.4122 1.46716 10.4017 1.47102 10.392C1.44172 10.386 1.41528 10.3704 1.39602 10.3475C1.41617 10.3264 1.44237 10.312 1.47102 10.3064C1.45324 10.2458 1.47713 10.217 1.52936 10.2042C1.52032 10.2244 1.51779 10.2469 1.52213 10.2686C1.60491 10.2453 1.73158 10.2825 1.73158 10.4253C1.73158 10.567 1.63324 10.6858 1.4488 10.657C1.49269 10.6786 1.51491 10.7208 1.5188 10.7692C1.48547 10.7564 1.4488 10.7542 1.4488 10.7542C1.46991 10.792 1.49991 10.8253 1.4988 10.8997C1.46436 10.8842 1.43324 10.8553 1.3888 10.8736C1.45769 11.0086 1.37324 11.1958 1.15769 11.2392C1.23077 11.1596 1.27243 11.0561 1.27491 10.9481C1.27491 10.6275 1.18547 10.5725 1.18547 10.3492C1.18547 10.2553 1.2338 10.1542 1.3288 10.0858V10.0892C1.26713 10.0731 1.22658 10.0425 1.2038 9.99973C1.34769 9.95918 1.55658 9.95973 1.6688 10.0042C1.71938 10.0116 1.76768 10.0302 1.81024 10.0585C1.85279 10.0869 1.88854 10.1243 1.91491 10.1681C1.94207 10.2305 1.95609 10.2978 1.95609 10.3658C1.95609 10.4339 1.94207 10.5012 1.91491 10.5636C1.82936 10.7425 1.42602 11.5975 1.30047 11.867C1.27269 11.9239 1.25807 11.9864 1.25769 12.0497C1.25769 12.2142 1.40824 12.2714 1.4938 12.2714C1.59658 12.2714 1.70102 12.1931 1.70102 12.0958C1.70102 12.0353 1.66713 11.9975 1.61936 11.9975C1.50324 11.9975 1.51047 12.0958 1.53324 12.1575C1.46158 12.1253 1.41936 12.067 1.43102 12.0064C1.38569 12.0001 1.34442 11.9769 1.31547 11.9414C1.32864 11.9227 1.34588 11.9072 1.3659 11.8962C1.38591 11.8851 1.40818 11.8787 1.43102 11.8775C1.40769 11.7831 1.47102 11.7436 1.53324 11.7214C1.5138 11.7908 1.50102 11.8708 1.61936 11.8708C1.70547 11.8708 1.77324 11.8853 1.81269 11.942L1.82269 11.572C1.82713 11.462 1.6738 11.4647 1.57658 11.4975C1.61324 11.3703 1.6888 11.3014 1.86324 11.3186C1.8364 11.3082 1.81349 11.2896 1.79775 11.2655C1.782 11.2414 1.77421 11.2129 1.77547 11.1842C1.77547 11.0803 1.85936 10.9653 1.91491 10.9308L1.94213 12.0125Z" fill="#FFCC4D"/>
<path d="M1.88986 12.0125C1.88986 12.2897 2.13875 12.432 2.33431 12.432C2.59764 12.432 2.73819 12.2747 2.73819 12.0686C2.73954 11.963 2.71351 11.8589 2.66264 11.7664L2.05875 10.512C2.03662 10.4595 2.02692 10.4027 2.03042 10.3458C2.03042 10.2331 2.13986 10.1414 2.25431 10.1386C2.35819 10.1358 2.47208 10.2358 2.47208 10.3492C2.47208 10.487 2.40097 10.5486 2.32708 10.5486C2.23653 10.5486 2.20042 10.5114 2.20042 10.4475C2.20042 10.4036 2.22208 10.3847 2.25264 10.3847C2.33042 10.3847 2.30875 10.4892 2.30875 10.4892C2.31903 10.487 2.32871 10.4826 2.33712 10.4763C2.34553 10.47 2.35246 10.462 2.35744 10.4527C2.36241 10.4434 2.3653 10.4332 2.36591 10.4227C2.36652 10.4122 2.36484 10.4017 2.36097 10.392C2.39028 10.386 2.41672 10.3704 2.43597 10.3475C2.41583 10.3264 2.38962 10.312 2.36097 10.3064C2.37931 10.2458 2.35486 10.217 2.30264 10.2042C2.31319 10.2275 2.31319 10.2486 2.30986 10.2686C2.22708 10.2453 2.10042 10.2825 2.10042 10.4253C2.10042 10.567 2.19875 10.6858 2.38375 10.657C2.33931 10.6786 2.31764 10.7208 2.31319 10.7692C2.34653 10.7564 2.38375 10.7542 2.38375 10.7542C2.36208 10.792 2.33208 10.8253 2.33319 10.8997C2.36764 10.8842 2.39931 10.8553 2.44319 10.8736C2.37431 11.0086 2.45875 11.1958 2.67431 11.2392C2.60122 11.1596 2.55956 11.0561 2.55708 10.9481C2.55708 10.6275 2.64708 10.5725 2.64708 10.3492C2.64568 10.2971 2.63196 10.2461 2.60705 10.2003C2.58214 10.1545 2.54674 10.1153 2.50375 10.0858V10.0892C2.52993 10.0839 2.55469 10.0732 2.57643 10.0577C2.59816 10.0422 2.61637 10.0222 2.62986 9.99918C2.48597 9.95862 2.27653 9.95918 2.16486 10.0036C2.11428 10.0111 2.06598 10.0296 2.02342 10.058C1.98087 10.0863 1.94512 10.1237 1.91875 10.1675C1.89159 10.2299 1.87757 10.2972 1.87757 10.3653C1.87757 10.4333 1.89159 10.5007 1.91875 10.5631C2.00431 10.742 2.40764 11.597 2.53319 11.8664C2.55986 11.9231 2.57597 11.9831 2.57597 12.0492C2.57597 12.2136 2.42542 12.2708 2.33986 12.2708C2.23708 12.2708 2.13264 12.1925 2.13264 12.0953C2.13264 12.0347 2.16653 11.997 2.21431 11.997C2.33042 11.997 2.32319 12.0953 2.29986 12.157C2.37153 12.1247 2.41375 12.0664 2.40208 12.0058C2.44749 11.9997 2.48883 11.9765 2.51764 11.9408C2.50447 11.9221 2.48723 11.9067 2.46721 11.8956C2.44719 11.8845 2.42492 11.8782 2.40208 11.877C2.42542 11.7825 2.36208 11.7431 2.29986 11.7208C2.31931 11.7903 2.33208 11.8703 2.21431 11.8703C2.12819 11.8703 2.06042 11.8847 2.02097 11.9414C2.01819 11.867 2.01097 11.5714 2.01097 11.5714C2.00653 11.4614 2.15931 11.4642 2.25653 11.497C2.21931 11.3697 2.14431 11.3008 1.96931 11.3181C1.99615 11.3076 2.01906 11.2891 2.0348 11.265C2.05055 11.2408 2.05834 11.2124 2.05708 11.1836C2.05708 11.0797 1.97264 10.9647 1.91764 10.9303L1.88986 12.0125ZM1.91764 4.15474C1.91764 4.15474 2.04931 4.04418 2.09375 4.09918C2.16542 4.18862 1.87319 4.63251 1.87319 4.78918C1.87319 5.04585 2.04486 5.11529 2.25597 5.15196C2.39819 5.17696 2.62931 5.14196 2.62931 5.14196C2.58486 5.08362 2.55708 5.0664 2.48375 5.06196C2.53427 5.03567 2.57644 4.99578 2.6055 4.94679C2.63456 4.89781 2.64934 4.84168 2.64819 4.78474C2.64819 4.56362 2.55708 4.47251 2.55708 4.22362C2.55708 4.08529 2.67042 3.90918 2.67042 3.90918C2.47042 3.92974 2.37042 4.11474 2.42708 4.26307C2.41186 4.26588 2.39618 4.26498 2.38138 4.26043C2.36658 4.25589 2.3531 4.24783 2.34208 4.23696C2.32764 4.27807 2.35097 4.32585 2.38153 4.36696C2.35653 4.38029 2.33819 4.37196 2.29875 4.36362C2.30264 4.4064 2.32764 4.45085 2.38986 4.49307C2.20931 4.4464 2.09875 4.57196 2.09875 4.70362C2.09875 4.80307 2.16819 4.87362 2.23653 4.87362C2.25875 4.87362 2.29097 4.86474 2.30931 4.85085C2.32208 4.87807 2.31542 4.91474 2.30208 4.94196C2.35208 4.92918 2.38319 4.89918 2.36097 4.83751C2.39504 4.83612 2.42718 4.82135 2.45042 4.7964C2.43967 4.78303 2.42592 4.77239 2.41028 4.76534C2.39464 4.75829 2.37755 4.75504 2.36042 4.75585C2.38819 4.69807 2.35708 4.66585 2.31208 4.64029C2.31208 4.64029 2.34097 4.75585 2.26708 4.75585C2.23375 4.75585 2.20375 4.74474 2.20375 4.6964C2.20375 4.65418 2.24097 4.59529 2.32653 4.59918C2.41208 4.60251 2.48153 4.65807 2.48153 4.79529C2.48153 4.9214 2.37986 4.98362 2.24597 4.98807C2.12542 4.9914 2.03431 4.92585 2.03431 4.8014C2.03431 4.63529 2.27431 4.25751 2.27431 4.10918C2.27431 3.99807 2.17486 3.93585 2.07708 3.93585C1.95042 3.93585 1.84375 4.0614 1.84375 4.0614L1.91764 4.15474Z" fill="#FFCC4D"/>
<path d="M1.9174 4.15474C1.9174 4.15474 1.78573 4.04418 1.74128 4.09918C1.66906 4.18918 1.96184 4.63307 1.96184 4.78973C1.96184 5.0464 1.79017 5.11585 1.57906 5.15251C1.43684 5.17696 1.20628 5.14196 1.20628 5.14196C1.24962 5.08362 1.27795 5.0664 1.35128 5.06196C1.30062 5.03579 1.2583 4.99595 1.22913 4.94695C1.19997 4.89795 1.18512 4.84175 1.18628 4.78474C1.18628 4.56362 1.2774 4.47251 1.2774 4.22362C1.2774 4.08529 1.16406 3.90918 1.16406 3.90918C1.36406 3.92974 1.46406 4.11474 1.4074 4.26307C1.42271 4.26579 1.43844 4.26484 1.45331 4.2603C1.46819 4.25577 1.48177 4.24776 1.49295 4.23696C1.5074 4.27807 1.48462 4.32585 1.45351 4.36696C1.47795 4.38029 1.49628 4.37196 1.53628 4.36362C1.5324 4.4064 1.50684 4.45085 1.44517 4.49307C1.62517 4.4464 1.73573 4.57196 1.73573 4.70362C1.73573 4.80307 1.66628 4.87362 1.59795 4.87362C1.57203 4.87306 1.54679 4.86516 1.52517 4.85085C1.51295 4.87862 1.51962 4.91474 1.5324 4.94196C1.48295 4.92918 1.45184 4.89918 1.47406 4.83807C1.45718 4.83747 1.44058 4.83353 1.42522 4.82647C1.40987 4.81942 1.39607 4.80938 1.38462 4.79696C1.39519 4.78349 1.40882 4.77274 1.42437 4.76559C1.43993 4.75844 1.45696 4.7551 1.47406 4.75585C1.44628 4.69807 1.4774 4.66585 1.5224 4.64029C1.5224 4.64029 1.49351 4.75585 1.5674 4.75585C1.60073 4.75585 1.63073 4.74474 1.63073 4.6964C1.63073 4.65418 1.59351 4.59529 1.50795 4.59918C1.42184 4.60251 1.3524 4.65807 1.3524 4.79473C1.3524 4.92085 1.45406 4.98307 1.58795 4.98751C1.70906 4.99085 1.80017 4.92585 1.80017 4.80085C1.80017 4.63474 1.56017 4.25696 1.56017 4.10862C1.56017 3.99751 1.65962 3.93529 1.7574 3.93529C1.88406 3.93529 1.99073 4.06085 1.99073 4.06085L1.9174 4.15474ZM1.88962 7.15473C1.88962 7.43196 2.13851 7.57474 2.33406 7.57474C2.5974 7.57474 2.73795 7.41696 2.73795 7.21029C2.73795 7.09362 2.71628 7.02029 2.6624 6.90807L2.05851 5.65362C2.03676 5.60127 2.02726 5.54465 2.03073 5.48807C2.03073 5.37585 2.14017 5.28362 2.25462 5.28085C2.35851 5.27862 2.4724 5.37807 2.4724 5.49196C2.4724 5.63029 2.40128 5.6914 2.3274 5.6914C2.23684 5.6914 2.20073 5.65418 2.20073 5.59029C2.20073 5.54585 2.2224 5.52696 2.25295 5.52696C2.33073 5.52696 2.30906 5.6314 2.30906 5.6314C2.31934 5.62923 2.32903 5.62484 2.33743 5.61854C2.34584 5.61223 2.35278 5.60417 2.35775 5.59492C2.36272 5.58566 2.36561 5.57543 2.36622 5.56494C2.36684 5.55445 2.36515 5.54395 2.36128 5.53418C2.39033 5.52799 2.4165 5.51236 2.43573 5.48974C2.4153 5.46868 2.38895 5.45434 2.36017 5.44862C2.37851 5.38862 2.35406 5.35974 2.30184 5.34696C2.3124 5.37029 2.3124 5.3914 2.30906 5.4114C2.22628 5.38807 2.09962 5.42529 2.09962 5.56807C2.09962 5.70973 2.19795 5.82918 2.38295 5.79973C2.33851 5.82085 2.31684 5.86362 2.3124 5.9114C2.33512 5.90331 2.35887 5.89845 2.38295 5.89696C2.36128 5.93473 2.33128 5.96751 2.3324 6.04251C2.36684 6.02696 2.39851 5.99807 2.4424 6.0164C2.37351 6.15196 2.45795 6.33807 2.67351 6.38251C2.60051 6.30262 2.55888 6.19903 2.55628 6.09085C2.55628 5.76973 2.64628 5.71529 2.64628 5.49196C2.64475 5.43989 2.63097 5.38892 2.60607 5.34317C2.58117 5.29742 2.54584 5.25818 2.50295 5.22862V5.23251C2.52908 5.22692 2.55376 5.21599 2.57547 5.20041C2.59717 5.18483 2.61541 5.16493 2.62906 5.14196C2.48462 5.10196 2.27517 5.10251 2.16295 5.14696C2.11237 5.15418 2.06406 5.17265 2.02156 5.20101C1.97906 5.22937 1.94347 5.26691 1.9174 5.31085C1.8902 5.37324 1.87617 5.44056 1.87617 5.50862C1.87617 5.57668 1.8902 5.64401 1.9174 5.7064C2.00295 5.88529 2.40628 6.74029 2.53184 7.00918C2.55916 7.06629 2.57376 7.12865 2.57462 7.19196C2.57462 7.35696 2.42406 7.41418 2.33851 7.41418C2.23573 7.41418 2.13128 7.33585 2.13128 7.23862C2.13128 7.17696 2.16517 7.13918 2.21295 7.13918C2.32906 7.13918 2.32184 7.23751 2.29851 7.29974C2.37017 7.26751 2.4124 7.20973 2.40073 7.14862C2.44611 7.14204 2.48735 7.11864 2.51628 7.08307C2.48795 7.04751 2.45351 7.02029 2.40073 7.01973C2.42406 6.92529 2.36073 6.88473 2.29851 6.86251C2.31795 6.93196 2.33073 7.01251 2.21295 7.01251C2.12684 7.01251 2.05906 7.02696 2.01962 7.08307C2.01684 7.00862 2.00962 6.71307 2.00962 6.71307C2.00517 6.60251 2.15795 6.60585 2.25517 6.63862C2.21906 6.51196 2.14406 6.44307 1.96906 6.46029C1.99591 6.44987 2.01882 6.43129 2.03456 6.40718C2.0503 6.38306 2.0581 6.35462 2.05684 6.32585C2.05684 6.22196 1.9724 6.1064 1.9174 6.07251L1.88962 7.15473Z" fill="#FFCC4D"/>
</svg>
