<svg width="32" height="32" viewBox="0 0 32 32" fill="none" xmlns="http://www.w3.org/2000/svg">
<path d="M16 31.9067L15.1067 31.1067C14.6667 30.6667 4 21.0133 4 12C4 8.8174 5.26428 5.76515 7.51472 3.51472C9.76515 1.26428 12.8174 0 16 0C19.1826 0 22.2348 1.26428 24.4853 3.51472C26.7357 5.76515 28 8.8174 28 12C28 21.0267 17.3333 30.6667 16.9067 31.12L16 31.9067Z" fill="#D9D9DE"/>
<path d="M16 16C18.2091 16 20 14.2091 20 12C20 9.79086 18.2091 8 16 8C13.7909 8 12 9.79086 12 12C12 14.2091 13.7909 16 16 16Z" fill="#F5F5F5"/>
</svg>
