<svg width="36" height="36" viewBox="0 0 36 36" fill="none" xmlns="http://www.w3.org/2000/svg">
<path d="M31.1893 20.0602L27.6195 18.0001L36 13.1636L26.3808 7.61246L22.8096 9.67351V0L13.1907 5.55156V9.67336L4.80869 4.83653L4.80899 15.9386L8.38111 18.0001L0 22.8369L9.61919 28.3878L13.1907 26.3268V36L22.8096 30.4488V26.3268L31.1898 31.1629L31.1893 20.0602ZM26.3808 9.04266L33.5217 13.1636L26.3805 17.2849L22.8102 15.2249L22.8099 11.1033L26.3808 9.04266ZM14.4297 6.26644L21.5706 2.14492V14.5093L17.3795 12.091V17.6426L14.4297 19.3452V6.26644ZM6.04768 6.98145L13.1893 11.103L13.1901 15.2232L9.61889 17.2843L6.04798 15.2239L6.04768 6.98145ZM2.47799 22.8369L13.1904 16.6545L13.1907 21.4916L18.0003 18.716L20.9501 20.4176L9.61919 26.9576L2.47799 22.8369ZM21.5706 29.7334L14.4297 33.8545V25.6119L17.9995 23.5516L21.5706 25.6119V29.7334ZM29.9508 29.018L19.239 22.8363L23.4293 20.418L23.4284 20.4174L23.429 20.417L18.6191 17.6415L18.6185 14.2359L29.9505 20.7757L29.9508 29.018Z" fill="#00BDBD"/>
</svg>
