<svg width="135" height="28" viewBox="0 0 135 28" fill="none" xmlns="http://www.w3.org/2000/svg">
  <path d="M24.2584 15.6024L21.4818 14.0001L28 10.2383L20.5184 5.9208L17.7408 7.52384V0L10.2594 4.31788V7.52372L3.74009 3.76175L3.74033 12.3967L6.51864 14.0001L0 17.762L7.48159 22.0794L10.2594 20.4764V28L17.7408 23.6824V20.4764L24.2587 24.2378L24.2584 15.6024ZM20.5184 7.03318L26.0724 10.2383L20.5182 13.4438L17.7413 11.8416L17.741 8.63587L20.5184 7.03318ZM11.2231 4.87389L16.7771 1.66827V11.285L13.5174 9.40412V13.722L11.2231 15.0463V4.87389ZM4.70375 5.43002L10.2584 8.63563L10.259 11.8403L7.48136 13.4433L4.70399 11.8408L4.70375 5.43002ZM1.92733 17.762L10.2592 12.9535L10.2594 16.7157L14.0002 14.5569L16.2945 15.8803L7.48159 20.9671L1.92733 17.762ZM16.7771 23.126L11.2231 26.3313V19.9204L13.9996 18.3179L16.7771 19.9204V23.126ZM23.2951 22.5695L14.9637 17.7616L18.2228 15.8807L18.2221 15.8802L18.2226 15.8799L14.4815 13.7212L14.4811 11.0724L23.2948 16.1589L23.2951 22.5695Z" fill="black" />
  <path d="M42.1018 9.10938H36.4482L35.0438 17.5823H34V19.0069H43.2296V17.5823H42.1018V9.10938ZM40.5882 17.5823H36.6297L37.6476 10.534H40.5882V17.5823Z" fill="black" />
  <path d="M47.9863 9.10895H46.4727V19.2094L53.3922 12.4354V19.0064H54.9058V8.93555L47.9863 15.7096V9.10895Z" fill="black" />
  <path d="M103.635 9.10895H102.121V19.2094L109.041 12.4354V19.0064H110.554V8.93555L103.635 15.7096V9.10895Z" fill="black" />
  <path d="M129.274 14.1739L124.426 8.9375V19.0085H125.938V12.6839L129.271 16.2508L132.606 12.6839V19.0085H134.119V8.9375L129.274 14.1739Z" fill="black" />
  <path d="M69.1641 10.534H72.1604V19.0069H73.674V10.534H76.6704V9.10938H69.1641V10.534Z" fill="black" />
  <path d="M83.8921 8.93164C81.0564 8.93164 78.7578 11.2304 78.7578 14.0659C78.7578 16.9014 81.0564 19.2001 83.8921 19.2001C86.7277 19.2001 89.0263 16.9014 89.0263 14.0659C89.0263 11.2304 86.7277 8.93164 83.8921 8.93164ZM83.8921 17.8052C81.8269 17.8052 80.1528 16.131 80.1528 14.0659C80.1528 12.0007 81.8269 10.3266 83.8921 10.3266C85.9572 10.3266 87.6313 12.0007 87.6313 14.0659C87.6313 16.131 85.9572 17.8052 83.8921 17.8052Z" fill="black" />
  <path d="M63.5404 17.8052C61.4753 17.8052 59.8011 16.131 59.8011 14.0659C59.8011 12.0007 61.4753 10.3266 63.5404 10.3266C64.4994 10.3266 65.3712 10.6907 66.033 11.2842L66.9629 10.2465C66.0541 9.43156 64.857 8.93164 63.5404 8.93164C60.7049 8.93164 58.4062 11.2304 58.4062 14.0659C58.4062 16.9014 60.7049 19.2001 63.5404 19.2001C64.857 19.2001 66.0541 18.7003 66.9629 17.8852L66.033 16.8476C65.3712 17.441 64.4994 17.8052 63.5404 17.8052Z" fill="black" />
  <path d="M117.812 14.3391L115.305 9.10938H113.465L117.044 16.013L115.706 19.0085H117.279L121.745 9.10938H120.171L117.812 14.3391Z" fill="black" />
  <path d="M95.9184 9.10938H94.0642H92.5508V19.0069H94.0642V15.5847H95.9184C97.7065 15.5847 99.1559 14.1352 99.1559 12.347C99.1559 10.5589 97.7065 9.10938 95.9184 9.10938ZM95.9184 14.19H94.0642V10.5043H95.9184C96.9031 10.5043 97.7015 11.3293 97.7015 12.347C97.7015 13.3648 96.9031 14.19 95.9184 14.19Z" fill="black" />
</svg>
