<svg width="33" height="22" viewBox="0 0 33 22" fill="none" xmlns="http://www.w3.org/2000/svg">
<path d="M26.16 0.5H0V21.5H26.16L32.16 11L26.16 0.5ZM22.5 13.025C22.0995 13.025 21.708 12.9062 21.375 12.6837C21.042 12.4612 20.7824 12.145 20.6291 11.7749C20.4759 11.4049 20.4358 10.9978 20.5139 10.6049C20.592 10.2121 20.7849 9.85131 21.0681 9.56811C21.3513 9.28491 21.7121 9.09204 22.1049 9.01391C22.4978 8.93577 22.9049 8.97588 23.2749 9.12914C23.645 9.28241 23.9612 9.54196 24.1837 9.87497C24.4062 10.208 24.525 10.5995 24.525 11C24.527 11.2665 24.476 11.5307 24.3749 11.7773C24.2739 12.0239 24.1248 12.2479 23.9363 12.4363C23.7479 12.6248 23.5239 12.7739 23.2773 12.8749C23.0307 12.976 22.7665 13.027 22.5 13.025Z" fill="#2363D1"/>
</svg>
