<svg width="23" height="19" viewBox="0 0 23 19" fill="none" xmlns="http://www.w3.org/2000/svg">
  <path d="M6 6H17" stroke="#00BDBD" stroke-width="2" />
  <path d="M6 10H13" stroke="#00BDBD" stroke-width="2" />
  <path fill-rule="evenodd" clip-rule="evenodd" d="M3.07282 1H19.9273C21.0674 1 22 1.80836 22 2.79551V12.6432C22 13.6305 21.0669 14.4388 19.9273 14.4388H14.1676C12.7892 14.4388 13.0696 14.3711 11.9499 15.0694L7.49029 17.8502C6.9094 18.2123 6.16743 17.88 6.16743 17.2599C6.16743 16.51 6.16743 15.7602 6.16743 15.0103C6.16743 14.5256 5.83281 14.4388 5.41781 14.4388H3.07282C1.93309 14.4388 1 13.6309 1 12.6432V2.79551C1 1.80796 1.93275 1 3.07282 1Z" stroke="#00BDBD" stroke-width="2" stroke-miterlimit="22.9256" />
</svg>
