<svg width="205" height="50" viewBox="0 0 205 50" fill="none" xmlns="http://www.w3.org/2000/svg">
<path d="M1.60156 3.50781H2.54156V9.00781L6.26156 3.50781H7.20156V10.5078H6.26156V5.00781L2.54156 10.5078H1.60156V3.50781ZM9.19922 3.50781H10.1392V6.49781H11.4692C11.4959 5.95115 11.5859 5.48448 11.7392 5.09781C11.8992 4.70448 12.1026 4.38448 12.3492 4.13781C12.5959 3.88448 12.8826 3.70115 13.2092 3.58781C13.5359 3.46781 13.8826 3.40781 14.2492 3.40781C14.6359 3.40781 15.0026 3.47448 15.3492 3.60781C15.6959 3.73448 15.9992 3.93781 16.2592 4.21781C16.5192 4.49115 16.7226 4.84781 16.8692 5.28781C17.0226 5.72115 17.0992 6.24448 17.0992 6.85781V7.05781C17.0992 7.69781 17.0226 8.24115 16.8692 8.68781C16.7226 9.13448 16.5192 9.50115 16.2592 9.78781C15.9992 10.0745 15.6959 10.2845 15.3492 10.4178C15.0026 10.5445 14.6359 10.6078 14.2492 10.6078C13.8759 10.6078 13.5226 10.5478 13.1892 10.4278C12.8626 10.3078 12.5726 10.1145 12.3192 9.84781C12.0726 9.58115 11.8726 9.24115 11.7192 8.82781C11.5659 8.41448 11.4792 7.91115 11.4592 7.31781H10.1392V10.5078H9.19922V3.50781ZM14.2492 9.76781C14.4959 9.76781 14.7326 9.71781 14.9592 9.61781C15.1859 9.51781 15.3826 9.36115 15.5492 9.14781C15.7159 8.92781 15.8492 8.64781 15.9492 8.30781C16.0492 7.96115 16.0992 7.54448 16.0992 7.05781V6.85781C16.0992 6.39781 16.0492 6.00448 15.9492 5.67781C15.8492 5.34448 15.7159 5.07448 15.5492 4.86781C15.3826 4.65448 15.1859 4.49781 14.9592 4.39781C14.7326 4.29781 14.4959 4.24781 14.2492 4.24781C13.9959 4.24781 13.7559 4.29781 13.5292 4.39781C13.3092 4.49781 13.1159 4.65448 12.9492 4.86781C12.7826 5.07448 12.6492 5.34448 12.5492 5.67781C12.4492 6.00448 12.3992 6.39781 12.3992 6.85781V7.05781C12.3992 7.54448 12.4492 7.96115 12.5492 8.30781C12.6492 8.64781 12.7826 8.92781 12.9492 9.14781C13.1159 9.36115 13.3092 9.51781 13.5292 9.61781C13.7559 9.71781 13.9959 9.76781 14.2492 9.76781ZM18.2512 10.6078C18.1512 10.6078 18.0512 10.5978 17.9512 10.5778V9.65781C17.9845 9.66448 18.0345 9.66781 18.1012 9.66781C18.2345 9.66781 18.3512 9.64781 18.4512 9.60781C18.5578 9.56115 18.6478 9.48115 18.7212 9.36781C18.8012 9.24781 18.8678 9.08115 18.9212 8.86781C18.9812 8.65448 19.0278 8.38115 19.0612 8.04781C19.0945 7.70781 19.1178 7.29781 19.1312 6.81781C19.1445 6.33781 19.1512 5.76781 19.1512 5.10781V3.50781H23.8512V10.5078H22.9112V4.32781H20.0912V5.30781C20.0912 6.04781 20.0745 6.69448 20.0412 7.24781C20.0078 7.79448 19.9578 8.26448 19.8912 8.65781C19.8245 9.05115 19.7412 9.37448 19.6412 9.62781C19.5412 9.88115 19.4212 10.0811 19.2812 10.2278C19.1478 10.3678 18.9945 10.4645 18.8212 10.5178C18.6478 10.5778 18.4578 10.6078 18.2512 10.6078ZM25.8496 3.50781H26.7896V6.30781H28.2496C28.7096 6.30781 29.1096 6.35781 29.4496 6.45781C29.7896 6.55781 30.0696 6.70115 30.2896 6.88781C30.5163 7.07448 30.6829 7.29781 30.7896 7.55781C30.8963 7.81115 30.9496 8.09448 30.9496 8.40781C30.9496 8.72115 30.8963 9.00781 30.7896 9.26781C30.6829 9.52115 30.5163 9.74115 30.2896 9.92781C30.0696 10.1145 29.7896 10.2578 29.4496 10.3578C29.1096 10.4578 28.7096 10.5078 28.2496 10.5078H25.8496V3.50781ZM28.1996 9.68781C28.8663 9.68781 29.3329 9.57781 29.5996 9.35781C29.8729 9.13115 30.0096 8.81448 30.0096 8.40781C30.0096 8.00115 29.8729 7.68781 29.5996 7.46781C29.3329 7.24115 28.8663 7.12781 28.1996 7.12781H26.7896V9.68781H28.1996ZM32.9023 10.6078C32.709 10.6078 32.5423 10.5411 32.4023 10.4078C32.269 10.2678 32.2023 10.1011 32.2023 9.90781C32.2023 9.70781 32.269 9.54115 32.4023 9.40781C32.5423 9.27448 32.709 9.20781 32.9023 9.20781C33.0957 9.20781 33.259 9.27448 33.3923 9.40781C33.5323 9.54115 33.6023 9.70781 33.6023 9.90781C33.6023 10.1011 33.5323 10.2678 33.3923 10.4078C33.259 10.5411 33.0957 10.6078 32.9023 10.6078Z" fill="#BDBDBD"/>
<path d="M99.0131 8.76781H96.0531L95.3831 10.5078H94.4031L97.0831 3.50781H98.0231L100.703 10.5078H99.6831L99.0131 8.76781ZM96.3631 7.94781H98.7031L97.5331 4.70781L96.3631 7.94781ZM101.902 3.50781H104.402C104.822 3.50781 105.182 3.55448 105.482 3.64781C105.782 3.74115 106.029 3.87115 106.222 4.03781C106.422 4.19781 106.569 4.39448 106.662 4.62781C106.756 4.85448 106.802 5.10448 106.802 5.37781C106.802 5.73781 106.702 6.04781 106.502 6.30781C106.302 6.56115 106.056 6.74448 105.762 6.85781C106.176 6.95115 106.502 7.14115 106.742 7.42781C106.982 7.70781 107.102 8.07448 107.102 8.52781C107.102 8.81448 107.056 9.07781 106.962 9.31781C106.869 9.55781 106.722 9.76781 106.522 9.94781C106.322 10.1211 106.062 10.2578 105.742 10.3578C105.429 10.4578 105.049 10.5078 104.602 10.5078H101.902V3.50781ZM104.602 9.68781C104.902 9.68781 105.152 9.66115 105.352 9.60781C105.552 9.54781 105.712 9.46781 105.832 9.36781C105.952 9.26115 106.036 9.13448 106.082 8.98781C106.136 8.84115 106.162 8.67781 106.162 8.49781C106.162 8.31781 106.136 8.15448 106.082 8.00781C106.036 7.85448 105.952 7.72781 105.832 7.62781C105.712 7.52115 105.549 7.44115 105.342 7.38781C105.142 7.32781 104.892 7.29781 104.592 7.29781H102.842V9.68781H104.602ZM104.402 6.51781C104.682 6.51781 104.916 6.49115 105.102 6.43781C105.289 6.38448 105.439 6.30781 105.552 6.20781C105.666 6.10781 105.746 5.99115 105.792 5.85781C105.839 5.72448 105.862 5.57781 105.862 5.41781C105.862 5.25781 105.839 5.11115 105.792 4.97781C105.746 4.83781 105.666 4.72115 105.552 4.62781C105.439 4.53448 105.289 4.46115 105.102 4.40781C104.916 4.35448 104.682 4.32781 104.402 4.32781H102.842V6.51781H104.402ZM108.602 3.50781H113.002V4.32781H109.542V10.5078H108.602V3.50781ZM113.301 10.6078C113.107 10.6078 112.941 10.5411 112.801 10.4078C112.667 10.2678 112.601 10.1011 112.601 9.90781C112.601 9.70781 112.667 9.54115 112.801 9.40781C112.941 9.27448 113.107 9.20781 113.301 9.20781C113.494 9.20781 113.657 9.27448 113.791 9.40781C113.931 9.54115 114.001 9.70781 114.001 9.90781C114.001 10.1011 113.931 10.2678 113.791 10.4078C113.657 10.5411 113.494 10.6078 113.301 10.6078Z" fill="#BDBDBD"/>
<path d="M184.152 10.6078C183.758 10.6078 183.385 10.5411 183.032 10.4078C182.678 10.2678 182.365 10.0545 182.092 9.76781C181.818 9.47448 181.602 9.10448 181.442 8.65781C181.282 8.21115 181.202 7.67781 181.202 7.05781V6.85781C181.202 6.25781 181.282 5.74115 181.442 5.30781C181.602 4.87448 181.818 4.51781 182.092 4.23781C182.365 3.95781 182.678 3.75115 183.032 3.61781C183.385 3.47781 183.758 3.40781 184.152 3.40781C184.532 3.40781 184.878 3.45781 185.192 3.55781C185.512 3.65781 185.792 3.80115 186.032 3.98781C186.272 4.17448 186.465 4.40448 186.612 4.67781C186.765 4.95115 186.862 5.26115 186.902 5.60781H185.902C185.808 5.15448 185.612 4.81448 185.312 4.58781C185.012 4.36115 184.625 4.24781 184.152 4.24781C183.905 4.24781 183.665 4.29448 183.432 4.38781C183.198 4.48115 182.988 4.63115 182.802 4.83781C182.622 5.03781 182.475 5.30448 182.362 5.63781C182.255 5.97115 182.202 6.37781 182.202 6.85781V7.05781C182.202 7.56448 182.262 7.99115 182.382 8.33781C182.502 8.67781 182.655 8.95448 182.842 9.16781C183.028 9.38115 183.238 9.53448 183.472 9.62781C183.705 9.72115 183.932 9.76781 184.152 9.76781C184.672 9.76781 185.078 9.64115 185.372 9.38781C185.665 9.13448 185.842 8.80781 185.902 8.40781H186.902C186.848 8.79448 186.742 9.12781 186.582 9.40781C186.422 9.68115 186.218 9.90781 185.972 10.0878C185.732 10.2678 185.455 10.4011 185.142 10.4878C184.835 10.5678 184.505 10.6078 184.152 10.6078ZM188.398 3.50781H192.898V4.32781H189.338V6.49781H192.598V7.31781H189.338V9.68781H192.898V10.5078H188.398V3.50781ZM194.502 3.50781H195.442V6.49781H199.162V3.50781H200.102V10.5078H199.162V7.31781H195.442V10.5078H194.502V3.50781ZM202.6 10.6078C202.406 10.6078 202.24 10.5411 202.1 10.4078C201.966 10.2678 201.9 10.1011 201.9 9.90781C201.9 9.70781 201.966 9.54115 202.1 9.40781C202.24 9.27448 202.406 9.20781 202.6 9.20781C202.793 9.20781 202.956 9.27448 203.09 9.40781C203.23 9.54115 203.3 9.70781 203.3 9.90781C203.3 10.1011 203.23 10.2678 203.09 10.4078C202.956 10.5411 202.793 10.6078 202.6 10.6078Z" fill="#BDBDBD"/>
<line opacity="0.5" x1="16.5" y1="48" x2="16.5" y2="20" stroke="#7C8994"/>
<line opacity="0.5" x1="103.5" y1="48" x2="103.5" y2="20" stroke="#7C8994"/>
<line opacity="0.5" x1="191.5" y1="48" x2="191.5" y2="20" stroke="#7C8994"/>
<path d="M15.8008 28.5966C15.8008 28.5966 41.6232 23.3125 57.9321 23.3125C74.2409 23.3125 103.461 31.8484 103.461 31.8484C103.461 31.8484 137.438 40.3842 149.67 42.823C161.901 45.2618 191.801 48.92 191.801 48.92" stroke="#2363D1" stroke-width="2"/>
</svg>
