<svg width="30" height="25" viewBox="0 0 30 25" fill="none" xmlns="http://www.w3.org/2000/svg">
<g clip-path="url(#clip0_762_45661)">
<g clip-path="url(#clip1_762_45661)">
<path fill-rule="evenodd" clip-rule="evenodd" d="M8.05049 7.69995H1.125V10.0529H7.88622C7.87877 9.89451 7.875 9.73517 7.875 9.57495C7.875 8.93408 7.93529 8.3073 8.05049 7.69995ZM11.3032 17.1125C10.5284 16.4364 9.85884 15.6428 9.32225 14.7595H1.125V17.1125H11.3032ZM1.125 21.8191H21.125V24.172H1.125V21.8191Z" fill="#CCCCCC"/>
<path d="M29.0573 24.0053L24.3604 16.2641C25.8808 15.0754 26.9561 13.4089 27.4126 11.5337C27.8225 9.86483 27.7284 8.11185 27.1421 6.49645C26.5558 4.88106 25.5037 3.4758 24.1187 2.45838C22.7338 1.44096 21.0782 0.857071 19.3614 0.780558C17.6446 0.704045 15.9437 1.13834 14.4737 2.02852C13.0037 2.91871 11.8307 4.2248 11.103 5.78164C10.3754 7.33847 10.1257 9.07613 10.3856 10.7749C10.6455 12.4736 11.4032 14.0571 12.5631 15.3252C13.723 16.5933 15.2328 17.4889 16.9017 17.8989C18.7749 18.3633 20.75 18.1826 22.5079 17.386L27.1916 25.1352L29.0573 24.0053ZM17.4199 15.7894C16.1682 15.4819 15.0359 14.8102 14.166 13.8591C13.2961 12.9081 12.7277 11.7204 12.5328 10.4464C12.3379 9.17231 12.5252 7.86907 13.0709 6.70144C13.6167 5.53381 14.4964 4.55424 15.5989 3.88661C16.7014 3.21897 17.9771 2.89325 19.2647 2.95063C20.5523 3.00802 21.794 3.44593 22.8327 4.20899C23.8714 4.97206 24.6605 6.026 25.1002 7.23755C25.54 8.4491 25.6105 9.76383 25.3031 11.0155C24.8907 12.6939 23.8286 14.1398 22.3502 15.0351C20.8718 15.9304 19.0983 16.2017 17.4199 15.7894Z" fill="#CCCCCC"/>
<path fill-rule="evenodd" clip-rule="evenodd" d="M23.3136 15.7038C23.1832 15.7945 23.0495 15.8813 22.9128 15.9641C22.7761 16.0469 22.6372 16.1251 22.4964 16.1987L22.9346 16.0002L23.3136 15.7038ZM25.4111 20.0896L27.5588 23.643L27.5649 23.6394L25.4111 20.0896ZM29.0573 24.0053L27.1916 25.1352L22.5079 17.386C20.75 18.1826 18.7749 18.3633 16.9017 17.8989C15.2328 17.4889 13.723 16.5933 12.5631 15.3252C11.4032 14.0571 10.6455 12.4736 10.3856 10.7749C10.1257 9.07613 10.3754 7.33847 11.103 5.78164C11.8307 4.2248 13.0037 2.91871 14.4737 2.02852C15.9437 1.13834 17.6446 0.704045 19.3614 0.780558C21.0782 0.857071 22.7338 1.44096 24.1187 2.45838C25.5037 3.4758 26.5558 4.88106 27.1421 6.49645C27.7284 8.11185 27.8225 9.86483 27.4126 11.5337C26.9561 13.4089 25.8808 15.0754 24.3604 16.2641L29.0573 24.0053ZM19.6621 17.0325C18.8314 17.1079 17.9862 17.0469 17.1608 16.8441L17.163 16.8447C17.9854 17.0485 18.8302 17.1101 19.6621 17.0325ZM25.3657 13.5785C25.8175 12.8773 26.155 12.1 26.3578 11.2746L26.3573 11.2768C26.1569 12.1001 25.82 12.8772 25.3657 13.5785ZM14.166 13.8591C15.0359 14.8102 16.1682 15.4819 17.4199 15.7894C19.0983 16.2017 20.8718 15.9304 22.3502 15.0351C23.8286 14.1398 24.8907 12.6939 25.3031 11.0155C25.6105 9.76383 25.54 8.4491 25.1002 7.23755C24.6605 6.026 23.8714 4.97206 22.8327 4.20899C21.794 3.44593 20.5523 3.00802 19.2647 2.95063C17.9771 2.89325 16.7014 3.21897 15.5989 3.88661C14.4964 4.55424 13.6167 5.53381 13.0709 6.70144C12.5252 7.86907 12.3379 9.17231 12.5328 10.4464C12.7277 11.7204 13.2961 12.9081 14.166 13.8591Z" fill="#CCCCCC"/>
</g>
</g>
<defs>
<clipPath id="clip0_762_45661">
<rect width="30" height="25" fill="white"/>
</clipPath>
<clipPath id="clip1_762_45661">
<rect width="30" height="25" fill="white"/>
</clipPath>
</defs>
</svg>
