<svg width="14" height="22" viewBox="0 0 14 22" fill="none" xmlns="http://www.w3.org/2000/svg">
<path fill-rule="evenodd" clip-rule="evenodd" d="M11.9006 1.59148L12.5501 2.35188L2.24122 11.1568L12.5328 19.1826L11.9179 19.9711L0.66025 11.192L11.9006 1.59148Z" fill="#2363D1"/>
<path d="M13.946 2.5C13.946 3.88071 12.8267 5 11.446 5C10.0653 5 8.94598 3.88071 8.94598 2.5C8.94598 1.11929 10.0653 0 11.446 0C12.8267 0 13.946 1.11929 13.946 2.5Z" fill="#2363D1"/>
<path d="M5 10.874C5 12.2547 3.88071 13.374 2.5 13.374C1.11929 13.374 0 12.2547 0 10.874C0 9.49331 1.11929 8.37402 2.5 8.37402C3.88071 8.37402 5 9.49331 5 10.874Z" fill="#2363D1"/>
<path d="M13.946 18.876C13.946 20.2567 12.8267 21.376 11.446 21.376C10.0653 21.376 8.94598 20.2567 8.94598 18.876C8.94598 17.4953 10.0653 16.376 11.446 16.376C12.8267 16.376 13.946 17.4953 13.946 18.876Z" fill="#2363D1"/>
</svg>
