<svg width="15" height="15" viewBox="0 0 15 15" fill="none" xmlns="http://www.w3.org/2000/svg">
<path d="M14.5404 11.2134L12.6412 9.68153C12.2053 9.33765 11.5825 9.30639 11.1466 9.65027L9.52757 10.8382C9.34075 10.9945 9.06053 10.9633 8.87372 10.7757L6.44512 8.58737L4.26561 6.14894C4.07879 5.96137 4.0788 5.71128 4.20334 5.49245L5.3865 3.86683C5.729 3.42917 5.69786 2.80393 5.35537 2.36626L3.82971 0.459293C3.36267 -0.103419 2.522 -0.165943 1.99269 0.365508L0.37363 1.99112C0.124543 2.24122 0 2.5851 0 2.92898C0.155679 6.11768 1.58793 9.15008 3.70517 11.2759C5.8224 13.4017 8.84258 14.8397 12.0184 14.996C12.3609 15.0273 12.7034 14.871 12.9525 14.6209L14.5716 12.9953C15.1632 12.5264 15.132 11.651 14.5404 11.2134Z" fill="#000000"/>
</svg>
