<svg width="32" height="30" viewBox="0 0 32 30" fill="none" xmlns="http://www.w3.org/2000/svg">
<rect width="32" height="30" fill="#D5E0ED"/>
<g id="&#208;&#164;&#208;&#184;&#208;&#187;&#209;&#140;&#209;&#130;&#209;&#128; &#209;&#129;&#208;&#190; &#209;&#129;&#208;&#186;&#209;&#128;&#208;&#190;&#208;&#187;&#208;&#190;&#208;&#188;">
<path d="M-1936 -323C-1936 -339.569 -1922.57 -353 -1906 -353H126C142.569 -353 156 -339.569 156 -323V1535C156 1551.57 142.569 1565 126 1565H-1906C-1922.57 1565 -1936 1551.57 -1936 1535V-323Z" fill="#D5E8FF"/>
<g id="27_mob_catalog_menu_filters" clip-path="url(#clip0_2571_49821)">
<rect width="320" height="967" transform="translate(-273 -244)" fill="white"/>
<rect id="Rectangle 207" x="-273" y="-185" width="320" height="1470" fill="#F5F5F5"/>
<g id="Frame 3357">
<g id="Frame 3356">
<g id="Group 533">
<g id="Group 520">
<g id="Frame 3358">
<g id="Frame 3366">
<g id="Frame 3393">
<g id="Group 3355">
<path id="Rectangle 535" d="M0.5 0.5H30C30.8284 0.5 31.5 1.17157 31.5 2V28C31.5 28.8284 30.8284 29.5 30 29.5H0.5V0.5Z" fill="#2363D1" stroke="#2363D1"/>
<path id="Vector" d="M22 20.1569L18.4968 16.6596C19.149 15.8302 19.5025 14.8052 19.5002 13.7501C19.5002 12.8106 19.2217 11.8923 18.6997 11.1111C18.1778 10.3299 17.4359 9.72111 16.5679 9.36158C15.6999 9.00206 14.7449 8.90799 13.8234 9.09127C12.902 9.27456 12.0556 9.72696 11.3913 10.3913C10.727 11.0556 10.2746 11.902 10.0913 12.8234C9.90799 13.7449 10.0021 14.6999 10.3616 15.5679C10.7211 16.4359 11.3299 17.1778 12.1111 17.6997C12.8923 18.2217 13.8106 18.5002 14.7501 18.5002C15.8052 18.5025 16.8302 18.149 17.6596 17.4968L21.1569 21L22 20.1569ZM14.7501 17.3127C14.0455 17.3127 13.3567 17.1038 12.7709 16.7123C12.185 16.3208 11.7284 15.7644 11.4587 15.1135C11.1891 14.4625 11.1185 13.7462 11.256 13.0551C11.3935 12.364 11.7328 11.7292 12.231 11.231C12.7292 10.7328 13.364 10.3935 14.0551 10.256C14.7462 10.1185 15.4625 10.1891 16.1135 10.4587C16.7644 10.7284 17.3208 11.185 17.7123 11.7709C18.1038 12.3567 18.3127 13.0455 18.3127 13.7501C18.3127 14.695 17.9374 15.6011 17.2693 16.2693C16.6011 16.9374 15.695 17.3127 14.7501 17.3127Z" fill="white"/>
</g>
</g>
</g>
</g>
</g>
</g>
</g>
</g>
</g>
</g>
<defs>
<clipPath id="clip0_2571_49821">
<rect width="320" height="967" fill="white" transform="translate(-273 -244)"/>
</clipPath>
</defs>
</svg>
