<svg width="12" height="12" viewBox="0 0 12 12" fill="none" xmlns="http://www.w3.org/2000/svg">
<path d="M12 11.1569L8.49678 7.65958C9.14896 6.83021 9.50249 5.8052 9.50025 4.75013C9.50025 3.81064 9.22166 2.89225 8.69971 2.1111C8.17776 1.32994 7.43589 0.721109 6.56792 0.361584C5.69995 0.00205814 4.74486 -0.0920101 3.82342 0.0912744C2.90199 0.274559 2.0556 0.726964 1.39128 1.39128C0.726964 2.0556 0.274559 2.90199 0.0912744 3.82342C-0.0920101 4.74486 0.00205814 5.69995 0.361584 6.56792C0.721109 7.43589 1.32994 8.17776 2.1111 8.69971C2.89225 9.22166 3.81064 9.50025 4.75013 9.50025C5.8052 9.50249 6.83021 9.14896 7.65958 8.49678L11.1569 12L12 11.1569ZM4.75013 8.31272C4.04551 8.31272 3.35672 8.10378 2.77086 7.71231C2.18499 7.32085 1.72836 6.76445 1.45872 6.11347C1.18907 5.46249 1.11852 4.74617 1.25599 4.0551C1.39345 3.36402 1.73275 2.72923 2.23099 2.23099C2.72923 1.73275 3.36402 1.39345 4.0551 1.25599C4.74617 1.11852 5.46249 1.18907 6.11347 1.45872C6.76445 1.72836 7.32085 2.18499 7.71231 2.77086C8.10378 3.35672 8.31272 4.04551 8.31272 4.75013C8.31272 5.69498 7.93737 6.60114 7.26926 7.26926C6.60114 7.93737 5.69498 8.31272 4.75013 8.31272Z" fill="white"/>
</svg>
