<svg width="134" height="48" viewBox="0 0 134 48" fill="none" xmlns="http://www.w3.org/2000/svg">
<path d="M60.1836 16.7412L61.0361 16.9565C60.8574 17.6567 60.5352 18.1914 60.0693 18.5605C59.6064 18.9268 59.0396 19.1099 58.3687 19.1099C57.6743 19.1099 57.1089 18.9692 56.6724 18.688C56.2388 18.4038 55.9077 17.9937 55.6792 17.4575C55.4536 16.9214 55.3408 16.3457 55.3408 15.7305C55.3408 15.0596 55.4683 14.4751 55.7231 13.9771C55.981 13.4761 56.3457 13.0967 56.8174 12.8389C57.292 12.5781 57.8135 12.4478 58.3818 12.4478C59.0264 12.4478 59.5684 12.6118 60.0078 12.9399C60.4473 13.2681 60.7534 13.7295 60.9263 14.3242L60.0869 14.522C59.9375 14.0532 59.7207 13.7119 59.4365 13.498C59.1523 13.2842 58.7949 13.1772 58.3643 13.1772C57.8691 13.1772 57.4546 13.2959 57.1206 13.5332C56.7896 13.7705 56.5566 14.0898 56.4219 14.4912C56.2871 14.8896 56.2197 15.3013 56.2197 15.7261C56.2197 16.2739 56.2988 16.7529 56.457 17.1631C56.6182 17.5703 56.8672 17.875 57.2041 18.0771C57.541 18.2793 57.9058 18.3804 58.2983 18.3804C58.7759 18.3804 59.1802 18.2427 59.5112 17.9673C59.8423 17.6919 60.0664 17.2832 60.1836 16.7412ZM62.104 12.5576H62.9565V15.3789C63.3462 15.3789 63.6201 15.3042 63.7783 15.1548C63.9365 15.0024 64.1387 14.6392 64.3848 14.0649C64.5635 13.6431 64.71 13.3457 64.8242 13.1729C64.9414 12.9971 65.1069 12.8506 65.3208 12.7334C65.5347 12.6133 65.7705 12.5532 66.0283 12.5532C66.3564 12.5532 66.5293 12.5562 66.5469 12.562V13.3003C66.5176 13.3003 66.4604 13.2988 66.3755 13.2959C66.2817 13.293 66.2246 13.2915 66.2041 13.2915C65.9316 13.2915 65.7295 13.3574 65.5977 13.4893C65.4629 13.6211 65.3091 13.9023 65.1362 14.333C64.9194 14.8779 64.7363 15.2222 64.5869 15.3657C64.4375 15.5063 64.2588 15.6191 64.0508 15.7041C64.4668 15.8184 64.877 16.2021 65.2812 16.8555L66.6084 19H65.5493L64.4727 17.251C64.1768 16.7676 63.9292 16.4365 63.73 16.2578C63.5308 16.0762 63.2729 15.9854 62.9565 15.9854V19H62.104V12.5576ZM66.6304 19L69.1045 12.5576H70.0229L72.6597 19H71.6885L70.937 17.0488H68.2432L67.5356 19H66.6304ZM68.4893 16.3545H70.6733L70.001 14.5703C69.7959 14.0283 69.6436 13.583 69.5439 13.2344C69.4619 13.6475 69.3462 14.0576 69.1968 14.4648L68.4893 16.3545ZM77.2344 19H76.3818V16.4028C75.6172 16.687 74.9478 16.8291 74.3735 16.8291C73.9253 16.8291 73.5298 16.7251 73.187 16.5171C72.8442 16.3062 72.6143 16.0396 72.4971 15.7173C72.3828 15.395 72.3257 14.9731 72.3257 14.4517V12.5576H73.1782V14.3726C73.1782 15.0757 73.3057 15.5386 73.5605 15.7612C73.8184 15.981 74.1274 16.0908 74.4878 16.0908C75.0884 16.0908 75.7197 15.9575 76.3818 15.6909V12.5576H77.2344V19ZM77.9331 19L80.4072 12.5576H81.3257L83.9624 19H82.9912L82.2397 17.0488H79.5459L78.8384 19H77.9331ZM79.792 16.3545H81.9761L81.3037 14.5703C81.0986 14.0283 80.9463 13.583 80.8467 13.2344C80.7646 13.6475 80.6489 14.0576 80.4995 14.4648L79.792 16.3545ZM85.5796 19V13.3179H83.457V12.5576H88.5635V13.3179H86.4321V19H85.5796ZM89.4731 12.5576H90.3257V15.3086H91.8638C92.5815 15.3086 93.1016 15.3921 93.4238 15.5591C93.7461 15.7261 93.9775 15.9531 94.1182 16.2402C94.2588 16.5273 94.3291 16.8232 94.3291 17.1279C94.3291 17.626 94.1592 18.0625 93.8193 18.4375C93.4795 18.8125 92.8467 19 91.9209 19H89.4731V12.5576ZM90.3257 18.2749H91.8857C92.5186 18.2749 92.9302 18.1636 93.1206 17.9409C93.314 17.7153 93.4106 17.4443 93.4106 17.1279C93.4106 16.8701 93.3403 16.6519 93.1997 16.4731C93.062 16.2915 92.8774 16.1743 92.646 16.1216C92.4146 16.0688 92.022 16.0425 91.4683 16.0425H90.3257V18.2749ZM100.183 13.3311V12.5049H100.982V13.3311C101.803 13.375 102.45 13.6226 102.925 14.0737C103.399 14.522 103.637 15.0801 103.637 15.748C103.637 16.4014 103.407 16.9565 102.947 17.4136C102.487 17.8706 101.832 18.1226 100.982 18.1694V19H100.183V18.1694C99.4209 18.1401 98.7866 17.9087 98.2798 17.4751C97.7729 17.0386 97.5195 16.4629 97.5195 15.748C97.5195 15.0303 97.7715 14.4561 98.2754 14.0254C98.7822 13.5947 99.418 13.3633 100.183 13.3311ZM100.982 14.0605V17.4355C101.533 17.4092 101.967 17.2495 102.283 16.9565C102.6 16.6636 102.758 16.2607 102.758 15.748C102.758 15.2441 102.603 14.8457 102.292 14.5527C101.981 14.2568 101.545 14.0928 100.982 14.0605ZM100.183 14.0649C99.6523 14.0884 99.2231 14.2451 98.895 14.5352C98.5669 14.8252 98.4028 15.2295 98.4028 15.748C98.4028 16.2607 98.564 16.6636 98.8862 16.9565C99.2114 17.2495 99.6436 17.4077 100.183 17.4312V14.0649ZM103.791 19L106.265 12.5576H107.183L109.82 19H108.849L108.097 17.0488H105.403L104.696 19H103.791ZM105.649 16.3545H107.833L107.161 14.5703C106.956 14.0283 106.804 13.583 106.704 13.2344C106.622 13.6475 106.506 14.0576 106.357 14.4648L105.649 16.3545ZM110.514 12.5576H111.288V17.6597L114.715 12.5576H115.572V19H114.799V13.9111L111.367 19H110.514V12.5576ZM113.718 11.0239H114.258C114.214 11.3901 114.08 11.6714 113.854 11.8677C113.631 12.064 113.334 12.1621 112.962 12.1621C112.587 12.1621 112.287 12.0654 112.061 11.8721C111.838 11.6758 111.705 11.3931 111.661 11.0239H112.202C112.243 11.2231 112.323 11.3726 112.443 11.4722C112.566 11.5688 112.73 11.6172 112.936 11.6172C113.173 11.6172 113.352 11.5703 113.472 11.4766C113.595 11.3799 113.677 11.229 113.718 11.0239ZM117.44 12.5576H121.474V19H120.622V13.3179H118.292V16.6357C118.292 17.3096 118.26 17.8032 118.196 18.1167C118.134 18.4302 118.002 18.6748 117.8 18.8506C117.598 19.0234 117.342 19.1099 117.031 19.1099C116.844 19.1099 116.618 19.0747 116.354 19.0044L116.5 18.2485C116.64 18.3071 116.76 18.3364 116.86 18.3364C117.053 18.3364 117.198 18.2646 117.295 18.1211C117.392 17.9746 117.44 17.6318 117.44 17.0928V12.5576Z" fill="white" fill-opacity="0.8"/>
<path d="M60.1836 16.7412L60.2067 16.6498L60.112 16.6259L60.0914 16.7213L60.1836 16.7412ZM61.0361 16.9565L61.1275 16.9799L61.1509 16.8883L61.0592 16.8651L61.0361 16.9565ZM60.0693 18.5605L60.1279 18.6345L60.1279 18.6345L60.0693 18.5605ZM56.6724 18.688L56.6207 18.7669L56.6213 18.7673L56.6724 18.688ZM55.6792 17.4575L55.5923 17.4941L55.5924 17.4945L55.6792 17.4575ZM55.7231 13.9771L55.6393 13.9339L55.6392 13.9341L55.7231 13.9771ZM56.8174 12.8389L56.8626 12.9216L56.8628 12.9215L56.8174 12.8389ZM60.9263 14.3242L60.9479 14.416L61.0445 14.3932L61.0168 14.2979L60.9263 14.3242ZM60.0869 14.522L59.9971 14.5506L60.0236 14.6338L60.1085 14.6138L60.0869 14.522ZM57.1206 13.5332L57.066 13.4563L57.0657 13.4566L57.1206 13.5332ZM56.4219 14.4912L56.5112 14.5214L56.5113 14.5212L56.4219 14.4912ZM56.457 17.1631L56.369 17.197L56.3693 17.1978L56.457 17.1631ZM60.1605 16.8327L61.013 17.048L61.0592 16.8651L60.2067 16.6498L60.1605 16.8327ZM60.9448 16.9332C60.77 17.6178 60.4572 18.1329 60.0108 18.4866L60.1279 18.6345C60.6132 18.2499 60.9448 17.6956 61.1275 16.9799L60.9448 16.9332ZM60.0108 18.4866C59.5668 18.8378 59.0214 19.0156 58.3687 19.0156V19.2042C59.0577 19.2042 59.6461 19.0157 60.1279 18.6345L60.0108 18.4866ZM58.3687 19.0156C57.6865 19.0156 57.1404 18.8774 56.7234 18.6087L56.6213 18.7673C57.0774 19.0611 57.6622 19.2042 58.3687 19.2042V19.0156ZM56.7241 18.6091C56.3079 18.3364 55.9881 17.9418 55.766 17.4205L55.5924 17.4945C55.8273 18.0456 56.1696 18.4712 56.6207 18.7669L56.7241 18.6091ZM55.7661 17.4209C55.5457 16.897 55.4351 16.3339 55.4351 15.7305H55.2465C55.2465 16.3575 55.3615 16.9457 55.5923 17.4941L55.7661 17.4209ZM55.4351 15.7305C55.4351 15.0716 55.5603 14.5024 55.8071 14.02L55.6392 13.9341C55.3763 14.4478 55.2465 15.0476 55.2465 15.7305H55.4351ZM55.807 14.0202C56.0566 13.5351 56.4083 13.1699 56.8626 12.9216L56.7721 12.7561C56.2831 13.0234 55.9053 13.417 55.6393 13.9339L55.807 14.0202ZM56.8628 12.9215C57.3228 12.6688 57.8285 12.5421 58.3818 12.5421V12.3534C57.7984 12.3534 57.2612 12.4874 56.772 12.7562L56.8628 12.9215ZM58.3818 12.5421C59.0097 12.5421 59.531 12.7016 59.9514 13.0155L60.0642 12.8644C59.6058 12.522 59.043 12.3534 58.3818 12.3534V12.5421ZM59.9514 13.0155C60.3723 13.3298 60.6678 13.7728 60.8357 14.3505L61.0168 14.2979C60.839 13.6861 60.5222 13.2063 60.0642 12.8644L59.9514 13.0155ZM60.9046 14.2324L60.0653 14.4302L60.1085 14.6138L60.9479 14.416L60.9046 14.2324ZM60.1768 14.4933C60.0236 14.0129 59.798 13.6521 59.4932 13.4227L59.3798 13.5734C59.6434 13.7718 59.8514 14.0935 59.9971 14.5506L60.1768 14.4933ZM59.4932 13.4227C59.1895 13.1941 58.811 13.0829 58.3643 13.0829V13.2716C58.7789 13.2716 59.1152 13.3743 59.3798 13.5734L59.4932 13.4227ZM58.3643 13.0829C57.8537 13.0829 57.419 13.2055 57.066 13.4563L57.1752 13.6101C57.4902 13.3863 57.8846 13.2716 58.3643 13.2716V13.0829ZM57.0657 13.4566C56.7178 13.7059 56.4733 14.0418 56.3325 14.4612L56.5113 14.5212C56.64 14.1379 56.8613 13.8351 57.1756 13.6099L57.0657 13.4566ZM56.3325 14.461C56.1944 14.8693 56.1254 15.2911 56.1254 15.7261H56.314C56.314 15.3114 56.3798 14.91 56.5112 14.5214L56.3325 14.461ZM56.1254 15.7261C56.1254 16.2828 56.2058 16.7737 56.369 17.197L56.545 17.1291C56.3919 16.7321 56.314 16.2651 56.314 15.7261H56.1254ZM56.3693 17.1978C56.5372 17.622 56.7989 17.944 57.1556 18.158L57.2526 17.9963C56.9355 17.806 56.6992 17.5187 56.5447 17.1284L56.3693 17.1978ZM57.1556 18.158C57.5071 18.369 57.8887 18.4747 58.2983 18.4747V18.2861C57.9229 18.2861 57.5749 18.1896 57.2526 17.9963L57.1556 18.158ZM58.2983 18.4747C58.7954 18.4747 59.2217 18.3308 59.5715 18.0398L59.4509 17.8948C59.1387 18.1545 58.7564 18.2861 58.2983 18.2861V18.4747ZM59.5715 18.0398C59.9229 17.7475 60.1554 17.3177 60.2758 16.7611L60.0914 16.7213C59.9774 17.2487 59.7616 17.6363 59.4509 17.8948L59.5715 18.0398ZM62.104 12.5576V12.4633H62.0097V12.5576H62.104ZM62.9565 12.5576H63.0509V12.4633H62.9565V12.5576ZM62.9565 15.3789H62.8622V15.4732H62.9565V15.3789ZM63.7783 15.1548L63.8431 15.2234L63.8437 15.2227L63.7783 15.1548ZM64.3848 14.0649L64.4715 14.1021L64.4716 14.1017L64.3848 14.0649ZM64.8242 13.1729L64.7457 13.1205L64.7455 13.1208L64.8242 13.1729ZM65.3208 12.7334L65.3661 12.8161L65.367 12.8156L65.3208 12.7334ZM66.5469 12.562H66.6412V12.494L66.5767 12.4725L66.5469 12.562ZM66.5469 13.3003V13.3946H66.6412V13.3003H66.5469ZM66.3755 13.2959L66.3787 13.2016L66.3784 13.2016L66.3755 13.2959ZM65.5977 13.4893L65.6636 13.5567L65.6643 13.5559L65.5977 13.4893ZM65.1362 14.333L65.0487 14.2979L65.0486 14.2981L65.1362 14.333ZM64.5869 15.3657L64.6516 15.4344L64.6523 15.4337L64.5869 15.3657ZM64.0508 15.7041L64.0151 15.6168L63.7585 15.7216L64.0258 15.795L64.0508 15.7041ZM65.2812 16.8555L65.2011 16.9051L65.2011 16.9051L65.2812 16.8555ZM66.6084 19V19.0943H66.7777L66.6886 18.9504L66.6084 19ZM65.5493 19L65.469 19.0494L65.4966 19.0943H65.5493V19ZM64.4727 17.251L64.3922 17.3002L64.3923 17.3004L64.4727 17.251ZM63.73 16.2578L63.6664 16.3275L63.667 16.328L63.73 16.2578ZM62.9565 15.9854V15.891H62.8622V15.9854H62.9565ZM62.9565 19V19.0943H63.0509V19H62.9565ZM62.104 19H62.0097V19.0943H62.104V19ZM62.104 12.6519H62.9565V12.4633H62.104V12.6519ZM62.8622 12.5576V15.3789H63.0509V12.5576H62.8622ZM62.9565 15.4732C63.353 15.4732 63.6579 15.3982 63.8431 15.2234L63.7136 15.0862C63.5823 15.2102 63.3394 15.2846 62.9565 15.2846V15.4732ZM63.8437 15.2227C63.9331 15.1366 64.0287 14.9978 64.131 14.8139C64.2342 14.6284 64.3477 14.3909 64.4715 14.1021L64.2981 14.0278C64.1757 14.3132 64.0651 14.5444 63.9662 14.7222C63.8664 14.9016 63.7817 15.0206 63.7129 15.0869L63.8437 15.2227ZM64.4716 14.1017C64.6501 13.6804 64.7938 13.3899 64.9029 13.2249L64.7455 13.1208C64.6261 13.3015 64.4769 13.6058 64.2979 14.0282L64.4716 14.1017ZM64.9027 13.2252C65.0102 13.0639 65.1635 12.9271 65.3661 12.8161L65.2755 12.6507C65.0503 12.7741 64.8726 12.9303 64.7457 13.1205L64.9027 13.2252ZM65.367 12.8156C65.566 12.7038 65.7858 12.6475 66.0283 12.6475V12.4589C65.7552 12.4589 65.5033 12.5227 65.2746 12.6512L65.367 12.8156ZM66.0283 12.6475C66.1922 12.6475 66.3168 12.6483 66.4025 12.6497C66.4454 12.6504 66.4778 12.6513 66.5002 12.6524C66.5115 12.6529 66.5194 12.6534 66.5245 12.6539C66.5336 12.6547 66.527 12.6548 66.5171 12.6515L66.5767 12.4725C66.5623 12.4678 66.5466 12.4665 66.5415 12.466C66.5325 12.4652 66.5214 12.4645 66.5089 12.464C66.4838 12.4628 66.4492 12.4619 66.4057 12.4611C66.3184 12.4596 66.1925 12.4589 66.0283 12.4589V12.6475ZM66.4526 12.562V13.3003H66.6412V12.562H66.4526ZM66.5469 13.206C66.5195 13.206 66.4639 13.2046 66.3787 13.2016L66.3722 13.3902C66.457 13.3931 66.5157 13.3946 66.5469 13.3946V13.206ZM66.3784 13.2016C66.2854 13.1987 66.2264 13.1972 66.2041 13.1972V13.3858C66.2228 13.3858 66.2781 13.3872 66.3725 13.3902L66.3784 13.2016ZM66.2041 13.1972C65.9181 13.1972 65.6872 13.2663 65.531 13.4226L65.6643 13.5559C65.7717 13.4485 65.9451 13.3858 66.2041 13.3858V13.1972ZM65.5317 13.4218C65.3812 13.5691 65.2213 13.8678 65.0487 14.2979L65.2238 14.3681C65.3969 13.9368 65.5446 13.6731 65.6636 13.5567L65.5317 13.4218ZM65.0486 14.2981C64.9409 14.5688 64.8424 14.7876 64.753 14.9556C64.6628 15.1252 64.5853 15.2365 64.5216 15.2977L64.6523 15.4337C64.7379 15.3514 64.8267 15.2188 64.9196 15.0442C65.0133 14.8679 65.1147 14.6421 65.2239 14.3679L65.0486 14.2981ZM64.5223 15.297C64.3821 15.429 64.2134 15.5358 64.0151 15.6168L64.0864 15.7914C64.3042 15.7025 64.4929 15.5837 64.6516 15.4344L64.5223 15.297ZM64.0258 15.795C64.4066 15.8996 64.8004 16.2577 65.2011 16.9051L65.3614 16.8058C64.9535 16.1466 64.527 15.7371 64.0758 15.6132L64.0258 15.795ZM65.2011 16.9051L66.5282 19.0496L66.6886 18.9504L65.3614 16.8058L65.2011 16.9051ZM66.6084 18.9057H65.5493V19.0943H66.6084V18.9057ZM65.6296 18.9506L64.553 17.2015L64.3923 17.3004L65.469 19.0494L65.6296 18.9506ZM64.5531 17.2017C64.2565 16.7172 64.003 16.3761 63.793 16.1876L63.667 16.328C63.8554 16.497 64.097 16.8179 64.3922 17.3002L64.5531 17.2017ZM63.7935 16.1881C63.574 15.9879 63.2921 15.891 62.9565 15.891V16.0797C63.2538 16.0797 63.4876 16.1644 63.6664 16.3275L63.7935 16.1881ZM62.8622 15.9854V19H63.0509V15.9854H62.8622ZM62.9565 18.9057H62.104V19.0943H62.9565V18.9057ZM62.1983 19V12.5576H62.0097V19H62.1983ZM66.6304 19L66.5423 18.9662L66.4931 19.0943H66.6304V19ZM69.1045 12.5576V12.4633H69.0397L69.0165 12.5238L69.1045 12.5576ZM70.0229 12.5576L70.1102 12.5219L70.0863 12.4633H70.0229V12.5576ZM72.6597 19V19.0943H72.8002L72.747 18.9643L72.6597 19ZM71.6885 19L71.6005 19.0339L71.6237 19.0943H71.6885V19ZM70.937 17.0488L71.025 17.0149L71.0018 16.9545H70.937V17.0488ZM68.2432 17.0488V16.9545H68.177L68.1545 17.0167L68.2432 17.0488ZM67.5356 19V19.0943H67.6018L67.6243 19.0322L67.5356 19ZM68.4893 16.3545L68.4009 16.3214L68.3532 16.4488H68.4893V16.3545ZM70.6733 16.3545V16.4488H70.8097L70.7616 16.3212L70.6733 16.3545ZM70.001 14.5703L70.0892 14.5371L70.0892 14.5369L70.001 14.5703ZM69.5439 13.2344L69.6346 13.2085L69.4514 13.216L69.5439 13.2344ZM69.1968 14.4648L69.2851 14.4979L69.2853 14.4973L69.1968 14.4648ZM66.7184 19.0338L69.1925 12.5914L69.0165 12.5238L66.5423 18.9662L66.7184 19.0338ZM69.1045 12.6519H70.0229V12.4633H69.1045V12.6519ZM69.9357 12.5933L72.5724 19.0357L72.747 18.9643L70.1102 12.5219L69.9357 12.5933ZM72.6597 18.9057H71.6885V19.0943H72.6597V18.9057ZM71.7765 18.9661L71.025 17.0149L70.849 17.0827L71.6005 19.0339L71.7765 18.9661ZM70.937 16.9545H68.2432V17.1431H70.937V16.9545ZM68.1545 17.0167L67.447 18.9679L67.6243 19.0322L68.3318 17.081L68.1545 17.0167ZM67.5356 18.9057H66.6304V19.0943H67.5356V18.9057ZM68.4893 16.4488H70.6733V16.2602H68.4893V16.4488ZM70.7616 16.3212L70.0892 14.5371L69.9127 14.6036L70.5851 16.3877L70.7616 16.3212ZM70.0892 14.5369C69.8846 13.9961 69.7332 13.5535 69.6346 13.2085L69.4533 13.2603C69.5539 13.6125 69.7072 14.0605 69.9128 14.6037L70.0892 14.5369ZM69.4514 13.216C69.3704 13.6241 69.256 14.0296 69.1082 14.4324L69.2853 14.4973C69.4364 14.0856 69.5534 13.6708 69.6364 13.2527L69.4514 13.216ZM69.1085 14.4318L68.4009 16.3214L68.5776 16.3876L69.2851 14.4979L69.1085 14.4318ZM77.2344 19V19.0943H77.3287V19H77.2344ZM76.3818 19H76.2875V19.0943H76.3818V19ZM76.3818 16.4028H76.4761V16.2672L76.349 16.3144L76.3818 16.4028ZM73.187 16.5171L73.1376 16.5974L73.1381 16.5977L73.187 16.5171ZM72.4971 15.7173L72.4082 15.7488L72.4084 15.7495L72.4971 15.7173ZM72.3257 12.5576V12.4633H72.2314V12.5576H72.3257ZM73.1782 12.5576H73.2725V12.4633H73.1782V12.5576ZM73.5605 15.7612L73.4985 15.8323L73.4994 15.833L73.5605 15.7612ZM76.3818 15.6909L76.4171 15.7784L76.4761 15.7546V15.6909H76.3818ZM76.3818 12.5576V12.4633H76.2875V12.5576H76.3818ZM77.2344 12.5576H77.3287V12.4633H77.2344V12.5576ZM77.2344 18.9057H76.3818V19.0943H77.2344V18.9057ZM76.4761 19V16.4028H76.2875V19H76.4761ZM76.349 16.3144C75.5908 16.5962 74.9329 16.7348 74.3735 16.7348V16.9234C74.9626 16.9234 75.6436 16.7778 76.4147 16.4912L76.349 16.3144ZM74.3735 16.7348C73.9405 16.7348 73.5623 16.6345 73.2359 16.4365L73.1381 16.5977C73.4973 16.8157 73.9101 16.9234 74.3735 16.9234V16.7348ZM73.2364 16.4368C72.9085 16.235 72.6944 15.984 72.5857 15.6851L72.4084 15.7495C72.5341 16.0951 72.78 16.3773 73.1376 16.5974L73.2364 16.4368ZM72.586 15.6858C72.4767 15.3775 72.42 14.9674 72.42 14.4517H72.2314C72.2314 14.9788 72.289 15.4126 72.4082 15.7488L72.586 15.6858ZM72.42 14.4517V12.5576H72.2314V14.4517H72.42ZM72.3257 12.6519H73.1782V12.4633H72.3257V12.6519ZM73.0839 12.5576V14.3726H73.2725V12.5576H73.0839ZM73.0839 14.3726C73.0839 14.729 73.1161 15.0297 73.1829 15.2721C73.2495 15.5142 73.3524 15.7047 73.4985 15.8323L73.6226 15.6902C73.5138 15.5951 73.4255 15.4428 73.3647 15.222C73.304 15.0016 73.2725 14.7192 73.2725 14.3726H73.0839ZM73.4994 15.833C73.7754 16.0683 74.1066 16.1851 74.4878 16.1851V15.9965C74.1483 15.9965 73.8613 15.8937 73.6217 15.6895L73.4994 15.833ZM74.4878 16.1851C75.1025 16.1851 75.7458 16.0487 76.4171 15.7784L76.3466 15.6034C75.6936 15.8664 75.0743 15.9965 74.4878 15.9965V16.1851ZM76.4761 15.6909V12.5576H76.2875V15.6909H76.4761ZM76.3818 12.6519H77.2344V12.4633H76.3818V12.6519ZM77.1401 12.5576V19H77.3287V12.5576H77.1401ZM77.9331 19L77.8451 18.9662L77.7959 19.0943H77.9331V19ZM80.4072 12.5576V12.4633H80.3424L80.3192 12.5238L80.4072 12.5576ZM81.3257 12.5576L81.413 12.5219L81.389 12.4633H81.3257V12.5576ZM83.9624 19V19.0943H84.1029L84.0497 18.9643L83.9624 19ZM82.9912 19L82.9032 19.0339L82.9265 19.0943H82.9912V19ZM82.2397 17.0488L82.3278 17.0149L82.3045 16.9545H82.2397V17.0488ZM79.5459 17.0488V16.9545H79.4798L79.4572 17.0167L79.5459 17.0488ZM78.8384 19V19.0943H78.9045L78.927 19.0322L78.8384 19ZM79.792 16.3545L79.7037 16.3214L79.656 16.4488H79.792V16.3545ZM81.9761 16.3545V16.4488H82.1124L82.0643 16.3212L81.9761 16.3545ZM81.3037 14.5703L81.392 14.5371L81.3919 14.5369L81.3037 14.5703ZM80.8467 13.2344L80.9374 13.2085L80.7542 13.216L80.8467 13.2344ZM80.4995 14.4648L80.5878 14.4979L80.5881 14.4973L80.4995 14.4648ZM78.0211 19.0338L80.4953 12.5914L80.3192 12.5238L77.8451 18.9662L78.0211 19.0338ZM80.4072 12.6519H81.3257V12.4633H80.4072V12.6519ZM81.2384 12.5933L83.8751 19.0357L84.0497 18.9643L81.413 12.5219L81.2384 12.5933ZM83.9624 18.9057H82.9912V19.0943H83.9624V18.9057ZM83.0792 18.9661L82.3278 17.0149L82.1517 17.0827L82.9032 19.0339L83.0792 18.9661ZM82.2397 16.9545H79.5459V17.1431H82.2397V16.9545ZM79.4572 17.0167L78.7497 18.9679L78.927 19.0322L79.6346 17.081L79.4572 17.0167ZM78.8384 18.9057H77.9331V19.0943H78.8384V18.9057ZM79.792 16.4488H81.9761V16.2602H79.792V16.4488ZM82.0643 16.3212L81.392 14.5371L81.2155 14.6036L81.8878 16.3877L82.0643 16.3212ZM81.3919 14.5369C81.1873 13.9961 81.036 13.5535 80.9374 13.2085L80.756 13.2603C80.8566 13.6125 81.01 14.0605 81.2155 14.6037L81.3919 14.5369ZM80.7542 13.216C80.6731 13.6241 80.5588 14.0296 80.411 14.4324L80.5881 14.4973C80.7391 14.0856 80.8562 13.6708 80.9392 13.2527L80.7542 13.216ZM80.4112 14.4318L79.7037 16.3214L79.8803 16.3876L80.5878 14.4979L80.4112 14.4318ZM85.5796 19H85.4853V19.0943H85.5796V19ZM85.5796 13.3179H85.6739V13.2236H85.5796V13.3179ZM83.457 13.3179H83.3627V13.4122H83.457V13.3179ZM83.457 12.5576V12.4633H83.3627V12.5576H83.457ZM88.5635 12.5576H88.6578V12.4633H88.5635V12.5576ZM88.5635 13.3179V13.4122H88.6578V13.3179H88.5635ZM86.4321 13.3179V13.2236H86.3378V13.3179H86.4321ZM86.4321 19V19.0943H86.5264V19H86.4321ZM85.6739 19V13.3179H85.4853V19H85.6739ZM85.5796 13.2236H83.457V13.4122H85.5796V13.2236ZM83.5513 13.3179V12.5576H83.3627V13.3179H83.5513ZM83.457 12.6519H88.5635V12.4633H83.457V12.6519ZM88.4692 12.5576V13.3179H88.6578V12.5576H88.4692ZM88.5635 13.2236H86.4321V13.4122H88.5635V13.2236ZM86.3378 13.3179V19H86.5264V13.3179H86.3378ZM86.4321 18.9057H85.5796V19.0943H86.4321V18.9057ZM89.4731 12.5576V12.4633H89.3788V12.5576H89.4731ZM90.3257 12.5576H90.42V12.4633H90.3257V12.5576ZM90.3257 15.3086H90.2314V15.4029H90.3257V15.3086ZM89.4731 19H89.3788V19.0943H89.4731V19ZM90.3257 18.2749H90.2314V18.3692H90.3257V18.2749ZM93.1206 17.9409L93.049 17.8795L93.0489 17.8796L93.1206 17.9409ZM93.1997 16.4731L93.1245 16.5301L93.1256 16.5315L93.1997 16.4731ZM90.3257 16.0425V15.9482H90.2314V16.0425H90.3257ZM89.4731 12.6519H90.3257V12.4633H89.4731V12.6519ZM90.2314 12.5576V15.3086H90.42V12.5576H90.2314ZM90.3257 15.4029H91.8638V15.2143H90.3257V15.4029ZM91.8638 15.4029C92.5785 15.4029 93.0792 15.4867 93.3804 15.6428L93.4672 15.4753C93.1239 15.2974 92.5846 15.2143 91.8638 15.2143V15.4029ZM93.3804 15.6428C93.6873 15.8018 93.9029 16.0152 94.0335 16.2817L94.2029 16.1988C94.0522 15.8911 93.8049 15.6503 93.4672 15.4753L93.3804 15.6428ZM94.0335 16.2817C94.1681 16.5566 94.2348 16.8383 94.2348 17.1279H94.4234C94.4234 16.8082 94.3495 16.4981 94.2029 16.1988L94.0335 16.2817ZM94.2348 17.1279C94.2348 17.6022 94.0739 18.0162 93.7495 18.3742L93.8892 18.5008C94.2445 18.1088 94.4234 17.6498 94.4234 17.1279H94.2348ZM93.7495 18.3742C93.4377 18.7182 92.8404 18.9057 91.9209 18.9057V19.0943C92.853 19.0943 93.5213 18.9068 93.8892 18.5008L93.7495 18.3742ZM91.9209 18.9057H89.4731V19.0943H91.9209V18.9057ZM89.5675 19V12.5576H89.3788V19H89.5675ZM90.3257 18.3692H91.8857V18.1806H90.3257V18.3692ZM91.8857 18.3692C92.2069 18.3692 92.477 18.3411 92.6937 18.2824C92.9099 18.224 93.0803 18.1332 93.1923 18.0022L93.0489 17.8796C92.9705 17.9713 92.8399 18.0475 92.6444 18.1004C92.4495 18.1531 92.1974 18.1806 91.8857 18.1806V18.3692ZM93.1922 18.0023C93.4012 17.7585 93.505 17.4653 93.505 17.1279H93.3163C93.3163 17.4234 93.2267 17.6722 93.049 17.8795L93.1922 18.0023ZM93.505 17.1279C93.505 16.8519 93.4293 16.6124 93.2738 16.4148L93.1256 16.5315C93.2514 16.6914 93.3163 16.8883 93.3163 17.1279H93.505ZM93.2749 16.4162C93.1232 16.2161 92.919 16.0871 92.6669 16.0296L92.625 16.2135C92.8358 16.2616 93.0008 16.3669 93.1245 16.5301L93.2749 16.4162ZM92.6669 16.0296C92.4242 15.9743 92.0222 15.9482 91.4683 15.9482V16.1368C92.0217 16.1368 92.4049 16.1634 92.625 16.2135L92.6669 16.0296ZM91.4683 15.9482H90.3257V16.1368H91.4683V15.9482ZM90.2314 16.0425V18.2749H90.42V16.0425H90.2314ZM100.183 13.3311L100.187 13.4253L100.277 13.4215V13.3311H100.183ZM100.183 12.5049V12.4106H100.088V12.5049H100.183ZM100.982 12.5049H101.077V12.4106H100.982V12.5049ZM100.982 13.3311H100.888V13.4204L100.977 13.4252L100.982 13.3311ZM102.925 14.0737L102.86 14.1421L102.86 14.1423L102.925 14.0737ZM100.982 18.1694L100.977 18.0753L100.888 18.0802V18.1694H100.982ZM100.982 19V19.0943H101.077V19H100.982ZM100.183 19H100.088V19.0943H100.183V19ZM100.183 18.1694H100.277V18.0787L100.186 18.0752L100.183 18.1694ZM98.2798 17.4751L98.2182 17.5466L98.2185 17.5468L98.2798 17.4751ZM98.2754 14.0254L98.2143 13.9535L98.2141 13.9537L98.2754 14.0254ZM100.982 14.0605L100.988 13.9664L100.888 13.9607V14.0605H100.982ZM100.982 17.4355H100.888V17.5345L100.987 17.5297L100.982 17.4355ZM102.292 14.5527L102.227 14.621L102.227 14.6213L102.292 14.5527ZM100.183 14.0649H100.277V13.9664L100.178 13.9707L100.183 14.0649ZM98.8862 16.9565L98.8228 17.0263L98.8231 17.0266L98.8862 16.9565ZM100.183 17.4312L100.179 17.5254L100.277 17.5297V17.4312H100.183ZM100.277 13.3311V12.5049H100.088V13.3311H100.277ZM100.183 12.5992H100.982V12.4106H100.183V12.5992ZM100.888 12.5049V13.3311H101.077V12.5049H100.888ZM100.977 13.4252C101.781 13.4683 102.405 13.71 102.86 14.1421L102.99 14.0054C102.495 13.5351 101.824 13.2817 100.987 13.2369L100.977 13.4252ZM102.86 14.1423C103.315 14.5723 103.542 15.1053 103.542 15.748H103.731C103.731 15.0548 103.484 14.4717 102.99 14.0052L102.86 14.1423ZM103.542 15.748C103.542 16.3765 103.322 16.9075 102.88 17.3467L103.013 17.4805C103.491 17.0056 103.731 16.4263 103.731 15.748H103.542ZM102.88 17.3467C102.441 17.7829 101.811 18.0293 100.977 18.0753L100.988 18.2636C101.853 18.2159 102.532 17.9583 103.013 17.4805L102.88 17.3467ZM100.888 18.1694V19H101.077V18.1694H100.888ZM100.982 18.9057H100.183V19.0943H100.982V18.9057ZM100.277 19V18.1694H100.088V19H100.277ZM100.186 18.0752C99.4426 18.0466 98.8295 17.8213 98.3411 17.4034L98.2185 17.5468C98.7437 17.9961 99.3992 18.2337 100.179 18.2637L100.186 18.0752ZM98.3413 17.4036C97.8569 16.9864 97.6138 16.4376 97.6138 15.748H97.4252C97.4252 16.4882 97.689 17.0908 98.2182 17.5466L98.3413 17.4036ZM97.6138 15.748C97.6138 15.0553 97.8556 14.5082 98.3367 14.0971L98.2141 13.9537C97.6874 14.4039 97.4252 15.0053 97.4252 15.748H97.6138ZM98.3365 14.0973C98.8249 13.6822 99.4396 13.4568 100.187 13.4253L100.179 13.2368C99.3963 13.2698 98.7395 13.5073 98.2143 13.9535L98.3365 14.0973ZM100.888 14.0605V17.4355H101.077V14.0605H100.888ZM100.987 17.5297C101.554 17.5026 102.01 17.3376 102.347 17.0257L102.219 16.8873C101.923 17.1614 101.513 17.3157 100.978 17.3413L100.987 17.5297ZM102.347 17.0257C102.687 16.7116 102.852 16.2816 102.852 15.748H102.664C102.664 16.2399 102.513 16.6156 102.219 16.8873L102.347 17.0257ZM102.852 15.748C102.852 15.2233 102.69 14.7981 102.357 14.4841L102.227 14.6213C102.516 14.8933 102.664 15.265 102.664 15.748H102.852ZM102.357 14.4845C102.026 14.1688 101.566 13.9995 100.988 13.9664L100.977 14.1547C101.524 14.1861 101.937 14.3448 102.227 14.621L102.357 14.4845ZM100.178 13.9707C99.6314 13.9949 99.1801 14.1573 98.8326 14.4645L98.9575 14.6058C99.2662 14.3329 99.6733 14.1819 100.187 14.1592L100.178 13.9707ZM98.8326 14.4645C98.4804 14.7758 98.3085 15.2079 98.3085 15.748H98.4971C98.4971 15.2511 98.6534 14.8746 98.9575 14.6058L98.8326 14.4645ZM98.3085 15.748C98.3085 16.2822 98.4774 16.7123 98.8228 17.0263L98.9497 16.8868C98.6506 16.6149 98.4971 16.2393 98.4971 15.748H98.3085ZM98.8231 17.0266C99.1681 17.3374 99.6228 17.5012 100.179 17.5254L100.187 17.3369C99.6643 17.3142 99.2548 17.1616 98.9494 16.8865L98.8231 17.0266ZM100.277 17.4312V14.0649H100.088V17.4312H100.277ZM103.791 19L103.702 18.9662L103.653 19.0943H103.791V19ZM106.265 12.5576V12.4633H106.2L106.177 12.5238L106.265 12.5576ZM107.183 12.5576L107.27 12.5219L107.246 12.4633H107.183V12.5576ZM109.82 19V19.0943H109.96L109.907 18.9643L109.82 19ZM108.849 19L108.761 19.0339L108.784 19.0943H108.849V19ZM108.097 17.0488L108.185 17.0149L108.162 16.9545H108.097V17.0488ZM105.403 17.0488V16.9545H105.337L105.315 17.0167L105.403 17.0488ZM104.696 19V19.0943H104.762L104.784 19.0322L104.696 19ZM105.649 16.3545L105.561 16.3214L105.513 16.4488H105.649V16.3545ZM107.833 16.3545V16.4488H107.97L107.922 16.3212L107.833 16.3545ZM107.161 14.5703L107.249 14.5371L107.249 14.5369L107.161 14.5703ZM106.704 13.2344L106.795 13.2085L106.612 13.216L106.704 13.2344ZM106.357 14.4648L106.445 14.4979L106.445 14.4973L106.357 14.4648ZM103.879 19.0338L106.353 12.5914L106.177 12.5238L103.702 18.9662L103.879 19.0338ZM106.265 12.6519H107.183V12.4633H106.265V12.6519ZM107.096 12.5933L109.733 19.0357L109.907 18.9643L107.27 12.5219L107.096 12.5933ZM109.82 18.9057H108.849V19.0943H109.82V18.9057ZM108.937 18.9661L108.185 17.0149L108.009 17.0827L108.761 19.0339L108.937 18.9661ZM108.097 16.9545H105.403V17.1431H108.097V16.9545ZM105.315 17.0167L104.607 18.9679L104.784 19.0322L105.492 17.081L105.315 17.0167ZM104.696 18.9057H103.791V19.0943H104.696V18.9057ZM105.649 16.4488H107.833V16.2602H105.649V16.4488ZM107.922 16.3212L107.249 14.5371L107.073 14.6036L107.745 16.3877L107.922 16.3212ZM107.249 14.5369C107.045 13.9961 106.893 13.5535 106.795 13.2085L106.613 13.2603C106.714 13.6125 106.867 14.0605 107.073 14.6037L107.249 14.5369ZM106.612 13.216C106.531 13.6241 106.416 14.0296 106.268 14.4324L106.445 14.4973C106.597 14.0856 106.714 13.6708 106.797 13.2527L106.612 13.216ZM106.269 14.4318L105.561 16.3214L105.738 16.3876L106.445 14.4979L106.269 14.4318ZM110.514 12.5576V12.4633H110.42V12.5576H110.514ZM111.288 12.5576H111.382V12.4633H111.288V12.5576ZM111.288 17.6597H111.193V17.9692L111.366 17.7123L111.288 17.6597ZM114.715 12.5576V12.4633H114.665L114.637 12.505L114.715 12.5576ZM115.572 12.5576H115.667V12.4633H115.572V12.5576ZM115.572 19V19.0943H115.667V19H115.572ZM114.799 19H114.705V19.0943H114.799V19ZM114.799 13.9111H114.893V13.6026L114.721 13.8584L114.799 13.9111ZM111.367 19V19.0943H111.417L111.445 19.0527L111.367 19ZM110.514 19H110.42V19.0943H110.514V19ZM113.718 11.0239V10.9296H113.64L113.625 11.0054L113.718 11.0239ZM114.258 11.0239L114.352 11.0352L114.365 10.9296H114.258V11.0239ZM113.854 11.8677L113.792 11.7965L113.792 11.7969L113.854 11.8677ZM112.061 11.8721L111.999 11.9428L112 11.9437L112.061 11.8721ZM111.661 11.0239V10.9296H111.555L111.567 11.0351L111.661 11.0239ZM112.202 11.0239L112.294 11.0049L112.279 10.9296H112.202V11.0239ZM112.443 11.4722L112.383 11.5448L112.385 11.5463L112.443 11.4722ZM113.472 11.4766L113.53 11.5509L113.53 11.5507L113.472 11.4766ZM110.514 12.6519H111.288V12.4633H110.514V12.6519ZM111.193 12.5576V17.6597H111.382V12.5576H111.193ZM111.366 17.7123L114.794 12.6102L114.637 12.505L111.209 17.6071L111.366 17.7123ZM114.715 12.6519H115.572V12.4633H114.715V12.6519ZM115.478 12.5576V19H115.667V12.5576H115.478ZM115.572 18.9057H114.799V19.0943H115.572V18.9057ZM114.893 19V13.9111H114.705V19H114.893ZM114.721 13.8584L111.289 18.9473L111.445 19.0527L114.877 13.9639L114.721 13.8584ZM111.367 18.9057H110.514V19.0943H111.367V18.9057ZM110.608 19V12.5576H110.42V19H110.608ZM113.718 11.1182H114.258V10.9296H113.718V11.1182ZM114.165 11.0127C114.123 11.3614 113.996 11.619 113.792 11.7965L113.916 11.9388C114.163 11.7238 114.306 11.4189 114.352 11.0352L114.165 11.0127ZM113.792 11.7969C113.59 11.9745 113.317 12.0678 112.962 12.0678V12.2564C113.351 12.2564 113.672 12.1535 113.916 11.9384L113.792 11.7969ZM112.962 12.0678C112.603 12.0678 112.327 11.9757 112.122 11.8005L112 11.9437C112.246 12.1552 112.57 12.2564 112.962 12.2564V12.0678ZM112.123 11.8013C111.922 11.624 111.797 11.3649 111.755 11.0128L111.567 11.0351C111.613 11.4212 111.755 11.7276 111.999 11.9428L112.123 11.8013ZM111.661 11.1182H112.202V10.9296H111.661V11.1182ZM112.109 11.0429C112.153 11.2567 112.242 11.4278 112.383 11.5448L112.504 11.3996C112.404 11.3173 112.332 11.1896 112.294 11.0049L112.109 11.0429ZM112.385 11.5463C112.529 11.6596 112.716 11.7115 112.936 11.7115V11.5229C112.745 11.5229 112.604 11.4781 112.502 11.398L112.385 11.5463ZM112.936 11.7115C113.183 11.7115 113.386 11.663 113.53 11.5509L113.414 11.4022C113.317 11.4776 113.163 11.5229 112.936 11.5229V11.7115ZM113.53 11.5507C113.676 11.4361 113.766 11.2621 113.81 11.0424L113.625 11.0054C113.587 11.196 113.514 11.3237 113.413 11.4024L113.53 11.5507ZM117.44 12.5576V12.4633H117.346V12.5576H117.44ZM121.474 12.5576H121.568V12.4633H121.474V12.5576ZM121.474 19V19.0943H121.568V19H121.474ZM120.622 19H120.527V19.0943H120.622V19ZM120.622 13.3179H120.716V13.2236H120.622V13.3179ZM118.292 13.3179V13.2236H118.198V13.3179H118.292ZM118.196 18.1167L118.103 18.0977L118.103 18.0985L118.196 18.1167ZM117.8 18.8506L117.862 18.9223L117.862 18.9218L117.8 18.8506ZM116.354 19.0044L116.262 18.9866L116.245 19.0729L116.33 19.0955L116.354 19.0044ZM116.5 18.2485L116.536 18.1615L116.429 18.1169L116.407 18.2308L116.5 18.2485ZM117.295 18.1211L117.373 18.1738L117.374 18.173L117.295 18.1211ZM117.44 12.6519H121.474V12.4633H117.44V12.6519ZM121.38 12.5576V19H121.568V12.5576H121.38ZM121.474 18.9057H120.622V19.0943H121.474V18.9057ZM120.716 19V13.3179H120.527V19H120.716ZM120.622 13.2236H118.292V13.4122H120.622V13.2236ZM118.198 13.3179V16.6357H118.387V13.3179H118.198ZM118.198 16.6357C118.198 17.3086 118.166 17.7942 118.103 18.0977L118.288 18.1357C118.355 17.8123 118.387 17.3106 118.387 16.6357H118.198ZM118.103 18.0985C118.045 18.3955 117.922 18.6199 117.738 18.7794L117.862 18.9218C118.083 18.7297 118.224 18.4648 118.288 18.1349L118.103 18.0985ZM117.739 18.7789C117.557 18.9348 117.323 19.0156 117.031 19.0156V19.2042C117.36 19.2042 117.64 19.1121 117.862 18.9223L117.739 18.7789ZM117.031 19.0156C116.855 19.0156 116.638 18.9823 116.379 18.9133L116.33 19.0955C116.599 19.1671 116.833 19.2042 117.031 19.2042V19.0156ZM116.447 19.0222L116.592 18.2663L116.407 18.2308L116.262 18.9866L116.447 19.0222ZM116.463 18.3356C116.61 18.3967 116.743 18.4307 116.86 18.4307V18.2421C116.778 18.2421 116.67 18.2176 116.536 18.1615L116.463 18.3356ZM116.86 18.4307C117.08 18.4307 117.257 18.3467 117.373 18.1738L117.217 18.0684C117.14 18.1826 117.026 18.2421 116.86 18.2421V18.4307ZM117.374 18.173C117.434 18.0815 117.472 17.9416 117.497 17.7673C117.522 17.5899 117.534 17.3646 117.534 17.0928H117.346C117.346 17.36 117.334 17.5757 117.31 17.741C117.287 17.9094 117.252 18.0142 117.216 18.0691L117.374 18.173ZM117.534 17.0928V12.5576H117.346V17.0928H117.534Z" fill="white" fill-opacity="0.9"/>
<path d="M54.5779 35.4676V33.5467H56.4988V35.4676H54.5779ZM67.5251 35.4676H65.324L64.449 33.1912H60.4431L59.616 35.4676H57.4695L61.3728 25.4461H63.5125L67.5251 35.4676ZM63.7996 31.5027L62.4187 27.784L61.0652 31.5027H63.7996ZM68.6052 35.4676V25.4461H71.8523C73.0828 25.4461 73.8848 25.4962 74.2585 25.5965C74.8328 25.7469 75.3136 26.075 75.7009 26.5809C76.0883 27.0822 76.282 27.7316 76.282 28.5291C76.282 29.1443 76.1703 29.6616 75.947 30.0809C75.7237 30.5001 75.4389 30.8305 75.0925 31.0721C74.7507 31.3091 74.4021 31.4663 74.0466 31.5438C73.5636 31.6395 72.864 31.6873 71.948 31.6873H70.6287V35.4676H68.6052ZM70.6287 27.1414V29.9852H71.7361C72.5336 29.9852 73.0668 29.9328 73.3357 29.8279C73.6046 29.7231 73.8142 29.5591 73.9646 29.3358C74.1195 29.1124 74.197 28.8527 74.197 28.5565C74.197 28.1919 74.0899 27.8911 73.8757 27.6541C73.6615 27.4171 73.3904 27.269 73.0623 27.2098C72.8207 27.1642 72.3354 27.1414 71.6062 27.1414H70.6287ZM77.9705 35.4676V25.4461H79.9939V29.8963L84.0818 25.4461H86.8025L83.0291 29.3494L87.0076 35.4676H84.3894L81.6345 30.7645L79.9939 32.4393V35.4676H77.9705Z" fill="white" fill-opacity="0.8"/>
<path fill-rule="evenodd" clip-rule="evenodd" d="M21.2205 9.11713C20.3871 9.11713 19.7115 9.79272 19.7115 10.6261V25.394C19.7115 25.8107 19.3737 26.1485 18.957 26.1485L13.1825 26.1485C12.4991 26.1485 12.1678 26.9845 12.6657 27.4526L24.7202 38.7869C25.4463 39.4697 26.5782 39.4697 27.3043 38.7869L39.3588 27.4526C39.8567 26.9845 39.5254 26.1485 38.842 26.1485L33.7692 26.1485C33.3525 26.1485 33.0147 25.8107 33.0147 25.394V10.6261C33.0147 9.79272 32.3391 9.11713 31.5057 9.11713H21.2205Z" fill="url(#paint0_linear_6_569)"/>
<defs>
<linearGradient id="paint0_linear_6_569" x1="26.0123" y1="9.11713" x2="26.0123" y2="39.299" gradientUnits="userSpaceOnUse">
<stop stop-color="#F13C64"/>
<stop offset="1" stop-color="#D11153"/>
</linearGradient>
</defs>
</svg>
