<svg width="134" height="48" viewBox="0 0 134 48" fill="none" xmlns="http://www.w3.org/2000/svg">
<path d="M60.3951 16.7412L61.2476 16.9566C61.0689 17.6568 60.7466 18.1914 60.2808 18.5606C59.8179 18.9268 59.251 19.1099 58.5801 19.1099C57.8858 19.1099 57.3204 18.9693 56.8838 18.688C56.4502 18.4038 56.1192 17.9937 55.8907 17.4575C55.6651 16.9214 55.5523 16.3457 55.5523 15.7305C55.5523 15.0596 55.6797 14.4751 55.9346 13.9771C56.1924 13.4761 56.5572 13.0967 57.0289 12.8389C57.5035 12.5781 58.0249 12.4478 58.5933 12.4478C59.2378 12.4478 59.7798 12.6118 60.2193 12.94C60.6587 13.2681 60.9649 13.7295 61.1377 14.3242L60.2984 14.522C60.149 14.0532 59.9322 13.7119 59.648 13.4981C59.3638 13.2842 59.0064 13.1773 58.5757 13.1773C58.0806 13.1773 57.6661 13.2959 57.3321 13.5332C57.001 13.7705 56.7681 14.0899 56.6333 14.4912C56.4986 14.8897 56.4312 15.3013 56.4312 15.7261C56.4312 16.2739 56.5103 16.753 56.6685 17.1631C56.8296 17.5703 57.0787 17.875 57.4156 18.0772C57.7525 18.2793 58.1172 18.3804 58.5098 18.3804C58.9874 18.3804 59.3916 18.2427 59.7227 17.9673C60.0538 17.6919 60.2779 17.2832 60.3951 16.7412ZM62.3155 12.5576H63.168V15.3789C63.5577 15.3789 63.8316 15.3042 63.9898 15.1548C64.148 15.0025 64.3501 14.6392 64.5962 14.065C64.7749 13.6431 64.9214 13.3457 65.0357 13.1729C65.1529 12.9971 65.3184 12.8506 65.5323 12.7334C65.7461 12.6133 65.982 12.5532 66.2398 12.5532C66.5679 12.5532 66.7408 12.5562 66.7583 12.562V13.3003C66.729 13.3003 66.6719 13.2989 66.587 13.2959C66.4932 13.293 66.4361 13.2915 66.4156 13.2915C66.1431 13.2915 65.941 13.3574 65.8091 13.4893C65.6744 13.6211 65.5206 13.9024 65.3477 14.333C65.1309 14.878 64.9478 15.2222 64.7984 15.3657C64.649 15.5064 64.4703 15.6192 64.2623 15.7041C64.6783 15.8184 65.0884 16.2022 65.4927 16.8555L66.8199 19H65.7608L64.6841 17.251C64.3882 16.7676 64.1407 16.4365 63.9415 16.2578C63.7422 16.0762 63.4844 15.9854 63.168 15.9854V19H62.3155V12.5576ZM66.8418 19L69.316 12.5576H70.2344L72.8711 19H71.8999L71.1485 17.0489H68.4546L67.7471 19H66.8418ZM68.7007 16.3545H70.8848L70.2124 14.5703C70.0074 14.0283 69.855 13.583 69.7554 13.2344C69.6734 13.6475 69.5577 14.0576 69.4082 14.4649L68.7007 16.3545ZM77.4458 19H76.5933V16.4029C75.8287 16.687 75.1592 16.8291 74.585 16.8291C74.1368 16.8291 73.7413 16.7251 73.3985 16.5171C73.0557 16.3062 72.8257 16.0396 72.7085 15.7173C72.5943 15.395 72.5372 14.9732 72.5372 14.4517V12.5576H73.3897V14.3726C73.3897 15.0757 73.5171 15.5386 73.772 15.7613C74.0298 15.981 74.3389 16.0908 74.6993 16.0908C75.2999 16.0908 75.9312 15.9575 76.5933 15.6909V12.5576H77.4458V19ZM78.1446 19L80.6187 12.5576H81.5372L84.1739 19H83.2027L82.4512 17.0489H79.7574L79.0499 19H78.1446ZM80.0035 16.3545H82.1875L81.5152 14.5703C81.3101 14.0283 81.1578 13.583 81.0582 13.2344C80.9761 13.6475 80.8604 14.0576 80.711 14.4649L80.0035 16.3545ZM85.7911 19V13.3179H83.6685V12.5576H88.7749V13.3179H86.6436V19H85.7911ZM89.6846 12.5576H90.5372V15.3086H92.0752C92.793 15.3086 93.313 15.3921 93.6353 15.5591C93.9576 15.7261 94.189 15.9531 94.3296 16.2403C94.4703 16.5274 94.5406 16.8233 94.5406 17.128C94.5406 17.626 94.3707 18.0625 94.0308 18.4375C93.691 18.8125 93.0582 19 92.1324 19H89.6846V12.5576ZM90.5372 18.2749H92.0972C92.73 18.2749 93.1416 18.1636 93.3321 17.9409C93.5254 17.7154 93.6221 17.4444 93.6221 17.128C93.6221 16.8701 93.5518 16.6519 93.4112 16.4732C93.2735 16.2915 93.0889 16.1743 92.8575 16.1216C92.626 16.0689 92.2334 16.0425 91.6797 16.0425H90.5372V18.2749ZM100.394 13.3311V12.5049H101.194V13.3311C102.014 13.375 102.662 13.6226 103.136 14.0738C103.611 14.522 103.848 15.0801 103.848 15.7481C103.848 16.4014 103.618 16.9566 103.158 17.4136C102.698 17.8706 102.044 18.1226 101.194 18.1695V19H100.394V18.1695C99.6324 18.1402 98.9981 17.9087 98.4913 17.4751C97.9844 17.0386 97.731 16.4629 97.731 15.7481C97.731 15.0303 97.983 14.4561 98.4869 14.0254C98.9937 13.5947 99.6294 13.3633 100.394 13.3311ZM101.194 14.0606V17.4356C101.745 17.4092 102.178 17.2495 102.495 16.9566C102.811 16.6636 102.969 16.2608 102.969 15.7481C102.969 15.2442 102.814 14.8457 102.503 14.5528C102.193 14.2569 101.756 14.0928 101.194 14.0606ZM100.394 14.065C99.8638 14.0884 99.4346 14.2451 99.1065 14.5352C98.7784 14.8252 98.6143 15.2295 98.6143 15.7481C98.6143 16.2608 98.7754 16.6636 99.0977 16.9566C99.4229 17.2495 99.855 17.4077 100.394 17.4312V14.065ZM104.002 19L106.476 12.5576H107.395L110.031 19H109.06L108.309 17.0489H105.615L104.907 19H104.002ZM105.861 16.3545H108.045L107.373 14.5703C107.168 14.0283 107.015 13.583 106.916 13.2344C106.834 13.6475 106.718 14.0576 106.568 14.4649L105.861 16.3545ZM110.726 12.5576H111.499V17.6597L114.927 12.5576H115.784V19H115.01V13.9112L111.578 19H110.726V12.5576ZM113.929 11.0239H114.47C114.426 11.3902 114.291 11.6714 114.065 11.8677C113.843 12.064 113.545 12.1621 113.173 12.1621C112.798 12.1621 112.498 12.0655 112.273 11.8721C112.05 11.6758 111.917 11.3931 111.873 11.0239H112.413C112.454 11.2232 112.535 11.3726 112.655 11.4722C112.778 11.5689 112.942 11.6172 113.147 11.6172C113.384 11.6172 113.563 11.5703 113.683 11.4766C113.806 11.3799 113.888 11.229 113.929 11.0239ZM117.651 12.5576H121.686V19H120.833V13.3179H118.504V16.6358C118.504 17.3096 118.472 17.8032 118.407 18.1167C118.346 18.4302 118.214 18.6748 118.012 18.8506C117.81 19.0235 117.553 19.1099 117.243 19.1099C117.055 19.1099 116.83 19.0747 116.566 19.0044L116.711 18.2486C116.852 18.3072 116.972 18.3364 117.071 18.3364C117.265 18.3364 117.41 18.2647 117.506 18.1211C117.603 17.9746 117.651 17.6319 117.651 17.0928V12.5576Z" fill="white" fill-opacity="0.8"/>
<path d="M60.3951 16.7412L60.4182 16.6498L60.3235 16.6259L60.3029 16.7213L60.3951 16.7412ZM61.2476 16.9566L61.339 16.9799L61.3624 16.8883L61.2707 16.8651L61.2476 16.9566ZM60.2808 18.5606L60.3393 18.6345L60.3394 18.6345L60.2808 18.5606ZM56.8838 18.688L56.8321 18.7669L56.8328 18.7673L56.8838 18.688ZM55.8907 17.4575L55.8037 17.4941L55.8039 17.4945L55.8907 17.4575ZM55.9346 13.9771L55.8508 13.9339L55.8507 13.9341L55.9346 13.9771ZM57.0289 12.8389L57.0741 12.9216L57.0743 12.9215L57.0289 12.8389ZM61.1377 14.3242L61.1594 14.416L61.256 14.3933L61.2283 14.2979L61.1377 14.3242ZM60.2984 14.522L60.2085 14.5506L60.235 14.6338L60.32 14.6138L60.2984 14.522ZM57.3321 13.5332L57.2775 13.4563L57.2771 13.4566L57.3321 13.5332ZM56.6333 14.4912L56.7227 14.5215L56.7228 14.5213L56.6333 14.4912ZM56.6685 17.1631L56.5805 17.197L56.5808 17.1978L56.6685 17.1631ZM60.372 16.8327L61.2245 17.048L61.2707 16.8651L60.4182 16.6498L60.372 16.8327ZM61.1562 16.9332C60.9815 17.6179 60.6686 18.1329 60.2222 18.4867L60.3394 18.6345C60.8246 18.2499 61.1563 17.6957 61.339 16.9799L61.1562 16.9332ZM60.2223 18.4866C59.7783 18.8379 59.2328 19.0156 58.5801 19.0156V19.2042C59.2692 19.2042 59.8575 19.0157 60.3393 18.6345L60.2223 18.4866ZM58.5801 19.0156C57.8979 19.0156 57.3519 18.8774 56.9349 18.6087L56.8328 18.7673C57.2888 19.0611 57.8736 19.2042 58.5801 19.2042V19.0156ZM56.9355 18.6091C56.5194 18.3364 56.1996 17.9418 55.9774 17.4206L55.8039 17.4945C56.0388 18.0456 56.3811 18.4713 56.8321 18.7669L56.9355 18.6091ZM55.9776 17.421C55.7572 16.8971 55.6466 16.3339 55.6466 15.7305H55.458C55.458 16.3576 55.573 16.9457 55.8037 17.4941L55.9776 17.421ZM55.6466 15.7305C55.6466 15.0716 55.7717 14.5024 56.0186 14.02L55.8507 13.9341C55.5877 14.4479 55.458 15.0476 55.458 15.7305H55.6466ZM56.0185 14.0202C56.2681 13.5352 56.6198 13.17 57.0741 12.9216L56.9836 12.7561C56.4946 13.0234 56.1168 13.417 55.8508 13.9339L56.0185 14.0202ZM57.0743 12.9215C57.5343 12.6688 58.04 12.5421 58.5933 12.5421V12.3535C58.0099 12.3535 57.4727 12.4875 56.9834 12.7562L57.0743 12.9215ZM58.5933 12.5421C59.2212 12.5421 59.7424 12.7016 60.1629 13.0155L60.2757 12.8644C59.8172 12.5221 59.2545 12.3535 58.5933 12.3535V12.5421ZM60.1629 13.0155C60.5838 13.3298 60.8793 13.7729 61.0472 14.3506L61.2283 14.2979C61.0505 13.6862 60.7337 13.2064 60.2757 12.8644L60.1629 13.0155ZM61.1161 14.2324L60.2768 14.4302L60.32 14.6138L61.1594 14.416L61.1161 14.2324ZM60.3882 14.4934C60.2351 14.0129 60.0095 13.6521 59.7047 13.4227L59.5913 13.5734C59.8549 13.7718 60.0628 14.0936 60.2085 14.5506L60.3882 14.4934ZM59.7047 13.4227C59.401 13.1941 59.0224 13.083 58.5757 13.083V13.2716C58.9904 13.2716 59.3267 13.3743 59.5913 13.5734L59.7047 13.4227ZM58.5757 13.083C58.0652 13.083 57.6305 13.2055 57.2775 13.4563L57.3867 13.6101C57.7016 13.3863 58.096 13.2716 58.5757 13.2716V13.083ZM57.2771 13.4566C56.9293 13.7059 56.6847 14.0419 56.5439 14.4612L56.7228 14.5213C56.8515 14.1379 57.0727 13.8352 57.387 13.6099L57.2771 13.4566ZM56.544 14.461C56.4059 14.8693 56.3369 15.2911 56.3369 15.7261H56.5255C56.5255 15.3115 56.5912 14.9101 56.7227 14.5215L56.544 14.461ZM56.3369 15.7261C56.3369 16.2828 56.4172 16.7738 56.5805 17.197L56.7565 17.1292C56.6034 16.7321 56.5255 16.2651 56.5255 15.7261H56.3369ZM56.5808 17.1978C56.7486 17.622 57.0103 17.944 57.3671 18.158L57.4641 17.9963C57.147 17.806 56.9106 17.5187 56.7562 17.1284L56.5808 17.1978ZM57.3671 18.158C57.7186 18.369 58.1001 18.4747 58.5098 18.4747V18.2861C58.1343 18.2861 57.7864 18.1897 57.4641 17.9963L57.3671 18.158ZM58.5098 18.4747C59.0068 18.4747 59.4332 18.3308 59.783 18.0398L59.6624 17.8948C59.3501 18.1545 58.9679 18.2861 58.5098 18.2861V18.4747ZM59.783 18.0398C60.1344 17.7475 60.3669 17.3178 60.4872 16.7612L60.3029 16.7213C60.1889 17.2487 59.9731 17.6363 59.6624 17.8948L59.783 18.0398ZM62.3155 12.5576V12.4633H62.2212V12.5576H62.3155ZM63.168 12.5576H63.2623V12.4633H63.168V12.5576ZM63.168 15.3789H63.0737V15.4732H63.168V15.3789ZM63.9898 15.1548L64.0546 15.2234L64.0552 15.2227L63.9898 15.1548ZM64.5962 14.065L64.6829 14.1021L64.6831 14.1018L64.5962 14.065ZM65.0357 13.1729L64.9572 13.1206L64.957 13.1209L65.0357 13.1729ZM65.5323 12.7334L65.5776 12.8161L65.5785 12.8157L65.5323 12.7334ZM66.7583 12.562H66.8527V12.4941L66.7882 12.4726L66.7583 12.562ZM66.7583 13.3003V13.3946H66.8527V13.3003H66.7583ZM66.587 13.2959L66.5902 13.2017L66.5899 13.2017L66.587 13.2959ZM65.8091 13.4893L65.8751 13.5567L65.8758 13.556L65.8091 13.4893ZM65.3477 14.333L65.2602 14.2979L65.2601 14.2982L65.3477 14.333ZM64.7984 15.3657L64.863 15.4344L64.8637 15.4338L64.7984 15.3657ZM64.2623 15.7041L64.2266 15.6168L63.9699 15.7216L64.2373 15.7951L64.2623 15.7041ZM65.4927 16.8555L65.4125 16.9051L65.4125 16.9051L65.4927 16.8555ZM66.8199 19V19.0943H66.9891L66.9001 18.9504L66.8199 19ZM65.7608 19L65.6805 19.0495L65.7081 19.0943H65.7608V19ZM64.6841 17.251L64.6037 17.3002L64.6038 17.3004L64.6841 17.251ZM63.9415 16.2578L63.8779 16.3275L63.8785 16.328L63.9415 16.2578ZM63.168 15.9854V15.8911H63.0737V15.9854H63.168ZM63.168 19V19.0943H63.2623V19H63.168ZM62.3155 19H62.2212V19.0943H62.3155V19ZM62.3155 12.652H63.168V12.4633H62.3155V12.652ZM63.0737 12.5576V15.3789H63.2623V12.5576H63.0737ZM63.168 15.4732C63.5645 15.4732 63.8694 15.3983 64.0545 15.2234L63.925 15.0862C63.7938 15.2102 63.5509 15.2846 63.168 15.2846V15.4732ZM64.0552 15.2227C64.1446 15.1367 64.2401 14.9978 64.3425 14.8139C64.4457 14.6285 64.5592 14.3909 64.6829 14.1021L64.5096 14.0278C64.3872 14.3133 64.2766 14.5444 64.1776 14.7222C64.0778 14.9016 63.9932 15.0206 63.9244 15.0869L64.0552 15.2227ZM64.6831 14.1018C64.8616 13.6804 65.0052 13.39 65.1144 13.2249L64.957 13.1209C64.8376 13.3015 64.6883 13.6058 64.5094 14.0282L64.6831 14.1018ZM65.1142 13.2252C65.2217 13.0639 65.375 12.9271 65.5776 12.8161L65.487 12.6507C65.2618 12.7741 65.0841 12.9303 64.9572 13.1206L65.1142 13.2252ZM65.5785 12.8157C65.7775 12.7039 65.9973 12.6476 66.2398 12.6476V12.4589C65.9667 12.4589 65.7148 12.5227 65.4861 12.6512L65.5785 12.8157ZM66.2398 12.6476C66.4037 12.6476 66.5283 12.6483 66.6139 12.6497C66.6568 12.6505 66.6893 12.6514 66.7117 12.6524C66.723 12.6529 66.7309 12.6534 66.7359 12.6539C66.745 12.6547 66.7385 12.6548 66.7285 12.6515L66.7882 12.4726C66.7738 12.4678 66.758 12.4665 66.753 12.4661C66.744 12.4652 66.7329 12.4646 66.7204 12.464C66.6952 12.4628 66.6606 12.4619 66.6171 12.4611C66.5299 12.4597 66.404 12.4589 66.2398 12.4589V12.6476ZM66.664 12.562V13.3003H66.8527V12.562H66.664ZM66.7583 13.206C66.7309 13.206 66.6754 13.2046 66.5902 13.2017L66.5837 13.3902C66.6684 13.3931 66.7272 13.3946 66.7583 13.3946V13.206ZM66.5899 13.2017C66.4968 13.1987 66.4379 13.1972 66.4156 13.1972V13.3858C66.4342 13.3858 66.4896 13.3872 66.584 13.3902L66.5899 13.2017ZM66.4156 13.1972C66.1296 13.1972 65.8987 13.2663 65.7424 13.4226L65.8758 13.556C65.9832 13.4486 66.1566 13.3858 66.4156 13.3858V13.1972ZM65.7432 13.4219C65.5926 13.5691 65.4328 13.8679 65.2602 14.2979L65.4352 14.3682C65.6083 13.9369 65.7561 13.6731 65.8751 13.5567L65.7432 13.4219ZM65.2601 14.2982C65.1524 14.5688 65.0538 14.7877 64.9645 14.9556C64.8743 15.1252 64.7968 15.2365 64.733 15.2977L64.8637 15.4338C64.9494 15.3514 65.0382 15.2188 65.131 15.0442C65.2248 14.8679 65.3262 14.6421 65.4353 14.3679L65.2601 14.2982ZM64.7337 15.2971C64.5935 15.429 64.4249 15.5358 64.2266 15.6168L64.2979 15.7914C64.5156 15.7025 64.7044 15.5837 64.863 15.4344L64.7337 15.2971ZM64.2373 15.7951C64.618 15.8996 65.0119 16.2577 65.4125 16.9051L65.5729 16.8059C65.165 16.1467 64.7385 15.7371 64.2872 15.6132L64.2373 15.7951ZM65.4125 16.9051L66.7397 19.0497L66.9001 18.9504L65.5729 16.8059L65.4125 16.9051ZM66.8199 18.9057H65.7608V19.0943H66.8199V18.9057ZM65.8411 18.9506L64.7644 17.2016L64.6038 17.3004L65.6805 19.0495L65.8411 18.9506ZM64.7646 17.2018C64.468 16.7173 64.2145 16.3761 64.0044 16.1876L63.8785 16.328C64.0668 16.497 64.3085 16.8179 64.6037 17.3002L64.7646 17.2018ZM64.005 16.1881C63.7854 15.988 63.5036 15.8911 63.168 15.8911V16.0797C63.4653 16.0797 63.699 16.1644 63.8779 16.3275L64.005 16.1881ZM63.0737 15.9854V19H63.2623V15.9854H63.0737ZM63.168 18.9057H62.3155V19.0943H63.168V18.9057ZM62.4098 19V12.5576H62.2212V19H62.4098ZM66.8418 19L66.7538 18.9662L66.7046 19.0943H66.8418V19ZM69.316 12.5576V12.4633H69.2512L69.2279 12.5238L69.316 12.5576ZM70.2344 12.5576L70.3217 12.5219L70.2977 12.4633H70.2344V12.5576ZM72.8711 19V19.0943H73.0116L72.9584 18.9643L72.8711 19ZM71.8999 19L71.8119 19.0339L71.8352 19.0943H71.8999V19ZM71.1485 17.0489L71.2365 17.015L71.2132 16.9545H71.1485V17.0489ZM68.4546 17.0489V16.9545H68.3885L68.366 17.0167L68.4546 17.0489ZM67.7471 19V19.0943H67.8132L67.8358 19.0322L67.7471 19ZM68.7007 16.3545L68.6124 16.3214L68.5647 16.4488H68.7007V16.3545ZM70.8848 16.3545V16.4488H71.0211L70.9731 16.3213L70.8848 16.3545ZM70.2124 14.5703L70.3007 14.5371L70.3007 14.537L70.2124 14.5703ZM69.7554 13.2344L69.8461 13.2085L69.6629 13.216L69.7554 13.2344ZM69.4082 14.4649L69.4966 14.4979L69.4968 14.4974L69.4082 14.4649ZM66.9299 19.0338L69.404 12.5915L69.2279 12.5238L66.7538 18.9662L66.9299 19.0338ZM69.316 12.652H70.2344V12.4633H69.316V12.652ZM70.1471 12.5934L72.7839 19.0357L72.9584 18.9643L70.3217 12.5219L70.1471 12.5934ZM72.8711 18.9057H71.8999V19.0943H72.8711V18.9057ZM71.988 18.9661L71.2365 17.015L71.0605 17.0827L71.8119 19.0339L71.988 18.9661ZM71.1485 16.9545H68.4546V17.1432H71.1485V16.9545ZM68.366 17.0167L67.6585 18.9679L67.8358 19.0322L68.5433 17.081L68.366 17.0167ZM67.7471 18.9057H66.8418V19.0943H67.7471V18.9057ZM68.7007 16.4488H70.8848V16.2602H68.7007V16.4488ZM70.9731 16.3213L70.3007 14.5371L70.1242 14.6036L70.7966 16.3878L70.9731 16.3213ZM70.3007 14.537C70.096 13.9962 69.9447 13.5536 69.8461 13.2085L69.6647 13.2603C69.7654 13.6125 69.9187 14.0605 70.1242 14.6037L70.3007 14.537ZM69.6629 13.216C69.5819 13.6242 69.4675 14.0296 69.3197 14.4324L69.4968 14.4974C69.6478 14.0857 69.7649 13.6708 69.8479 13.2528L69.6629 13.216ZM69.3199 14.4318L68.6124 16.3214L68.7891 16.3876L69.4966 14.4979L69.3199 14.4318ZM77.4458 19V19.0943H77.5402V19H77.4458ZM76.5933 19H76.499V19.0943H76.5933V19ZM76.5933 16.4029H76.6876V16.2672L76.5605 16.3145L76.5933 16.4029ZM73.3985 16.5171L73.3491 16.5974L73.3496 16.5977L73.3985 16.5171ZM72.7085 15.7173L72.6196 15.7488L72.6199 15.7495L72.7085 15.7173ZM72.5372 12.5576V12.4633H72.4428V12.5576H72.5372ZM73.3897 12.5576H73.484V12.4633H73.3897V12.5576ZM73.772 15.7613L73.71 15.8323L73.7108 15.833L73.772 15.7613ZM76.5933 15.6909L76.6285 15.7784L76.6876 15.7546V15.6909H76.5933ZM76.5933 12.5576V12.4633H76.499V12.5576H76.5933ZM77.4458 12.5576H77.5402V12.4633H77.4458V12.5576ZM77.4458 18.9057H76.5933V19.0943H77.4458V18.9057ZM76.6876 19V16.4029H76.499V19H76.6876ZM76.5605 16.3145C75.8023 16.5962 75.1444 16.7348 74.585 16.7348V16.9234C75.1741 16.9234 75.8551 16.7778 76.6262 16.4913L76.5605 16.3145ZM74.585 16.7348C74.1519 16.7348 73.7737 16.6345 73.4474 16.4365L73.3496 16.5977C73.7088 16.8157 74.1216 16.9234 74.585 16.9234V16.7348ZM73.4479 16.4368C73.12 16.235 72.9059 15.984 72.7972 15.6851L72.6199 15.7495C72.7456 16.0951 72.9914 16.3774 73.3491 16.5974L73.4479 16.4368ZM72.7974 15.6858C72.6881 15.3775 72.6315 14.9675 72.6315 14.4517H72.4428C72.4428 14.9789 72.5004 15.4126 72.6197 15.7488L72.7974 15.6858ZM72.6315 14.4517V12.5576H72.4428V14.4517H72.6315ZM72.5372 12.652H73.3897V12.4633H72.5372V12.652ZM73.2954 12.5576V14.3726H73.484V12.5576H73.2954ZM73.2954 14.3726C73.2954 14.7291 73.3276 15.0297 73.3943 15.2721C73.461 15.5143 73.5639 15.7047 73.71 15.8323L73.8341 15.6902C73.7252 15.5952 73.637 15.4428 73.5762 15.2221C73.5155 15.0016 73.484 14.7192 73.484 14.3726H73.2954ZM73.7108 15.833C73.9869 16.0683 74.318 16.1852 74.6993 16.1852V15.9965C74.3598 15.9965 74.0728 15.8937 73.8332 15.6895L73.7108 15.833ZM74.6993 16.1852C75.314 16.1852 75.9573 16.0487 76.6285 15.7784L76.5581 15.6035C75.9051 15.8664 75.2857 15.9965 74.6993 15.9965V16.1852ZM76.6876 15.6909V12.5576H76.499V15.6909H76.6876ZM76.5933 12.652H77.4458V12.4633H76.5933V12.652ZM77.3515 12.5576V19H77.5402V12.5576H77.3515ZM78.1446 19L78.0565 18.9662L78.0073 19.0943H78.1446V19ZM80.6187 12.5576V12.4633H80.5539L80.5307 12.5238L80.6187 12.5576ZM81.5372 12.5576L81.6244 12.5219L81.6005 12.4633H81.5372V12.5576ZM84.1739 19V19.0943H84.3144L84.2612 18.9643L84.1739 19ZM83.2027 19L83.1147 19.0339L83.1379 19.0943H83.2027V19ZM82.4512 17.0489L82.5392 17.015L82.516 16.9545H82.4512V17.0489ZM79.7574 17.0489V16.9545H79.6912L79.6687 17.0167L79.7574 17.0489ZM79.0499 19V19.0943H79.116L79.1385 19.0322L79.0499 19ZM80.0035 16.3545L79.9151 16.3214L79.8674 16.4488H80.0035V16.3545ZM82.1875 16.3545V16.4488H82.3239L82.2758 16.3213L82.1875 16.3545ZM81.5152 14.5703L81.6034 14.5371L81.6034 14.537L81.5152 14.5703ZM81.0582 13.2344L81.1488 13.2085L80.9656 13.216L81.0582 13.2344ZM80.711 14.4649L80.7993 14.4979L80.7995 14.4974L80.711 14.4649ZM78.2326 19.0338L80.7067 12.5915L80.5307 12.5238L78.0565 18.9662L78.2326 19.0338ZM80.6187 12.652H81.5372V12.4633H80.6187V12.652ZM81.4499 12.5934L84.0866 19.0357L84.2612 18.9643L81.6244 12.5219L81.4499 12.5934ZM84.1739 18.9057H83.2027V19.0943H84.1739V18.9057ZM83.2907 18.9661L82.5392 17.015L82.3632 17.0827L83.1147 19.0339L83.2907 18.9661ZM82.4512 16.9545H79.7574V17.1432H82.4512V16.9545ZM79.6687 17.0167L78.9612 18.9679L79.1385 19.0322L79.846 17.081L79.6687 17.0167ZM79.0499 18.9057H78.1446V19.0943H79.0499V18.9057ZM80.0035 16.4488H82.1875V16.2602H80.0035V16.4488ZM82.2758 16.3213L81.6034 14.5371L81.4269 14.6036L82.0993 16.3878L82.2758 16.3213ZM81.6034 14.537C81.3988 13.9962 81.2474 13.5536 81.1488 13.2085L80.9675 13.2603C81.0681 13.6125 81.2214 14.0605 81.427 14.6037L81.6034 14.537ZM80.9656 13.216C80.8846 13.6242 80.7702 14.0296 80.6224 14.4324L80.7995 14.4974C80.9506 14.0857 81.0676 13.6708 81.1507 13.2528L80.9656 13.216ZM80.6227 14.4318L79.9151 16.3214L80.0918 16.3876L80.7993 14.4979L80.6227 14.4318ZM85.7911 19H85.6968V19.0943H85.7911V19ZM85.7911 13.3179H85.8854V13.2236H85.7911V13.3179ZM83.6685 13.3179H83.5742V13.4122H83.6685V13.3179ZM83.6685 12.5576V12.4633H83.5742V12.5576H83.6685ZM88.7749 12.5576H88.8693V12.4633H88.7749V12.5576ZM88.7749 13.3179V13.4122H88.8693V13.3179H88.7749ZM86.6436 13.3179V13.2236H86.5493V13.3179H86.6436ZM86.6436 19V19.0943H86.7379V19H86.6436ZM85.8854 19V13.3179H85.6968V19H85.8854ZM85.7911 13.2236H83.6685V13.4122H85.7911V13.2236ZM83.7628 13.3179V12.5576H83.5742V13.3179H83.7628ZM83.6685 12.652H88.7749V12.4633H83.6685V12.652ZM88.6806 12.5576V13.3179H88.8693V12.5576H88.6806ZM88.7749 13.2236H86.6436V13.4122H88.7749V13.2236ZM86.5493 13.3179V19H86.7379V13.3179H86.5493ZM86.6436 18.9057H85.7911V19.0943H86.6436V18.9057ZM89.6846 12.5576V12.4633H89.5903V12.5576H89.6846ZM90.5372 12.5576H90.6315V12.4633H90.5372V12.5576ZM90.5372 15.3086H90.4428V15.4029H90.5372V15.3086ZM89.6846 19H89.5903V19.0943H89.6846V19ZM90.5372 18.2749H90.4428V18.3692H90.5372V18.2749ZM93.3321 17.9409L93.2605 17.8796L93.2604 17.8796L93.3321 17.9409ZM93.4112 16.4732L93.336 16.5302L93.3371 16.5315L93.4112 16.4732ZM90.5372 16.0425V15.9482H90.4428V16.0425H90.5372ZM89.6846 12.652H90.5372V12.4633H89.6846V12.652ZM90.4428 12.5576V15.3086H90.6315V12.5576H90.4428ZM90.5372 15.4029H92.0752V15.2143H90.5372V15.4029ZM92.0752 15.4029C92.7899 15.4029 93.2907 15.4868 93.5919 15.6428L93.6787 15.4754C93.3354 15.2975 92.7961 15.2143 92.0752 15.2143V15.4029ZM93.5919 15.6428C93.8988 15.8019 94.1144 16.0152 94.2449 16.2817L94.4143 16.1988C94.2636 15.8911 94.0164 15.6503 93.6787 15.4754L93.5919 15.6428ZM94.2449 16.2817C94.3796 16.5566 94.4463 16.8384 94.4463 17.128H94.6349C94.6349 16.8082 94.561 16.4981 94.4143 16.1988L94.2449 16.2817ZM94.4463 17.128C94.4463 17.6022 94.2853 18.0162 93.9609 18.3742L94.1007 18.5009C94.456 18.1088 94.6349 17.6498 94.6349 17.128H94.4463ZM93.9609 18.3742C93.6491 18.7182 93.0518 18.9057 92.1324 18.9057V19.0943C93.0645 19.0943 93.7328 18.9068 94.1007 18.5009L93.9609 18.3742ZM92.1324 18.9057H89.6846V19.0943H92.1324V18.9057ZM89.7789 19V12.5576H89.5903V19H89.7789ZM90.5372 18.3692H92.0972V18.1806H90.5372V18.3692ZM92.0972 18.3692C92.4183 18.3692 92.6885 18.3411 92.9052 18.2825C93.1214 18.224 93.2918 18.1332 93.4037 18.0022L93.2604 17.8796C93.182 17.9714 93.0513 18.0475 92.8559 18.1004C92.661 18.1531 92.4089 18.1806 92.0972 18.1806V18.3692ZM93.4037 18.0023C93.6127 17.7585 93.7164 17.4653 93.7164 17.128H93.5278C93.5278 17.4234 93.4382 17.6722 93.2605 17.8796L93.4037 18.0023ZM93.7164 17.128C93.7164 16.852 93.6407 16.6124 93.4853 16.4148L93.3371 16.5315C93.4629 16.6914 93.5278 16.8883 93.5278 17.128H93.7164ZM93.4863 16.4162C93.3347 16.2161 93.1305 16.0871 92.8784 16.0297L92.8365 16.2136C93.0473 16.2616 93.2123 16.3669 93.336 16.5301L93.4863 16.4162ZM92.8784 16.0297C92.6357 15.9743 92.2337 15.9482 91.6797 15.9482V16.1368C92.2332 16.1368 92.6164 16.1634 92.8365 16.2136L92.8784 16.0297ZM91.6797 15.9482H90.5372V16.1368H91.6797V15.9482ZM90.4428 16.0425V18.2749H90.6315V16.0425H90.4428ZM100.394 13.3311L100.398 13.4253L100.488 13.4215V13.3311H100.394ZM100.394 12.5049V12.4106H100.3V12.5049H100.394ZM101.194 12.5049H101.288V12.4106H101.194V12.5049ZM101.194 13.3311H101.1V13.4205L101.189 13.4253L101.194 13.3311ZM103.136 14.0738L103.071 14.1421L103.072 14.1423L103.136 14.0738ZM101.194 18.1695L101.189 18.0753L101.1 18.0802V18.1695H101.194ZM101.194 19V19.0943H101.288V19H101.194ZM100.394 19H100.3V19.0943H100.394V19ZM100.394 18.1695H100.488V18.0787L100.398 18.0752L100.394 18.1695ZM98.4913 17.4751L98.4297 17.5466L98.4299 17.5468L98.4913 17.4751ZM98.4869 14.0254L98.4258 13.9535L98.4256 13.9537L98.4869 14.0254ZM101.194 14.0606L101.199 13.9664L101.1 13.9607V14.0606H101.194ZM101.194 17.4356H101.1V17.5345L101.198 17.5298L101.194 17.4356ZM102.503 14.5528L102.438 14.621L102.439 14.6214L102.503 14.5528ZM100.394 14.065H100.488V13.9664L100.39 13.9707L100.394 14.065ZM99.0977 16.9566L99.0343 17.0264L99.0346 17.0266L99.0977 16.9566ZM100.394 17.4312L100.39 17.5254L100.488 17.5297V17.4312H100.394ZM100.488 13.3311V12.5049H100.3V13.3311H100.488ZM100.394 12.5992H101.194V12.4106H100.394V12.5992ZM101.1 12.5049V13.3311H101.288V12.5049H101.1ZM101.189 13.4253C101.993 13.4683 102.617 13.71 103.071 14.1421L103.201 14.0054C102.707 13.5351 102.036 13.2817 101.199 13.2369L101.189 13.4253ZM103.072 14.1423C103.527 14.5723 103.754 15.1054 103.754 15.7481H103.943C103.943 15.0548 103.695 14.4717 103.201 14.0052L103.072 14.1423ZM103.754 15.7481C103.754 16.3765 103.534 16.9075 103.092 17.3467L103.225 17.4805C103.703 17.0056 103.943 16.4263 103.943 15.7481H103.754ZM103.092 17.3467C102.653 17.7829 102.023 18.0293 101.189 18.0753L101.199 18.2636C102.064 18.2159 102.744 17.9584 103.225 17.4805L103.092 17.3467ZM101.1 18.1695V19H101.288V18.1695H101.1ZM101.194 18.9057H100.394V19.0943H101.194V18.9057ZM100.488 19V18.1695H100.3V19H100.488ZM100.398 18.0752C99.654 18.0466 99.041 17.8213 98.5526 17.4035L98.4299 17.5468C98.9552 17.9961 99.6107 18.2337 100.39 18.2637L100.398 18.0752ZM98.5528 17.4037C98.0683 16.9864 97.8253 16.4376 97.8253 15.7481H97.6367C97.6367 16.4882 97.9005 17.0908 98.4297 17.5466L98.5528 17.4037ZM97.8253 15.7481C97.8253 15.0553 98.0671 14.5082 98.5481 14.0971L98.4256 13.9537C97.8988 14.4039 97.6367 15.0053 97.6367 15.7481H97.8253ZM98.5479 14.0973C99.0364 13.6822 99.6511 13.4568 100.398 13.4253L100.39 13.2369C99.6078 13.2698 98.951 13.5073 98.4258 13.9535L98.5479 14.0973ZM101.1 14.0606V17.4356H101.288V14.0606H101.1ZM101.198 17.5298C101.765 17.5026 102.222 17.3376 102.559 17.0258L102.431 16.8874C102.135 17.1614 101.724 17.3158 101.189 17.3414L101.198 17.5298ZM102.559 17.0258C102.898 16.7116 103.064 16.2816 103.064 15.7481H102.875C102.875 16.2399 102.724 16.6156 102.431 16.8874L102.559 17.0258ZM103.064 15.7481C103.064 15.2233 102.901 14.7982 102.568 14.4842L102.439 14.6214C102.727 14.8933 102.875 15.265 102.875 15.7481H103.064ZM102.569 14.4845C102.237 14.1689 101.777 13.9995 101.199 13.9664L101.188 14.1547C101.736 14.1861 102.149 14.3448 102.438 14.621L102.569 14.4845ZM100.39 13.9707C99.8428 13.9949 99.3915 14.1573 99.044 14.4645L99.169 14.6058C99.4777 14.3329 99.8848 14.1819 100.398 14.1592L100.39 13.9707ZM99.044 14.4645C98.6919 14.7758 98.52 15.2079 98.52 15.7481H98.7086C98.7086 15.2511 98.8648 14.8747 99.169 14.6058L99.044 14.4645ZM98.52 15.7481C98.52 16.2822 98.6888 16.7123 99.0343 17.0264L99.1611 16.8868C98.862 16.6149 98.7086 16.2393 98.7086 15.7481H98.52ZM99.0346 17.0266C99.3796 17.3374 99.8343 17.5012 100.39 17.5254L100.398 17.337C99.8758 17.3142 99.4662 17.1616 99.1608 16.8865L99.0346 17.0266ZM100.488 17.4312V14.065H100.3V17.4312H100.488ZM104.002 19L103.914 18.9662L103.865 19.0943H104.002V19ZM106.476 12.5576V12.4633H106.411L106.388 12.5238L106.476 12.5576ZM107.395 12.5576L107.482 12.5219L107.458 12.4633H107.395V12.5576ZM110.031 19V19.0943H110.172L110.119 18.9643L110.031 19ZM109.06 19L108.972 19.0339L108.995 19.0943H109.06V19ZM108.309 17.0489L108.397 17.015L108.373 16.9545H108.309V17.0489ZM105.615 17.0489V16.9545H105.549L105.526 17.0167L105.615 17.0489ZM104.907 19V19.0943H104.973L104.996 19.0322L104.907 19ZM105.861 16.3545L105.773 16.3214L105.725 16.4488H105.861V16.3545ZM108.045 16.3545V16.4488H108.181L108.133 16.3213L108.045 16.3545ZM107.373 14.5703L107.461 14.5371L107.461 14.537L107.373 14.5703ZM106.916 13.2344L107.006 13.2085L106.823 13.216L106.916 13.2344ZM106.568 14.4649L106.657 14.4979L106.657 14.4974L106.568 14.4649ZM104.09 19.0338L106.564 12.5915L106.388 12.5238L103.914 18.9662L104.09 19.0338ZM106.476 12.652H107.395V12.4633H106.476V12.652ZM107.307 12.5934L109.944 19.0357L110.119 18.9643L107.482 12.5219L107.307 12.5934ZM110.031 18.9057H109.06V19.0943H110.031V18.9057ZM109.148 18.9661L108.397 17.015L108.221 17.0827L108.972 19.0339L109.148 18.9661ZM108.309 16.9545H105.615V17.1432H108.309V16.9545ZM105.526 17.0167L104.819 18.9679L104.996 19.0322L105.703 17.081L105.526 17.0167ZM104.907 18.9057H104.002V19.0943H104.907V18.9057ZM105.861 16.4488H108.045V16.2602H105.861V16.4488ZM108.133 16.3213L107.461 14.5371L107.284 14.6036L107.957 16.3878L108.133 16.3213ZM107.461 14.537C107.256 13.9962 107.105 13.5536 107.006 13.2085L106.825 13.2603C106.926 13.6125 107.079 14.0605 107.284 14.6037L107.461 14.537ZM106.823 13.216C106.742 13.6242 106.628 14.0296 106.48 14.4324L106.657 14.4974C106.808 14.0857 106.925 13.6708 107.008 13.2528L106.823 13.216ZM106.48 14.4318L105.773 16.3214L105.949 16.3876L106.657 14.4979L106.48 14.4318ZM110.726 12.5576V12.4633H110.631V12.5576H110.726ZM111.499 12.5576H111.593V12.4633H111.499V12.5576ZM111.499 17.6597H111.405V17.9692L111.577 17.7123L111.499 17.6597ZM114.927 12.5576V12.4633H114.877L114.849 12.505L114.927 12.5576ZM115.784 12.5576H115.878V12.4633H115.784V12.5576ZM115.784 19V19.0943H115.878V19H115.784ZM115.01 19H114.916V19.0943H115.01V19ZM115.01 13.9112H115.105V13.6027L114.932 13.8584L115.01 13.9112ZM111.578 19V19.0943H111.628L111.656 19.0528L111.578 19ZM110.726 19H110.631V19.0943H110.726V19ZM113.929 11.0239V10.9296H113.852L113.837 11.0055L113.929 11.0239ZM114.47 11.0239L114.563 11.0352L114.576 10.9296H114.47V11.0239ZM114.065 11.8677L114.004 11.7965L114.003 11.797L114.065 11.8677ZM112.273 11.8721L112.21 11.9428L112.211 11.9437L112.273 11.8721ZM111.873 11.0239V10.9296H111.766L111.779 11.0351L111.873 11.0239ZM112.413 11.0239L112.506 11.0049L112.49 10.9296H112.413V11.0239ZM112.655 11.4722L112.595 11.5448L112.597 11.5463L112.655 11.4722ZM113.683 11.4766L113.741 11.5509L113.741 11.5507L113.683 11.4766ZM110.726 12.652H111.499V12.4633H110.726V12.652ZM111.405 12.5576V17.6597H111.593V12.5576H111.405ZM111.577 17.7123L115.005 12.6102L114.849 12.505L111.421 17.6071L111.577 17.7123ZM114.927 12.652H115.784V12.4633H114.927V12.652ZM115.689 12.5576V19H115.878V12.5576H115.689ZM115.784 18.9057H115.01V19.0943H115.784V18.9057ZM115.105 19V13.9112H114.916V19H115.105ZM114.932 13.8584L111.5 18.9473L111.656 19.0528L115.088 13.9639L114.932 13.8584ZM111.578 18.9057H110.726V19.0943H111.578V18.9057ZM110.82 19V12.5576H110.631V19H110.82ZM113.929 11.1183H114.47V10.9296H113.929V11.1183ZM114.376 11.0127C114.334 11.3614 114.208 11.619 114.004 11.7966L114.127 11.9388C114.374 11.7238 114.517 11.4189 114.563 11.0352L114.376 11.0127ZM114.003 11.797C113.802 11.9745 113.529 12.0678 113.173 12.0678V12.2564C113.562 12.2564 113.884 12.1535 114.128 11.9384L114.003 11.797ZM113.173 12.0678C112.815 12.0678 112.538 11.9757 112.334 11.8005L112.211 11.9437C112.458 12.1552 112.782 12.2564 113.173 12.2564V12.0678ZM112.335 11.8013C112.134 11.624 112.008 11.3649 111.966 11.0128L111.779 11.0351C111.825 11.4212 111.966 11.7276 112.21 11.9428L112.335 11.8013ZM111.873 11.1183H112.413V10.9296H111.873V11.1183ZM112.321 11.043C112.365 11.2568 112.454 11.4278 112.595 11.5448L112.715 11.3996C112.616 11.3173 112.544 11.1896 112.506 11.0049L112.321 11.043ZM112.597 11.5463C112.741 11.6596 112.927 11.7115 113.147 11.7115V11.5229C112.956 11.5229 112.815 11.4781 112.713 11.398L112.597 11.5463ZM113.147 11.7115C113.394 11.7115 113.597 11.6631 113.741 11.5509L113.625 11.4022C113.529 11.4776 113.374 11.5229 113.147 11.5229V11.7115ZM113.741 11.5507C113.887 11.4361 113.978 11.2621 114.022 11.0424L113.837 11.0055C113.799 11.196 113.725 11.3237 113.625 11.4024L113.741 11.5507ZM117.651 12.5576V12.4633H117.557V12.5576H117.651ZM121.686 12.5576H121.78V12.4633H121.686V12.5576ZM121.686 19V19.0943H121.78V19H121.686ZM120.833 19H120.739V19.0943H120.833V19ZM120.833 13.3179H120.927V13.2236H120.833V13.3179ZM118.504 13.3179V13.2236H118.41V13.3179H118.504ZM118.407 18.1167L118.315 18.0977L118.315 18.0986L118.407 18.1167ZM118.012 18.8506L118.073 18.9223L118.074 18.9218L118.012 18.8506ZM116.566 19.0044L116.473 18.9866L116.457 19.0729L116.542 19.0955L116.566 19.0044ZM116.711 18.2486L116.747 18.1615L116.64 18.1169L116.618 18.2308L116.711 18.2486ZM117.506 18.1211L117.585 18.1738L117.585 18.1731L117.506 18.1211ZM117.651 12.652H121.686V12.4633H117.651V12.652ZM121.591 12.5576V19H121.78V12.5576H121.591ZM121.686 18.9057H120.833V19.0943H121.686V18.9057ZM120.927 19V13.3179H120.739V19H120.927ZM120.833 13.2236H118.504V13.4122H120.833V13.2236ZM118.41 13.3179V16.6358H118.598V13.3179H118.41ZM118.41 16.6358C118.41 17.3086 118.377 17.7942 118.315 18.0977L118.5 18.1357C118.566 17.8123 118.598 17.3106 118.598 16.6358H118.41ZM118.315 18.0986C118.256 18.3956 118.133 18.6199 117.95 18.7794L118.074 18.9218C118.295 18.7297 118.435 18.4648 118.5 18.1349L118.315 18.0986ZM117.95 18.7789C117.768 18.9348 117.535 19.0156 117.243 19.0156V19.2042C117.572 19.2042 117.851 19.1121 118.073 18.9223L117.95 18.7789ZM117.243 19.0156C117.066 19.0156 116.849 18.9824 116.59 18.9133L116.542 19.0955C116.81 19.1671 117.044 19.2042 117.243 19.2042V19.0156ZM116.659 19.0222L116.804 18.2663L116.618 18.2308L116.473 18.9866L116.659 19.0222ZM116.675 18.3356C116.821 18.3967 116.954 18.4308 117.071 18.4308V18.2421C116.989 18.2421 116.882 18.2176 116.747 18.1615L116.675 18.3356ZM117.071 18.4308C117.292 18.4308 117.468 18.3468 117.585 18.1738L117.428 18.0684C117.351 18.1826 117.238 18.2421 117.071 18.2421V18.4308ZM117.585 18.1731C117.646 18.0815 117.684 17.9417 117.709 17.7673C117.734 17.5899 117.746 17.3646 117.746 17.0928H117.557C117.557 17.3601 117.545 17.5757 117.522 17.741C117.498 17.9095 117.464 18.0142 117.428 18.0692L117.585 18.1731ZM117.746 17.0928V12.5576H117.557V17.0928H117.746Z" fill="white" fill-opacity="0.8"/>
<path d="M54.7894 35.4676V33.5467H56.7103V35.4676H54.7894ZM67.7367 35.4676H65.5355L64.6605 33.1912H60.6546L59.8275 35.4676H57.681L61.5843 25.4461H63.724L67.7367 35.4676ZM64.0111 31.5028L62.6302 27.784L61.2767 31.5028H64.0111ZM68.8167 35.4676V25.4461H72.0638C73.2943 25.4461 74.0964 25.4962 74.4701 25.5965C75.0443 25.7469 75.5251 26.075 75.9124 26.5809C76.2998 27.0822 76.4935 27.7316 76.4935 28.5291C76.4935 29.1444 76.3818 29.6616 76.1585 30.0809C75.9352 30.5002 75.6504 30.8306 75.304 31.0721C74.9622 31.3091 74.6136 31.4663 74.2581 31.5438C73.7751 31.6395 73.0755 31.6873 72.1595 31.6873H70.8402V35.4676H68.8167ZM70.8402 27.1414V29.9852H71.9476C72.7451 29.9852 73.2783 29.9328 73.5472 29.828C73.8161 29.7231 74.0257 29.5591 74.1761 29.3358C74.3311 29.1125 74.4085 28.8527 74.4085 28.5565C74.4085 28.1919 74.3014 27.8911 74.0872 27.6541C73.8731 27.4171 73.6019 27.269 73.2738 27.2098C73.0322 27.1642 72.5469 27.1414 71.8177 27.1414H70.8402ZM78.182 35.4676V25.4461H80.2054V29.8963L84.2933 25.4461H87.014L83.2406 29.3494L87.2191 35.4676H84.6009L81.846 30.7645L80.2054 32.4393V35.4676H78.182Z" fill="white" fill-opacity="0.8"/>
<path fill-rule="evenodd" clip-rule="evenodd" d="M21.4321 9.11714C20.5987 9.11714 19.9231 9.79273 19.9231 10.6261V25.394C19.9231 25.8107 19.5853 26.1485 19.1686 26.1485L13.3941 26.1485C12.7107 26.1485 12.3794 26.9845 12.8773 27.4526L24.9318 38.787C25.6579 39.4697 26.7898 39.4697 27.5159 38.787L39.5704 27.4526C40.0683 26.9845 39.737 26.1485 39.0536 26.1485L33.9808 26.1485C33.5641 26.1485 33.2263 25.8107 33.2263 25.394V10.6261C33.2263 9.79273 32.5507 9.11714 31.7173 9.11714H21.4321Z" fill="white" fill-opacity="0.8"/>
</svg>
