<svg width="20" height="21" viewBox="0 0 20 21" fill="none" xmlns="http://www.w3.org/2000/svg">
<path d="M12.8624 3.43717C12.8502 3.44929 12.879 3.44778 12.8805 3.44626C12.8927 3.43414 12.8638 3.43565 12.8624 3.43717Z" fill="#818181"/>
<path d="M4.29688 16.9871C4.38354 17.8279 5.32157 17.1103 5.63363 16.8896C6.25597 16.4495 6.9633 16.0686 7.51597 15.5402L8.52537 14.5319C8.67124 14.386 8.83034 14.1619 9.01646 14.0689C9.13106 14.0116 9.301 14.0408 9.42567 14.0408C9.98324 14.0408 11.0079 14.2809 11.0079 13.4952C10.4966 13.7216 9.96118 13.6589 9.39833 13.6589L10.4896 12.5677C10.6349 12.4224 10.8115 12.1654 11.0079 12.0931C11.5046 11.9099 12.1558 12.1876 12.672 12.062C12.9388 11.9972 13.0445 11.7212 12.9722 11.4764C12.5752 11.8387 11.8723 11.6947 11.3626 11.6947L12.4538 10.6034C12.6074 10.4499 12.7762 10.2111 12.9722 10.1132C13.0868 10.0559 13.2567 10.0851 13.3813 10.0851C13.968 10.0851 14.9636 10.3273 14.9636 9.51222C14.473 9.7878 13.9184 9.70319 13.354 9.70319C13.9453 9.11198 14.7011 8.53071 15.1819 7.8481C15.4023 8.06853 15.6295 8.39004 15.973 8.38883C16.4289 8.38719 17.1135 7.65962 16.9179 7.19337C16.7639 6.82641 16.3559 6.56689 16.0821 6.29311L14.1725 4.38347C13.8978 4.10878 13.5578 3.61165 13.1904 3.47129C12.765 3.30879 12.1705 3.83591 12.0406 4.21978C11.9082 4.61134 12.2049 4.87118 12.4538 5.12004L14.0906 6.75689L14.5817 7.24792C14.6351 7.30186 14.7395 7.37931 14.7282 7.46616C14.702 7.66531 14.2843 7.95453 14.1452 8.09362L12.4538 9.78501L8.74361 13.4952C7.99488 14.2439 7.28118 15.0856 6.39749 15.6776L5.00617 16.6325C4.78307 16.782 4.57787 16.9805 4.29688 16.9871Z" fill="#575757"/>
<path d="M13.1045 3.43717C13.0924 3.44929 13.1212 3.44777 13.1227 3.44626C13.1348 3.43414 13.106 3.43565 13.1045 3.43717Z" fill="#818181"/>
<path d="M12.001 4.31901C11.9995 4.32053 11.998 4.34933 12.0101 4.3372C12.0116 4.33569 12.0131 4.30688 12.001 4.31901Z" fill="#818181"/>
<path d="M11.9922 4.35608V4.49249H12.0195C12.0171 4.43891 12.0135 4.40434 11.9922 4.35608Z" fill="#818181"/>
<path d="M12.001 4.51042C11.9995 4.51193 11.998 4.54073 12.0101 4.5286C12.0116 4.52709 12.0131 4.49829 12.001 4.51042Z" fill="#818181"/>
<path d="M12.5126 5.20081C12.086 5.62733 11.5503 6.04469 11.2031 6.53757C11.5561 6.28893 11.8527 5.91524 12.1579 5.61002C12.2702 5.49776 12.4746 5.35766 12.5126 5.20081Z" fill="#818181"/>
<path d="M12.5343 5.20081C12.0905 5.64464 11.6559 6.20359 11.143 6.56484C11.143 6.17421 11.2742 5.6089 10.8429 5.41905C10.516 5.92013 10.8547 6.48066 10.6628 7.00133C10.6036 7.16181 10.4159 7.2849 10.3051 7.41054C9.97182 7.78842 9.59122 8.23854 9.17879 8.52902C9.17879 8.26411 9.24122 7.90557 9.14213 7.65611C9.10425 7.56072 9.00049 7.41357 8.87909 7.4503C8.70297 7.50357 8.688 7.72563 8.68776 7.8743C8.68722 8.19563 8.78243 8.69133 8.67128 8.99284C8.61291 9.15114 8.42394 9.28872 8.31279 9.41357C7.98085 9.78636 7.59522 10.2332 7.18734 10.5205C7.18734 10.1299 7.31855 9.5646 6.88722 9.37472C6.66309 9.71824 6.72352 10.0941 6.72352 10.4933C6.72352 10.6478 6.76558 10.8757 6.67982 11.0116C6.52467 11.2573 6.24734 11.4878 6.04153 11.6936L4.75974 12.9758C4.34675 13.3993 4.0343 13.9595 3.7044 14.449C3.42923 14.8572 2.89383 15.3451 3.04065 15.8676C3.30357 15.6824 3.52274 15.4127 3.74995 15.1855L5.05942 13.8761L9.0697 9.86581C9.34976 9.58575 9.71679 9.04557 10.1064 8.92866C10.4635 8.82157 11.1632 9.4763 11.0716 9.83854C11.0114 10.0768 10.7905 10.2455 10.6247 10.4114L9.64255 11.3935L5.87784 15.1582L4.73205 16.3041C4.52539 16.5107 4.29835 16.6746 4.29556 16.9861C4.5925 16.9834 4.79623 16.7895 5.03214 16.6314L6.42346 15.6765C7.30716 15.0845 8.02085 14.2428 8.76958 13.4941L12.4798 9.78393L14.1712 8.09254C14.3117 7.95205 14.7222 7.66848 14.7462 7.46508C14.7673 7.28587 14.3432 6.98242 14.2257 6.8649C13.6867 6.32594 13.157 5.63939 12.5343 5.20081Z" fill="#818181"/>
<path d="M10.625 5.3927V5.41998H10.816C10.7523 5.39312 10.6943 5.39321 10.625 5.3927Z" fill="#818181"/>
<path d="M10.3046 7.41057C10.9089 6.98487 10.5939 6.37089 10.6924 5.74644C10.7118 5.62306 10.801 5.53019 10.8503 5.41907C10.6557 5.41909 10.4733 5.42483 10.3595 5.61045C10.2665 5.762 10.3046 5.98534 10.3046 6.15564V7.41057Z" fill="#575757"/>
<path d="M11.1513 5.7467C11.1513 5.93133 11.0647 6.44176 11.2059 6.56511C11.1443 6.30686 11.2526 5.98817 11.1513 5.7467Z" fill="#818181"/>
<path d="M10.2734 5.77405V7.43819H10.3007V6.31966C10.3007 6.15178 10.3388 5.92974 10.2734 5.77405Z" fill="#818181"/>
<path d="M8.30744 9.40219C8.79975 9.12025 8.68938 8.60468 8.68938 8.11995C8.68938 7.84571 8.66175 7.61534 8.90763 7.43795C8.68229 7.28401 8.38514 7.46795 8.32611 7.71074C8.20193 8.22165 8.30744 8.87637 8.30744 9.40219Z" fill="#575757"/>
<path d="M8.32132 7.70185C8.31981 7.7033 8.31829 7.73215 8.33047 7.71997C8.33193 7.71851 8.33344 7.68966 8.32132 7.70185Z" fill="#818181"/>
<path d="M9.16507 7.70136C9.16356 7.70281 9.16204 7.73166 9.17422 7.71948C9.17568 7.71802 9.17725 7.68918 9.16507 7.70136Z" fill="#818181"/>
<path d="M15.8623 8.37418C15.8502 8.3863 15.879 8.38479 15.8805 8.38327C15.8926 8.37115 15.8639 8.37266 15.8623 8.37418Z" fill="#818181"/>
<path d="M10.8507 9.34777C10.787 9.25729 10.7121 9.17983 10.6325 9.10262C10.035 8.52274 9.36055 9.55577 8.96837 9.94795L4.68533 14.231L3.43042 15.4859C3.31779 15.5985 2.98078 15.8246 3.16177 15.9935C3.34725 16.1665 3.64165 16.0853 3.81234 15.9414C4.27808 15.5485 4.69094 15.071 5.12182 14.6402L9.21388 10.5481C9.62691 10.135 10.216 9.2168 10.8507 9.34777Z" fill="#575757"/>
<path d="M13.7959 9.21155C13.6691 9.39161 13.4862 9.52258 13.3594 9.70264C13.7805 9.70264 14.2226 9.74161 14.6416 9.69973C14.7656 9.68737 14.9692 9.58664 14.9065 9.43021C14.769 9.08694 14.0792 9.279 13.7959 9.21155Z" fill="#818181"/>
<path d="M13.8203 9.21167V9.23894H14.6387C14.417 9.14585 14.0607 9.21167 13.8203 9.21167Z" fill="#818181"/>
<path d="M10.5342 9.3024C10.5221 9.31458 10.5509 9.31301 10.5524 9.31155C10.5645 9.29937 10.5357 9.30088 10.5342 9.3024Z" fill="#818181"/>
<path d="M10.5781 9.29407V9.3214H10.6873C10.6462 9.30273 10.6241 9.29886 10.5781 9.29407Z" fill="#818181"/>
<path d="M6.67188 9.34778V9.37511H6.86284C6.79921 9.3482 6.74127 9.34832 6.67188 9.34778Z" fill="#818181"/>
<path d="M6.35151 11.3661C6.95576 10.9405 6.64079 10.3265 6.73927 9.70197C6.75873 9.57857 6.84788 9.48572 6.89709 9.37463C6.70255 9.37463 6.52018 9.38039 6.4063 9.56597C6.31333 9.71754 6.35151 9.94088 6.35151 10.1112V11.3661Z" fill="#575757"/>
<path d="M14.9688 9.56555V9.72925H14.996C14.9948 9.66779 14.9926 9.62155 14.9688 9.56555Z" fill="#818181"/>
<path d="M11.0625 9.64807V9.81177H11.0898C11.0885 9.75031 11.0863 9.70407 11.0625 9.64807Z" fill="#818181"/>
<path d="M7.19817 9.70129C7.19817 9.88596 7.11156 10.3964 7.25271 10.5197C7.19126 10.2615 7.2995 9.94275 7.19817 9.70129Z" fill="#818181"/>
<path d="M6.32031 9.72864V11.3928H6.34765V10.2743C6.34765 10.1064 6.38571 9.88433 6.32031 9.72864Z" fill="#818181"/>
<path d="M11.0791 9.82977C11.0776 9.83123 11.0761 9.86008 11.0882 9.8479C11.0897 9.84644 11.0913 9.81759 11.0791 9.82977Z" fill="#818181"/>
<path d="M12.9531 10.0844V10.1117H14.6172C14.4615 10.0463 14.2395 10.0844 14.0717 10.0844H12.9531Z" fill="#818181"/>
<path d="M11.8309 11.1754C11.6968 11.3659 11.5014 11.5032 11.3672 11.6937C11.7788 11.6937 12.213 11.7337 12.6221 11.689C12.7463 11.6755 12.9928 11.5924 12.9346 11.4214C12.8099 11.0554 12.1129 11.2425 11.8309 11.1754Z" fill="#818181"/>
<path d="M12.667 11.2116C12.6549 11.2237 12.6837 11.2222 12.6852 11.2207C12.6973 11.2086 12.6685 11.2101 12.667 11.2116Z" fill="#818181"/>
<path d="M9.84273 13.1676C9.71589 13.3476 9.53304 13.4786 9.40625 13.6586C9.91922 13.6586 10.5766 13.7815 11.0158 13.4949C10.8057 13.0176 10.2479 13.264 9.84273 13.1676Z" fill="#818181"/>
<path d="M9.85938 13.1675V13.1948H10.6505C10.4353 13.1045 10.0926 13.1675 9.85938 13.1675Z" fill="#818181"/>
<path d="M11.0156 13.5211V13.6848H11.0429C11.0416 13.6233 11.0395 13.5771 11.0156 13.5211Z" fill="#818181"/>
<path d="M8.99219 14.04V14.0672H10.6563C10.5006 14.0019 10.2786 14.04 10.1107 14.04H8.99219Z" fill="#818181"/>
<path d="M3.00101 15.5309C2.99949 15.5324 2.99798 15.5612 3.0101 15.5491C3.01162 15.5476 3.01313 15.5188 3.00101 15.5309Z" fill="#818181"/>
<path d="M3.00101 15.7214C2.99949 15.7229 2.99798 15.7517 3.0101 15.7395C3.01162 15.738 3.01313 15.7092 3.00101 15.7214Z" fill="#818181"/>
<path d="M3.375 16.0851V16.1124H3.51141C3.46315 16.0911 3.42858 16.0875 3.375 16.0851Z" fill="#818181"/>
<path d="M4.27344 16.8488V17.0125H4.30072C4.29943 16.951 4.29729 16.9048 4.27344 16.8488Z" fill="#818181"/>
</svg>
