<svg width="48" height="48" viewBox="0 0 48 48" fill="none" xmlns="http://www.w3.org/2000/svg">
<path d="M30.82 4H8V44H40V13.18L30.82 4Z" fill="#2363D1"/>
<path d="M11.9793 29.6H14.4393C15.0713 29.6 15.6353 29.688 16.1313 29.864C16.6273 30.032 17.0473 30.284 17.3913 30.62C17.7353 30.956 17.9993 31.376 18.1833 31.88C18.3673 32.384 18.4593 32.964 18.4593 33.62V33.86C18.4593 34.532 18.3633 35.128 18.1713 35.648C17.9873 36.16 17.7153 36.592 17.3553 36.944C17.0033 37.288 16.5713 37.552 16.0593 37.736C15.5473 37.912 14.9673 38 14.3193 38H11.9793V29.6ZM14.1993 37.016C14.6713 37.016 15.0953 36.956 15.4713 36.836C15.8553 36.716 16.1793 36.532 16.4433 36.284C16.7073 36.028 16.9073 35.7 17.0433 35.3C17.1873 34.9 17.2593 34.42 17.2593 33.86V33.62C17.2593 33.084 17.1913 32.624 17.0553 32.24C16.9193 31.856 16.7233 31.544 16.4673 31.304C16.2113 31.056 15.8993 30.876 15.5313 30.764C15.1713 30.644 14.7673 30.584 14.3193 30.584H13.1073V37.016H14.1993ZM23.6216 38.12C23.1416 38.12 22.6776 38.04 22.2296 37.88C21.7816 37.712 21.3856 37.456 21.0416 37.112C20.6976 36.768 20.4216 36.328 20.2136 35.792C20.0056 35.256 19.9016 34.612 19.9016 33.86V33.62C19.9016 32.9 20.0056 32.28 20.2136 31.76C20.4216 31.24 20.6976 30.812 21.0416 30.476C21.3856 30.132 21.7816 29.88 22.2296 29.72C22.6776 29.56 23.1416 29.48 23.6216 29.48C24.1016 29.48 24.5656 29.56 25.0136 29.72C25.4616 29.88 25.8576 30.132 26.2016 30.476C26.5456 30.812 26.8216 31.24 27.0296 31.76C27.2376 32.28 27.3416 32.9 27.3416 33.62V33.86C27.3416 34.612 27.2376 35.256 27.0296 35.792C26.8216 36.328 26.5456 36.768 26.2016 37.112C25.8576 37.456 25.4616 37.712 25.0136 37.88C24.5656 38.04 24.1016 38.12 23.6216 38.12ZM23.6216 37.112C23.9496 37.112 24.2656 37.052 24.5696 36.932C24.8736 36.812 25.1416 36.624 25.3736 36.368C25.6056 36.104 25.7896 35.768 25.9256 35.36C26.0696 34.944 26.1416 34.444 26.1416 33.86V33.62C26.1416 33.068 26.0696 32.596 25.9256 32.204C25.7896 31.804 25.6056 31.48 25.3736 31.232C25.1416 30.976 24.8736 30.788 24.5696 30.668C24.2656 30.548 23.9496 30.488 23.6216 30.488C23.2936 30.488 22.9776 30.548 22.6736 30.668C22.3696 30.788 22.1016 30.976 21.8696 31.232C21.6376 31.48 21.4496 31.804 21.3056 32.204C21.1696 32.596 21.1016 33.068 21.1016 33.62V33.86C21.1016 34.444 21.1696 34.944 21.3056 35.36C21.4496 35.768 21.6376 36.104 21.8696 36.368C22.1016 36.624 22.3696 36.812 22.6736 36.932C22.9776 37.052 23.2936 37.112 23.6216 37.112ZM32.3245 38.12C31.8525 38.12 31.4045 38.04 30.9805 37.88C30.5565 37.712 30.1805 37.456 29.8525 37.112C29.5245 36.76 29.2645 36.316 29.0725 35.78C28.8805 35.244 28.7845 34.604 28.7845 33.86V33.62C28.7845 32.9 28.8805 32.28 29.0725 31.76C29.2645 31.24 29.5245 30.812 29.8525 30.476C30.1805 30.14 30.5565 29.892 30.9805 29.732C31.4045 29.564 31.8525 29.48 32.3245 29.48C32.7805 29.48 33.1965 29.54 33.5725 29.66C33.9565 29.78 34.2925 29.952 34.5805 30.176C34.8685 30.4 35.1005 30.676 35.2765 31.004C35.4605 31.332 35.5765 31.704 35.6245 32.12H34.4245C34.3125 31.576 34.0765 31.168 33.7165 30.896C33.3565 30.624 32.8925 30.488 32.3245 30.488C32.0285 30.488 31.7405 30.544 31.4605 30.656C31.1805 30.768 30.9285 30.948 30.7045 31.196C30.4885 31.436 30.3125 31.756 30.1765 32.156C30.0485 32.556 29.9845 33.044 29.9845 33.62V33.86C29.9845 34.468 30.0565 34.98 30.2005 35.396C30.3445 35.804 30.5285 36.136 30.7525 36.392C30.9765 36.648 31.2285 36.832 31.5085 36.944C31.7885 37.056 32.0605 37.112 32.3245 37.112C32.9485 37.112 33.4365 36.96 33.7885 36.656C34.1405 36.352 34.3525 35.96 34.4245 35.48H35.6245C35.5605 35.944 35.4325 36.344 35.2405 36.68C35.0485 37.008 34.8045 37.28 34.5085 37.496C34.2205 37.712 33.8885 37.872 33.5125 37.976C33.1445 38.072 32.7485 38.12 32.3245 38.12Z" fill="white"/>
</svg>
