<svg width="134" height="48" viewBox="0 0 134 48" fill="none" xmlns="http://www.w3.org/2000/svg">
<path fill-rule="evenodd" clip-rule="evenodd" d="M32.9829 27.7369L29.6115 24.3655L17.6498 36.3272L32.9829 27.7369ZM34.1434 27.0868L38.2623 24.7792C39.3005 24.1975 39.3005 22.7033 38.2623 22.1216L34.1559 19.8211L30.5168 23.4602L34.1434 27.0868ZM32.9955 19.171L17.6052 10.5487L29.6115 22.5549L32.9955 19.171ZM14.1699 8.92384L28.7063 23.4602L14.1901 37.9764C12.9672 38.0167 11.8288 37.0486 11.8288 35.6897L11.8288 11.2111C11.8288 9.85967 12.9548 8.89474 14.1699 8.92384Z" fill="white" fill-opacity="0.8"/>
<path d="M47.9919 13.5576H51.9118V19.2397H52.4919V21.5029H51.7316V20H47.4733V21.5029H46.713V19.2397H47.214C47.7326 18.4575 47.9919 16.8769 47.9919 14.498V13.5576ZM51.0592 14.3179H48.8136V14.6474C48.8136 15.1953 48.7638 15.9453 48.6642 16.8974C48.5675 17.8467 48.3756 18.6274 48.0885 19.2397H51.0592V14.3179ZM53.2477 16.8623C53.2477 15.793 53.5348 14.9565 54.109 14.353C54.6833 13.7466 55.4245 13.4433 56.3327 13.4433C56.9274 13.4433 57.4635 13.5854 57.9411 13.8696C58.4186 14.1538 58.7819 14.5508 59.0309 15.0605C59.2829 15.5674 59.4088 16.1431 59.4088 16.7876C59.4088 17.4409 59.277 18.0254 59.0133 18.541C58.7497 19.0566 58.3761 19.4477 57.8927 19.7143C57.4093 19.978 56.8878 20.1098 56.3283 20.1098C55.7218 20.1098 55.1798 19.9634 54.7023 19.6704C54.2248 19.3774 53.8629 18.9775 53.6169 18.4707C53.3708 17.9639 53.2477 17.4277 53.2477 16.8623ZM54.1266 16.8755C54.1266 17.6518 54.3346 18.2641 54.7506 18.7124C55.1696 19.1577 55.694 19.3804 56.3239 19.3804C56.9655 19.3804 57.4928 19.1548 57.9059 18.7036C58.3219 18.2524 58.5299 17.6123 58.5299 16.7832C58.5299 16.2588 58.4406 15.8017 58.2619 15.4121C58.0861 15.0195 57.8268 14.7163 57.484 14.5024C57.1442 14.2856 56.7619 14.1772 56.3371 14.1772C55.7336 14.1772 55.2135 14.3852 54.777 14.8013C54.3434 15.2143 54.1266 15.9057 54.1266 16.8755ZM65.1086 17.7412L65.9611 17.9565C65.7824 18.6567 65.4601 19.1914 64.9943 19.5605C64.5314 19.9267 63.9645 20.1098 63.2936 20.1098C62.5993 20.1098 62.0338 19.9692 61.5973 19.688C61.1637 19.4038 60.8327 18.9936 60.6042 18.4575C60.3786 17.9214 60.2658 17.3457 60.2658 16.7305C60.2658 16.0596 60.3932 15.4751 60.6481 14.977C60.9059 14.4761 61.2707 14.0967 61.7423 13.8389C62.2169 13.5781 62.7384 13.4477 63.3068 13.4477C63.9513 13.4477 64.4933 13.6118 64.9328 13.9399C65.3722 14.2681 65.6784 14.7295 65.8512 15.3242L65.0119 15.522C64.8625 15.0532 64.6457 14.7119 64.3615 14.498C64.0773 14.2842 63.7199 14.1772 63.2892 14.1772C62.7941 14.1772 62.3795 14.2959 62.0456 14.5332C61.7145 14.7705 61.4816 15.0898 61.3468 15.4912C61.2121 15.8896 61.1447 16.3013 61.1447 16.7261C61.1447 17.2739 61.2238 17.7529 61.382 18.1631C61.5431 18.5703 61.7921 18.875 62.1291 19.0771C62.466 19.2793 62.8307 19.3804 63.2233 19.3804C63.7008 19.3804 64.1051 19.2427 64.4362 18.9673C64.7672 18.6919 64.9914 18.2832 65.1086 17.7412ZM68.3561 20V14.3179H66.2336V13.5576H71.34V14.3179H69.2086V20H68.3561ZM71.5685 13.5576H72.4298L74.5304 17.5039L76.3673 13.5576H77.2155L74.7985 18.5674C74.4967 19.1943 74.2492 19.6045 74.0558 19.7978C73.8625 19.9912 73.5856 20.0879 73.2253 20.0879C73.0055 20.0879 72.736 20.0366 72.4167 19.9341V19.2046C72.6452 19.3364 72.8869 19.4023 73.1418 19.4023C73.3498 19.4023 73.5285 19.3364 73.6779 19.2046C73.8302 19.0698 73.9972 18.7651 74.1789 18.2905L71.5685 13.5576ZM77.9494 13.5576H83.0163V20H82.1593V14.3179H78.8019V20H77.9494V13.5576ZM84.4357 20V13.5576H85.2882V16.2031H88.6369V13.5576H89.4894V20H88.6369V16.9634H85.2882V20H84.4357ZM90.654 16.8623C90.654 15.793 90.9411 14.9565 91.5153 14.353C92.0895 13.7466 92.8307 13.4433 93.7389 13.4433C94.3336 13.4433 94.8698 13.5854 95.3473 13.8696C95.8249 14.1538 96.1881 14.5508 96.4372 15.0605C96.6891 15.5674 96.8151 16.1431 96.8151 16.7876C96.8151 17.4409 96.6833 18.0254 96.4196 18.541C96.1559 19.0566 95.7824 19.4477 95.299 19.7143C94.8156 19.978 94.2941 20.1098 93.7345 20.1098C93.1281 20.1098 92.5861 19.9634 92.1086 19.6704C91.631 19.3774 91.2692 18.9775 91.0231 18.4707C90.777 17.9639 90.654 17.4277 90.654 16.8623ZM91.5329 16.8755C91.5329 17.6518 91.7409 18.2641 92.1569 18.7124C92.5758 19.1577 93.1003 19.3804 93.7301 19.3804C94.3717 19.3804 94.8991 19.1548 95.3122 18.7036C95.7282 18.2524 95.9362 17.6123 95.9362 16.7832C95.9362 16.2588 95.8468 15.8017 95.6681 15.4121C95.4923 15.0195 95.2331 14.7163 94.8903 14.5024C94.5504 14.2856 94.1681 14.1772 93.7433 14.1772C93.1398 14.1772 92.6198 14.3852 92.1833 14.8013C91.7497 15.2143 91.5329 15.9057 91.5329 16.8755ZM100.388 20V13.5576H102.805C103.297 13.5576 103.691 13.6235 103.987 13.7554C104.286 13.8843 104.519 14.0849 104.686 14.3574C104.856 14.6269 104.941 14.9097 104.941 15.2056C104.941 15.4809 104.866 15.7402 104.716 15.9834C104.567 16.2265 104.341 16.4228 104.04 16.5723C104.429 16.6865 104.728 16.8813 104.936 17.1567C105.147 17.4321 105.253 17.7573 105.253 18.1323C105.253 18.4341 105.188 18.7153 105.059 18.9761C104.933 19.2339 104.777 19.4331 104.589 19.5737C104.402 19.7143 104.166 19.8213 103.882 19.8945C103.6 19.9648 103.255 20 102.844 20H100.388ZM101.24 16.2646H102.633C103.011 16.2646 103.282 16.2397 103.446 16.1899C103.663 16.1255 103.826 16.0185 103.934 15.8691C104.046 15.7197 104.101 15.5322 104.101 15.3066C104.101 15.0928 104.05 14.9053 103.947 14.7441C103.845 14.5801 103.698 14.4687 103.508 14.4101C103.318 14.3486 102.991 14.3179 102.528 14.3179H101.24V16.2646ZM101.24 19.2397H102.844C103.12 19.2397 103.313 19.2295 103.424 19.209C103.621 19.1738 103.785 19.1152 103.917 19.0332C104.048 18.9512 104.157 18.8325 104.242 18.6772C104.327 18.519 104.369 18.3374 104.369 18.1323C104.369 17.8921 104.308 17.6841 104.185 17.5083C104.062 17.3296 103.89 17.2051 103.671 17.1348C103.454 17.0615 103.14 17.0249 102.73 17.0249H101.24V19.2397Z" fill="white" fill-opacity="0.8"/>
<path d="M47.9919 13.5576V13.4657H47.9V13.5576H47.9919ZM51.9118 13.5576H52.0037V13.4657H51.9118V13.5576ZM51.9118 19.2397H51.8199V19.3316H51.9118V19.2397ZM52.4919 19.2397H52.5837V19.1478H52.4919V19.2397ZM52.4919 21.5029V21.5948H52.5837V21.5029H52.4919ZM51.7316 21.5029H51.6397V21.5948H51.7316V21.5029ZM51.7316 20H51.8235V19.9081H51.7316V20ZM47.4733 20V19.9081H47.3814V20H47.4733ZM47.4733 21.5029V21.5948H47.5652V21.5029H47.4733ZM46.713 21.5029H46.6211V21.5948H46.713V21.5029ZM46.713 19.2397V19.1478H46.6211V19.2397H46.713ZM47.214 19.2397V19.3316H47.2634L47.2906 19.2905L47.214 19.2397ZM51.0592 14.3179H51.1511V14.226H51.0592V14.3179ZM48.8136 14.3179V14.226H48.7217V14.3179H48.8136ZM48.6642 16.8974L48.5728 16.8879L48.5728 16.8881L48.6642 16.8974ZM48.0885 19.2397L48.0053 19.2007L47.9439 19.3316H48.0885V19.2397ZM51.0592 19.2397V19.3316H51.1511V19.2397H51.0592ZM47.9919 13.6495H51.9118V13.4657H47.9919V13.6495ZM51.8199 13.5576V19.2397H52.0037V13.5576H51.8199ZM51.9118 19.3316H52.4919V19.1478H51.9118V19.3316ZM52.4 19.2397V21.5029H52.5837V19.2397H52.4ZM52.4919 21.411H51.7316V21.5948H52.4919V21.411ZM51.8235 21.5029V20H51.6397V21.5029H51.8235ZM51.7316 19.9081H47.4733V20.0919H51.7316V19.9081ZM47.3814 20V21.5029H47.5652V20H47.3814ZM47.4733 21.411H46.713V21.5948H47.4733V21.411ZM46.8049 21.5029V19.2397H46.6211V21.5029H46.8049ZM46.713 19.3316H47.214V19.1478H46.713V19.3316ZM47.2906 19.2905C47.5604 18.8835 47.7576 18.2778 47.8881 17.4825C48.0188 16.6856 48.0837 15.6903 48.0837 14.498H47.9C47.9 15.6846 47.8353 16.6691 47.7067 17.4528C47.5779 18.238 47.3862 18.8138 47.1374 19.189L47.2906 19.2905ZM48.0837 14.498V13.5576H47.9V14.498H48.0837ZM51.0592 14.226H48.8136V14.4098H51.0592V14.226ZM48.7217 14.3179V14.6474H48.9055V14.3179H48.7217ZM48.7217 14.6474C48.7217 15.1906 48.6723 15.9369 48.5728 16.8879L48.7556 16.907C48.8553 15.9537 48.9055 15.2 48.9055 14.6474H48.7217ZM48.5728 16.8881C48.4768 17.831 48.2866 18.6008 48.0053 19.2007L48.1717 19.2787C48.4646 18.6541 48.6583 17.8624 48.7556 16.9068L48.5728 16.8881ZM48.0885 19.3316H51.0592V19.1478H48.0885V19.3316ZM51.1511 19.2397V14.3179H50.9673V19.2397H51.1511ZM54.109 14.353L54.1756 14.4164L54.1758 14.4162L54.109 14.353ZM59.0309 15.0605L58.9483 15.1009L58.9486 15.1014L59.0309 15.0605ZM57.8927 19.7143L57.9367 19.795L57.9371 19.7948L57.8927 19.7143ZM54.7506 18.7124L54.6833 18.7749L54.6837 18.7754L54.7506 18.7124ZM57.9059 18.7036L57.8384 18.6413L57.8381 18.6415L57.9059 18.7036ZM58.2619 15.4121L58.178 15.4497L58.1783 15.4504L58.2619 15.4121ZM57.484 14.5024L57.4346 14.5799L57.4354 14.5804L57.484 14.5024ZM54.777 14.8013L54.8404 14.8678L54.8404 14.8678L54.777 14.8013ZM53.3396 16.8623C53.3396 15.8096 53.6219 14.9983 54.1756 14.4164L54.0425 14.2897C53.4478 14.9147 53.1558 15.7763 53.1558 16.8623H53.3396ZM54.1758 14.4162C54.731 13.8298 55.4473 13.5352 56.3327 13.5352V13.3515C55.4017 13.3515 54.6355 13.6633 54.0423 14.2898L54.1758 14.4162ZM56.3327 13.5352C56.9121 13.5352 57.4318 13.6735 57.8941 13.9486L57.9881 13.7906C57.4953 13.4974 56.9427 13.3515 56.3327 13.3515V13.5352ZM57.8941 13.9486C58.3559 14.2234 58.707 14.6068 58.9483 15.1009L59.1135 15.0202C58.8568 14.4947 58.4813 14.0842 57.9881 13.7906L57.8941 13.9486ZM58.9486 15.1014C59.1934 15.5939 59.317 16.1553 59.317 16.7876H59.5007C59.5007 16.1308 59.3723 15.5408 59.1132 15.0196L58.9486 15.1014ZM59.317 16.7876C59.317 17.4282 59.1878 17.9981 58.9315 18.4992L59.0952 18.5828C59.3663 18.0527 59.5007 17.4536 59.5007 16.7876H59.317ZM58.9315 18.4992C58.6758 18.9993 58.3149 19.3766 57.8484 19.6339L57.9371 19.7948C58.4374 19.5189 58.8236 19.1139 59.0952 18.5828L58.9315 18.4992ZM57.8487 19.6337C57.3791 19.8899 56.8727 20.018 56.3283 20.018V20.2017C56.903 20.2017 57.4396 20.0662 57.9367 19.795L57.8487 19.6337ZM56.3283 20.018C55.7373 20.018 55.2122 19.8754 54.7504 19.5921L54.6542 19.7487C55.1474 20.0513 55.7063 20.2017 56.3283 20.2017V20.018ZM54.7504 19.5921C54.2878 19.3083 53.938 18.9217 53.6995 18.4306L53.5342 18.5108C53.7879 19.0333 54.1617 19.4465 54.6542 19.7487L54.7504 19.5921ZM53.6995 18.4306C53.4595 17.9363 53.3396 17.4139 53.3396 16.8623H53.1558C53.1558 17.4416 53.282 17.9914 53.5342 18.5108L53.6995 18.4306ZM54.0347 16.8755C54.0347 17.6685 54.2476 18.3054 54.6833 18.7749L54.818 18.6499C54.4217 18.2229 54.2185 17.6351 54.2185 16.8755H54.0347ZM54.6837 18.7754C55.1206 19.2397 55.6695 19.4723 56.3239 19.4723V19.2885C55.7185 19.2885 55.2186 19.0757 54.8176 18.6494L54.6837 18.7754ZM56.3239 19.4723C56.9898 19.4723 57.5423 19.2369 57.9737 18.7657L57.8381 18.6415C57.4434 19.0727 56.9411 19.2885 56.3239 19.2885V19.4723ZM57.9735 18.7659C58.4099 18.2925 58.6218 17.6271 58.6218 16.7832H58.438C58.438 17.5974 58.2339 18.2123 57.8384 18.6413L57.9735 18.7659ZM58.6218 16.7832C58.6218 16.2484 58.5307 15.7778 58.3454 15.3738L58.1783 15.4504C58.3505 15.8257 58.438 16.2691 58.438 16.7832H58.6218ZM58.3457 15.3745C58.163 14.9664 57.892 14.6486 57.5327 14.4245L57.4354 14.5804C57.7617 14.784 58.0092 15.0726 58.178 15.4496L58.3457 15.3745ZM57.5335 14.425C57.178 14.1982 56.7784 14.0853 56.3371 14.0853V14.2691C56.7453 14.2691 57.1103 14.373 57.4346 14.5799L57.5335 14.425ZM56.3371 14.0853C55.71 14.0853 55.1672 14.3024 54.7136 14.7347L54.8404 14.8678C55.2598 14.4681 55.7571 14.2691 56.3371 14.2691V14.0853ZM54.7136 14.7347C54.2532 15.1733 54.0347 15.8956 54.0347 16.8755H54.2185C54.2185 15.9159 54.4336 15.2554 54.8404 14.8678L54.7136 14.7347ZM65.1086 17.7412L65.1311 17.6521L65.0388 17.6288L65.0187 17.7218L65.1086 17.7412ZM65.9611 17.9565L66.0501 17.9793L66.0729 17.89L65.9836 17.8674L65.9611 17.9565ZM64.9943 19.5605L65.0513 19.6326L65.0514 19.6326L64.9943 19.5605ZM61.5973 19.688L61.5469 19.7648L61.5476 19.7652L61.5973 19.688ZM60.6042 18.4575L60.5195 18.4931L60.5196 18.4935L60.6042 18.4575ZM60.6481 14.977L60.5664 14.935L60.5663 14.9352L60.6481 14.977ZM61.7423 13.8389L61.7864 13.9195L61.7866 13.9194L61.7423 13.8389ZM65.8512 15.3242L65.8723 15.4136L65.9665 15.3915L65.9395 15.2986L65.8512 15.3242ZM65.0119 15.522L64.9243 15.5499L64.9502 15.6309L65.0329 15.6114L65.0119 15.522ZM62.0456 14.5332L61.9923 14.4583L61.992 14.4585L62.0456 14.5332ZM61.3468 15.4912L61.4339 15.5206L61.4339 15.5204L61.3468 15.4912ZM61.382 18.1631L61.2962 18.1961L61.2965 18.1969L61.382 18.1631ZM65.086 17.8303L65.9386 18.0456L65.9836 17.8674L65.1311 17.6521L65.086 17.8303ZM65.8721 17.9338C65.6972 18.6188 65.3841 19.1344 64.9372 19.4885L65.0514 19.6326C65.5361 19.2484 65.8675 18.6946 66.0501 17.9793L65.8721 17.9338ZM64.9373 19.4885C64.4928 19.8401 63.9468 20.018 63.2936 20.018V20.2017C63.9822 20.2017 64.57 20.0134 65.0513 19.6326L64.9373 19.4885ZM63.2936 20.018C62.6111 20.018 62.0646 19.8797 61.6471 19.6107L61.5476 19.7652C62.0031 20.0588 62.5874 20.2017 63.2936 20.2017V20.018ZM61.6477 19.6111C61.2311 19.3381 60.911 18.9431 60.6887 18.4215L60.5196 18.4935C60.7543 19.0442 61.0963 19.4695 61.5469 19.7648L61.6477 19.6111ZM60.6889 18.4219C60.4683 17.8977 60.3577 17.3342 60.3577 16.7305H60.1739C60.1739 17.3572 60.2889 17.9451 60.5195 18.4931L60.6889 18.4219ZM60.3577 16.7305C60.3577 16.0712 60.4829 15.5017 60.7299 15.0189L60.5663 14.9352C60.3036 15.4485 60.1739 16.0479 60.1739 16.7305H60.3577ZM60.7298 15.0191C60.9796 14.5336 61.3317 14.1681 61.7864 13.9195L61.6983 13.7582C61.2097 14.0253 60.8322 14.4185 60.5664 14.935L60.7298 15.0191ZM61.7866 13.9194C62.247 13.6665 62.7531 13.5396 63.3068 13.5396V13.3558C62.7238 13.3558 62.1869 13.4898 61.6981 13.7583L61.7866 13.9194ZM63.3068 13.5396C63.9351 13.5396 64.4569 13.6993 64.8778 14.0136L64.9877 13.8663C64.5298 13.5243 63.9675 13.3558 63.3068 13.3558V13.5396ZM64.8778 14.0136C65.2992 14.3282 65.595 14.7717 65.763 15.3499L65.9395 15.2986C65.7618 14.6872 65.4453 14.2079 64.9877 13.8663L64.8778 14.0136ZM65.8302 15.2348L64.9908 15.4325L65.0329 15.6114L65.8723 15.4136L65.8302 15.2348ZM65.0994 15.4941C64.9464 15.0139 64.721 14.6536 64.4167 14.4246L64.3062 14.5715C64.5703 14.7702 64.7785 15.0925 64.9243 15.5499L65.0994 15.4941ZM64.4167 14.4246C64.1135 14.1964 63.7355 14.0853 63.2892 14.0853V14.2691C63.7043 14.2691 64.0411 14.3719 64.3062 14.5715L64.4167 14.4246ZM63.2892 14.0853C62.7791 14.0853 62.3449 14.2078 61.9923 14.4583L62.0988 14.6081C62.4142 14.384 62.8091 14.2691 63.2892 14.2691V14.0853ZM61.992 14.4585C61.6446 14.7075 61.4004 15.0431 61.2597 15.4619L61.4339 15.5204C61.5628 15.1366 61.7844 14.8335 62.0991 14.6079L61.992 14.4585ZM61.2598 15.4618C61.1218 15.8698 61.0528 16.2913 61.0528 16.7261H61.2366C61.2366 16.3112 61.3024 15.9095 61.4339 15.5206L61.2598 15.4618ZM61.0528 16.7261C61.0528 17.2825 61.1331 17.7732 61.2963 18.1961L61.4677 18.13C61.3145 17.7326 61.2366 17.2653 61.2366 16.7261H61.0528ZM61.2965 18.1969C61.4642 18.6206 61.7256 18.9422 62.0818 19.1559L62.1763 18.9983C61.8587 18.8078 61.622 18.52 61.4674 18.1293L61.2965 18.1969ZM62.0818 19.1559C62.433 19.3666 62.814 19.4723 63.2233 19.4723V19.2885C62.8474 19.2885 62.499 19.1919 62.1763 18.9983L62.0818 19.1559ZM63.2233 19.4723C63.7198 19.4723 64.1456 19.3286 64.495 19.0379L64.3774 18.8966C64.0647 19.1568 63.6819 19.2885 63.2233 19.2885V19.4723ZM64.495 19.0379C64.8458 18.746 65.0781 18.3168 65.1984 17.7606L65.0187 17.7218C64.9046 18.2495 64.6886 18.6377 64.3774 18.8966L64.495 19.0379ZM68.3561 20H68.2642V20.0919H68.3561V20ZM68.3561 14.3179H68.448V14.226H68.3561V14.3179ZM66.2336 14.3179H66.1417V14.4098H66.2336V14.3179ZM66.2336 13.5576V13.4657H66.1417V13.5576H66.2336ZM71.34 13.5576H71.4319V13.4657H71.34V13.5576ZM71.34 14.3179V14.4098H71.4319V14.3179H71.34ZM69.2086 14.3179V14.226H69.1168V14.3179H69.2086ZM69.2086 20V20.0919H69.3005V20H69.2086ZM68.448 20V14.3179H68.2642V20H68.448ZM68.3561 14.226H66.2336V14.4098H68.3561V14.226ZM66.3254 14.3179V13.5576H66.1417V14.3179H66.3254ZM66.2336 13.6495H71.34V13.4657H66.2336V13.6495ZM71.2481 13.5576V14.3179H71.4319V13.5576H71.2481ZM71.34 14.226H69.2086V14.4098H71.34V14.226ZM69.1168 14.3179V20H69.3005V14.3179H69.1168ZM69.2086 19.9081H68.3561V20.0919H69.2086V19.9081ZM71.5685 13.5576V13.4657H71.4129L71.488 13.602L71.5685 13.5576ZM72.4298 13.5576L72.511 13.5144L72.485 13.4657H72.4298V13.5576ZM74.5304 17.5039L74.4493 17.5471L74.5359 17.7098L74.6137 17.5427L74.5304 17.5039ZM76.3673 13.5576V13.4657H76.3088L76.284 13.5188L76.3673 13.5576ZM77.2155 13.5576L77.2982 13.5975L77.3618 13.4657H77.2155V13.5576ZM74.7985 18.5674L74.7157 18.5274L74.7157 18.5275L74.7985 18.5674ZM72.4167 19.9341H72.3248V20.0011L72.3886 20.0216L72.4167 19.9341ZM72.4167 19.2046L72.4626 19.125L72.3248 19.0455V19.2046H72.4167ZM73.6779 19.2046L73.7387 19.2735L73.7388 19.2734L73.6779 19.2046ZM74.1789 18.2905L74.2647 18.3234L74.2799 18.2835L74.2593 18.2461L74.1789 18.2905ZM71.5685 13.6495H72.4298V13.4657H71.5685V13.6495ZM72.3487 13.6008L74.4493 17.5471L74.6115 17.4607L72.511 13.5144L72.3487 13.6008ZM74.6137 17.5427L76.4507 13.5964L76.284 13.5188L74.4471 17.4651L74.6137 17.5427ZM76.3673 13.6495H77.2155V13.4657H76.3673V13.6495ZM77.1327 13.5177L74.7157 18.5274L74.8813 18.6073L77.2982 13.5975L77.1327 13.5177ZM74.7157 18.5275C74.4136 19.1552 74.1718 19.5519 73.9908 19.7329L74.1208 19.8628C74.3265 19.6571 74.5799 19.2334 74.8813 18.6072L74.7157 18.5275ZM73.9908 19.7329C73.8197 19.904 73.5693 19.996 73.2253 19.996V20.1798C73.6019 20.1798 73.9052 20.0784 74.1208 19.8628L73.9908 19.7329ZM73.2253 19.996C73.0187 19.996 72.7593 19.9476 72.4448 19.8466L72.3886 20.0216C72.7127 20.1257 72.9924 20.1798 73.2253 20.1798V19.996ZM72.5085 19.9341V19.2046H72.3248V19.9341H72.5085ZM72.3707 19.2842C72.6127 19.4238 72.8702 19.4942 73.1418 19.4942V19.3104C72.9036 19.3104 72.6776 19.2491 72.4626 19.125L72.3707 19.2842ZM73.1418 19.4942C73.3711 19.4942 73.5717 19.4208 73.7387 19.2735L73.6171 19.1357C73.4853 19.252 73.3284 19.3104 73.1418 19.3104V19.4942ZM73.7388 19.2734C73.8266 19.1957 73.9125 19.0752 73.998 18.9192C74.0842 18.7619 74.173 18.5629 74.2647 18.3234L74.093 18.2577C74.0031 18.4927 73.9176 18.6834 73.8368 18.8308C73.7553 18.9795 73.6815 19.0787 73.617 19.1357L73.7388 19.2734ZM74.2593 18.2461L71.649 13.5132L71.488 13.602L74.0984 18.3349L74.2593 18.2461ZM77.9494 13.5576V13.4657H77.8575V13.5576H77.9494ZM83.0163 13.5576H83.1082V13.4657H83.0163V13.5576ZM83.0163 20V20.0919H83.1082V20H83.0163ZM82.1593 20H82.0674V20.0919H82.1593V20ZM82.1593 14.3179H82.2512V14.226H82.1593V14.3179ZM78.8019 14.3179V14.226H78.71V14.3179H78.8019ZM78.8019 20V20.0919H78.8938V20H78.8019ZM77.9494 20H77.8575V20.0919H77.9494V20ZM77.9494 13.6495H83.0163V13.4657H77.9494V13.6495ZM82.9244 13.5576V20H83.1082V13.5576H82.9244ZM83.0163 19.9081H82.1593V20.0919H83.0163V19.9081ZM82.2512 20V14.3179H82.0674V20H82.2512ZM82.1593 14.226H78.8019V14.4098H82.1593V14.226ZM78.71 14.3179V20H78.8938V14.3179H78.71ZM78.8019 19.9081H77.9494V20.0919H78.8019V19.9081ZM78.0413 20V13.5576H77.8575V20H78.0413ZM84.4357 20H84.3438V20.0919H84.4357V20ZM84.4357 13.5576V13.4657H84.3438V13.5576H84.4357ZM85.2882 13.5576H85.3801V13.4657H85.2882V13.5576ZM85.2882 16.2031H85.1963V16.295H85.2882V16.2031ZM88.6369 16.2031V16.295H88.7288V16.2031H88.6369ZM88.6369 13.5576V13.4657H88.545V13.5576H88.6369ZM89.4894 13.5576H89.5813V13.4657H89.4894V13.5576ZM89.4894 20V20.0919H89.5813V20H89.4894ZM88.6369 20H88.545V20.0919H88.6369V20ZM88.6369 16.9634H88.7288V16.8715H88.6369V16.9634ZM85.2882 16.9634V16.8715H85.1963V16.9634H85.2882ZM85.2882 20V20.0919H85.3801V20H85.2882ZM84.5276 20V13.5576H84.3438V20H84.5276ZM84.4357 13.6495H85.2882V13.4657H84.4357V13.6495ZM85.1963 13.5576V16.2031H85.3801V13.5576H85.1963ZM85.2882 16.295H88.6369V16.1112H85.2882V16.295ZM88.7288 16.2031V13.5576H88.545V16.2031H88.7288ZM88.6369 13.6495H89.4894V13.4657H88.6369V13.6495ZM89.3975 13.5576V20H89.5813V13.5576H89.3975ZM89.4894 19.9081H88.6369V20.0919H89.4894V19.9081ZM88.7288 20V16.9634H88.545V20H88.7288ZM88.6369 16.8715H85.2882V17.0553H88.6369V16.8715ZM85.1963 16.9634V20H85.3801V16.9634H85.1963ZM85.2882 19.9081H84.4357V20.0919H85.2882V19.9081ZM91.5153 14.353L91.5819 14.4164L91.582 14.4162L91.5153 14.353ZM96.4372 15.0605L96.3546 15.1009L96.3549 15.1014L96.4372 15.0605ZM95.299 19.7143L95.343 19.795L95.3434 19.7948L95.299 19.7143ZM92.1569 18.7124L92.0895 18.7749L92.09 18.7754L92.1569 18.7124ZM95.3122 18.7036L95.2446 18.6413L95.2444 18.6415L95.3122 18.7036ZM95.6681 15.4121L95.5842 15.4497L95.5846 15.4504L95.6681 15.4121ZM94.8903 14.5024L94.8409 14.5799L94.8416 14.5804L94.8903 14.5024ZM92.1833 14.8013L92.2466 14.8678L92.2467 14.8678L92.1833 14.8013ZM90.7459 16.8623C90.7459 15.8096 91.0281 14.9983 91.5819 14.4164L91.4487 14.2897C90.854 14.9147 90.5621 15.7763 90.5621 16.8623H90.7459ZM91.582 14.4162C92.1373 13.8298 92.8535 13.5352 93.7389 13.5352V13.3515C92.8079 13.3515 92.0418 13.6633 91.4486 14.2898L91.582 14.4162ZM93.7389 13.5352C94.3183 13.5352 94.838 13.6735 95.3003 13.9486L95.3943 13.7906C94.9016 13.4974 94.349 13.3515 93.7389 13.3515V13.5352ZM95.3003 13.9486C95.7622 14.2234 96.1132 14.6068 96.3546 15.1009L96.5197 15.0202C96.263 14.4947 95.8876 14.0842 95.3943 13.7906L95.3003 13.9486ZM96.3549 15.1014C96.5997 15.5939 96.7232 16.1553 96.7232 16.7876H96.907C96.907 16.1308 96.7785 15.5408 96.5195 15.0196L96.3549 15.1014ZM96.7232 16.7876C96.7232 17.4282 96.594 17.9981 96.3378 18.4992L96.5014 18.5828C96.7725 18.0527 96.907 17.4536 96.907 16.7876H96.7232ZM96.3378 18.4992C96.082 18.9993 95.7211 19.3766 95.2546 19.6339L95.3434 19.7948C95.8436 19.5189 96.2298 19.1139 96.5014 18.5828L96.3378 18.4992ZM95.255 19.6337C94.7853 19.8899 94.279 20.018 93.7345 20.018V20.2017C94.3092 20.2017 94.8459 20.0662 95.343 19.795L95.255 19.6337ZM93.7345 20.018C93.1436 20.018 92.6185 19.8754 92.1566 19.5921L92.0605 19.7487C92.5537 20.0513 93.1126 20.2017 93.7345 20.2017V20.018ZM92.1566 19.5921C91.6941 19.3083 91.3442 18.9217 91.1058 18.4306L90.9404 18.5108C91.1941 19.0333 91.5679 19.4465 92.0605 19.7487L92.1566 19.5921ZM91.1058 18.4306C90.8658 17.9363 90.7459 17.4139 90.7459 16.8623H90.5621C90.5621 17.4416 90.6882 17.9914 90.9404 18.5108L91.1058 18.4306ZM91.441 16.8755C91.441 17.6685 91.6538 18.3054 92.0895 18.7749L92.2242 18.6499C91.8279 18.2229 91.6248 17.6351 91.6248 16.8755H91.441ZM92.09 18.7754C92.5269 19.2397 93.0758 19.4723 93.7301 19.4723V19.2885C93.1247 19.2885 92.6248 19.0757 92.2238 18.6494L92.09 18.7754ZM93.7301 19.4723C94.3961 19.4723 94.9485 19.2369 95.3799 18.7657L95.2444 18.6415C94.8496 19.0727 94.3474 19.2885 93.7301 19.2885V19.4723ZM95.3797 18.7659C95.8162 18.2925 96.0281 17.6271 96.0281 16.7832H95.8443C95.8443 17.5974 95.6402 18.2123 95.2446 18.6413L95.3797 18.7659ZM96.0281 16.7832C96.0281 16.2484 95.937 15.7778 95.7516 15.3738L95.5846 15.4504C95.7567 15.8257 95.8443 16.2691 95.8443 16.7832H96.0281ZM95.752 15.3745C95.5693 14.9664 95.2982 14.6486 94.9389 14.4245L94.8416 14.5804C95.1679 14.784 95.4154 15.0726 95.5843 15.4496L95.752 15.3745ZM94.9397 14.425C94.5843 14.1982 94.1846 14.0853 93.7433 14.0853V14.2691C94.1516 14.2691 94.5166 14.373 94.8409 14.5799L94.9397 14.425ZM93.7433 14.0853C93.1162 14.0853 92.5735 14.3024 92.1199 14.7347L92.2467 14.8678C92.6661 14.4681 93.1634 14.2691 93.7433 14.2691V14.0853ZM92.1199 14.7347C91.6595 15.1733 91.441 15.8956 91.441 16.8755H91.6248C91.6248 15.9159 91.8398 15.2554 92.2466 14.8678L92.1199 14.7347ZM100.388 20H100.296V20.0919H100.388V20ZM100.388 13.5576V13.4657H100.296V13.5576H100.388ZM103.987 13.7554L103.95 13.8393L103.951 13.8397L103.987 13.7554ZM104.686 14.3574L104.607 14.4054L104.608 14.4064L104.686 14.3574ZM104.04 16.5723L103.999 16.4899L103.788 16.5943L104.014 16.6604L104.04 16.5723ZM104.936 17.1567L104.863 17.2121L104.863 17.2126L104.936 17.1567ZM105.059 18.9761L104.977 18.9353L104.977 18.9357L105.059 18.9761ZM103.882 19.8945L103.904 19.9837L103.904 19.9835L103.882 19.8945ZM101.24 16.2646H101.148V16.3565H101.24V16.2646ZM103.446 16.1899L103.42 16.1018L103.42 16.102L103.446 16.1899ZM103.934 15.8691L103.861 15.8142L103.86 15.8152L103.934 15.8691ZM103.947 14.7441L103.869 14.7928L103.87 14.7935L103.947 14.7441ZM103.508 14.4101L103.48 14.4976L103.481 14.498L103.508 14.4101ZM101.24 14.3179V14.226H101.148V14.3179H101.24ZM101.24 19.2397H101.148V19.3316H101.24V19.2397ZM103.424 19.209L103.408 19.1185L103.408 19.1186L103.424 19.209ZM104.242 18.6772L104.322 18.7213L104.323 18.7207L104.242 18.6772ZM104.185 17.5083L104.109 17.5604L104.109 17.561L104.185 17.5083ZM103.671 17.1348L103.641 17.2218L103.643 17.2223L103.671 17.1348ZM101.24 17.0249V16.933H101.148V17.0249H101.24ZM100.48 20V13.5576H100.296V20H100.48ZM100.388 13.6495H102.805V13.4657H100.388V13.6495ZM102.805 13.6495C103.29 13.6495 103.67 13.7147 103.95 13.8393L104.024 13.6714C103.712 13.5323 103.304 13.4657 102.805 13.4657V13.6495ZM103.951 13.8397C104.232 13.9613 104.45 14.1494 104.607 14.4054L104.764 14.3094C104.587 14.0205 104.339 13.8072 104.023 13.671L103.951 13.8397ZM104.608 14.4064C104.769 14.6624 104.849 14.9283 104.849 15.2056H105.032C105.032 14.891 104.942 14.5914 104.763 14.3084L104.608 14.4064ZM104.849 15.2056C104.849 15.4633 104.779 15.706 104.638 15.9353L104.795 16.0315C104.953 15.7744 105.032 15.4986 105.032 15.2056H104.849ZM104.638 15.9353C104.499 16.1613 104.288 16.3468 103.999 16.4899L104.08 16.6546C104.395 16.4989 104.635 16.2918 104.795 16.0315L104.638 15.9353ZM104.014 16.6604C104.388 16.7702 104.669 16.9551 104.863 17.2121L105.01 17.1013C104.788 16.8076 104.471 16.6029 104.066 16.4841L104.014 16.6604ZM104.863 17.2126C105.061 17.4706 105.161 17.7758 105.161 18.1323H105.344C105.344 17.7388 105.233 17.3936 105.009 17.1008L104.863 17.2126ZM105.161 18.1323C105.161 18.4205 105.099 18.6877 104.977 18.9353L105.142 19.0168C105.277 18.7429 105.344 18.4476 105.344 18.1323H105.161ZM104.977 18.9357C104.856 19.1833 104.707 19.3701 104.534 19.5002L104.644 19.6472C104.846 19.4961 105.011 19.2844 105.142 19.0164L104.977 18.9357ZM104.534 19.5002C104.358 19.632 104.134 19.7346 103.859 19.8055L103.904 19.9835C104.197 19.908 104.445 19.7966 104.644 19.6472L104.534 19.5002ZM103.859 19.8054C103.588 19.8733 103.25 19.9081 102.844 19.9081V20.0919C103.259 20.0919 103.613 20.0564 103.904 19.9837L103.859 19.8054ZM102.844 19.9081H100.388V20.0919H102.844V19.9081ZM101.24 16.3565H102.633V16.1727H101.24V16.3565ZM102.633 16.3565C103.012 16.3565 103.295 16.3319 103.473 16.2779L103.42 16.102C103.27 16.1475 103.011 16.1727 102.633 16.1727V16.3565ZM103.473 16.278C103.704 16.2091 103.886 16.0923 104.009 15.9231L103.86 15.8152C103.766 15.9448 103.622 16.0418 103.42 16.1018L103.473 16.278ZM104.008 15.924C104.133 15.7556 104.193 15.5477 104.193 15.3066H104.009C104.009 15.5167 103.958 15.6838 103.861 15.8142L104.008 15.924ZM104.193 15.3066C104.193 15.0774 104.138 14.8724 104.025 14.6948L103.87 14.7935C103.962 14.9381 104.009 15.1081 104.009 15.3066H104.193ZM104.025 14.6954C103.911 14.512 103.746 14.3872 103.535 14.3223L103.481 14.498C103.651 14.5503 103.779 14.6481 103.869 14.7928L104.025 14.6954ZM103.536 14.3227C103.331 14.2563 102.991 14.226 102.528 14.226V14.4098C102.991 14.4098 103.304 14.4409 103.48 14.4976L103.536 14.3227ZM102.528 14.226H101.24V14.4098H102.528V14.226ZM101.148 14.3179V16.2646H101.332V14.3179H101.148ZM101.24 19.3316H102.844V19.1478H101.24V19.3316ZM102.844 19.3316C103.12 19.3316 103.321 19.3215 103.441 19.2993L103.408 19.1186C103.306 19.1374 103.12 19.1478 102.844 19.1478V19.3316ZM103.441 19.2994C103.645 19.2628 103.821 19.2009 103.965 19.1112L103.868 18.9552C103.749 19.0296 103.596 19.0849 103.408 19.1185L103.441 19.2994ZM103.965 19.1112C104.112 19.0197 104.231 18.8885 104.322 18.7213L104.161 18.6331C104.083 18.7765 103.985 18.8826 103.868 18.9552L103.965 19.1112ZM104.323 18.7207C104.416 18.5473 104.461 18.3504 104.461 18.1323H104.277C104.277 18.3244 104.238 18.4907 104.161 18.6338L104.323 18.7207ZM104.461 18.1323C104.461 17.8756 104.395 17.6486 104.26 17.4556L104.109 17.561C104.22 17.7195 104.277 17.9086 104.277 18.1323H104.461ZM104.26 17.4562C104.125 17.2596 103.936 17.1233 103.699 17.0472L103.643 17.2223C103.844 17.2868 103.998 17.3995 104.109 17.5604L104.26 17.4562ZM103.7 17.0477C103.469 16.9697 103.144 16.933 102.73 16.933V17.1168C103.137 17.1168 103.439 17.1534 103.641 17.2218L103.7 17.0477ZM102.73 16.933H101.24V17.1168H102.73V16.933ZM101.148 17.0249V19.2397H101.332V17.0249H101.148Z" fill="white" fill-opacity="0.8"/>
<path d="M51.1061 30.8717V29.1833H55.4675V33.1754C55.0436 33.5856 54.4284 33.9479 53.6218 34.2624C52.8197 34.5723 52.0062 34.7272 51.1813 34.7272C50.1332 34.7272 49.2194 34.5084 48.4401 34.0709C47.6608 33.6289 47.0752 33 46.6833 32.1842C46.2914 31.3639 46.0954 30.473 46.0954 29.5114C46.0954 28.4678 46.3141 27.5403 46.7516 26.7292C47.1891 25.918 47.8294 25.2959 48.6725 24.8629C49.3151 24.5303 50.1149 24.3639 51.072 24.3639C52.3161 24.3639 53.2868 24.626 53.9841 25.1501C54.6859 25.6696 55.1371 26.3896 55.3376 27.3102L53.3278 27.6862C53.1865 27.194 52.9199 26.8066 52.528 26.5241C52.1406 26.237 51.6553 26.0934 51.072 26.0934C50.1878 26.0934 49.4837 26.3737 48.9597 26.9342C48.4401 27.4948 48.1804 28.3265 48.1804 29.4293C48.1804 30.6188 48.4447 31.512 48.9733 32.109C49.502 32.7015 50.1947 32.9977 51.0515 32.9977C51.4753 32.9977 51.8991 32.9157 52.3229 32.7516C52.7513 32.583 53.1182 32.3802 53.4235 32.1432V30.8717H51.1061ZM56.6725 30.8239C56.6725 30.1859 56.8297 29.5683 57.1442 28.9713C57.4586 28.3743 57.903 27.9186 58.4772 27.6042C59.056 27.2897 59.7008 27.1325 60.4118 27.1325C61.5101 27.1325 62.4101 27.4902 63.112 28.2057C63.8138 28.9167 64.1647 29.8167 64.1647 30.9059C64.1647 32.0042 63.8092 32.9157 63.0983 33.6403C62.3919 34.3603 61.501 34.7204 60.4254 34.7204C59.7601 34.7204 59.1243 34.57 58.5182 34.2692C57.9166 33.9684 57.4586 33.5286 57.1442 32.9499C56.8297 32.3665 56.6725 31.6579 56.6725 30.8239ZM58.6413 30.9264C58.6413 31.6465 58.8122 32.1979 59.154 32.5807C59.4957 32.9635 59.9173 33.1549 60.4186 33.1549C60.9199 33.1549 61.3392 32.9635 61.6764 32.5807C62.0182 32.1979 62.1891 31.6419 62.1891 30.9127C62.1891 30.2018 62.0182 29.6549 61.6764 29.2721C61.3392 28.8893 60.9199 28.6979 60.4186 28.6979C59.9173 28.6979 59.4957 28.8893 59.154 29.2721C58.8122 29.6549 58.6413 30.2064 58.6413 30.9264ZM65.0211 30.8239C65.0211 30.1859 65.1783 29.5683 65.4928 28.9713C65.8072 28.3743 66.2516 27.9186 66.8258 27.6042C67.4046 27.2897 68.0494 27.1325 68.7604 27.1325C69.8587 27.1325 70.7587 27.4902 71.4606 28.2057C72.1624 28.9167 72.5133 29.8167 72.5133 30.9059C72.5133 32.0042 72.1578 32.9157 71.4469 33.6403C70.7405 34.3603 69.8496 34.7204 68.774 34.7204C68.1087 34.7204 67.4729 34.57 66.8668 34.2692C66.2652 33.9684 65.8072 33.5286 65.4928 32.9499C65.1783 32.3665 65.0211 31.6579 65.0211 30.8239ZM66.9899 30.9264C66.9899 31.6465 67.1607 32.1979 67.5025 32.5807C67.8443 32.9635 68.2659 33.1549 68.7672 33.1549C69.2685 33.1549 69.6878 32.9635 70.025 32.5807C70.3668 32.1979 70.5377 31.6419 70.5377 30.9127C70.5377 30.2018 70.3668 29.6549 70.025 29.2721C69.6878 28.8893 69.2685 28.6979 68.7672 28.6979C68.2659 28.6979 67.8443 28.8893 67.5025 29.2721C67.1607 29.6549 66.9899 30.2064 66.9899 30.9264ZM73.6363 35.0348L75.8306 35.3014C75.8671 35.5566 75.9514 35.7321 76.0836 35.8278C76.2659 35.9645 76.553 36.0329 76.9449 36.0329C77.4462 36.0329 77.8222 35.9577 78.0728 35.8073C78.2414 35.707 78.369 35.5452 78.4556 35.3219C78.5149 35.1624 78.5445 34.8685 78.5445 34.4401V33.3805C77.9703 34.1644 77.2457 34.5563 76.3707 34.5563C75.3954 34.5563 74.623 34.1439 74.0533 33.319C73.6067 32.6673 73.3834 31.8561 73.3834 30.8854C73.3834 29.6686 73.675 28.7389 74.2584 28.0963C74.8463 27.4538 75.5754 27.1325 76.4459 27.1325C77.3437 27.1325 78.0842 27.5267 78.6675 28.3151V27.2965H80.4654V33.8112C80.4654 34.668 80.3948 35.3083 80.2535 35.7321C80.1122 36.1559 79.914 36.4886 79.6588 36.7301C79.4035 36.9717 79.0618 37.1608 78.6334 37.2975C78.2095 37.4342 77.6718 37.5026 77.0201 37.5026C75.7896 37.5026 74.9169 37.2907 74.4019 36.8668C73.8869 36.4476 73.6295 35.9144 73.6295 35.2672C73.6295 35.2034 73.6317 35.126 73.6363 35.0348ZM75.3521 30.776C75.3521 31.5462 75.5002 32.1113 75.7965 32.4713C76.0972 32.8268 76.4664 33.0045 76.9039 33.0045C77.3733 33.0045 77.7698 32.8223 78.0933 32.4577C78.4169 32.0885 78.5787 31.5439 78.5787 30.8239C78.5787 30.0719 78.4237 29.5137 78.1138 29.1491C77.8039 28.7845 77.412 28.6022 76.9381 28.6022C76.4778 28.6022 76.0972 28.7822 75.7965 29.1422C75.5002 29.4977 75.3521 30.0423 75.3521 30.776ZM82.1626 34.5563V24.5348H84.0835V34.5563H82.1626ZM90.0532 32.2458L91.9673 32.567C91.7212 33.2689 91.3315 33.8043 90.7983 34.1735C90.2697 34.5381 89.6066 34.7204 88.8091 34.7204C87.5467 34.7204 86.6125 34.3079 86.0063 33.4831C85.5278 32.8223 85.2886 31.9883 85.2886 30.9811C85.2886 29.778 85.603 28.8369 86.2319 28.1579C86.8608 27.4743 87.6561 27.1325 88.6177 27.1325C89.6977 27.1325 90.55 27.4902 91.1743 28.2057C91.7987 28.9167 92.0972 30.0081 92.0698 31.4801H87.2573C87.271 32.0498 87.4259 32.4941 87.7222 32.8131C88.0184 33.1276 88.3875 33.2848 88.8296 33.2848C89.1304 33.2848 89.3833 33.2028 89.5884 33.0387C89.7934 32.8747 89.9484 32.6103 90.0532 32.2458ZM90.1626 30.3043C90.1489 29.7484 90.0054 29.3268 89.7319 29.0397C89.4585 28.748 89.1258 28.6022 88.7339 28.6022C88.3146 28.6022 87.9683 28.7549 87.6948 29.0602C87.4214 29.3655 87.2869 29.7803 87.2915 30.3043H90.1626ZM97.1322 34.5563V24.5348H100.379C101.61 24.5348 102.412 24.5849 102.786 24.6852C103.36 24.8356 103.841 25.1637 104.228 25.6696C104.615 26.1709 104.809 26.8203 104.809 27.6178C104.809 28.2331 104.697 28.7503 104.474 29.1696C104.251 29.5889 103.966 29.9193 103.62 30.1608C103.278 30.3978 102.929 30.555 102.574 30.6325C102.091 30.7282 101.391 30.776 100.475 30.776H99.1557V34.5563H97.1322ZM99.1557 26.2301V29.0739H100.263C101.061 29.0739 101.594 29.0215 101.863 28.9167C102.132 28.8118 102.341 28.6478 102.492 28.4245C102.647 28.2012 102.724 27.9414 102.724 27.6452C102.724 27.2806 102.617 26.9798 102.403 26.7428C102.189 26.5058 101.917 26.3577 101.589 26.2985C101.348 26.2529 100.862 26.2301 100.133 26.2301H99.1557ZM106.246 34.5563V24.5348H108.167V34.5563H106.246ZM111.368 29.5114L109.625 29.1969C109.821 28.4951 110.159 27.9756 110.637 27.6383C111.116 27.3011 111.826 27.1325 112.77 27.1325C113.627 27.1325 114.265 27.235 114.684 27.4401C115.103 27.6406 115.397 27.8981 115.566 28.2126C115.739 28.5224 115.826 29.0944 115.826 29.9284L115.805 32.1706C115.805 32.8086 115.835 33.2803 115.894 33.5856C115.958 33.8864 116.074 34.2099 116.243 34.5563H114.342C114.292 34.4287 114.23 34.2396 114.158 33.9889C114.126 33.875 114.103 33.7998 114.089 33.7633C113.761 34.0823 113.41 34.3216 113.036 34.4811C112.663 34.6406 112.264 34.7204 111.84 34.7204C111.093 34.7204 110.503 34.5176 110.07 34.112C109.641 33.7064 109.427 33.1937 109.427 32.5739C109.427 32.1637 109.525 31.7991 109.721 31.4801C109.917 31.1566 110.19 30.9105 110.541 30.7418C110.897 30.5687 111.407 30.4183 112.073 30.2907C112.97 30.1221 113.592 29.9648 113.939 29.819V29.6276C113.939 29.2584 113.848 28.9964 113.665 28.8415C113.483 28.682 113.139 28.6022 112.633 28.6022C112.291 28.6022 112.025 28.6706 111.833 28.8073C111.642 28.9394 111.487 29.1741 111.368 29.5114ZM113.939 31.07C113.693 31.152 113.303 31.25 112.77 31.3639C112.237 31.4778 111.888 31.5895 111.724 31.6989C111.473 31.8766 111.348 32.1022 111.348 32.3756C111.348 32.6445 111.448 32.8769 111.649 33.0729C111.849 33.2689 112.104 33.3668 112.414 33.3668C112.761 33.3668 113.091 33.2529 113.406 33.0251C113.638 32.8519 113.791 32.64 113.864 32.3893C113.914 32.2252 113.939 31.9131 113.939 31.4528V31.07ZM116.607 27.2965H118.651L120.387 32.4508L122.082 27.2965H124.072L121.508 34.2829L121.05 35.5475C120.881 35.9713 120.72 36.2949 120.565 36.5182C120.414 36.7415 120.239 36.9215 120.038 37.0583C119.842 37.1995 119.599 37.3089 119.307 37.3864C119.02 37.4639 118.694 37.5026 118.329 37.5026C117.96 37.5026 117.598 37.4639 117.242 37.3864L117.072 35.8825C117.372 35.9417 117.644 35.9713 117.885 35.9713C118.332 35.9713 118.662 35.8392 118.876 35.5749C119.09 35.3151 119.255 34.9824 119.368 34.5768L116.607 27.2965Z" fill="white" fill-opacity="0.8"/>
</svg>
