<svg width="24" height="22" viewBox="0 0 24 22" fill="none" xmlns="http://www.w3.org/2000/svg">
<path d="M7.06492 21.7333C6.45414 21.7333 5.86492 21.4905 5.43086 21.056C4.53086 20.156 4.53086 18.6907 5.43086 17.7897L9.27601 13.9446C9.40398 13.8166 9.61211 13.8166 9.74008 13.9446C9.86805 14.0725 9.86805 14.2807 9.74008 14.4086L5.89492 18.2538C5.25039 18.8988 5.25039 19.9474 5.89492 20.5919C6.2268 20.9243 6.6857 21.0996 7.15492 21.0743C7.6232 21.0485 8.06055 20.824 8.35398 20.4579L12.0843 15.8079L10.2716 13.3432C10.1643 13.1974 10.1957 12.9916 10.3415 12.8843C10.4877 12.7769 10.693 12.8083 10.8004 12.9541L12.7626 15.6222C12.8507 15.7422 12.8474 15.9058 12.7541 16.0221L8.86586 20.8685C8.4557 21.3799 7.84539 21.694 7.19055 21.7296C7.14836 21.7319 7.10664 21.7333 7.06492 21.7333Z" fill="#333333"/>
<path d="M14.6214 13.4975C14.5375 13.4975 14.4536 13.4656 14.3893 13.4014L12.3362 11.3483C12.2082 11.2203 12.2082 11.0122 12.3362 10.8842L14.9889 8.23109L14.3054 5.67968C14.275 5.56624 14.3073 5.44577 14.3903 5.36281L17.4686 2.28452C17.5515 2.20156 17.6725 2.16921 17.7854 2.19968L19.9829 2.7889C20.0964 2.81937 20.1845 2.90749 20.215 3.02093C20.2454 3.13437 20.2131 3.25484 20.1301 3.33781L17.7821 5.68577L18.2214 7.32687L19.8634 7.76656L22.2114 5.41859C22.2943 5.33562 22.4153 5.30327 22.5282 5.33374C22.6417 5.36421 22.7298 5.45234 22.7603 5.56577L23.3495 7.76327C23.38 7.87671 23.3476 7.99718 23.2646 8.08015L20.1864 11.1584C20.1034 11.2414 19.9825 11.2737 19.8695 11.2433L17.1681 10.5195L15.759 12.2755C15.6456 12.417 15.4393 12.4395 15.2978 12.3261C15.1562 12.2126 15.1337 12.0059 15.2471 11.8648L16.7903 9.94155C16.8718 9.83984 17.0054 9.79624 17.1311 9.82999L19.8564 10.5603L22.6665 7.75015L22.2737 6.28437L20.1939 8.36421C20.1109 8.44718 19.9904 8.47952 19.877 8.44905L17.8693 7.9114C17.7559 7.88093 17.6678 7.79234 17.6373 7.67937L17.1001 5.67218C17.0696 5.55874 17.102 5.43827 17.185 5.35531L19.2648 3.27546L17.799 2.88265L14.9889 5.69281L15.6723 8.24421C15.7028 8.35765 15.6704 8.47812 15.5875 8.56109L13.0328 11.1162L14.8539 12.9373C14.9818 13.0653 14.9818 13.2734 14.8539 13.4014C14.7896 13.4651 14.7053 13.4975 14.6214 13.4975Z" fill="#333333"/>
<path d="M17.6904 21.7328C16.8921 21.7328 16.1398 21.3452 15.6776 20.6955L8.87277 11.4438C8.76543 11.298 8.79684 11.0922 8.94262 10.9849C9.0884 10.8775 9.29418 10.9089 9.40152 11.0547L16.2082 20.3083C16.2092 20.3097 16.2106 20.3111 16.2115 20.313C16.5561 20.7982 17.0951 21.0766 17.6909 21.0766C18.1737 21.0766 18.6284 20.8882 18.9706 20.546C19.3128 20.2038 19.5012 19.7486 19.5012 19.2644C19.5012 18.7802 19.3128 18.3255 18.9706 17.9828L9.91105 8.92425L8.51512 10.3202C8.38715 10.4482 8.17902 10.4482 8.05105 10.3202C7.92309 10.1922 7.92309 9.9841 8.05105 9.85613L9.67949 8.22769C9.80746 8.09972 10.0156 8.09972 10.1436 8.22769L19.4346 17.5188C19.9011 17.9852 20.1575 18.6049 20.1575 19.2644C20.1575 19.9235 19.9006 20.5436 19.4346 21.01C18.9678 21.4764 18.3486 21.7328 17.6904 21.7328Z" fill="#333333"/>
<path d="M7.77955 10.9212C7.69564 10.9212 7.61174 10.8893 7.54752 10.8251L6.43986 9.71791C6.37752 9.65557 6.34283 9.57072 6.34377 9.48213C6.34471 9.394 6.38127 9.30963 6.44502 9.24869L8.97486 6.82525C9.10377 6.7015 9.30767 6.70385 9.43377 6.82994L10.488 7.88416C10.616 8.01213 10.616 8.22025 10.488 8.34822L8.01158 10.8246C7.94783 10.8888 7.86346 10.9212 7.77955 10.9212ZM7.14111 9.49103L7.77955 10.129L9.79236 8.11619L9.19752 7.52135L7.14111 9.49103Z" fill="#333333"/>
<path d="M8.64824 5.70211C8.56434 5.70211 8.48043 5.67023 8.41621 5.60602L6.48074 3.67055C6.35277 3.54258 6.35277 3.33445 6.48074 3.20648L7.00012 2.68711L6.75824 1.57148C6.7348 1.46227 6.76809 1.34883 6.84684 1.27008L7.75434 0.362578C7.8823 0.234609 8.09043 0.234609 8.2184 0.362578L11.7237 3.86789C11.8517 3.99586 11.8517 4.20398 11.7237 4.33195L10.8162 5.23945C10.7375 5.3182 10.6236 5.35148 10.5148 5.32805L9.39918 5.08617L8.87981 5.60555C8.81606 5.66977 8.73215 5.70211 8.64824 5.70211ZM7.17684 3.43852L8.64824 4.90992L9.06215 4.49602C9.1409 4.41727 9.25434 4.38352 9.36355 4.40742L10.4792 4.6493L11.0281 4.10039L7.98637 1.05867L7.43746 1.60758L7.67934 2.7232C7.70277 2.83242 7.66949 2.94586 7.59074 3.02461L7.17684 3.43852Z" fill="#333333"/>
<path d="M1.49416 10.4984C1.48197 10.4984 1.47025 10.4979 1.45806 10.4965C1.35916 10.4858 1.27056 10.4304 1.21713 10.3461C0.768065 9.63778 0.569315 8.78606 0.656971 7.94747C0.746033 7.09622 1.129 6.29372 1.73556 5.68763L3.55056 3.91716C3.68041 3.79059 3.88806 3.79341 4.01463 3.92278C4.14119 4.05263 4.13838 4.26028 4.009 4.38684L2.19681 6.1545C1.28322 7.06856 1.04697 8.47294 1.57291 9.62794L3.62463 7.57622C3.7526 7.44825 3.96072 7.44825 4.08869 7.57622L6.09588 9.58341L9.31244 6.50184L5.65385 2.84325L5.45228 3.03638C5.3215 3.16153 5.11385 3.15731 4.98822 3.02653C4.86306 2.89575 4.86728 2.68809 4.99806 2.56247L5.43166 2.14716C5.56056 2.02388 5.76447 2.02575 5.89056 2.15184L10.0137 6.27497C10.076 6.33731 10.1107 6.42216 10.1098 6.51028C10.1088 6.59841 10.0723 6.68278 10.0085 6.74372L6.31806 10.2795C6.18916 10.4028 5.98525 10.4009 5.85916 10.2748L3.85619 8.27184L1.72619 10.4018C1.66431 10.4642 1.58088 10.4984 1.49416 10.4984Z" fill="#333333"/>
<path d="M4.48633 3.80878C4.46523 3.80878 4.44367 3.80644 4.42258 3.80222C4.40148 3.798 4.38086 3.79191 4.36117 3.78347C4.34102 3.7755 4.32227 3.76519 4.30445 3.75347C4.28664 3.74128 4.26977 3.72769 4.2543 3.71269C4.2393 3.69769 4.2257 3.68081 4.21352 3.663C4.2018 3.64519 4.19195 3.62597 4.18352 3.60628C4.17555 3.58613 4.16898 3.5655 4.16477 3.54488C4.16055 3.52378 4.1582 3.50222 4.1582 3.48066C4.1582 3.39441 4.19336 3.30956 4.2543 3.24863C4.26977 3.23363 4.28664 3.21956 4.30445 3.20784C4.32227 3.19613 4.34102 3.18581 4.36117 3.17784C4.38086 3.16941 4.40148 3.16331 4.42258 3.15909C4.52898 3.13753 4.64242 3.17269 4.71836 3.24863C4.77977 3.30956 4.81445 3.39441 4.81445 3.48066C4.81445 3.56691 4.77977 3.65175 4.71836 3.71269C4.65742 3.77363 4.57305 3.80878 4.48633 3.80878Z" fill="#333333"/>
</svg>
