<svg width="48" height="48" viewBox="0 0 48 48" fill="none" xmlns="http://www.w3.org/2000/svg">
<path d="M30.82 4H8V44H40V13.18L30.82 4Z" fill="#2363D1"/>
<path d="M12.9988 29.6H15.8788C16.4308 29.6 16.9108 29.664 17.3188 29.792C17.7268 29.92 18.0628 30.1 18.3268 30.332C18.5988 30.556 18.7988 30.828 18.9268 31.148C19.0548 31.46 19.1188 31.804 19.1188 32.18C19.1188 32.556 19.0548 32.904 18.9268 33.224C18.7988 33.536 18.5988 33.808 18.3268 34.04C18.0628 34.264 17.7268 34.44 17.3188 34.568C16.9108 34.696 16.4308 34.76 15.8788 34.76H14.1268V38H12.9988V29.6ZM15.8188 33.776C16.2188 33.776 16.5548 33.74 16.8268 33.668C17.1068 33.588 17.3308 33.48 17.4988 33.344C17.6748 33.208 17.7988 33.04 17.8708 32.84C17.9508 32.64 17.9908 32.42 17.9908 32.18C17.9908 31.94 17.9508 31.72 17.8708 31.52C17.7988 31.32 17.6748 31.152 17.4988 31.016C17.3308 30.88 17.1068 30.776 16.8268 30.704C16.5548 30.624 16.2188 30.584 15.8188 30.584H14.1268V33.776H15.8188ZM20.8621 29.6H23.3221C23.9541 29.6 24.5181 29.688 25.0141 29.864C25.5101 30.032 25.9301 30.284 26.2741 30.62C26.6181 30.956 26.8821 31.376 27.0661 31.88C27.2501 32.384 27.3421 32.964 27.3421 33.62V33.86C27.3421 34.532 27.2461 35.128 27.0541 35.648C26.8701 36.16 26.5981 36.592 26.2381 36.944C25.8861 37.288 25.4541 37.552 24.9421 37.736C24.4301 37.912 23.8501 38 23.2021 38H20.8621V29.6ZM23.0821 37.016C23.5541 37.016 23.9781 36.956 24.3541 36.836C24.7381 36.716 25.0621 36.532 25.3261 36.284C25.5901 36.028 25.7901 35.7 25.9261 35.3C26.0701 34.9 26.1421 34.42 26.1421 33.86V33.62C26.1421 33.084 26.0741 32.624 25.9381 32.24C25.8021 31.856 25.6061 31.544 25.3501 31.304C25.0941 31.056 24.7821 30.876 24.4141 30.764C24.0541 30.644 23.6501 30.584 23.2021 30.584H21.9901V37.016H23.0821ZM29.2645 29.6H34.6645V30.584H30.3925V33.308H34.3045V34.292H30.3925V38H29.2645V29.6Z" fill="white"/>
</svg>
