<svg width="40" height="40" viewBox="0 0 40 40" fill="none" xmlns="http://www.w3.org/2000/svg">
<g clip-path="url(#clip0_3679_102701)">
<path d="M20 39.5C30.7696 39.5 39.5 30.7696 39.5 20C39.5 9.23045 30.7696 0.5 20 0.5C9.23045 0.5 0.5 9.23045 0.5 20C0.5 30.7696 9.23045 39.5 20 39.5Z" fill="#F3F6FB" stroke="#B7CBE5"/>
<path d="M20 39.5C30.7696 39.5 39.5 30.7696 39.5 20C39.5 9.23045 30.7696 0.5 20 0.5C9.23045 0.5 0.5 9.23045 0.5 20C0.5 30.7696 9.23045 39.5 20 39.5Z" fill="white" stroke="#B7CBE5"/>
<path d="M25.7279 13.0002L27.1421 14.4144L14.4142 27.1423L13 25.7281L25.7279 13.0002Z" fill="#2363D1"/>
<path d="M13 14.4142L14.4142 13L27.1421 25.7279L25.7279 27.1421L13 14.4142Z" fill="#2363D1"/>
</g>
<defs>
<clipPath id="clip0_3679_102701">
<rect width="40" height="40" fill="white"/>
</clipPath>
</defs>
</svg>
