<svg width="13" height="22" viewBox="0 0 13 22" fill="none" xmlns="http://www.w3.org/2000/svg">
  <path fill-rule="evenodd" clip-rule="evenodd" d="M6.56406 3.71268C5.96737 3.71338 5.39531 3.95073 4.97338 4.37266C4.55145 4.79459 4.3141 5.36665 4.3134 5.96334C4.3134 7.20334 5.32273 8.21268 6.56406 8.21268C7.16053 8.21197 7.73239 7.97481 8.15428 7.55316C8.57617 7.13152 8.81367 6.55981 8.81473 5.96334C8.81403 5.36665 8.57668 4.79459 8.15475 4.37266C7.73282 3.95073 7.16076 3.71338 6.56406 3.71268ZM6.56406 11.3967C5.12337 11.3953 3.74206 10.8224 2.7232 9.80381C1.70435 8.78521 1.13116 7.40404 1.1294 5.96334C1.13046 4.52218 1.70333 3.14033 2.72226 2.12115C3.74119 1.10197 5.1229 0.528756 6.56406 0.527344C8.00546 0.528403 9.38751 1.10146 10.4067 2.12068C11.4259 3.1399 11.999 4.52195 12.0001 5.96334C11.9983 7.40427 11.4249 8.78564 10.4058 9.80428C9.38665 10.8229 8.005 11.3956 6.56406 11.3967ZM4.3654 15.83C3.2473 15.5754 2.18027 15.1336 1.2094 14.5233C0.851885 14.2984 0.598359 13.9407 0.504591 13.5289C0.410822 13.1171 0.484494 12.6849 0.709397 12.3273C0.934301 11.9698 1.29201 11.7163 1.70384 11.6225C2.11567 11.5288 2.54789 11.6024 2.9054 11.8273C4.00255 12.5137 5.2706 12.8776 6.56473 12.8776C7.85887 12.8776 9.12692 12.5137 10.2241 11.8273C10.5816 11.6024 11.0138 11.5288 11.4256 11.6225C11.8374 11.7163 12.1952 11.9698 12.4201 12.3273C12.645 12.6849 12.7186 13.1171 12.6249 13.5289C12.5311 13.9407 12.2776 14.2984 11.9201 14.5233C10.949 15.1333 9.88206 15.575 8.76407 15.83L11.8027 18.87C12.1012 19.1688 12.2687 19.574 12.2685 19.9963C12.2682 20.4186 12.1002 20.8236 11.8014 21.122C11.5026 21.4205 11.0975 21.588 10.6751 21.5877C10.2528 21.5875 9.84786 21.4195 9.5494 21.1207L6.5654 18.134L3.57873 21.1207C3.2801 21.4193 2.87506 21.5871 2.45273 21.5871C2.0304 21.5871 1.62536 21.4193 1.32673 21.1207C1.0281 20.822 0.860326 20.417 0.860326 19.9947C0.860326 19.5723 1.0281 19.1673 1.32673 18.8687L4.3654 15.83Z" fill="white" />
</svg>
