<svg width="20" height="16" viewBox="0 0 20 16" fill="none" xmlns="http://www.w3.org/2000/svg">
<path d="M18.5647 1.03586H1.42187C0.731519 1.03586 0.171875 1.5955 0.171875 2.28586V13.7144C0.171875 14.4048 0.731519 14.9644 1.42187 14.9644H18.5647C19.2551 14.9644 19.8147 14.4048 19.8147 13.7144V2.28586C19.8147 1.5955 19.2551 1.03586 18.5647 1.03586Z" fill="white" stroke="#F5F5F5" stroke-width="0.357143"/>
<mask id="mask0_3679_102557" style="mask-type:alpha" maskUnits="userSpaceOnUse" x="-1" y="0" width="21" height="16">
<path d="M18.5647 1.03601H1.42187C0.731519 1.03601 0.171875 1.59565 0.171875 2.28601V13.7146C0.171875 14.4049 0.731519 14.9646 1.42187 14.9646H18.5647C19.2551 14.9646 19.8147 14.4049 19.8147 13.7146V2.28601C19.8147 1.59565 19.2551 1.03601 18.5647 1.03601Z" fill="white" stroke="white" stroke-width="0.357143"/>
</mask>
<g mask="url(#mask0_3679_102557)">
<path fill-rule="evenodd" clip-rule="evenodd" d="M-0.0078125 10.3814H19.9922V5.61951H-0.0078125V10.3814Z" fill="#0C47B7"/>
<path fill-rule="evenodd" clip-rule="evenodd" d="M-0.0078125 15.1433H19.9922V10.3814H-0.0078125V15.1433Z" fill="#E53B35"/>
</g>
</svg>
