<svg width="32" height="32" viewBox="0 0 32 32" fill="none" xmlns="http://www.w3.org/2000/svg">
<path d="M9.33203 25.3333C9.0024 25.3333 8.68016 25.4311 8.40608 25.6142C8.132 25.7974 7.91838 26.0576 7.79223 26.3622C7.66609 26.6667 7.63308 27.0018 7.69739 27.3251C7.7617 27.6484 7.92043 27.9454 8.15352 28.1785C8.38661 28.4116 8.68358 28.5703 9.00688 28.6346C9.33018 28.6989 9.66529 28.6659 9.96984 28.5398C10.2744 28.4137 10.5347 28.2 10.7178 27.926C10.9009 27.6519 10.9987 27.3296 10.9987 27C10.9987 26.558 10.8231 26.134 10.5105 25.8215C10.198 25.5089 9.77406 25.3333 9.33203 25.3333ZM23.9987 25.3333C23.6691 25.3333 23.3468 25.4311 23.0727 25.6142C22.7987 25.7974 22.585 26.0576 22.4589 26.3622C22.3328 26.6667 22.2997 27.0018 22.3641 27.3251C22.4284 27.6484 22.5871 27.9454 22.8202 28.1785C23.0533 28.4116 23.3502 28.5703 23.6735 28.6346C23.9968 28.6989 24.332 28.6659 24.6365 28.5398C24.941 28.4137 25.2013 28.2 25.3845 27.926C25.5676 27.6519 25.6654 27.3296 25.6654 27C25.6654 26.558 25.4898 26.134 25.1772 25.8215C24.8646 25.5089 24.4407 25.3333 23.9987 25.3333ZM25.332 24V21.3333H11.012L10.5854 19.6L27.9987 16.48V6.66667H7.37203L6.66536 4H1.33203V6.66667H4.62536L8.93203 24H25.332Z" fill="white"/>
</svg>
