<svg width="22" height="19" viewBox="0 0 22 19" fill="none" xmlns="http://www.w3.org/2000/svg">
  <path fill-rule="evenodd" clip-rule="evenodd" d="M21.6654 3.05296C20.8667 3.40696 20.0195 3.63932 19.152 3.7423C20.0657 3.19515 20.7495 2.33465 21.076 1.32096C20.2166 1.83058 19.2764 2.18952 18.296 2.3823C17.6371 1.67821 16.7641 1.21144 15.8126 1.05448C14.8611 0.89751 13.8844 1.05914 13.0342 1.51426C12.184 1.96937 11.5079 2.69251 11.1109 3.57134C10.7139 4.45016 10.6182 5.4355 10.8387 6.3743C9.09839 6.28709 7.39588 5.83487 5.84169 5.04698C4.2875 4.25909 2.91639 3.15315 1.81736 1.80096C1.25599 2.76405 1.08358 3.90515 1.33537 4.9911C1.58715 6.07704 2.24412 7.02585 3.17203 7.64363C2.47704 7.62191 1.79728 7.43449 1.18936 7.09696V7.15163C1.18987 8.16199 1.53967 9.14111 2.17948 9.92307C2.81929 10.705 3.70977 11.2418 4.70003 11.4423C4.05553 11.6166 3.37985 11.6421 2.72403 11.517C3.00351 12.3866 3.5478 13.1471 4.28078 13.6922C5.01375 14.2373 5.89876 14.5396 6.81203 14.557C5.90391 15.2698 4.86413 15.7965 3.75221 16.1069C2.64029 16.4174 1.47806 16.5055 0.332031 16.3663C2.33311 17.6529 4.66234 18.3361 7.04136 18.3343C15.092 18.3343 19.4947 11.6676 19.4947 5.88496C19.4947 5.6943 19.4894 5.50496 19.4814 5.3183C20.3383 4.69856 21.0779 3.931 21.6654 3.05163V3.05296Z" fill="white" />
</svg>
