<svg width="24" height="24" viewBox="0 0 24 24" fill="none" xmlns="http://www.w3.org/2000/svg">
<path d="M12 24C18.6274 24 24 18.6274 24 12C24 5.37258 18.6274 0 12 0C5.37258 0 0 5.37258 0 12C0 18.6274 5.37258 24 12 24Z" fill="white"/>
<path d="M3.00313 6.87798C2.87723 6.10968 6.59116 6.58537 6.59116 6.58537C6.59116 6.58537 8.74713 12 9.59692 12C10.4467 12 10.0376 7.40854 10.0376 7.40854C10.0376 7.40854 8.98318 7.13415 8.98318 6.71341C8.98318 6.29268 10.0376 6 10.0376 6C10.0376 6 12.7662 6 13.1377 6C13.5093 6 13.6571 6.60366 13.6571 7.0061C13.6571 7.40854 13.6571 11.9268 13.6571 11.9268H14.5069C14.5069 11.9268 15.2634 10.7109 15.8602 9.47561C16.4571 8.24032 17.1821 6.58537 17.1821 6.58537H20.7859C20.7859 6.58537 21.4469 6.60352 21.3682 7.15237C21.2611 7.89904 18.8636 11.4448 18.3624 12.6585C17.9847 13.5731 19.949 14.8111 20.7859 16.1341C21.329 16.9927 21.3682 18 21.3682 18H17.0878L14.9475 15.5121C14.9475 15.5121 14.5069 15.3293 14.1606 15.5853C13.8144 15.8413 13.7987 16.3536 13.7987 16.3536V18H10.4467C10.4467 18 7.88159 17.122 5.70989 13.2805C3.53819 9.43902 3.12903 7.64627 3.00313 6.87798V6.87798Z" fill="#4F4F4F"/>
</svg>
