<svg width="22" height="13" viewBox="0 0 22 13" fill="none" xmlns="http://www.w3.org/2000/svg">
  <path fill-rule="evenodd" clip-rule="evenodd" d="M12.0457 12.6535C12.0457 12.6535 12.4297 12.6108 12.627 12.3948C12.8083 12.1975 12.803 11.8255 12.803 11.8255C12.803 11.8255 12.7763 10.0868 13.571 9.8308C14.355 9.57746 15.359 11.5108 16.4243 12.2548C17.231 12.8175 17.843 12.6948 17.843 12.6948L20.6923 12.6548C20.6923 12.6548 22.1817 12.5601 21.475 11.3695C21.4177 11.2721 21.0643 10.4881 19.3577 8.87613C17.571 7.1908 17.811 7.46413 19.9617 4.54813C21.2723 2.77213 21.7963 1.68813 21.6323 1.22413C21.4763 0.781464 20.5123 0.898797 20.5123 0.898797L17.3043 0.918797C17.3043 0.918797 17.067 0.885463 16.891 0.993463C16.7177 1.0988 16.6083 1.3428 16.6083 1.3428C16.6083 1.3428 16.099 2.71613 15.4217 3.88546C13.995 6.35213 13.423 6.4828 13.1897 6.32813C12.647 5.97213 12.783 4.8948 12.783 4.1308C12.783 1.74013 13.139 0.744131 12.0883 0.486797C11.739 0.400131 11.483 0.34413 10.591 0.334797C9.447 0.322797 8.47766 0.338797 7.92966 0.61213C7.56433 0.793464 7.283 1.1988 7.455 1.22146C7.667 1.2508 8.147 1.35346 8.40166 1.70546C8.72966 2.16013 8.71766 3.18146 8.71766 3.18146C8.71766 3.18146 8.90699 5.9948 8.27766 6.3428C7.84433 6.5828 7.251 6.09346 5.97766 3.85613C5.32566 2.7108 4.83233 1.4428 4.83233 1.4428C4.83233 1.4428 4.739 1.20813 4.56833 1.08013C4.363 0.926797 4.075 0.878797 4.075 0.878797L1.027 0.898797C1.027 0.898797 0.569662 0.91213 0.401662 1.11346C0.252329 1.29346 0.389662 1.66546 0.389662 1.66546C0.389662 1.66546 2.77633 7.3428 5.479 10.2028C7.95633 12.8255 10.7697 12.6535 10.7697 12.6535H12.0457Z" fill="white" />
</svg>
