<svg width="169" height="30" viewBox="0 0 169 30" fill="none" xmlns="http://www.w3.org/2000/svg">
<path d="M168.127 21.4285H52.7064V28.9285H168.127V21.4285Z" fill="#FFCC00"/>
<path d="M5.57747 22.7052H10.9073C11.9589 22.7052 12.3167 23.0648 12.3167 23.5224V23.5333C12.3167 24.0019 11.9383 24.3614 10.9073 24.3614H5.57747V22.7052ZM5.57747 26.6932C8.28049 26.5679 17.1094 27.4503 17.1094 22.9776V22.8306C17.1094 21.2671 15.5414 20.3571 11.9867 20.3571H0.929016V30H5.57747V26.6932Z" fill="white"/>
<path d="M21.6731 22.7052H26.92C27.9479 22.7052 28.2995 23.0648 28.2995 23.5224V23.5333C28.2995 24.0019 27.9345 24.3614 26.92 24.3614H21.6731V22.7052ZM21.6731 26.6985H26.0481C27.8535 26.6985 28.482 27.2652 28.482 28.3657V29.4934C28.482 29.7658 28.5094 29.8966 28.624 30H33.2898V29.9346C33.1743 29.7658 33.0668 29.5206 33.0668 28.845V27.4231C33.0668 26.1756 32.0796 25.402 30.6057 25.1296C31.5047 24.9607 33.0122 24.3777 33.0122 22.9776V22.836C33.0122 21.2671 31.4704 20.3571 27.9822 20.3571H17.1094V30H21.6731V26.6985Z" fill="white"/>
<path d="M41.0672 20.3509C34.1625 20.3509 33.2898 23.2116 33.2898 24.9597V25.3324C33.2898 27.0699 34.1625 29.9938 41.0672 29.9938H41.7116C48.5975 29.9938 49.4702 27.0699 49.4702 25.3324V24.9597C49.4702 23.2116 48.5857 20.3509 41.7116 20.3509H41.0672ZM45.2628 25.2222C45.2628 26.2196 44.5345 27.4793 41.3804 27.4793C38.2317 27.4793 37.4972 26.1723 37.4972 25.196V25.0438C37.4972 24.0621 38.172 22.8495 41.3804 22.8495C44.5345 22.8495 45.2628 24.0621 45.2628 25.0438V25.2222Z" fill="white"/>
<path d="M11.2192 15.7706C19.2697 15.7706 20.7092 13.149 20.7092 10.593V10.3054C20.7092 7.24009 18.4423 5.89234 12.6175 5.72798L9.86227 5.67045C6.98302 5.60471 6.52803 5.11163 6.52803 4.50348V4.47883C6.52803 3.88714 6.83416 3.35297 9.90369 3.35297H10.1105C13.4201 3.35297 13.751 4.42131 13.8172 4.97192H20.1714V4.80756C20.1714 2.39967 18.4423 0 10.8718 0H9.03491C1.89473 0 0.231598 2.16957 0.231598 4.64319V4.83221C0.231598 7.18257 1.81199 9.24531 7.74426 9.40967L10.5821 9.49185C13.7924 9.59046 14.1814 10.0836 14.1814 10.8561V10.8807C14.1814 11.6204 13.7097 12.3107 10.4415 12.3107H10.2511C6.9169 12.3107 6.48661 10.9793 6.42869 10.1657H0V10.3712C0 12.3518 0.885285 15.7706 9.34936 15.7706H11.2192Z" fill="white"/>
<path d="M27.6831 15.4992H33.5245V4.43759H40.1352V0.287476H21.0723V4.43759H27.6831V15.4992Z" fill="white"/>
<path d="M47.4909 3.9856H54.201C55.5249 3.9856 55.9716 4.56086 55.9716 5.27583V5.29227C55.9716 6.0319 55.5001 6.60716 54.201 6.60716H47.4909V3.9856ZM47.4909 10.2806H53.0924C55.4007 10.2806 56.2033 11.1846 56.2033 12.9186V14.702C56.2033 15.1293 56.2446 15.3348 56.3852 15.4992H62.3584V15.3923C62.2096 15.1293 62.0693 14.743 62.0693 13.6748V11.4312C62.0693 9.46704 60.8116 8.24254 58.9175 7.80699C60.0672 7.54401 62.0036 6.62359 62.0036 4.41293V4.19104C62.0036 1.71742 60.0253 0.287476 55.5661 0.287476H41.6497V15.4992H47.4909V10.2806Z" fill="white"/>
<path d="M74.264 0C64.3357 0 63.0866 4.6843 63.0866 7.54418V8.16052C63.0866 10.9958 64.3357 15.7868 74.264 15.7868H75.1831C85.0866 15.7868 86.3443 10.9958 86.3443 8.16052V7.54418C86.3443 4.6843 85.0704 0 75.1831 0H74.264ZM80.2874 7.97151C80.2874 9.60691 79.2455 11.6697 74.7117 11.6697C70.1855 11.6697 69.1349 9.52472 69.1349 7.93043V7.68388C69.1349 6.07315 70.1024 4.09259 74.7117 4.09259C79.2455 4.09259 80.2874 6.07315 80.2874 7.68388V7.97151Z" fill="white"/>
<path d="M92.6901 15.4992H98.5313V9.81219L106.723 0.287476H100.327L95.7764 5.53881L91.3084 0.287476H84.3087L92.6901 9.77112V15.4992Z" fill="white"/>
<path d="M113.143 15.4992V8.68632L120.614 15.4992H128.234L119.034 7.19885L127.945 0.287476H120.68L113.143 6.29486V0.287476H107.303V15.4992H113.143Z" fill="white"/>
<path d="M128.83 0.287476V15.4992H145.932V11.6942H134.589V9.60674H145.542V5.90861H134.589V4.01025H145.766V0.287476H128.83Z" fill="white"/>
<path d="M153.469 3.9856H160.179C161.494 3.9856 161.949 4.56086 161.949 5.27583V5.29227C161.949 6.0319 161.479 6.60716 160.179 6.60716H153.469V3.9856ZM153.469 10.2806H159.062C161.371 10.2806 162.173 11.1846 162.173 12.9186V14.702C162.173 15.1293 162.214 15.3348 162.356 15.4992H168.329V15.3923C168.188 15.1293 168.039 14.743 168.039 13.6748V11.4312C168.039 9.46704 166.782 8.24254 164.887 7.80699C166.046 7.54401 167.982 6.62359 167.982 4.41293V4.19104C167.982 1.71742 166.004 0.287476 161.537 0.287476H147.62V15.4992H153.469V10.2806Z" fill="white"/>
<path d="M79.123 25.6608L79.6084 23.9465H80.6332L79.7434 26.7858H78.7455L78.2061 25.0715L77.6669 26.7858H76.669L75.7792 23.9465H76.8038L77.2893 25.6608L77.7747 23.9465H78.6377L79.123 25.6608ZM83.4384 24.5625C83.2946 24.5625 83.2226 24.634 83.2226 24.7768V25.0715H84.1395V24.7768C84.1395 24.634 84.0676 24.5625 83.9238 24.5625H83.4384ZM84.9755 26.7321C84.2816 26.8036 83.6524 26.8393 83.0878 26.8393C82.8433 26.8393 82.6473 26.7661 82.4999 26.6196C82.3525 26.4732 82.2787 26.2786 82.2787 26.0358V24.75C82.2787 24.4821 82.3543 24.2733 82.5053 24.1233C82.6599 23.9697 82.8721 23.8929 83.1418 23.8929H84.2204C84.4901 23.8929 84.7004 23.9697 84.8515 24.1233C85.0061 24.2733 85.0833 24.4821 85.0833 24.75V25.7412H83.2226V25.9554C83.2226 26.009 83.2407 26.0536 83.2766 26.0893C83.3126 26.1251 83.3575 26.1429 83.4113 26.1429C83.7673 26.1429 84.2889 26.1162 84.9755 26.0625V26.7321ZM89.0186 24.8037C89.0186 24.75 89.0006 24.7053 88.9646 24.6696C88.9288 24.634 88.8837 24.6162 88.8298 24.6162H88.6949C88.544 24.6162 88.4126 24.6232 88.3012 24.6375C88.1934 24.6518 88.1089 24.6626 88.0477 24.6696V26.0625H88.8028C88.9466 26.0625 89.0186 25.9911 89.0186 25.8483V24.8037ZM88.0477 24C88.3965 23.9286 88.7022 23.8929 88.9646 23.8929H89.1534C89.398 23.8929 89.5939 23.9661 89.7412 24.1125C89.8888 24.259 89.9625 24.4536 89.9625 24.6965V25.9287C89.9625 26.1965 89.8851 26.4072 89.7305 26.5608C89.5795 26.7108 89.3691 26.7858 89.0994 26.7858H87.1038V23.0358H88.0477V24ZM97.1353 26.7858C96.7865 26.8214 96.445 26.8393 96.1105 26.8393C95.8659 26.8393 95.6701 26.7661 95.5227 26.6196C95.3752 26.4732 95.3015 26.2786 95.3015 26.0358V24.6696H94.9779V23.9465H95.3015L95.4095 23.3037H96.2453V23.9465H96.9196V24.6696H96.2453V25.9018C96.2453 25.9554 96.2633 26.0001 96.2993 26.0358C96.3352 26.0714 96.3802 26.0893 96.4341 26.0893H97.1353V26.7858ZM100.105 24.5625C99.9615 24.5625 99.8895 24.634 99.8895 24.7768V25.0715H100.806V24.7768C100.806 24.634 100.734 24.5625 100.591 24.5625H100.105ZM101.642 26.7321C100.948 26.8036 100.319 26.8393 99.7547 26.8393C99.5101 26.8393 99.3143 26.7661 99.1669 26.6196C99.0193 26.4732 98.9456 26.2786 98.9456 26.0358V24.75C98.9456 24.4821 99.0212 24.2733 99.1722 24.1233C99.3267 23.9697 99.5389 23.8929 99.8086 23.8929H100.887C101.157 23.8929 101.367 23.9697 101.518 24.1233C101.673 24.2733 101.75 24.4821 101.75 24.75V25.7412H99.8895V25.9554C99.8895 26.009 99.9075 26.0536 99.9435 26.0893C99.9793 26.1251 100.024 26.1429 100.078 26.1429C100.434 26.1429 100.956 26.1162 101.642 26.0625V26.7321ZM106.306 26.7321C105.633 26.8036 105.04 26.8393 104.526 26.8393C104.281 26.8393 104.085 26.7661 103.938 26.6196C103.79 26.4732 103.717 26.2786 103.717 26.0358V24.8037C103.717 24.5358 103.792 24.3268 103.943 24.1768C104.098 24.0232 104.31 23.9465 104.58 23.9465H106.306V24.6696H104.876C104.732 24.6696 104.661 24.7411 104.661 24.884V25.9287C104.661 25.9821 104.679 26.0269 104.715 26.0625C104.751 26.0982 104.796 26.1162 104.85 26.1162C105.173 26.1162 105.658 26.0893 106.306 26.0358V26.7321ZM109.217 24C109.565 23.9286 109.872 23.8929 110.134 23.8929H110.377C110.621 23.8929 110.817 23.9661 110.964 24.1125C111.112 24.259 111.186 24.4536 111.186 24.6965V26.7858H110.242V24.8037C110.242 24.75 110.223 24.7053 110.188 24.6696C110.152 24.634 110.107 24.6162 110.053 24.6162H109.864C109.727 24.6162 109.602 24.6232 109.487 24.6375C109.375 24.6518 109.285 24.6626 109.217 24.6696V26.7858H108.273V23.0358H109.217V24ZM114.799 24.6696C114.608 24.6696 114.393 24.7053 114.152 24.7768V26.7858H113.208V23.9465H114.044L114.098 24.2143C114.266 24.1036 114.439 24.0232 114.616 23.9733C114.795 23.9196 114.946 23.8929 115.069 23.8929H115.312C115.555 23.8929 115.752 23.9661 115.9 24.1125C116.046 24.259 116.121 24.4536 116.121 24.6965V26.7858H115.177V24.8571C115.177 24.8037 115.158 24.7589 115.123 24.7233C115.086 24.6876 115.042 24.6696 114.988 24.6696H114.799ZM121.055 25.9821C121.055 26.25 120.977 26.4607 120.823 26.6143C120.672 26.7643 120.461 26.8393 120.192 26.8393H118.951C118.681 26.8393 118.469 26.7643 118.315 26.6143C118.164 26.4607 118.088 26.25 118.088 25.9821V24.75C118.088 24.4821 118.164 24.2733 118.315 24.1233C118.469 23.9697 118.681 23.8929 118.951 23.8929H120.192C120.461 23.8929 120.672 23.9697 120.823 24.1233C120.977 24.2733 121.055 24.4821 121.055 24.75V25.9821ZM120.111 24.8304C120.111 24.6876 120.038 24.6162 119.895 24.6162H119.248C119.104 24.6162 119.032 24.6876 119.032 24.8304V25.9018C119.032 26.0447 119.104 26.1162 119.248 26.1162H119.895C120.038 26.1162 120.111 26.0447 120.111 25.9018V24.8304ZM124.532 26.7858C124.292 26.8214 124.062 26.8393 123.842 26.8393C123.626 26.8393 123.445 26.7661 123.297 26.6196C123.15 26.4732 123.076 26.2786 123.076 26.0358V23.0358H124.02V25.9018C124.02 25.9554 124.038 26.0001 124.074 26.0358C124.11 26.0714 124.155 26.0893 124.209 26.0893H124.532V26.7858ZM129.359 25.9821C129.359 26.25 129.282 26.4607 129.128 26.6143C128.976 26.7643 128.766 26.8393 128.496 26.8393H127.256C126.986 26.8393 126.774 26.7643 126.619 26.6143C126.469 26.4607 126.393 26.25 126.393 25.9821V24.75C126.393 24.4821 126.469 24.2733 126.619 24.1233C126.774 23.9697 126.986 23.8929 127.256 23.8929H128.496C128.766 23.8929 128.976 23.9697 129.128 24.1233C129.282 24.2733 129.359 24.4821 129.359 24.75V25.9821ZM128.416 24.8304C128.416 24.6876 128.343 24.6162 128.2 24.6162H127.553C127.408 24.6162 127.337 24.6876 127.337 24.8304V25.9018C127.337 26.0447 127.408 26.1162 127.553 26.1162H128.2C128.343 26.1162 128.416 26.0447 128.416 25.9018V24.8304ZM133.242 26.5715C132.893 26.643 132.587 26.6787 132.325 26.6787H132.136C131.891 26.6787 131.696 26.6055 131.548 26.459C131.4 26.3126 131.327 26.118 131.327 25.875V24.8037C131.327 24.5358 131.403 24.3268 131.553 24.1768C131.708 24.0232 131.92 23.9465 132.19 23.9465H134.185V26.9465C134.185 27.1894 134.112 27.3839 133.964 27.5304C133.817 27.6769 133.621 27.75 133.377 27.75C132.812 27.75 132.182 27.7144 131.489 27.6429V26.9465C132.176 27 132.697 27.0268 133.053 27.0268C133.107 27.0268 133.152 27.0089 133.188 26.9733C133.223 26.9376 133.242 26.8929 133.242 26.8393V26.5715ZM132.594 25.9554C132.821 25.9554 133.037 25.9376 133.242 25.9018V24.6696H132.487C132.343 24.6696 132.271 24.7411 132.271 24.884V25.7679C132.271 25.8215 132.289 25.8661 132.325 25.9018C132.36 25.9376 132.406 25.9554 132.46 25.9554H132.594ZM137.45 24.0537V26.7858H136.506V24.7768H136.101V24.0537H137.45ZM136.506 22.9821H137.45V23.7321H136.506V22.9821ZM140.633 24.5625C140.489 24.5625 140.417 24.634 140.417 24.7768V25.0715H141.334V24.7768C141.334 24.634 141.262 24.5625 141.118 24.5625H140.633ZM142.169 26.7321C141.476 26.8036 140.846 26.8393 140.282 26.8393C140.037 26.8393 139.842 26.7661 139.694 26.6196C139.547 26.4732 139.473 26.2786 139.473 26.0358V24.75C139.473 24.4821 139.549 24.2733 139.7 24.1233C139.854 23.9697 140.067 23.8929 140.336 23.8929H141.415C141.685 23.8929 141.894 23.9697 142.046 24.1233C142.201 24.2733 142.279 24.4821 142.279 24.75V25.7412H140.417V25.9554C140.417 26.009 140.435 26.0536 140.471 26.0893C140.507 26.1251 140.552 26.1429 140.606 26.1429C140.962 26.1429 141.483 26.1162 142.169 26.0625V26.7321ZM144.19 26.0358C144.92 26.0893 145.496 26.1162 145.916 26.1162C145.97 26.1162 146.016 26.0982 146.051 26.0625C146.087 26.0269 146.105 25.9821 146.105 25.9287V25.7412H144.946C144.701 25.7412 144.505 25.668 144.358 25.5215C144.21 25.3751 144.136 25.1805 144.136 24.9375V24.75C144.136 24.5072 144.21 24.3126 144.358 24.1662C144.505 24.0197 144.701 23.9465 144.946 23.9465H146.78V24.6429H145.269C145.215 24.6429 145.17 24.6607 145.134 24.6965C145.099 24.7322 145.08 24.7768 145.08 24.8304C145.08 24.884 145.099 24.9286 145.134 24.9643C145.17 25.0001 145.215 25.0179 145.269 25.0179H146.24C146.485 25.0179 146.68 25.0911 146.828 25.2375C146.975 25.384 147.049 25.5786 147.049 25.8215V26.0358C147.049 26.2786 146.975 26.4732 146.828 26.6196C146.68 26.7661 146.485 26.8393 146.24 26.8393C145.603 26.8393 144.92 26.8036 144.19 26.7321V26.0358Z" fill="white"/>
</svg>
