<svg xmlns="http://www.w3.org/2000/svg" width="116" height="11" viewBox="0 0 116 11" fill="none">
  <g opacity="0.3">
    <path d="M7.09484 10.036C12.1849 10.036 13.0962 8.372 13.0962 6.747V6.565C13.0962 4.615 11.6642 3.757 7.98007 3.653L6.23565 3.614C4.41312 3.575 4.12672 3.263 4.12672 2.873V2.86C4.12672 2.483 4.32199 2.145 6.26168 2.145H6.39187C8.48777 2.145 8.69606 2.821 8.73512 3.172H12.7577V3.068C12.7577 1.534 11.6642 0.0129995 6.87353 0.0129995H5.71493C1.19766 0.0129995 0.143199 1.391 0.143199 2.964V3.081C0.143199 4.576 1.14559 5.889 4.89479 5.993L6.69128 6.045C8.7221 6.11 8.96944 6.422 8.96944 6.916V6.929C8.96944 7.397 8.67002 7.839 6.60015 7.839H6.48299C4.37407 7.839 4.10069 6.994 4.06163 6.474H0V6.604C0 7.865 0.559776 10.036 5.9102 10.036H7.09484Z" fill="white"/>
    <path d="M18.8071 9.854H22.5043V2.821H26.683V0.182H14.6283V2.821H18.8071V9.854Z" fill="white"/>
    <path d="M32.6396 2.535H36.8835C37.7167 2.535 38.0031 2.899 38.0031 3.354V3.367C38.0031 3.835 37.7036 4.199 36.8835 4.199H32.6396V2.535ZM32.6396 6.539H36.1805C37.6386 6.539 38.1463 7.111 38.1463 8.216V9.347C38.1463 9.62 38.1723 9.75 38.2634 9.854H42.0387V9.789C41.9475 9.62 41.8564 9.373 41.8564 8.697V7.267C41.8564 6.019 41.0623 5.239 39.8646 4.966C40.5937 4.797 41.8174 4.212 41.8174 2.808V2.665C41.8174 1.092 40.5676 0.182 37.7427 0.182H28.9425V9.854H32.6396V6.539Z" fill="white"/>
    <path d="M50.8702 0C44.5955 0 43.8014 2.977 43.8014 4.797V5.187C43.8014 6.994 44.5955 10.036 50.8702 10.036H51.456C57.7177 10.036 58.5118 6.994 58.5118 5.187V4.797C58.5118 2.977 57.7047 0 51.456 0H50.8702ZM54.6845 5.07C54.6845 6.11 54.0206 7.423 51.1566 7.423C48.2926 7.423 47.6287 6.058 47.6287 5.044V4.888C47.6287 3.861 48.2405 2.6 51.1566 2.6C54.0206 2.6 54.6845 3.861 54.6845 4.888V5.07Z" fill="white"/>
    <path d="M63.826 9.854H67.5231V6.24L72.7043 0.182H68.6557L65.7787 3.523L62.9538 0.182H58.5277L63.826 6.214V9.854Z" fill="white"/>
    <path d="M78.0655 9.854V5.525L82.7911 9.854H87.6078L81.7887 4.576L87.4255 0.182H82.8301L78.0655 4.004V0.182H74.3684V9.854H78.0655Z" fill="white"/>
    <path d="M89.2858 0.182V9.854H100.104V7.436H92.9308V6.11H99.8564V3.757H92.9308V2.548H99.9996V0.182H89.2858Z" fill="white"/>
    <path d="M106.171 2.535H110.415C111.248 2.535 111.535 2.899 111.535 3.354V3.367C111.535 3.835 111.235 4.199 110.415 4.199H106.171V2.535ZM106.171 6.539H109.712C111.17 6.539 111.678 7.111 111.678 8.216V9.347C111.678 9.62 111.704 9.75 111.795 9.854H115.57V9.789C115.479 9.62 115.388 9.373 115.388 8.697V7.267C115.388 6.019 114.594 5.239 113.396 4.966C114.125 4.797 115.349 4.212 115.349 2.808V2.665C115.349 1.092 114.099 0.182 111.274 0.182H102.474V9.854H106.171V6.539Z" fill="white"/>
  </g>
</svg>