<svg width="20" height="20" viewBox="0 0 20 20" fill="none" xmlns="http://www.w3.org/2000/svg">
<path d="M3 10.8755C3 10.7097 3.06585 10.5508 3.18306 10.4335C3.30027 10.3163 3.45924 10.2505 3.625 10.2505H9.25C9.41576 10.2505 9.57473 10.3163 9.69194 10.4335C9.80915 10.5508 9.875 10.7097 9.875 10.8755C9.875 11.0413 9.80915 11.2002 9.69194 11.3174C9.57473 11.4346 9.41576 11.5005 9.25 11.5005H3.625C3.45924 11.5005 3.30027 11.4346 3.18306 11.3174C3.06585 11.2002 3 11.0413 3 10.8755ZM3.625 6.50049H8C8.16576 6.50049 8.32473 6.43464 8.44194 6.31743C8.55915 6.20022 8.625 6.04125 8.625 5.87549C8.625 5.70973 8.55915 5.55076 8.44194 5.43355C8.32473 5.31634 8.16576 5.25049 8 5.25049H3.625C3.45924 5.25049 3.30027 5.31634 3.18306 5.43355C3.06585 5.55076 3 5.70973 3 5.87549C3 6.04125 3.06585 6.20022 3.18306 6.31743C3.30027 6.43464 3.45924 6.50049 3.625 6.50049ZM14.25 15.2505H3.625C3.45924 15.2505 3.30027 15.3163 3.18306 15.4335C3.06585 15.5508 3 15.7097 3 15.8755C3 16.0413 3.06585 16.2002 3.18306 16.3174C3.30027 16.4346 3.45924 16.5005 3.625 16.5005H14.25C14.4158 16.5005 14.5747 16.4346 14.6919 16.3174C14.8092 16.2002 14.875 16.0413 14.875 15.8755C14.875 15.7097 14.8092 15.5508 14.6919 15.4335C14.5747 15.3163 14.4158 15.2505 14.25 15.2505ZM17.8172 7.3083L14.6922 4.1833C14.6341 4.12519 14.5652 4.07909 14.4893 4.04764C14.4135 4.01619 14.3321 4 14.25 4C14.1679 4 14.0865 4.01619 14.0107 4.04764C13.9348 4.07909 13.8659 4.12519 13.8078 4.1833L10.6828 7.3083C10.5655 7.42558 10.4997 7.58464 10.4997 7.75049C10.4997 7.91634 10.5655 8.0754 10.6828 8.19268C10.8001 8.30996 10.9591 8.37584 11.125 8.37584C11.2909 8.37584 11.4499 8.30996 11.5672 8.19268L13.625 6.13409V12.1255C13.625 12.2913 13.6908 12.4502 13.8081 12.5674C13.9253 12.6846 14.0842 12.7505 14.25 12.7505C14.4158 12.7505 14.5747 12.6846 14.6919 12.5674C14.8092 12.4502 14.875 12.2913 14.875 12.1255V6.13409L16.9328 8.19268C16.9909 8.25075 17.0598 8.29681 17.1357 8.32824C17.2116 8.35966 17.2929 8.37584 17.375 8.37584C17.4571 8.37584 17.5384 8.35966 17.6143 8.32824C17.6902 8.29681 17.7591 8.25075 17.8172 8.19268C17.8753 8.13461 17.9213 8.06567 17.9527 7.9898C17.9842 7.91393 18.0003 7.83261 18.0003 7.75049C18.0003 7.66837 17.9842 7.58705 17.9527 7.51118C17.9213 7.43531 17.8753 7.36637 17.8172 7.3083Z" fill="#2363D1"/>
</svg>
