<svg width="214" height="214" viewBox="0 0 214 214" fill="none" xmlns="http://www.w3.org/2000/svg">
  <path d="M106.999 0.328125C85.9021 0.328125 65.2792 6.58402 47.7379 18.3047C30.1967 30.0254 16.5249 46.6844 8.4516 66.1752C0.378248 85.666 -1.73411 107.113 2.38165 127.804C6.49741 148.496 16.6564 167.502 31.574 182.42C46.4916 197.337 65.4978 207.496 86.1891 211.612C106.88 215.728 128.328 213.615 147.818 205.542C167.309 197.469 183.968 183.797 195.689 166.256C207.41 148.714 213.665 128.091 213.665 106.995C213.665 92.9871 210.906 79.1166 205.546 66.1752C200.185 53.2338 192.328 41.475 182.423 31.5701C172.519 21.6652 160.76 13.8081 147.818 8.44764C134.877 3.08714 121.006 0.328125 106.999 0.328125ZM49.9321 85.6615C49.9321 82.8134 50.7766 80.0293 52.3589 77.6612C53.9412 75.2932 56.1902 73.4475 58.8214 72.3576C61.4527 71.2677 64.348 70.9825 67.1414 71.5381C69.9347 72.0938 72.5005 73.4652 74.5144 75.4791C76.5283 77.493 77.8998 80.0588 78.4554 82.8522C79.011 85.6455 78.7258 88.5408 77.6359 91.1721C76.546 93.8034 74.7004 96.0523 72.3323 97.6346C69.9642 99.2169 67.1801 100.061 64.3321 100.061C62.4371 100.076 60.5582 99.7129 58.8047 98.9942C57.0512 98.2756 55.4581 97.2154 54.1181 95.8754C52.7781 94.5354 51.7179 92.9424 50.9993 91.1889C50.2807 89.4354 49.9179 87.5565 49.9321 85.6615ZM137.185 165.235C129.076 157.426 118.256 153.064 106.999 153.064C95.7411 153.064 84.9214 157.426 76.8121 165.235L61.7721 149.661C73.7721 137.676 90.0387 130.944 106.999 130.944C123.959 130.944 140.225 137.676 152.225 149.661L137.185 165.235ZM149.665 100.061C146.817 100.061 144.033 99.2169 141.665 97.6346C139.297 96.0523 137.451 93.8034 136.362 91.1721C135.272 88.5408 134.986 85.6455 135.542 82.8522C136.098 80.0588 137.469 77.493 139.483 75.4791C141.497 73.4652 144.063 72.0938 146.856 71.5381C149.649 70.9825 152.545 71.2677 155.176 72.3576C157.807 73.4475 160.056 75.2932 161.639 77.6612C163.221 80.0293 164.065 82.8134 164.065 85.6615C164.08 87.5565 163.717 89.4354 162.998 91.1889C162.28 92.9424 161.219 94.5354 159.879 95.8754C158.539 97.2154 156.946 98.2756 155.193 98.9942C153.439 99.7129 151.56 100.076 149.665 100.061Z" fill="#D9D9DE" />
</svg>
