<svg width="20" height="20" viewBox="0 0 20 20" fill="none" xmlns="http://www.w3.org/2000/svg">
<mask id="mask0_3679_102662" style="mask-type:luminance" maskUnits="userSpaceOnUse" x="0" y="2" width="20" height="16">
<path d="M18.5714 2.85715H1.42857C0.639593 2.85715 0 3.49674 0 4.28572V15.7143C0 16.5033 0.639593 17.1429 1.42857 17.1429H18.5714C19.3604 17.1429 20 16.5033 20 15.7143V4.28572C20 3.49674 19.3604 2.85715 18.5714 2.85715Z" fill="white"/>
</mask>
<g mask="url(#mask0_3679_102662)">
<path d="M18.5714 2.85715H1.42857C0.639593 2.85715 0 3.49674 0 4.28572V15.7143C0 16.5033 0.639593 17.1429 1.42857 17.1429H18.5714C19.3604 17.1429 20 16.5033 20 15.7143V4.28572C20 3.49674 19.3604 2.85715 18.5714 2.85715Z" fill="white"/>
<mask id="mask1_3679_102662" style="mask-type:alpha" maskUnits="userSpaceOnUse" x="0" y="2" width="20" height="16">
<path d="M18.5714 2.85715H1.42857C0.639593 2.85715 0 3.49674 0 4.28572V15.7143C0 16.5033 0.639593 17.1429 1.42857 17.1429H18.5714C19.3604 17.1429 20 16.5033 20 15.7143V4.28572C20 3.49674 19.3604 2.85715 18.5714 2.85715Z" fill="white"/>
</mask>
<g mask="url(#mask1_3679_102662)">
<path fill-rule="evenodd" clip-rule="evenodd" d="M20 2.85715H0V3.80953H20V2.85715ZM20 4.76191H0V5.71429H20V4.76191ZM0 6.66667H20V7.61905H0V6.66667ZM20 8.57143H0V9.52381H20V8.57143ZM0 10.4762H20V11.4286H0V10.4762ZM20 12.3809H0V13.3334H20V12.3809ZM0 14.2857H20V15.2381H0V14.2857ZM20 16.1905H0V17.1429H20V16.1905Z" fill="#D02F44"/>
<path d="M8.57143 2.85715H0V9.52381H8.57143V2.85715Z" fill="#46467F"/>
<g filter="url(#filter0_d_3679_102662)">
<path fill-rule="evenodd" clip-rule="evenodd" d="M1.90551 4.28597C1.90551 4.54896 1.69231 4.76216 1.42932 4.76216C1.16632 4.76216 0.953125 4.54896 0.953125 4.28597C0.953125 4.02298 1.16632 3.80978 1.42932 3.80978C1.69231 3.80978 1.90551 4.02298 1.90551 4.28597ZM3.81027 4.28597C3.81027 4.54896 3.59707 4.76216 3.33408 4.76216C3.07109 4.76216 2.85789 4.54896 2.85789 4.28597C2.85789 4.02298 3.07109 3.80978 3.33408 3.80978C3.59707 3.80978 3.81027 4.02298 3.81027 4.28597ZM5.23884 4.76216C5.50183 4.76216 5.71503 4.54896 5.71503 4.28597C5.71503 4.02298 5.50183 3.80978 5.23884 3.80978C4.97585 3.80978 4.76265 4.02298 4.76265 4.28597C4.76265 4.54896 4.97585 4.76216 5.23884 4.76216ZM7.61976 4.28597C7.61976 4.54896 7.40662 4.76216 7.1436 4.76216C6.88061 4.76216 6.66741 4.54896 6.66741 4.28597C6.66741 4.02298 6.88061 3.80978 7.1436 3.80978C7.40662 3.80978 7.61976 4.02298 7.61976 4.28597ZM2.3817 5.71454C2.64469 5.71454 2.85789 5.50135 2.85789 5.23836C2.85789 4.97536 2.64469 4.76216 2.3817 4.76216C2.1187 4.76216 1.90551 4.97536 1.90551 5.23836C1.90551 5.50135 2.1187 5.71454 2.3817 5.71454ZM4.76265 5.23836C4.76265 5.50135 4.54945 5.71454 4.28646 5.71454C4.02347 5.71454 3.81027 5.50135 3.81027 5.23836C3.81027 4.97536 4.02347 4.76216 4.28646 4.76216C4.54945 4.76216 4.76265 4.97536 4.76265 5.23836ZM6.19123 5.71454C6.45422 5.71454 6.66741 5.50135 6.66741 5.23836C6.66741 4.97536 6.45422 4.76216 6.19123 4.76216C5.92823 4.76216 5.71503 4.97536 5.71503 5.23836C5.71503 5.50135 5.92823 5.71454 6.19123 5.71454ZM7.61976 6.19073C7.61976 6.45373 7.40662 6.66693 7.1436 6.66693C6.88061 6.66693 6.66741 6.45373 6.66741 6.19073C6.66741 5.92774 6.88061 5.71454 7.1436 5.71454C7.40662 5.71454 7.61976 5.92774 7.61976 6.19073ZM5.23884 6.66693C5.50183 6.66693 5.71503 6.45373 5.71503 6.19073C5.71503 5.92774 5.50183 5.71454 5.23884 5.71454C4.97585 5.71454 4.76265 5.92774 4.76265 6.19073C4.76265 6.45373 4.97585 6.66693 5.23884 6.66693ZM3.81027 6.19073C3.81027 6.45373 3.59707 6.66693 3.33408 6.66693C3.07109 6.66693 2.85789 6.45373 2.85789 6.19073C2.85789 5.92774 3.07109 5.71454 3.33408 5.71454C3.59707 5.71454 3.81027 5.92774 3.81027 6.19073ZM1.42932 6.66693C1.69231 6.66693 1.90551 6.45373 1.90551 6.19073C1.90551 5.92774 1.69231 5.71454 1.42932 5.71454C1.16632 5.71454 0.953125 5.92774 0.953125 6.19073C0.953125 6.45373 1.16632 6.66693 1.42932 6.66693ZM2.85789 7.14311C2.85789 7.40611 2.64469 7.6193 2.3817 7.6193C2.1187 7.6193 1.90551 7.40611 1.90551 7.14311C1.90551 6.88012 2.1187 6.66693 2.3817 6.66693C2.64469 6.66693 2.85789 6.88012 2.85789 7.14311ZM4.28646 7.6193C4.54945 7.6193 4.76265 7.40611 4.76265 7.14311C4.76265 6.88012 4.54945 6.66693 4.28646 6.66693C4.02347 6.66693 3.81027 6.88012 3.81027 7.14311C3.81027 7.40611 4.02347 7.6193 4.28646 7.6193ZM6.66741 7.14311C6.66741 7.40611 6.45422 7.6193 6.19123 7.6193C5.92823 7.6193 5.71503 7.40611 5.71503 7.14311C5.71503 6.88012 5.92823 6.66693 6.19123 6.66693C6.45422 6.66693 6.66741 6.88012 6.66741 7.14311ZM7.1436 8.57169C7.40662 8.57169 7.61976 8.35849 7.61976 8.0955C7.61976 7.83251 7.40662 7.6193 7.1436 7.6193C6.88061 7.6193 6.66741 7.83251 6.66741 8.0955C6.66741 8.35849 6.88061 8.57169 7.1436 8.57169ZM5.71503 8.0955C5.71503 8.35849 5.50183 8.57169 5.23884 8.57169C4.97585 8.57169 4.76265 8.35849 4.76265 8.0955C4.76265 7.83251 4.97585 7.6193 5.23884 7.6193C5.50183 7.6193 5.71503 7.83251 5.71503 8.0955ZM3.33408 8.57169C3.59707 8.57169 3.81027 8.35849 3.81027 8.0955C3.81027 7.83251 3.59707 7.6193 3.33408 7.6193C3.07109 7.6193 2.85789 7.83251 2.85789 8.0955C2.85789 8.35849 3.07109 8.57169 3.33408 8.57169ZM1.90551 8.0955C1.90551 8.35849 1.69231 8.57169 1.42932 8.57169C1.16632 8.57169 0.953125 8.35849 0.953125 8.0955C0.953125 7.83251 1.16632 7.6193 1.42932 7.6193C1.69231 7.6193 1.90551 7.83251 1.90551 8.0955Z" fill="url(#paint0_linear_3679_102662)"/>
</g>
</g>
</g>
<defs>
<filter id="filter0_d_3679_102662" x="0.953125" y="3.80978" width="6.66797" height="5.47619" filterUnits="userSpaceOnUse" color-interpolation-filters="sRGB">
<feFlood flood-opacity="0" result="BackgroundImageFix"/>
<feColorMatrix in="SourceAlpha" type="matrix" values="0 0 0 0 0 0 0 0 0 0 0 0 0 0 0 0 0 0 127 0" result="hardAlpha"/>
<feOffset dy="0.714286"/>
<feColorMatrix type="matrix" values="0 0 0 0 0 0 0 0 0 0 0 0 0 0 0 0 0 0 0.06 0"/>
<feBlend mode="normal" in2="BackgroundImageFix" result="effect1_dropShadow_3679_102662"/>
<feBlend mode="normal" in="SourceGraphic" in2="effect1_dropShadow_3679_102662" result="shape"/>
</filter>
<linearGradient id="paint0_linear_3679_102662" x1="0.953125" y1="3.80978" x2="0.953125" y2="8.57168" gradientUnits="userSpaceOnUse">
<stop stop-color="white"/>
<stop offset="1" stop-color="#F0F0F0"/>
</linearGradient>
</defs>
</svg>
